<svg viewBox="0 0 330 200" xmlns="http://www.w3.org/2000/svg"><g><g><g><g><g><line x1="58.59375" y1="177" x2="53.59375" y2="177" style="visibility: inherit;" fill="rgb(0, 0, 0)" stroke="rgb(204, 204, 204)" stroke-width="1px"></line><line x1="58.59375" y1="164.35714285714286" x2="53.59375" y2="164.35714285714286" style="visibility: inherit;" fill="rgb(0, 0, 0)" stroke="rgb(204, 204, 204)" stroke-width="1px"></line><line x1="58.59375" y1="151.71428571428572" x2="53.59375" y2="151.71428571428572" style="visibility: inherit;" fill="rgb(0, 0, 0)" stroke="rgb(204, 204, 204)" stroke-width="1px"></line><line x1="58.59375" y1="139.07142857142856" x2="53.59375" y2="139.07142857142856" style="visibility: inherit;" fill="rgb(0, 0, 0)" stroke="rgb(204, 204, 204)" stroke-width="1px"></line><line x1="58.59375" y1="126.42857142857142" x2="53.59375" y2="126.42857142857142" style="visibility: inherit;" fill="rgb(0, 0, 0)" stroke="rgb(204, 204, 204)" stroke-width="1px"></line><line x1="58.59375" y1="113.78571428571428" x2="53.59375" y2="113.78571428571428" style="visibility: inherit;" fill="rgb(0, 0, 0)" stroke="rgb(204, 204, 204)" stroke-width="1px"></line><line x1="58.59375" y1="101.14285714285714" x2="53.59375" y2="101.14285714285714" style="visibility: inherit;" fill="rgb(0, 0, 0)" stroke="rgb(204, 204, 204)" stroke-width="1px"></line><line x1="58.59375" y1="88.49999999999999" x2="53.59375" y2="88.49999999999999" style="visibility: inherit;" fill="rgb(0, 0, 0)" stroke="rgb(204, 204, 204)" stroke-width="1px"></line><line x1="58.59375" y1="75.85714285714285" x2="53.59375" y2="75.85714285714285" style="visibility: inherit;" fill="rgb(0, 0, 0)" stroke="rgb(204, 204, 204)" stroke-width="1px"></line><line x1="58.59375" y1="63.21428571428568" x2="53.59375" y2="63.21428571428568" style="visibility: inherit;" fill="rgb(0, 0, 0)" stroke="rgb(204, 204, 204)" stroke-width="1px"></line><line x1="58.59375" y1="50.571428571428555" x2="53.59375" y2="50.571428571428555" style="visibility: inherit;" fill="rgb(0, 0, 0)" stroke="rgb(204, 204, 204)" stroke-width="1px"></line><line x1="58.59375" y1="37.928571428571416" x2="53.59375" y2="37.928571428571416" style="visibility: inherit;" fill="rgb(0, 0, 0)" stroke="rgb(204, 204, 204)" stroke-width="1px"></line><line x1="58.59375" y1="25.28571428571425" x2="53.59375" y2="25.28571428571425" style="visibility: inherit;" fill="rgb(0, 0, 0)" stroke="rgb(204, 204, 204)" stroke-width="1px"></line><line x1="58.59375" y1="12.64285714285711" x2="53.59375" y2="12.64285714285711" style="visibility: inherit;" fill="rgb(0, 0, 0)" stroke="rgb(204, 204, 204)" stroke-width="1px"></line><line x1="58.59375" y1="0" x2="53.59375" y2="0" style="visibility: inherit;" fill="rgb(0, 0, 0)" stroke="rgb(204, 204, 204)" stroke-width="1px"></line></g><g transform="translate(48.59375, 0)"><text x="0" y="177" dx="0em" dy="0.3em" style="text-anchor: end; visibility: hidden; font-family: &quot;Helvetica Neue&quot;, sans-serif; font-size: 12px; font-weight: 200;" fill="rgb(50, 49, 63)" stroke="none" stroke-width="1px">-0.01</text><text x="0" y="164.35714285714286" dx="0em" dy="0.3em" style="text-anchor: end; visibility: inherit; font-family: &quot;Helvetica Neue&quot;, sans-serif; font-size: 12px; font-weight: 200;" fill="rgb(50, 49, 63)" stroke="none" stroke-width="1px">-5e-3</text><text x="0" y="151.71428571428572" dx="0em" dy="0.3em" style="text-anchor: end; visibility: hidden; font-family: &quot;Helvetica Neue&quot;, sans-serif; font-size: 12px; font-weight: 200;" fill="rgb(50, 49, 63)" stroke="none" stroke-width="1px">0</text><text x="0" y="139.07142857142856" dx="0em" dy="0.3em" style="text-anchor: end; visibility: inherit; font-family: &quot;Helvetica Neue&quot;, sans-serif; font-size: 12px; font-weight: 200;" fill="rgb(50, 49, 63)" stroke="none" stroke-width="1px">5e-3</text><text x="0" y="126.42857142857142" dx="0em" dy="0.3em" style="text-anchor: end; visibility: hidden; font-family: &quot;Helvetica Neue&quot;, sans-serif; font-size: 12px; font-weight: 200;" fill="rgb(50, 49, 63)" stroke="none" stroke-width="1px">0.01</text><text x="0" y="113.78571428571428" dx="0em" dy="0.3em" style="text-anchor: end; visibility: inherit; font-family: &quot;Helvetica Neue&quot;, sans-serif; font-size: 12px; font-weight: 200;" fill="rgb(50, 49, 63)" stroke="none" stroke-width="1px">0.015</text><text x="0" y="101.14285714285714" dx="0em" dy="0.3em" style="text-anchor: end; visibility: hidden; font-family: &quot;Helvetica Neue&quot;, sans-serif; font-size: 12px; font-weight: 200;" fill="rgb(50, 49, 63)" stroke="none" stroke-width="1px">0.02</text><text x="0" y="88.49999999999999" dx="0em" dy="0.3em" style="text-anchor: end; visibility: inherit; font-family: &quot;Helvetica Neue&quot;, sans-serif; font-size: 12px; font-weight: 200;" fill="rgb(50, 49, 63)" stroke="none" stroke-width="1px">0.025</text><text x="0" y="75.85714285714285" dx="0em" dy="0.3em" style="text-anchor: end; visibility: hidden; font-family: &quot;Helvetica Neue&quot;, sans-serif; font-size: 12px; font-weight: 200;" fill="rgb(50, 49, 63)" stroke="none" stroke-width="1px">0.03</text><text x="0" y="63.21428571428568" dx="0em" dy="0.3em" style="text-anchor: end; visibility: inherit; font-family: &quot;Helvetica Neue&quot;, sans-serif; font-size: 12px; font-weight: 200;" fill="rgb(50, 49, 63)" stroke="none" stroke-width="1px">0.035</text><text x="0" y="50.571428571428555" dx="0em" dy="0.3em" style="text-anchor: end; visibility: hidden; font-family: &quot;Helvetica Neue&quot;, sans-serif; font-size: 12px; font-weight: 200;" fill="rgb(50, 49, 63)" stroke="none" stroke-width="1px">0.04</text><text x="0" y="37.928571428571416" dx="0em" dy="0.3em" style="text-anchor: end; visibility: inherit; font-family: &quot;Helvetica Neue&quot;, sans-serif; font-size: 12px; font-weight: 200;" fill="rgb(50, 49, 63)" stroke="none" stroke-width="1px">0.045</text><text x="0" y="25.28571428571425" dx="0em" dy="0.3em" style="text-anchor: end; visibility: hidden; font-family: &quot;Helvetica Neue&quot;, sans-serif; font-size: 12px; font-weight: 200;" fill="rgb(50, 49, 63)" stroke="none" stroke-width="1px">0.05</text><text x="0" y="12.64285714285711" dx="0em" dy="0.3em" style="text-anchor: end; visibility: inherit; font-family: &quot;Helvetica Neue&quot;, sans-serif; font-size: 12px; font-weight: 200;" fill="rgb(50, 49, 63)" stroke="none" stroke-width="1px">0.055</text><text x="0" y="0" dx="0em" dy="0.3em" style="text-anchor: end; visibility: hidden; font-family: &quot;Helvetica Neue&quot;, sans-serif; font-size: 12px; font-weight: 200;" fill="rgb(50, 49, 63)" stroke="none" stroke-width="1px">0.06</text></g><line x1="58.59375" y1="0" x2="58.59375" y2="177" fill="rgb(0, 0, 0)" stroke="rgb(204, 204, 204)" stroke-width="1px"></line></g></g><g transform="translate(58, 0)" clip-path="url(#clip_0)"><clipPath id="clip_0"><rect width="271" height="177"></rect></clipPath><g><g><g><line x1="0" y1="0" x2="0" y2="177" fill="rgb(0, 0, 0)" stroke="rgb(60, 60, 60)" stroke-width="1px" opacity="0.25"></line><line x1="33.92578125" y1="0" x2="33.92578125" y2="177" fill="rgb(0, 0, 0)" stroke="rgb(60, 60, 60)" stroke-width="1px" opacity="0.25"></line><line x1="67.8515625" y1="0" x2="67.8515625" y2="177" fill="rgb(0, 0, 0)" stroke="rgb(60, 60, 60)" stroke-width="1px" opacity="0.25"></line><line x1="101.77734375" y1="0" x2="101.77734375" y2="177" fill="rgb(0, 0, 0)" stroke="rgb(60, 60, 60)" stroke-width="1px" opacity="0.25"></line><line x1="135.703125" y1="0" x2="135.703125" y2="177" fill="rgb(0, 0, 0)" stroke="rgb(60, 60, 60)" stroke-width="1px" opacity="0.25"></line><line x1="169.62890625" y1="0" x2="169.62890625" y2="177" fill="rgb(0, 0, 0)" stroke="rgb(60, 60, 60)" stroke-width="1px" opacity="0.25"></line><line x1="203.5546875" y1="0" x2="203.5546875" y2="177" fill="rgb(0, 0, 0)" stroke="rgb(60, 60, 60)" stroke-width="1px" opacity="0.25"></line><line x1="237.48046875" y1="0" x2="237.48046875" y2="177" fill="rgb(0, 0, 0)" stroke="rgb(60, 60, 60)" stroke-width="1px" opacity="0.25"></line><line x1="271.40625" y1="0" x2="271.40625" y2="177" fill="rgb(0, 0, 0)" stroke="rgb(60, 60, 60)" stroke-width="1px" opacity="0.25"></line></g><g><line x1="0" y1="177" x2="271.40625" y2="177" fill="rgb(0, 0, 0)" stroke="rgb(60, 60, 60)" stroke-width="1px" opacity="0.25"></line><line x1="0" y1="164.35714285714286" x2="271.40625" y2="164.35714285714286" fill="rgb(0, 0, 0)" stroke="rgb(60, 60, 60)" stroke-width="1px" opacity="0.25"></line><line x1="0" y1="151.71428571428572" x2="271.40625" y2="151.71428571428572" fill="rgb(0, 0, 0)" stroke="rgb(60, 60, 60)" stroke-width="1px" opacity="0.25"></line><line x1="0" y1="139.07142857142856" x2="271.40625" y2="139.07142857142856" fill="rgb(0, 0, 0)" stroke="rgb(60, 60, 60)" stroke-width="1px" opacity="0.25"></line><line x1="0" y1="126.42857142857142" x2="271.40625" y2="126.42857142857142" fill="rgb(0, 0, 0)" stroke="rgb(60, 60, 60)" stroke-width="1px" opacity="0.25"></line><line x1="0" y1="113.78571428571428" x2="271.40625" y2="113.78571428571428" fill="rgb(0, 0, 0)" stroke="rgb(60, 60, 60)" stroke-width="1px" opacity="0.25"></line><line x1="0" y1="101.14285714285714" x2="271.40625" y2="101.14285714285714" fill="rgb(0, 0, 0)" stroke="rgb(60, 60, 60)" stroke-width="1px" opacity="0.25"></line><line x1="0" y1="88.49999999999999" x2="271.40625" y2="88.49999999999999" fill="rgb(0, 0, 0)" stroke="rgb(60, 60, 60)" stroke-width="1px" opacity="0.25"></line><line x1="0" y1="75.85714285714285" x2="271.40625" y2="75.85714285714285" fill="rgb(0, 0, 0)" stroke="rgb(60, 60, 60)" stroke-width="1px" opacity="0.25"></line><line x1="0" y1="63.21428571428568" x2="271.40625" y2="63.21428571428568" fill="rgb(0, 0, 0)" stroke="rgb(60, 60, 60)" stroke-width="1px" opacity="0.25"></line><line x1="0" y1="50.571428571428555" x2="271.40625" y2="50.571428571428555" fill="rgb(0, 0, 0)" stroke="rgb(60, 60, 60)" stroke-width="1px" opacity="0.25"></line><line x1="0" y1="37.928571428571416" x2="271.40625" y2="37.928571428571416" fill="rgb(0, 0, 0)" stroke="rgb(60, 60, 60)" stroke-width="1px" opacity="0.25"></line><line x1="0" y1="25.28571428571425" x2="271.40625" y2="25.28571428571425" fill="rgb(0, 0, 0)" stroke="rgb(60, 60, 60)" stroke-width="1px" opacity="0.25"></line><line x1="0" y1="12.64285714285711" x2="271.40625" y2="12.64285714285711" fill="rgb(0, 0, 0)" stroke="rgb(60, 60, 60)" stroke-width="1px" opacity="0.25"></line><line x1="0" y1="0" x2="271.40625" y2="0" fill="rgb(0, 0, 0)" stroke="rgb(60, 60, 60)" stroke-width="1px" opacity="0.25"></line></g></g></g><g><g><line x1="0" y1="151.71428571428572" x2="271.40625" y2="151.71428571428572" fill="rgb(0, 0, 0)" stroke="rgb(153, 153, 153)" stroke-width="1.5px"></line></g></g><g><g><line x1="33.92578125" y1="0" x2="33.92578125" y2="177" fill="rgb(0, 0, 0)" stroke="rgb(153, 153, 153)" stroke-width="1.5px"></line></g></g><g><g><g><g><g><path stroke="rgb(255, 112, 67)" stroke-width="2px" d="M44.7141796875,-2.6246842292620443L45.121289062500004,0.10186815737600341L45.3926953125,3.344390869150942L45.6641015625,7.9628128874055335L46.206914062500005,8.804402694365194L46.342617187500004,10.607499122416812L46.681875,13.067747512819068L48.174609374999996,16.556158784975622L48.2424609375,21.77652976752566L48.785273437499995,23.87819982077454L48.853125,28.51978688883466L48.9209765625,26.01903109816874L48.988828125,27.878175651583888L49.531640625,29.46971706057346L49.5994921875,36.93350066332869L49.66734375,30.80779664015799L50.0066015625,35.46966862173841L50.5494140625,37.31430567029878L50.617265625,37.14343500568722L51.29578125,38.749684619086L51.3636328125,43.82852326718742L51.431484375000004,40.842216052510366L51.702890625,44.75947069655879L51.906445312500004,43.487578886506526L51.974296875,46.446306980874084L52.11,49.220099663783955L52.3135546875,50.225409587992004L52.4492578125,51.268068017739L52.788515625,47.24457728992576L52.992070312500005,50.00760478199781L53.195625,51.47703932859966L53.331328125,54.83258604830439L53.5348828125,54.391112324835206L53.602734375000004,51.08432513992183L53.7384375,52.99211077659585L53.8062890625,53.71121687325818L53.8062890625,54.14268053125558L54.00984375,54.99595450832037L54.3491015625,56.56885549452912L54.959765625,56.592536192441884L55.027617187500006,56.93521955005903L55.434726562499996,58.436360978014164L55.63828125,56.67519235955716L55.706132812499995,56.771815839349614L55.773984375,57.77381344272203L55.841835937499994,58.871198384620925L55.9096875,60.91141849761411L56.316796874999994,60.78058108094454L56.4525,62.96736807808011L56.588203125,64.0165525643256L56.656054687499996,63.93073407733088L56.791757812499995,59.42457150005062L56.9274609375,58.962602940695035L56.9274609375,58.6854218050817L57.0631640625,55.949233234225446L57.266718749999995,51.4738142917915L58.1487890625,56.81771755058888L58.2844921875,61.18017237686708L58.4201953125,62.464171458248714L58.4201953125,63.23457090707768L58.6916015625,60.032900928229125L58.9630078125,61.140418435112935L59.0987109375,59.261032247103444L59.2344140625,60.86606349731345L59.43796875,61.46988413699526L59.573671875,63.98549255454235L59.845078125,62.66571468971952L59.98078125,63.01806192401432L60.0486328125,65.0887609495637L60.0486328125,66.33118036489333L60.116484375,66.68041086171738L60.1843359375,62.84033070276695L60.387890625000004,63.15210030751024L60.52359375,64.79462051556463L60.5914453125,64.67721072023399L60.795,64.03996113649181L60.795,63.65761138624649L60.862851562500005,65.04706098470253L60.998554687500004,68.21534890773648L61.1342578125,69.74374763020386L61.2699609375,71.08127871874363L61.3378125,69.5475458384103L61.3378125,68.62730611021028L62.15203125,66.7059653304159L62.287734375,68.2715812956859L63.37335937500001,68.06840985373927L63.5769140625,68.49845777110876L63.644765625,65.95191385413608L63.84832031249999,66.61385182862435L64.11972656249999,68.24031072708085L64.32328125,67.20922521434919L64.458984375,69.79693097921682L64.6625390625,70.62018807817128L64.730390625,66.81680559313328L64.9339453125,70.48044453550426L65.001796875,70.14101600768167L65.4767578125,68.11436028212648L65.544609375,72.11082004607779L65.8838671875,63.79345289699302L65.95171875,66.41847941775362L66.29097656249999,70.80832035839103L66.4266796875,69.39490863127095L66.5623828125,71.0581191561887L66.8337890625,70.23056572314573L66.901640625,70.60251525253507L67.1051953125,67.8548364183504L67.1051953125,66.2062291178396L67.30875,68.08084940410538L67.715859375,71.46639712067858L67.9194140625,68.28091689934635L67.987265625,66.61447594074875L68.32652343749999,68.75417737838139L68.394375,73.08588079361877L68.66578125,75.62174588888145L69.072890625,77.93472760587485L69.344296875,78.23309874422795L69.75140625,76.64652247446955L69.95496093749999,77.07345518472131L70.0906640625,77.43769601968046L70.158515625,80.2627836209619L70.29421875,79.35465966884227L70.429921875,80.29440136642756L70.4977734375,72.3903785103053L70.6334765625,77.0625935407573L70.701328125,77.6845717254252L70.972734375,78.48114044377458L71.17628906249999,79.33709650326182L71.3119921875,78.30170647086318L71.37984375,78.09013923020984L71.7191015625,80.02330170621427L71.85480468749999,74.65897131293981L72.32976562500001,76.85461805659514L73.07613281249999,79.80102371555215L73.143984375,79.07218930352714L73.27968750000001,81.34156465411432L73.27968750000001,82.70318986446664L73.34753906249999,78.34958407563568L73.95820312500001,76.37804432083728L74.3653125,79.28310521082106L74.3653125,81.02614174481133L74.5688671875,81.93561028103427L74.63671875,82.02764798711263L74.8402734375,82.90791436780663L75.72234375000001,82.47599580777047L75.7901953125,84.64799365422257L76.12945312500001,80.6945722487551L76.4687109375,81.38092937306737L76.6044140625,79.1952641467139L76.672265625,81.85735752258294L77.35078125,83.34484056789121L77.5543359375,84.04457207118536L77.8257421875,85.3459500986895L78.029296875,80.91573666529932L78.36855468750001,85.12504000747167L78.572109375,86.75573710925896L78.6399609375,82.77808089621803L78.9113671875,83.22084673598457L79.0470703125,80.68738755710238L79.114921875,82.3145419000653L79.250625,80.17657724255726L79.250625,78.89379844805244L79.8612890625,80.62768910032041L80.4041015625,84.35648939772221L80.8790625,84.64466429211957L81.014765625,86.92765466290528L81.014765625,88.29744888537671L81.0826171875,82.64258582707375L81.15046875,80.03547885436063L81.8968359375,82.09516422614686L82.0325390625,84.06036064850997L82.1682421875,82.81160567811044L82.3039453125,83.29516799558604L82.371796875,79.0946281826205L82.5075,78.06860942866076L82.643203125,83.42485515567209L82.77890624999999,86.82224645022647L83.593125,87.22242857697069L83.66097656250001,82.79413422327144L84.000234375,86.995127904131L84.271640625,87.122104949951L84.33949218750001,89.12461218156122L84.40734375,86.99267124399452L84.4751953125,86.62745133029932L84.814453125,87.4503375316625L85.085859375,88.5945949203181L85.5608203125,85.35196316689127L85.628671875,84.99108409894288L85.69652343749999,88.40312373220023L86.5107421875,88.5273535328709L86.57859375,89.77891593527129L86.64644531249999,84.45202142507631L87.12140625,85.75182374594517L87.12140625,86.53170513846646L87.4606640625,89.07724794717107L87.66421875,87.7165936204368L87.79992187500001,91.19755849206463L88.07132812500001,91.39738767721663L88.342734375,92.06936973005436L88.342734375,92.472558961757L88.5462890625,94.51902364238124L88.81769531249999,91.49397187982979L89.08910156249999,90.52267507390029L89.156953125,85.89210406391189L89.29265625000001,87.25098089332117L89.428359375,89.30920509754175L89.5640625,89.76706266897907L89.699765625,89.90694416121578L89.83546875,91.9389986956899L89.97117187500001,90.85310809998421L90.24257812500001,93.40944172895036L90.513984375,88.87626517388868L90.6496875,91.52417281952546L90.7175390625,90.55646242057367L90.9889453125,92.23355410353251L91.26035156249999,90.29644148519324L91.3960546875,92.77143722073929L91.46390625000001,89.77259801760475L91.46390625000001,87.97329449572403L91.5317578125,91.6826104525393L91.6674609375,92.00617798418368L91.87101562500001,92.68070622491322L92.21027343749999,94.39085653207334L92.54953125,96.71172832461035L92.68523437500001,96.52199299257384L92.7530859375,93.94842920631146L92.82093750000001,91.747293958502L93.0244921875,91.26350650242898L93.09234375000001,92.03846599490603L93.1601953125,91.60956092291057L93.1601953125,91.35221787971331L93.36375,92.03944572063386L93.8387109375,90.03428064990443L94.1101171875,91.60632348099675L94.313671875,91.20551780741154L94.585078125,93.06223939075227L94.585078125,94.17627234075673L94.9243359375,95.2630645417311L95.12789062499999,94.22971354196724L95.535,93.74517464585969L95.8742578125,91.07051555866434L96.0099609375,93.26921408294015L96.34921874999999,95.07255298957536L96.484921875,93.54671143587755L96.62062499999999,92.97360558780117L96.756328125,90.81239715159329L97.2312890625,93.13792233814745L97.29914062499999,94.29121052286423L97.50269531250001,94.51852843244568L97.57054687499999,94.19492502600625L97.57054687499999,94.00076298214259L98.72402343750001,93.90237599916189L98.927578125,92.37414207641439L99.198984375,92.6662191868587L99.40253906250001,93.52162161167472L99.5382421875,91.78304373696196L99.60609375,90.67546275200438L99.67394531250001,94.03988471762959L99.8775,93.90534997067822L99.94535156250001,91.50954922273652L100.013203125,95.10987577663512L100.14890625,95.17156304017695L100.62386718750001,95.60992649893414L100.69171874999999,95.03759570624415L101.098828125,95.83778383428871L101.16667968750001,97.94227984987424L101.16667968750001,99.20497745922556L101.641640625,95.47938296203907L101.77734375,95.87598926555741L101.913046875,93.49689760388765L102.04875,94.30438001715527L102.184453125,93.88321223543687L102.32015625,95.61384978831343L102.5915625,95.74856452310402L102.65941406249999,98.40624945559692L102.7951171875,97.04180716479686L102.86296875000001,99.23219649368872L102.998671875,95.80408964550533L103.134375,97.86464672512008L103.81289062500001,97.08415961826132L104.22,95.02342440737145L104.22,93.78698328083753L104.355703125,93.7478555786797L104.355703125,93.72437895738499L104.4235546875,96.49121853098181L104.49140625,97.22787883851727L104.627109375,99.90776267163805L104.76281250000001,96.6172555289864L104.9663671875,91.78099775923486L105.03421875000001,94.24839803601365L105.5091796875,94.023577840137L105.6448828125,95.12353378551794L105.9162890625,96.49231812496112L105.9162890625,97.31358872862705L106.526953125,100.90371701511683L106.66265625,99.40324183170334L106.66265625,98.50295672165525L106.798359375,98.27599320533464L106.8662109375,99.0130969448244L107.069765625,99.1772945160822L107.341171875,99.37597421532095L107.476875,97.05008629992736L107.5447265625,93.55168546203709L107.612578125,93.19635073223077L107.74828125,93.44005816506363L108.0875390625,97.26034666920485L108.15539062500001,91.76895082318225L108.22324218749999,96.19286368171154L108.29109375,96.69491080272064L108.42679687500001,98.12402121747822L108.4946484375,98.04402757174375L108.7660546875,97.75363520631298L108.9017578125,99.8983643556865L109.37671875000001,96.43140143825856L109.512421875,99.29905407319727L109.5802734375,96.76702216423566L109.78382812500001,98.06961555276521L109.78382812500001,98.85117158588295L109.8516796875,99.0206315241334L109.9873828125,101.34333017174293L110.05523437500001,99.09951273196701L110.1230859375,99.92431320518796L110.1230859375,100.41919348912052L110.3944921875,98.4429667940619L110.46234374999999,95.73484751289381L110.6658984375,97.33196400483767L111.2765625,97.89410506032385L111.6158203125,98.69363702910061L111.819375,97.6142249584525L112.0229296875,97.88905846316732L112.1586328125,98.33727375837208L112.226484375,94.38397481288594L112.5657421875,98.71167019241415L112.63359374999999,100.04705488224842L112.7014453125,100.41375665986548L113.1085546875,99.16638080083307L113.4478125,100.69977247256962L113.7870703125,97.45752420193169L114.3298828125,94.3867422096759L114.940546875,97.76895293567699L115.0083984375,95.74322388497322L115.07625,94.89376483814316L115.34765625,94.53364162546802L115.41550781250001,95.47986740326614L115.5512109375,97.45258699501422L115.89046875,98.98889468611483L116.161875,98.69024143773184L116.161875,98.51104948870203L116.568984375,98.24468112899832L116.840390625,97.93680939197354L117.0439453125,98.7267878224498L117.0439453125,99.20077488073554L117.111796875,99.53287582290336L117.1796484375,98.36206153277426L117.383203125,98.17129424615169L118.197421875,96.2185716440203L118.26527343750001,97.2711766402164L118.60453125,95.1833960778515L118.6723828125,96.89222821907488L118.8080859375,97.19201943764857L118.8080859375,97.3718941687928L119.283046875,94.72634047402401L119.4866015625,95.9007214596733L119.69015625,98.05940496654215L119.7580078125,97.50159034526034L119.82585937500001,98.98489080477593L119.89371093749999,99.02726911541554L120.3008203125,95.34291458066626L120.4365234375,97.18893231370984L120.504375,96.69312421588604L120.640078125,98.74570953570054L120.911484375,101.67844425955475L120.9793359375,97.85131710957921L121.31859375,98.31939152763576L121.3864453125,98.60856692808358L121.79355468749999,98.3290466825642L121.79355468749999,98.16133453525258L121.86140625,96.77812033384193L121.99710937500001,98.1964222511428L122.1328125,98.50705764332365L122.3363671875,99.20926713898578L122.8791796875,100.63631514198744L123.082734375,97.86669161652681L123.1505859375,94.9911393396736L123.4219921875,94.98829124662504L123.625546875,96.43749867469292L123.8291015625,98.80928976419273L123.96480468749999,97.40875649629227L124.6433203125,98.83150105838038L124.7790234375,96.19452979662454L124.84687500000001,99.4774181531915L124.982578125,100.7293050545398L125.18613281249999,96.84662633457869L125.5932421875,98.69396879096851L125.8646484375,96.22241264985303L126.33960937500001,97.91054056188388L126.74671875000001,97.60377909516134L126.882421875,96.59349534845681L127.0859765625,96.16301687960481L127.3573828125,92.89617810490523L127.3573828125,90.93607484008547L127.42523437499999,96.66199748979274L127.42523437499999,100.09755107961709L127.7644921875,99.5177417124325L128.510859375,98.37534711339727L128.5787109375,98.18173354612979L128.5787109375,98.06556540576929L128.8501171875,100.22323417488013L129.18937499999998,101.6051180301078L129.2572265625,98.28112286555574L129.6643359375,97.88753337399844L129.73218749999998,98.62799145933285L129.8000390625,97.00020240255259L129.867890625,94.90143991883859L129.9357421875,96.48353699457122L130.00359375,98.34215816496126L130.6142578125,98.82777713619657L130.8856640625,98.48151836921565L131.29277343750002,101.02892776208992L131.360625,101.32987455567728L131.63203124999998,101.9473303516312L131.63203124999998,102.31780382920354L131.8355859375,102.02201400782666L131.9712890625,99.67852072426422L132.17484375,98.47900737486668L132.24269531250002,98.15952952600948L132.310546875,99.7501974653193L132.853359375,98.11501240523303L132.9212109375,96.5862949350404L132.9890625,100.00946977872924L132.9890625,102.06337468494257L133.396171875,99.35082886447647L134.0068359375,100.28796653646313L134.5496484375,99.86041215307932L134.8210546875,98.48662652818811L134.8210546875,97.66235515325339L134.9567578125,95.54907040676346L135.4995703125,97.631360817097L135.63527343750002,100.33454506754845L135.77097656249998,94.45522975250634L135.838828125,97.15391321035102L135.9066796875,99.57442949232299L135.97453125,101.9448944995385L136.0423828125,101.09954421253775L136.17808593750001,97.88794513661728L136.2459375,97.51546174571637L136.5851953125,99.18238307748527L136.7208984375,98.08842053839142L136.9923046875,96.89888445930822L137.06015625,99.67492927336694L137.1280078125,100.82985408184187L137.3994140625,100.43103992729594L137.87437500000001,100.62417988608945L137.9422265625,98.0706407452606L138.01007812499998,100.12207718683038L138.07792968750002,96.45424916229015L138.6207421875,95.38687717077525L139.0278515625,96.7924461416702L139.8420703125,97.50191527916792L140.31703125,96.86524156050734L140.3848828125,99.43383172258136L140.5884375,102.11956525592359L140.5884375,103.73100537592893L140.6562890625,102.33951750205506L140.7919921875,99.90423163571174L140.9276953125,99.28612557146165L141.0633984375,99.79784098919163L141.13125,98.22916861865477L141.67406250000002,99.81330515312713L142.081171875,100.34314450414941L142.2847265625,99.67460597459227L142.35257812499998,100.89187697412818L142.5561328125,96.84782517713796L142.6918359375,94.64064993376172L143.5060546875,98.09550481047158L143.57390625,98.95307779485964L143.8453125,97.25060979317331L143.9131640625,95.19656253204595L143.981015625,96.17563358112825L144.0488671875,97.77433539386526L144.0488671875,98.73355648150745L144.7273828125,100.27602126906166L144.9309375,99.12481871500096L145.20234375,99.24023190888454L145.2701953125,99.7391181726701L145.338046875,95.69445948154694L145.609453125,95.67681833714822L146.01656250000002,95.03204921337031L146.0844140625,96.12449300218006L146.28796875,96.81730635378928L146.55937500000002,93.9977810978031L146.7629296875,92.49949683201271L146.83078125,95.01111481799713L146.966484375,96.36456018047521L147.1700390625,93.88191954195406L147.37359375,92.53421788496574L147.780703125,92.65432475812062L147.91640625000002,94.09057644831093L148.39136718749998,95.91963449996597L148.45921875000002,96.3397145800703L148.5270703125,95.88977169164923L148.59492187499998,94.68466330101009L148.7984765625,91.8237568546273L149.3412890625,92.64076312152457L149.54484375,94.05853236264448L150.15550781250002,95.1849206194922L150.29121093749998,92.97415636811522L150.35906250000002,95.77868897177243L150.5626171875,93.97763486181178L150.766171875,95.81461855030173L150.90187500000002,93.82638701438289L150.9697265625,95.70964615130056L151.17328125,95.50571712177599L151.2411328125,97.33559985182221L151.44468750000001,97.3428267560267L151.6482421875,97.37880354526251L151.851796875,99.63261416624125L151.9875,94.06623182381131L152.19105468749999,97.13156764574951L152.5303125,97.84342768539423L152.59816406250002,98.23649351277184L152.937421875,98.7975581644668L153.07312499999998,102.32211786432654L153.14097656250001,103.05565985906561L153.2766796875,102.31930499041002L153.8194921875,102.65740999055542L153.88734374999999,101.50895079954051L154.0908984375,98.7240361485184L154.2266015625,101.68214882478632L154.294453125,101.92352738419484L154.7694140625,101.00034940504617L155.17652343749998,99.77195521196732L155.380078125,102.30378088185365L155.7871875,103.45374608108335L155.7871875,104.14372520062118L155.9907421875,100.61764865933955L156.05859375,101.75151693329957L156.5335546875,100.5004265078819L156.6692578125,101.38311725839898L156.73710937500002,98.04231479712423L156.8049609375,99.94253403598637L156.87281249999998,101.88013233208827L157.008515625,103.92796062167133L157.551328125,102.59164767150325L157.9584375,102.28269288138806L157.9584375,102.09732000731896L158.1619921875,104.2284676908802L158.4333984375,104.48288102793231L159.2476171875,106.0046204728167L159.451171875,104.42167585165129L159.5190234375,102.14637415621601L160.19753906250003,103.95191562780097L160.3332421875,103.68791602446223L160.4689453125,102.25783355087475L160.4689453125,101.39978406672225L160.536796875,101.0856741989611L160.74035156250002,102.1787609123733L160.808203125,102.45076922471885L160.8760546875,105.07221979606913L161.21531249999998,101.2037787007105L161.4188671875,101.00269389125008L161.62242187500001,103.54661687936621L161.893828125,102.89341145846133L162.02953125,105.53626800788315L162.165234375,105.94976332740282L162.57234375,105.0670808887431L162.6401953125,102.16786675071413L162.7758984375,104.37853030214126L163.1830078125,104.14545618929684L163.31871093750001,104.41386931884931L163.45441406249998,103.3526933655062L163.52226562500002,101.78364842750713L163.8615234375,101.68221045845456L163.929375,103.83625323278217L163.99722656249997,104.70074362492353L164.4721875,100.47474626690195L165.015,101.19736958693632L165.150703125,102.25650337300826L165.42210937500002,101.53755861668493L166.236328125,101.33035147406453L166.3041796875,102.93188835256828L166.3041796875,103.89281047967053L166.5755859375,104.08353437535152L166.91484375,98.50377512818174L167.18625,101.67373455245085L167.3898046875,101.61185373131846L167.5255078125,102.63830311200525L167.9326171875,103.23771282196941L168.136171875,102.77604884516028L168.3397265625,99.3399442981616L168.950390625,100.70048644335395L169.08609375,102.22131583293786L169.4253515625,102.03468955448999L169.62890625,103.35241699111644L169.764609375,97.58534997722529L169.9003125,97.53436825798849L169.9681640625,99.28825895095576L170.307421875,101.19565758852701L170.3752734375,101.05563157732126L170.71453125,102.2181990491866L170.7823828125,98.81809586740079L170.85023437499999,98.61980030297875L171.0537890625,98.35679443905819L171.1894921875,99.95557337242406L171.1894921875,100.91484073244358L171.25734375,103.34261766680629L171.46089843750002,103.32138586194162L172.207265625,103.3522447454554L172.750078125,100.08420587951247L172.9536328125,100.29676435898043L172.9536328125,100.4242994466612L173.021484375,102.26262521193983L173.29289062499998,102.96418102564635L175.26058593750003,102.78002364667445L175.73554687499998,103.50184307194209L175.80339843750002,103.73751743808404L176.14265625000002,105.39068182640851L176.2105078125,102.97204089619012L176.27835937499998,104.73118285639033L176.34621093750002,104.53799378882186L176.4140625,100.82696249618901L176.4819140625,101.39112600193995L176.549765625,102.0991970322354L177.2961328125,101.59407780726265L177.4996875,101.52144889841468L177.5675390625,101.55034455330878L177.70324218750002,101.8798401455385L177.8389453125,99.7706658951054L178.2460546875,103.23726450103752L178.51746093749998,102.78884304071121L178.6531640625,103.519125938869L178.6531640625,103.95729567776368L178.992421875,103.77846809471652L179.1959765625,103.61462719416194L179.7387890625,102.64840812830329L179.94234375000002,104.4475842224167L180.07804687499998,101.52733157997679L180.349453125,98.74887949396667L180.41730468749998,99.14775125357635L180.7565625,98.35818905337526L180.892265625,99.73716372585903L181.0958203125,97.36450828259014L181.2315234375,100.81112173030526L181.435078125,99.75821616463001L181.77433593749998,102.4602440220841L181.977890625,103.99277838093126L182.11359375,104.0279546951861L182.4528515625,103.04511284257065L182.92781250000002,105.13734769478495L183.19921875,103.08218585983802L183.2670703125,104.9623324664586L183.334921875,103.87776617403603L183.4027734375,104.20720069525109L183.5384765625,106.21493623973832L183.5384765625,107.41957756643068L184.21699218749998,108.30985526727949L184.21699218749998,108.84402188778876L184.28484375000002,108.52400740968048L184.4883984375,105.23018860170501L184.62410156250002,104.57513498957225L185.506171875,103.26776254761805L185.7097265625,105.30147983186598L185.8454296875,101.18432590184217L185.9811328125,104.14712538440162L186.2525390625,102.16314947080096L186.320390625,103.7423180523092L186.863203125,104.03240776000722L186.9310546875,104.03863899160122L187.54171874999997,103.28908354362494L187.6095703125,102.7758410255777L187.677421875,103.32480410647963L187.948828125,100.9781010213818L188.0166796875,103.88394930655002L188.2880859375,105.44667988066986L188.35593749999998,104.29442666370171L188.35593749999998,103.60307473352081L188.8308984375,105.18497395036364L188.89874999999998,105.00050795131428L189.2380078125,105.40095431666248L189.305859375,104.39569971129274L189.71296875,105.7829273097471L189.7808203125,103.19334912103662L189.848671875,102.94223227893943L189.9165234375,103.23723655476692L190.32363281250002,102.62974889469288L190.934296875,103.43639353151406L191.40925781250002,105.76537571859956L191.6128125,106.17546381745014L191.88421875,106.78029090238718L192.155625,104.68027318461601L192.291328125,105.41011918238831L192.4948828125,105.78001681699432L192.56273437500002,103.14928781700009L192.56273437500002,101.57085041700356L192.90199218749999,104.55139354423953L193.648359375,102.98275513043907L193.7840625,104.09449146784743L193.9876171875,105.05752356067879L194.191171875,102.89607855380355L194.5304296875,104.64249919091415L194.66613281250002,105.5589491636781L194.8696875,106.04591275648215L195.00539062500002,106.33208305135078L195.0732421875,106.44049074731807L195.3446484375,102.74283417921215L195.4125,105.51109063414731L195.48035156249998,105.45868135138578L195.54820312500001,105.64417249561173L195.6160546875,106.65928569368444L195.68390625,100.41963342813376L195.68390625,96.67584206880338L195.9553125,97.94664131662542L196.02316406249997,98.93598967145941L196.091015625,102.09370620459951L196.091015625,103.98833612448357L196.1588671875,102.38050321334147L196.22671875,104.52656415118047L196.29457031249999,104.4968081475095L196.362421875,105.80271291967435L196.5659765625,106.25191239429662L196.76953125,106.43800212731706L196.83738281249998,106.056766469168L196.90523437500002,106.34899458648573L197.58374999999998,106.77755271113998L197.6516015625,108.49047948719739L197.85515625,109.77912818032652L198.1265625,107.72332707938727L198.533671875,107.5103519429311L199.14433593750002,104.15972349504754L199.2121875,105.00113232665477L199.755,106.802483032118L199.89070312500002,106.90270469357245L199.9585546875,107.45603050154251L199.9585546875,107.78802598632456L200.6370703125,103.87594182475938L201.4512890625,101.03270087692715L201.519140625,102.01104553586673L201.9941015625,102.01116778793082L202.2655078125,104.6527820539432L202.5369140625,104.07284651086755L202.5369140625,103.72488518502217L202.6726171875,103.4586974298284L202.74046875,104.95451120399814L202.74046875,105.85199946849998L203.2154296875,104.78076063166871L203.48683593750002,105.09012856738543L204.233203125,104.9907932312126L204.4367578125,103.75140566243313L204.5724609375,104.9788752013403L204.77601562499999,95.90962378891624L205.2509765625,99.01589302845188L205.31882812499998,101.3821709653239L205.31882812499998,102.8019377274471L205.590234375,104.37302670378429L206.2008984375,102.70008469351069L206.7437109375,104.67035565299268L206.947265625,105.00917960291022L207.1508203125,100.33397418822084L207.1508203125,97.5288509394072L207.354375,95.88258149587594L207.82933593750002,99.1037134779729L207.8971875,99.91723878445507L208.1007421875,103.62279798374513L208.16859375,106.0020892053856L208.9828125,104.53064596576431L209.118515625,103.73653019918763L209.5934765625,103.50403376875293L209.72917968750002,101.80697962616667L210.33984375,103.88370728307407L210.61125,103.8834584599683L210.746953125,103.54986252930884L211.3576171875,106.19105953687419L211.4933203125,107.72094588534995L211.4933203125,108.63887769443541L211.56117187499999,104.8265677458382L211.62902343750002,104.4537338543309L211.696875,105.58504068254243L211.832578125,102.9181998791794L211.832578125,101.31809539716158L212.2396875,103.80021103394458L212.44324218749998,106.2010663813412L212.5789453125,104.64220453170724L213.3253125,105.51007648031585L213.80027343749998,105.18968029622069L214.0716796875,106.0483491289844L214.34308593749998,103.79926754217155L214.68234375,103.12588849899228L214.7501953125,105.89390796649404L215.22515625,106.52087776456189L215.360859375,107.12970835452198L215.70011718749998,106.55149185478213L215.76796875000002,105.72067200263622L215.8358203125,105.20886068841558L216.44648437499998,104.31954266991374L216.5821875,106.04863582727151L216.717890625,106.29974959044614L216.989296875,105.7444781893004L217.1928515625,107.64293138584547L217.260703125,106.45396760004535L217.3285546875,108.10399021360227L217.5999609375,106.23859507915859L217.803515625,108.0980776203891L217.93921875,108.43799010747281L218.4141796875,108.54399194788527L218.48203125,102.63816446176695L218.54988281250002,103.85937446251995L218.68558593749998,104.70333349088976L219.02484375,105.61079249012558L219.2283984375,104.02251686334321L219.6355078125,105.69554053907561L219.974765625,106.56257935945884L220.1783203125,104.00054209836284L220.1783203125,102.46331974170523L220.3140234375,102.30323861378723L220.517578125,101.8366260616848L220.7211328125,103.26174557057519L220.92468749999998,104.4381068961386L220.99253906250001,106.68083961108708L221.060390625,103.79959026838685L221.46749999999997,104.45173009340883L221.603203125,103.87496656539987L221.874609375,106.57276503745203L222.0103125,107.78537753694772L222.146015625,107.5229968980505L222.34957031250002,107.27838200150964L222.48527343749998,108.8168792496692L222.7566796875,109.9223384988648L222.89238281250002,108.87547053334029L222.960234375,109.31806584771905L223.02808593749998,106.46466724534973L223.0959375,105.79150006619606L223.36734374999997,104.92075374393174L223.4351953125,101.9075549948893L223.4351953125,100.09963574546381L223.63875,101.37612986203996L224.045859375,104.83267383188756L224.24941406250002,105.77040804528787L224.5208203125,107.0222513758499L224.58867187500002,102.43688678088792L224.92792968749998,103.65160219831215L224.99578125,106.33576312979683L225.4707421875,105.64405081590957L225.8778515625,106.35897601157139L225.945703125,107.72475613829745L226.08140625,107.79894239241803L226.14925781250003,109.63804022541596L226.48851562500002,109.05565531381255L226.5563671875,107.70280234285592L226.82777343749999,106.15821443402663L227.302734375,108.75692490367145L227.70984375,109.41826140956908L227.98125,109.96610195129072L228.04910156250003,109.60759102261295L228.1848046875,106.24022074741433L228.659765625,105.03631377681337L229.06687499999998,105.46492237427378L229.2704296875,107.89728921060035L229.5418359375,109.13572402752285L229.88109375,109.17117421047851L229.94894531249997,109.98182146678546L230.1525,106.66167517688551L230.288203125,108.04310015636405L230.4917578125,108.66334541191718L230.559609375,109.79841176343851L230.8988671875,107.00116391370148L230.96671874999998,105.66038388501418L231.50953124999998,107.23416402504758L231.645234375,108.3768817931085L231.84878906249997,107.47047832052779L232.188046875,108.07401519680543L232.2558984375,106.31869513192488L232.66300781249998,103.8250106077458L232.7987109375,105.10247418333341L232.8665625,107.27112751036435L233.07011718750002,105.95658469950033L233.40937499999998,105.67514552327914L233.68078125,108.3639570909487L233.74863281249998,109.60721707696767L233.81648437500002,109.90762491097225L233.9521875,108.7102288829354L234.0200390625,108.12992496651815L234.2914453125,109.04593292861055L234.63070312500003,108.22441726788631L234.6985546875,108.34711861785244L234.96996093750002,103.77142191847047L235.0378125,104.52415009220938L235.17351562500002,106.92189117598832L235.17351562500002,108.36053582625567L235.85203125,107.9155594354688L235.987734375,108.5095251119199L236.0555859375,108.52966212513138L236.1234375,108.6201272295838L236.1912890625,107.16223959419112L236.53054687500003,108.91041771901578L237.1412109375,108.49509644281056L237.48046875,106.34040389520638L237.8197265625,106.18443991153494L237.95542968750001,106.72435455523507L238.0911328125,107.36843434318307L238.158984375,106.71693712848494L238.2946875,106.81986272815848L238.4982421875,109.04969755891211L238.4982421875,110.38759845736429L238.56609375,112.01396415229323L238.6339453125,112.40848771177852L238.7696484375,112.06183460618928L239.24460937499998,108.18650810536411L239.3803125,103.72815048125528L239.516015625,103.84071927069766L240.058828125,105.99596109227963L240.1266796875,104.07176578611679L240.2623828125,105.59641164966466L240.3980859375,107.19267031124345L240.6694921875,108.0250573345574L240.9408984375,109.32631195332209L241.00875,106.6493081605598L241.3480078125,108.2665690647121L241.55156250000002,108.76690516613117L241.6194140625,111.22054720026709L241.82296875,110.40025782731362L241.89082031249998,110.4804869575418L241.958671875,109.25177032932058L242.23007812499998,104.38037100373924L242.36578125,105.92410181128514L242.4336328125,106.68832775068685L242.501484375,107.18180084295513L242.5693359375,107.98821375963695L242.772890625,108.41246330430103L243.044296875,109.45620555224585L243.315703125,109.07575837015932L243.45140625000002,109.99218253295659L243.58710937499998,107.24705035261364L243.7228125,105.07179549030266L244.265625,108.42333662006908L244.6048828125,110.44539439716984L244.6048828125,111.6586290634303L244.672734375,106.96067087698323L244.8762890625,108.91931711813244L244.944140625,109.35152143858417L245.07984375,109.40072338483829L245.35125,107.63640733524278L245.48695312499999,108.50985079301154L245.62265625,107.12521251657118L245.758359375,106.38563637591223L245.9619140625,106.29319135682731L246.36902343749998,107.93871194835955L246.6404296875,107.846301128196L247.0475390625,106.8859792384157L247.25109375,108.68976559578134L247.92960937499998,110.12462856928899L248.0653125,109.22553891234975L248.201015625,108.18721225053385L248.201015625,107.5642162534443L248.47242187499998,108.59967177135546L249.015234375,107.96144011034248L249.42234375,108.77341922683013L249.7616015625,106.99029845334583L250.03300781250002,108.40574556747714L250.23656250000002,110.57476320191576L250.9829296875,110.01956958538335" style="fill: none;" fill="none"></path></g></g></g></g><g opacity="0.2"><g><g><g><path stroke="rgb(255, 112, 67)" stroke-width="2px" d="M44.4427734375,-1.406305138553904L44.7141796875,4.06384365473474L45.121289062500004,4.191696735365042L45.3926953125,8.208174935408977L45.6641015625,14.890445913587314L46.206914062500005,10.06678740467342L46.342617187500004,13.312143764325526L46.681875,16.75812009828431L48.174609374999996,21.788775693093015L48.2424609375,29.60708624124524L48.785273437499995,27.03070490062234L48.853125,35.482167490891015L48.9209765625,22.267897412180872L48.988828125,30.666892481701694L49.531640625,31.857029174055356L49.5994921875,48.129176067454466L49.66734375,21.619240605405366L50.0066015625,42.46247659410747L50.5494140625,40.08126124313898L50.617265625,36.88712900876996L51.29578125,41.159059039184L51.3636328125,51.44678123933927L51.431484375000004,36.362755230494884L51.702890625,50.63535266263143L51.906445312500004,41.57974117142811L51.974296875,50.88439912242548L52.11,53.380788688148755L52.3135546875,51.73337447430406L52.4492578125,52.832055662359494L52.788515625,41.20934119820592L52.992070312500005,54.15214602010589L53.195625,53.68119114850248L53.331328125,59.86590612786155L53.5348828125,53.72890173963137L53.602734375000004,46.12414436255182L53.7384375,55.85378923160688L53.8062890625,54.789876018251675L53.8062890625,54.789876018251675L54.00984375,56.275865473917534L54.3491015625,58.928206973842194L54.959765625,56.628057239311076L55.027617187500006,57.44924458648477L55.434726562499996,60.68807311994688L55.63828125,54.03343943187167L55.706132812499995,56.91675105903829L55.773984375,59.276809847780626L55.841835937499994,60.51727579746927L55.9096875,63.971748667103896L56.316796874999994,60.58432495594023L56.4525,66.24754857378345L56.588203125,65.5903292936938L56.656054687499996,63.80200634683881L56.791757812499995,52.66532763413019L56.9274609375,58.26965010166167L56.9274609375,58.26965010166167L57.0631640625,51.84495037794112L57.266718749999995,44.76068587814058L58.1487890625,64.833572438785L58.2844921875,67.72385461628436L58.4201953125,64.39017008032117L58.4201953125,64.39017008032117L58.6916015625,55.2303959599563L58.9630078125,62.80169469543864L59.0987109375,56.44195296508924L59.2344140625,63.27361037262847L59.43796875,62.37561509651796L59.573671875,67.75890518086295L59.845078125,60.686047892485334L59.98078125,63.54658277545656L60.0486328125,68.19480948788778L60.0486328125,68.19480948788778L60.116484375,67.20425660695348L60.1843359375,57.08021046434129L60.387890625000004,63.619754714625216L60.52359375,67.25840082764624L60.5914453125,64.50109602723802L60.795,63.08408676087855L60.795,63.08408676087855L60.862851562500005,67.1312353823866L60.998554687500004,72.9677807922874L61.1342578125,72.03634571390491L61.2699609375,73.0875753515533L61.3378125,67.24694651791026L61.3378125,67.24694651791026L62.15203125,63.823954160724355L62.287734375,70.62000524359088L63.37335937500001,67.76365269081931L63.5769140625,69.14352964716296L63.644765625,62.13209797867705L63.84832031249999,67.60675879035676L64.11972656249999,70.6799990747656L64.32328125,65.66259694525172L64.458984375,73.6784896265183L64.6625390625,71.85507372660295L64.730390625,61.11173186557632L64.9339453125,75.9759029490607L65.001796875,69.63187321594782L65.4767578125,65.0743766937937L65.544609375,78.10550969200474L65.8838671875,51.31740217336585L65.95171875,70.35601919889449L66.29097656249999,77.39308176934718L66.4266796875,67.27479104059081L66.5623828125,73.55293494356529L66.8337890625,68.98923557358127L66.901640625,71.16043954661913L67.1051953125,63.73331816707338L67.1051953125,63.73331816707338L67.30875,70.89277983350412L67.715859375,76.54471869553838L67.9194140625,63.50269656734805L67.987265625,64.1148145028523L68.32652343749999,71.96372953483035L68.394375,79.58343591647488L68.66578125,79.42554353177546L69.072890625,81.404200181365L69.344296875,78.68065545175756L69.75140625,74.26665806983198L69.95496093749999,77.71385425009896L70.0906640625,77.98405727211917L70.158515625,84.50041502288408L70.29421875,77.99247374066283L70.429921875,81.70401391280548L70.4977734375,60.53434422612189L70.6334765625,84.0709160864353L70.701328125,78.61753900242702L70.972734375,79.67599352129866L71.17628906249999,80.62103059249264L71.3119921875,76.74862142226524L71.37984375,77.77278836922986L71.7191015625,82.92304542022092L71.85480468749999,66.61247572302817L72.32976562500001,80.14808817207812L73.07613281249999,84.22063220398766L73.143984375,77.97893768548964L73.27968750000001,84.74562767999512L73.27968750000001,84.74562767999512L73.34753906249999,71.81917539238928L73.95820312500001,73.42073468863963L74.3653125,83.64069654579673L74.3653125,83.64069654579673L74.5688671875,83.2998130853687L74.63671875,82.16570454623017L74.8402734375,84.2283139388476L75.72234375000001,81.82811796771628L75.7901953125,87.90599042390073L76.12945312500001,74.76444014055387L76.4687109375,82.41046505953584L76.6044140625,75.91676630718366L76.672265625,85.85049758638654L77.35078125,85.57606513585363L77.5543359375,85.09416932612656L77.8257421875,87.2980171399457L78.029296875,74.2704165152141L78.36855468750001,91.43899502073015L78.572109375,89.20178276193992L78.6399609375,76.8115965766566L78.9113671875,83.88499549563441L79.0470703125,76.88719878877912L79.114921875,84.75527341450963L79.250625,76.96963025629519L79.250625,76.96963025629519L79.8612890625,83.2285250787224L80.4041015625,89.94968984382491L80.8790625,85.07692663371562L81.014765625,90.35214021908384L81.014765625,90.35214021908384L81.0826171875,74.16029123961924L81.15046875,76.12481839529104L81.8968359375,85.18469228382621L82.0325390625,87.00815528205462L82.1682421875,80.93847322251115L82.3039453125,84.02051147179944L82.371796875,72.79381846317222L82.5075,76.52958129772117L82.643203125,91.45922374618904L82.77890624999999,91.91833339205809L83.593125,87.82270176708697L83.66097656250001,76.15169269272258L84.000234375,93.29661842542033L84.271640625,87.31257051868097L84.33949218750001,92.12837302897657L84.40734375,83.79475983764443L84.4751953125,86.07962145975657L84.814453125,88.68466683370725L85.085859375,90.31098100330146L85.5608203125,80.48801553675105L85.628671875,84.44976549702031L85.69652343749999,93.52118318208625L86.5107421875,88.7136982338769L86.57859375,91.6562595388719L86.64644531249999,76.46167965978383L87.12140625,87.70152722724845L87.12140625,87.70152722724845L87.4606640625,92.89556216022797L87.66421875,85.6756121303354L87.79992187500001,96.41900579950638L88.07132812500001,91.6971314549446L88.342734375,93.07734280931096L88.342734375,93.07734280931096L88.5462890625,97.5887206633176L88.81769531249999,86.95639423600264L89.08910156249999,89.06572986500602L89.156953125,78.94624754892928L89.29265625000001,89.28929613743509L89.428359375,92.39654140387262L89.5640625,90.45384902613502L89.699765625,90.11676639957086L89.83546875,94.98708049740108L89.97117187500001,89.22427220642565L90.24257812500001,97.24394217239957L90.513984375,82.07650034129618L90.6496875,95.4960342879806L90.7175390625,89.10489682214599L90.9889453125,94.74919162797075L91.26035156249999,87.39077255768434L91.3960546875,96.48393082405839L91.46390625000001,85.27433921290294L91.46390625000001,85.27433921290294L91.5317578125,97.2465843877622L91.6674609375,92.49152928165026L91.87101562500001,93.69249858600752L92.21027343749999,96.95608199281351L92.54953125,100.19303601341586L92.68523437500001,96.23738999451909L92.7530859375,90.08808352691786L92.82093750000001,88.44559108678783L93.0244921875,90.53782531831945L93.09234375000001,93.20090523362158L93.1601953125,90.96620331491741L93.1601953125,90.96620331491741L93.36375,93.0702874820147L93.8387109375,87.02653304381029L94.1101171875,93.96438772763523L94.313671875,90.60430929703371L94.585078125,95.84732176576341L94.585078125,95.84732176576341L94.9243359375,96.89325284319263L95.12789062499999,92.67968704232146L95.535,93.01836630169834L95.8742578125,87.05852692787136L96.0099609375,96.5672618693539L96.34921874999999,97.77756134952817L96.484921875,91.25794910533087L96.62062499999999,92.11394681568655L96.756328125,87.57058449728147L97.2312890625,96.6262101179787L97.29914062499999,96.02114279993941L97.50269531250001,94.85950529681783L97.57054687499999,93.70951991634708L97.57054687499999,93.70951991634708L98.72402343750001,93.75479552469082L98.927578125,90.08179119229315L99.198984375,93.10433485252516L99.40253906250001,94.80472524889876L99.5382421875,89.17517692489282L99.60609375,89.014091274568L99.67394531250001,99.08651766606738L99.8775,93.70354785025118L99.94535156250001,87.91584810082401L100.013203125,100.51036560748304L100.14890625,95.26409393548964L100.62386718750001,96.26747168706994L100.69171874999999,94.17909951720918L101.098828125,97.03806602635552L101.16667968750001,101.09902387325252L101.16667968750001,101.09902387325252L101.641640625,89.89099121625932L101.77734375,96.47089872083492L101.913046875,89.92826011138301L102.04875,95.51560363705669L102.184453125,93.25146056285925L102.32015625,98.20980611762829L102.5915625,95.9506366252899L102.65941406249999,102.39277685433625L102.7951171875,94.99514372859682L102.86296875000001,102.51778048702647L102.998671875,90.66192937323024L103.134375,100.95548234454222L103.81289062500001,95.9134289579732L104.22,91.93232159103664L104.22,91.93232159103664L104.355703125,93.68916402544292L104.355703125,93.68916402544292L104.4235546875,100.64147789137702L104.49140625,98.33286929982047L104.627109375,103.9275884213192L104.76281250000001,91.68149481500896L104.9663671875,84.52661110460757L105.03421875000001,97.94949845118181L105.5091796875,93.686347546322L105.6448828125,96.77346770358936L105.9162890625,98.5454946341259L105.9162890625,98.5454946341259L106.526953125,106.28890944485153L106.66265625,97.15252905658312L106.66265625,97.15252905658312L106.798359375,97.9355479308537L106.8662109375,100.11875255405901L107.069765625,99.42359087296893L107.341171875,99.67399376417909L107.476875,93.56125442683695L107.5447265625,88.30408420520169L107.612578125,92.66334863752125L107.74828125,93.80561931431292L108.0875390625,102.99077942541666L108.15539062500001,83.53185705414839L108.22324218749999,102.82873296950544L108.29109375,97.44798148423432L108.42679687500001,100.26768683961458L108.4946484375,97.92403710314204L108.7660546875,97.31804665816681L108.9017578125,103.11545807974677L109.37671875000001,91.23095706211667L109.512421875,103.60053302560533L109.5802734375,92.96897430079322L109.78382812500001,100.02350563555954L109.78382812500001,100.02350563555954L109.8516796875,99.27482143150907L109.9873828125,104.82737814315726L110.05523437500001,95.73378657230307L110.1230859375,101.16151391501937L110.1230859375,101.16151391501937L110.3944921875,95.47862675147395L110.46234374999999,91.67266859114169L110.6658984375,99.72763874275343L111.2765625,98.73731664355311L111.6158203125,99.89293498226573L111.819375,95.99510685248033L112.0229296875,98.30130872023956L112.1586328125,99.00959670117922L112.226484375,88.45402639465672L112.5657421875,105.20321326170648L112.63359374999999,102.0501319169998L112.7014453125,100.96380932629107L113.1085546875,97.29531701228447L113.4478125,102.99985998017446L113.7870703125,92.59415179597478L114.3298828125,89.78056922129221L114.940546875,102.84226902467863L115.0083984375,92.70463030891757L115.07625,93.61957626789807L115.34765625,93.99345680645533L115.41550781250001,96.89920606996331L115.5512109375,100.41166638263633L115.89046875,101.29335622276578L116.161875,98.24226156515734L116.161875,98.24226156515734L116.568984375,97.84512858944278L116.840390625,97.47500178643634L117.0439453125,99.91175546816416L117.0439453125,99.91175546816416L117.111796875,100.03102723615508L117.1796484375,96.60584009758063L117.383203125,97.88514331621782L118.197421875,93.28948774082319L118.26527343750001,98.85008413451057L118.60453125,92.05172523430414L118.6723828125,99.45547643090997L118.8080859375,97.64170626550911L118.8080859375,97.64170626550911L119.283046875,90.75800993187086L119.4866015625,97.66229293814726L119.69015625,101.29743022684539L119.7580078125,96.66486841333763L119.82585937500001,101.20984149404933L119.89371093749999,99.0908365813749L120.3008203125,89.81638277854236L120.4365234375,99.95795891327516L120.504375,95.94941206915037L120.640078125,101.82458751542227L120.911484375,106.07754634533609L120.9793359375,92.11062638461588L121.31859375,99.02150315472056L121.3864453125,99.04233002875532L121.79355468749999,97.90976631428514L121.79355468749999,97.90976631428514L121.86140625,94.70329903172593L121.99710937500001,100.32387512709413L122.1328125,98.9730107315949L122.3363671875,100.26258138247897L122.8791796875,102.77688714648995L123.082734375,93.71225632833581L123.1505859375,90.67781092439378L123.4219921875,94.98401910705225L123.625546875,98.61130981679473L123.8291015625,102.36697639844246L123.96480468749999,95.3079565944416L124.6433203125,100.96561790151254L124.7790234375,92.23907290399073L124.84687500000001,104.40175068804194L124.982578125,102.60713540656225L125.18613281249999,91.02260825463702L125.5932421875,101.46498247555323L125.8646484375,92.51507843817981L126.33960937500001,100.44273242993013L126.74671875000001,97.14363689507756L126.882421875,95.07806972840001L127.0859765625,95.5172991763268L127.3573828125,87.99591994285582L127.3573828125,87.99591994285582L127.42523437499999,105.25088146435361L127.42523437499999,105.25088146435361L127.7644921875,98.64802766165562L128.510859375,96.66175521484442L128.5787109375,97.89131319522856L128.5787109375,97.89131319522856L128.8501171875,103.45973732854638L129.18937499999998,103.67794381294931L129.2572265625,93.29513011872767L129.6643359375,97.29714913666247L129.73218749999998,99.73867858733449L129.8000390625,94.55851881738218L129.867890625,91.7532961932676L129.9357421875,98.85668260817016L130.00359375,101.13008992054631L130.6142578125,99.55620559304951L130.8856640625,97.96213021874426L131.29277343750002,104.85004185140131L131.360625,101.78129474605832L131.63203124999998,102.87351404556205L131.63203124999998,102.87351404556205L131.8355859375,101.57832927576132L131.9712890625,96.16328079892055L132.17484375,96.6797373507704L132.24269531250002,97.68031275272368L132.310546875,102.13619937428405L132.853359375,95.66223481510366L132.9212109375,94.29321872975143L132.9890625,105.14423204426254L132.9890625,105.14423204426254L133.396171875,95.28201013377733L134.0068359375,101.69367304444312L134.5496484375,99.2190805780036L134.8210546875,96.42594809085129L134.8210546875,96.42594809085129L134.9567578125,92.37914328702857L135.4995703125,100.75479643259729L135.63527343750002,104.38932144322564L135.77097656249998,85.63625677994318L135.838828125,101.20193839711801L135.9066796875,103.20520391528095L135.97453125,105.5005920103618L136.0423828125,99.83151878203664L136.17808593750001,93.07054652273654L136.2459375,96.95673665936503L136.5851953125,101.68276507513862L136.7208984375,96.44747672975062L136.9923046875,95.11458034068345L137.06015625,103.83899649445499L137.1280078125,102.56224129455428L137.3994140625,99.83281869547706L137.87437500000001,100.9138898242797L137.9422265625,94.24033203401734L138.01007812499998,103.19923184918504L138.07792968750002,90.95250712547983L138.6207421875,93.78581918350287L139.0278515625,98.90079959801264L139.8420703125,98.56611898541449L140.31703125,95.91023098251648L140.3848828125,103.28671696569238L140.5884375,106.14816555593694L140.5884375,106.14816555593694L140.6562890625,100.25228569124425L140.7919921875,96.25130283619676L140.9276953125,98.35896647508655L141.0633984375,100.56541411578654L141.13125,95.87616006284951L141.67406250000002,102.18950995483567L142.081171875,101.13790353068282L142.2847265625,98.67179818025656L142.35257812499998,102.71778347343205L142.5561328125,90.78174748165266L142.6918359375,91.32988706869737L143.5060546875,103.27778712553636L143.57390625,100.23943727144172L143.8453125,94.69690779064382L143.9131640625,92.11549164035489L143.981015625,97.6442401547517L144.0488671875,100.17238811297075L144.0488671875,100.17238811297075L144.7273828125,102.58971845039298L144.9309375,97.3980148839099L145.20234375,99.41335169970988L145.2701953125,100.48744756834846L145.338046875,89.62747144486221L145.609453125,95.65035662055014L146.01656250000002,94.06489552770341L146.0844140625,97.76315868539469L146.28796875,97.8565263812031L146.55937500000002,89.76849321382385L146.7629296875,90.25207043332712L146.83078125,98.77854179697376L146.966484375,98.39472822419233L147.1700390625,90.15795858417238L147.37359375,90.51266539948325L147.780703125,92.8344850678529L147.91640625000002,96.24495398359637L148.39136718749998,98.6632215774485L148.45921875000002,96.96983470022677L148.5270703125,95.21485735901763L148.59492187499998,92.87700071505137L148.7984765625,87.53239718505313L149.3412890625,93.86627252187046L149.54484375,96.18518622432435L150.15550781250002,96.8745030047638L150.29121093749998,89.65800999104975L150.35906250000002,99.98548787725822L150.5626171875,91.27605369687079L150.766171875,98.57009408303668L150.90187500000002,90.84403971050466L150.9697265625,98.53453485667704L151.17328125,95.19982357748916L151.2411328125,100.0804239468915L151.44468750000001,97.35366711233343L151.6482421875,97.43276872911622L151.851796875,103.01333009770937L151.9875,85.71665831016642L152.19105468749999,101.72957137865679L152.5303125,98.91121774486132L152.59816406250002,98.82609225383825L152.937421875,99.63915514200924L153.07312499999998,107.60895741411616L153.14097656250001,104.15597285117421L153.2766796875,101.21477268742662L153.8194921875,103.16456749077354L153.88734374999999,99.78626201301812L154.0908984375,94.5466641719852L154.2266015625,106.11931783918823L154.294453125,102.2855952233076L154.7694140625,99.61558243632315L155.17652343749998,97.92936392234903L155.380078125,106.10151938668318L155.7871875,105.17869387992789L155.7871875,105.17869387992789L155.9907421875,95.32853384741713L156.05859375,103.45231934423957L156.5335546875,98.6237908697554L156.6692578125,102.7071533841746L156.73710937500002,93.03111110521213L156.8049609375,102.79286289427961L156.87281249999998,104.78652977624108L157.008515625,106.99970305604593L157.551328125,100.58717824625116L157.9584375,101.81926069621528L157.9584375,101.81926069621528L158.1619921875,107.42518921622207L158.4333984375,104.86450103351046L159.2476171875,108.28722964014325L159.451171875,102.0472589199032L159.5190234375,98.73342161306311L160.19753906250003,106.66022783517836L160.3332421875,103.2919166194541L160.4689453125,100.11270984049354L160.4689453125,100.11270984049354L160.536796875,100.61450939731937L160.74035156250002,103.81839098249162L160.808203125,102.85878169323716L160.8760546875,109.00439565309455L161.21531249999998,95.40111705767255L161.4188671875,100.70106667705943L161.62242187500001,107.36250136154037L161.893828125,101.91360332710401L162.02953125,109.50055283201591L162.165234375,106.5700063066823L162.57234375,103.74305723075355L162.6401953125,97.81904554367064L162.7758984375,107.69452562928198L163.1830078125,103.79584502003021L163.31871093750001,104.816489013178L163.45441406249998,101.76092943549155L163.52226562500002,99.43008102050848L163.8615234375,101.53005350487571L163.929375,107.06731739427362L163.99722656249997,105.99747921313558L164.4721875,94.13575022986956L165.015,102.28130456698791L165.150703125,103.84520405211617L165.42210937500002,100.45914148219993L166.236328125,101.01954076013394L166.3041796875,105.3341936703239L166.3041796875,105.3341936703239L166.5755859375,104.36962021887301L166.91484375,90.13413625742706L167.18625,106.42867368885447L167.3898046875,101.51903249961988L167.5255078125,104.17797718303542L167.9326171875,104.13682738691567L168.136171875,102.08355287994657L168.3397265625,94.18578747766357L168.950390625,102.74129966114248L169.08609375,104.5025599173137L169.4253515625,101.75475013681819L169.62890625,105.3290081460561L169.764609375,88.9347494563886L169.9003125,97.45789567913327L169.9681640625,101.9190949904067L170.307421875,104.05675554488386L170.3752734375,100.84559256051267L170.71453125,103.96205025698457L170.7823828125,93.71794109472205L170.85023437499999,98.32235695634569L171.0537890625,97.96228564317737L171.1894921875,102.35374177247284L171.1894921875,102.35374177247284L171.25734375,106.98428306835036L171.46089843750002,103.28953815464462L172.207265625,103.39853307072605L172.750078125,95.18214758059807L172.9536328125,100.61560207818235L172.9536328125,100.61560207818235L173.021484375,105.02011385985782L173.29289062499998,104.01651474620614L175.26058593750003,102.5037875782166L175.73554687499998,104.58457220984356L175.80339843750002,104.09102898729698L176.14265625000002,107.87042840889521L176.2105078125,99.34407950086252L176.27835937499998,107.36989579669066L176.34621093750002,104.2482101874692L176.4140625,95.26041555723972L176.4819140625,102.23737126056636L176.549765625,103.16130357767854L177.2961328125,100.83639896980353L177.4996875,101.41250553514276L177.5675390625,101.5936880356499L177.70324218750002,102.37408353388308L177.8389453125,96.60690451945577L178.2460546875,108.43716240993567L178.51746093749998,102.11621085022176L178.6531640625,104.61455028610568L178.6531640625,104.61455028610568L178.992421875,103.51022672014575L179.1959765625,103.3688658433301L179.7387890625,101.19907952951532L179.94234375000002,107.14634836358682L180.07804687499998,97.14695261631692L180.349453125,94.58120136495145L180.41730468749998,99.74605889299085L180.7565625,97.17384575307368L180.892265625,101.80562573458467L181.0958203125,93.8055251176868L181.2315234375,105.98104190187793L181.435078125,98.17885781611714L181.77433593749998,106.5132858082652L181.977890625,106.29157991920198L182.11359375,104.08071916656833L182.4528515625,101.57085006364753L182.92781250000002,108.27569997310637L183.19921875,99.99944310741763L183.2670703125,107.78255237638949L183.334921875,102.25091673540216L183.4027734375,104.70135247707366L183.5384765625,109.22653955646922L183.5384765625,109.22653955646922L184.21699218749998,109.64527181855269L184.21699218749998,109.64527181855269L184.28484375000002,108.04398569251809L184.4883984375,100.28946038974182L184.62410156250002,103.59255457137311L185.506171875,101.30670388468673L185.7097265625,108.35205575823782L185.8454296875,95.0085950068065L185.9811328125,108.5913246082408L186.2525390625,99.18718560039996L186.320390625,106.11107092457156L186.863203125,104.46754232155423L186.9310546875,104.04798583899225L187.54171874999997,102.16475037166049L187.6095703125,102.00597724850688L187.677421875,104.14824872783251L187.948828125,97.45804639373506L188.0166796875,108.24272173430238L188.2880859375,107.79077574184961L188.35593749999998,102.56604683824946L188.35593749999998,102.56604683824946L188.8308984375,107.55782277562787L188.89874999999998,104.72380895274024L189.2380078125,106.00162386468477L189.305859375,102.88781780323811L189.71296875,107.86376870742865L189.7808203125,99.30898183797086L189.848671875,102.56555701579366L189.9165234375,103.67974296850817L190.32363281250002,101.7185174045818L190.934296875,104.64636048674582L191.40925781250002,109.25884899922778L191.6128125,106.79059596572603L191.88421875,107.68753152979271L192.155625,101.53024660795926L192.291328125,106.50488817904676L192.4948828125,106.3348632689033L192.56273437500002,99.20319431700875L192.56273437500002,99.20319431700875L192.90199218749999,109.02220823509352L193.648359375,100.62979750973837L193.7840625,105.76209597395997L193.9876171875,106.50207169992582L194.191171875,99.65391104349067L194.5304296875,107.26213014658008L194.66613281250002,106.93362412282397L194.8696875,106.77635814568825L195.00539062500002,106.7613384936537L195.0732421875,106.60310229126895L195.3446484375,97.19634932705333L195.4125,109.66347531655003L195.48035156249998,105.38006742724349L195.54820312500001,105.92240921195064L195.6160546875,108.18195549079348L195.68390625,91.06015502980776L195.68390625,91.06015502980776L195.9553125,99.8528401883585L196.02316406249997,100.42001220371041L196.091015625,106.83028100430964L196.091015625,106.83028100430964L196.1588671875,99.96875384662832L196.22671875,107.74565555793897L196.29457031249999,104.45217414200305L196.362421875,107.76157007792165L196.5659765625,106.92571160623004L196.76953125,106.7171367268477L196.83738281249998,105.48491298194442L196.90523437500002,106.78733676246233L197.58374999999998,107.42038989812134L197.6516015625,111.05986965128352L197.85515625,111.71210122002022L198.1265625,104.63962542797837L198.533671875,107.19088923824684L199.14433593750002,99.13378082322221L199.2121875,106.2632455740656L199.755,109.50450909031288L199.89070312500002,107.05303718575408L199.9585546875,108.28601921349762L199.9585546875,108.28601921349762L200.6370703125,98.00781558241162L201.4512890625,96.76783945517879L201.519140625,103.47856252427611L201.9941015625,102.01135116602693L202.2655078125,108.61520345296178L202.5369140625,103.20294319625411L202.5369140625,103.20294319625411L202.6726171875,103.05941579703773L202.74046875,107.19823186525275L202.74046875,107.19823186525275L203.2154296875,103.17390237642185L203.48683593750002,105.55418047096047L204.233203125,104.84179022695336L204.4367578125,101.8923243092639L204.5724609375,106.82007950970103L204.77601562499999,82.30574667028017L205.2509765625,103.67529688775538L205.31882812499998,104.93158787063189L205.31882812499998,104.93158787063189L205.590234375,106.72966016829012L206.2008984375,100.1906716781003L206.7437109375,107.62576209221567L206.947265625,105.51741552778651L207.1508203125,93.32116606618675L207.1508203125,93.32116606618675L207.354375,93.41317733057906L207.82933593750002,103.93541145111833L207.8971875,101.13752674417834L208.1007421875,109.18113678268023L208.16859375,109.57102603784628L208.9828125,102.32348110633235L209.118515625,102.54535654932259L209.5934765625,103.15528912310089L209.72917968750002,99.26139841228722L210.33984375,106.9987987684352L210.61125,103.88308522530963L210.746953125,103.04946863331963L211.3576171875,110.1528550482222L211.4933203125,110.0157754080636L211.4933203125,110.0157754080636L211.56117187499999,99.10810282294239L211.62902343750002,103.89448301706994L211.696875,107.28200092485972L211.832578125,98.91793867413486L211.832578125,98.91793867413486L212.2396875,107.52338448911904L212.44324218749998,109.80234940243618L212.5789453125,102.30391175725629L213.3253125,106.81188440322875L213.80027343749998,104.70908602007796L214.0716796875,107.33635237812994L214.34308593749998,100.42564516195227L214.68234375,102.11581993422337L214.7501953125,110.04593716774667L215.22515625,107.46133246166364L215.360859375,108.04295423946209L215.70011718749998,105.68416710517235L215.76796875000002,104.4744422244174L215.8358203125,104.4411437170846L216.44648437499998,102.98556564216102L216.5821875,108.64227556330816L216.717890625,106.67642023520808L216.989296875,104.91157108758176L217.1928515625,110.4906111806631L217.260703125,104.67052192134516L217.3285546875,110.5790241339377L217.5999609375,103.44050237749303L217.803515625,110.88730143223489L217.93921875,108.94785883809838L218.4141796875,108.70299470850398L218.48203125,93.77942323258944L218.54988281250002,105.69118946364947L218.68558593749998,105.96927203344445L219.02484375,106.97198098897933L219.2283984375,101.64010342316966L219.6355078125,108.20507605267422L219.974765625,107.86313759003366L220.1783203125,100.15748620671884L220.1783203125,100.15748620671884L220.3140234375,102.06311692191021L220.517578125,101.13670723353113L220.7211328125,105.3994248339108L220.92468749999998,106.20264888448374L220.99253906250001,110.04493868350981L221.060390625,99.47771625433649L221.46749999999997,105.4299398309418L221.603203125,103.00982127338646L221.874609375,110.61946274553026L222.0103125,109.60429628619124L222.146015625,107.12942593970467L222.34957031250002,106.91145965669836L222.48527343749998,111.12462512190852L222.7566796875,111.58052737265824L222.89238281250002,107.3051685850535L222.960234375,109.98195881928716L223.02808593749998,102.18456934179578L223.0959375,104.78174929746558L223.36734374999997,103.61463426053523L223.4351953125,97.38775687132562L223.4351953125,97.38775687132562L223.63875,103.29087103690419L224.045859375,110.01748978665896L224.24941406250002,107.17700936538832L224.5208203125,108.90001637169291L224.58867187500002,95.55883988844495L224.92792968749998,105.47367532444851L224.99578125,110.36200452702384L225.4707421875,104.60648234507866L225.8778515625,107.43136380506412L225.945703125,109.77342632838656L226.08140625,107.91022177359886L226.14925781250003,112.39668697491287L226.48851562500002,108.18207794640745L226.5563671875,105.67352288642098L226.82777343749999,103.84133257078271L227.302734375,112.65499060813869L227.70984375,110.41026616841553L227.98125,110.78786276387315L228.04910156250003,109.06982462959628L228.1848046875,101.18916533461638L228.659765625,103.23045332091193L229.06687499999998,106.1078352704644L229.2704296875,111.5458394650902L229.5418359375,110.99337625290666L229.88109375,109.22434948491197L229.94894531249997,111.19779235124587L230.1525,101.68145574203558L230.288203125,110.11523762558187L230.4917578125,109.59371329524686L230.559609375,111.50101129072051L230.8988671875,102.80529213909591L230.96671874999998,103.64921384198324L231.50953124999998,109.59483423509766L231.645234375,110.09095844519989L231.84878906249997,106.11087311165672L232.188046875,108.97932051122187L232.2558984375,103.68571503460406L232.66300781249998,100.08448382147719L232.7987109375,107.01866954671483L232.8665625,110.52410750091074L233.07011718750002,103.98477048320429L233.40937499999998,105.25298675894736L233.68078125,112.39717444245304L233.74863281249998,111.47210705599613L233.81648437500002,110.35823666197912L233.9521875,106.91413484088011L234.0200390625,107.25946909189223L234.2914453125,110.41994487174918L234.63070312500003,106.99214377679994L234.6985546875,108.53117064280168L234.96996093750002,96.9078768693975L235.0378125,105.65324235281773L235.17351562500002,110.51850280165671L235.17351562500002,110.51850280165671L235.85203125,107.24809484928845L235.987734375,109.40047362659658L236.0555859375,108.55986764494861L236.1234375,108.7558248862624L236.1912890625,104.9754081411021L236.53054687500003,111.53268490625278L237.1412109375,107.87211452850272L237.48046875,103.10836507380007L237.8197265625,105.95049393602778L237.95542968750001,107.53422652078525L238.0911328125,108.33455402510505L238.158984375,105.73969130643775L238.2946875,106.97425112766878L238.4982421875,112.39444980504256L238.4982421875,112.39444980504256L238.56609375,114.45351269468665L238.6339453125,113.00027305100645L238.7696484375,111.54185494780539L239.24460937499998,102.37351835412638L239.3803125,97.04061404509203L239.516015625,104.00957245486121L240.058828125,109.2288238246526L240.1266796875,101.18547282687254L240.2623828125,107.88338044498647L240.3980859375,109.58705830361161L240.6694921875,109.27363786952834L240.9408984375,111.27819388146911L241.00875,102.63380247141633L241.3480078125,110.69246042094059L241.55156250000002,109.51740931825977L241.6194140625,114.90101025147095L241.82296875,109.16982376788343L241.89082031249998,110.60083065288406L241.958671875,107.40869538698877L242.23007812499998,97.07327201536722L242.36578125,108.23969802260397L242.4336328125,107.83466665978942L242.501484375,107.92201048135756L242.5693359375,109.19783313465969L242.772890625,109.04883762129714L243.044296875,111.02181892416306L243.315703125,108.50508759702954L243.45140625000002,111.36681877715246L243.58710937499998,103.12935208209922L243.7228125,101.80891319683619L244.265625,113.45064831471868L244.6048828125,113.47848106282096L244.6048828125,113.47848106282096L244.672734375,99.91373359731264L244.8762890625,111.85728647985627L244.944140625,109.99982791926179L245.07984375,109.47452630421944L245.35125,104.98993326084953L245.48695312499999,109.82001597966466L245.62265625,105.04825510191064L245.758359375,105.2762721649238L245.9619140625,106.15452382819991L246.36902343749998,110.40699283565793L246.6404296875,107.7076848979507L247.0475390625,105.44549640374522L247.25109375,111.39544513182979L247.92960937499998,112.27692302955047L248.0653125,107.87690442694084L248.201015625,106.62972225780997L248.201015625,106.62972225780997L248.47242187499998,110.1528550482222L249.015234375,107.00409261882304L249.42234375,109.9913879015616L249.7616015625,104.31561729311942L250.03300781250002,110.52891623867409L250.23656250000002,113.8282896535737L250.9829296875,109.1867791605847" style="fill: none;" fill="none"></path></g></g></g></g></g></g><g transform="translate(58, 177)" clip-path="url(#clip_1)"><clipPath id="clip_1"><rect width="271" height="23"></rect></clipPath><g><g><line x1="0" y1="0" x2="0" y2="5" style="visibility: inherit;" fill="rgb(0, 0, 0)" stroke="rgb(204, 204, 204)" stroke-width="1px"></line><line x1="33.92578125" y1="0" x2="33.92578125" y2="5" style="visibility: inherit;" fill="rgb(0, 0, 0)" stroke="rgb(204, 204, 204)" stroke-width="1px"></line><line x1="67.8515625" y1="0" x2="67.8515625" y2="5" style="visibility: inherit;" fill="rgb(0, 0, 0)" stroke="rgb(204, 204, 204)" stroke-width="1px"></line><line x1="101.77734375" y1="0" x2="101.77734375" y2="5" style="visibility: inherit;" fill="rgb(0, 0, 0)" stroke="rgb(204, 204, 204)" stroke-width="1px"></line><line x1="135.703125" y1="0" x2="135.703125" y2="5" style="visibility: inherit;" fill="rgb(0, 0, 0)" stroke="rgb(204, 204, 204)" stroke-width="1px"></line><line x1="169.62890625" y1="0" x2="169.62890625" y2="5" style="visibility: inherit;" fill="rgb(0, 0, 0)" stroke="rgb(204, 204, 204)" stroke-width="1px"></line><line x1="203.5546875" y1="0" x2="203.5546875" y2="5" style="visibility: inherit;" fill="rgb(0, 0, 0)" stroke="rgb(204, 204, 204)" stroke-width="1px"></line><line x1="237.48046875" y1="0" x2="237.48046875" y2="5" style="visibility: inherit;" fill="rgb(0, 0, 0)" stroke="rgb(204, 204, 204)" stroke-width="1px"></line><line x1="271.40625" y1="0" x2="271.40625" y2="5" style="visibility: inherit;" fill="rgb(0, 0, 0)" stroke="rgb(204, 204, 204)" stroke-width="1px"></line></g><g transform="translate(0, 8)"><text x="0" y="0" dx="0em" dy="0.95em" style="text-anchor: middle; visibility: hidden; font-family: &quot;Helvetica Neue&quot;, sans-serif; font-size: 12px; font-weight: 200;" fill="rgb(50, 49, 63)" stroke="none" stroke-width="1px">-500</text><text x="33.92578125" y="0" dx="0em" dy="0.95em" style="text-anchor: middle; visibility: inherit; font-family: &quot;Helvetica Neue&quot;, sans-serif; font-size: 12px; font-weight: 200;" fill="rgb(50, 49, 63)" stroke="none" stroke-width="1px">0</text><text x="67.8515625" y="0" dx="0em" dy="0.95em" style="text-anchor: middle; visibility: inherit; font-family: &quot;Helvetica Neue&quot;, sans-serif; font-size: 12px; font-weight: 200;" fill="rgb(50, 49, 63)" stroke="none" stroke-width="1px">500</text><text x="101.77734375" y="0" dx="0em" dy="0.95em" style="text-anchor: middle; visibility: inherit; font-family: &quot;Helvetica Neue&quot;, sans-serif; font-size: 12px; font-weight: 200;" fill="rgb(50, 49, 63)" stroke="none" stroke-width="1px">1k</text><text x="135.703125" y="0" dx="0em" dy="0.95em" style="text-anchor: middle; visibility: inherit; font-family: &quot;Helvetica Neue&quot;, sans-serif; font-size: 12px; font-weight: 200;" fill="rgb(50, 49, 63)" stroke="none" stroke-width="1px">1.5k</text><text x="169.62890625" y="0" dx="0em" dy="0.95em" style="text-anchor: middle; visibility: inherit; font-family: &quot;Helvetica Neue&quot;, sans-serif; font-size: 12px; font-weight: 200;" fill="rgb(50, 49, 63)" stroke="none" stroke-width="1px">2k</text><text x="203.5546875" y="0" dx="0em" dy="0.95em" style="text-anchor: middle; visibility: inherit; font-family: &quot;Helvetica Neue&quot;, sans-serif; font-size: 12px; font-weight: 200;" fill="rgb(50, 49, 63)" stroke="none" stroke-width="1px">2.5k</text><text x="237.48046875" y="0" dx="0em" dy="0.95em" style="text-anchor: middle; visibility: inherit; font-family: &quot;Helvetica Neue&quot;, sans-serif; font-size: 12px; font-weight: 200;" fill="rgb(50, 49, 63)" stroke="none" stroke-width="1px">3k</text><text x="271.40625" y="0" dx="0em" dy="0.95em" style="text-anchor: middle; visibility: hidden; font-family: &quot;Helvetica Neue&quot;, sans-serif; font-size: 12px; font-weight: 200;" fill="rgb(50, 49, 63)" stroke="none" stroke-width="1px">3.5k</text></g><line x1="0" y1="0" x2="271.40625" y2="0" fill="rgb(0, 0, 0)" stroke="rgb(204, 204, 204)" stroke-width="1px"></line></g></g></g></g></svg>