<svg viewBox="0 0 330 200" xmlns="http://www.w3.org/2000/svg"><g><g><g><g><g><line x1="58.59375" y1="177" x2="53.59375" y2="177" style="visibility: inherit;" fill="rgb(0, 0, 0)" stroke="rgb(204, 204, 204)" stroke-width="1px"></line><line x1="58.59375" y1="157.33333333333334" x2="53.59375" y2="157.33333333333334" style="visibility: inherit;" fill="rgb(0, 0, 0)" stroke="rgb(204, 204, 204)" stroke-width="1px"></line><line x1="58.59375" y1="137.66666666666666" x2="53.59375" y2="137.66666666666666" style="visibility: inherit;" fill="rgb(0, 0, 0)" stroke="rgb(204, 204, 204)" stroke-width="1px"></line><line x1="58.59375" y1="118" x2="53.59375" y2="118" style="visibility: inherit;" fill="rgb(0, 0, 0)" stroke="rgb(204, 204, 204)" stroke-width="1px"></line><line x1="58.59375" y1="98.33333333333333" x2="53.59375" y2="98.33333333333333" style="visibility: inherit;" fill="rgb(0, 0, 0)" stroke="rgb(204, 204, 204)" stroke-width="1px"></line><line x1="58.59375" y1="78.66666666666666" x2="53.59375" y2="78.66666666666666" style="visibility: inherit;" fill="rgb(0, 0, 0)" stroke="rgb(204, 204, 204)" stroke-width="1px"></line><line x1="58.59375" y1="59" x2="53.59375" y2="59" style="visibility: inherit;" fill="rgb(0, 0, 0)" stroke="rgb(204, 204, 204)" stroke-width="1px"></line><line x1="58.59375" y1="39.33333333333334" x2="53.59375" y2="39.33333333333334" style="visibility: inherit;" fill="rgb(0, 0, 0)" stroke="rgb(204, 204, 204)" stroke-width="1px"></line><line x1="58.59375" y1="19.666666666666686" x2="53.59375" y2="19.666666666666686" style="visibility: inherit;" fill="rgb(0, 0, 0)" stroke="rgb(204, 204, 204)" stroke-width="1px"></line><line x1="58.59375" y1="0" x2="53.59375" y2="0" style="visibility: inherit;" fill="rgb(0, 0, 0)" stroke="rgb(204, 204, 204)" stroke-width="1px"></line></g><g transform="translate(48.59375, 0)"><text x="0" y="177" dx="0em" dy="0.3em" style="text-anchor: end; visibility: hidden; font-family: &quot;Helvetica Neue&quot;, sans-serif; font-size: 12px; font-weight: 200;" fill="rgb(50, 49, 63)" stroke="none" stroke-width="1px">-0.05</text><text x="0" y="157.33333333333334" dx="0em" dy="0.3em" style="text-anchor: end; visibility: inherit; font-family: &quot;Helvetica Neue&quot;, sans-serif; font-size: 12px; font-weight: 200;" fill="rgb(50, 49, 63)" stroke="none" stroke-width="1px">0</text><text x="0" y="137.66666666666666" dx="0em" dy="0.3em" style="text-anchor: end; visibility: hidden; font-family: &quot;Helvetica Neue&quot;, sans-serif; font-size: 12px; font-weight: 200;" fill="rgb(50, 49, 63)" stroke="none" stroke-width="1px">0.05</text><text x="0" y="118" dx="0em" dy="0.3em" style="text-anchor: end; visibility: inherit; font-family: &quot;Helvetica Neue&quot;, sans-serif; font-size: 12px; font-weight: 200;" fill="rgb(50, 49, 63)" stroke="none" stroke-width="1px">0.1</text><text x="0" y="98.33333333333333" dx="0em" dy="0.3em" style="text-anchor: end; visibility: hidden; font-family: &quot;Helvetica Neue&quot;, sans-serif; font-size: 12px; font-weight: 200;" fill="rgb(50, 49, 63)" stroke="none" stroke-width="1px">0.15</text><text x="0" y="78.66666666666666" dx="0em" dy="0.3em" style="text-anchor: end; visibility: inherit; font-family: &quot;Helvetica Neue&quot;, sans-serif; font-size: 12px; font-weight: 200;" fill="rgb(50, 49, 63)" stroke="none" stroke-width="1px">0.2</text><text x="0" y="59" dx="0em" dy="0.3em" style="text-anchor: end; visibility: hidden; font-family: &quot;Helvetica Neue&quot;, sans-serif; font-size: 12px; font-weight: 200;" fill="rgb(50, 49, 63)" stroke="none" stroke-width="1px">0.25</text><text x="0" y="39.33333333333334" dx="0em" dy="0.3em" style="text-anchor: end; visibility: inherit; font-family: &quot;Helvetica Neue&quot;, sans-serif; font-size: 12px; font-weight: 200;" fill="rgb(50, 49, 63)" stroke="none" stroke-width="1px">0.3</text><text x="0" y="19.666666666666686" dx="0em" dy="0.3em" style="text-anchor: end; visibility: hidden; font-family: &quot;Helvetica Neue&quot;, sans-serif; font-size: 12px; font-weight: 200;" fill="rgb(50, 49, 63)" stroke="none" stroke-width="1px">0.35</text><text x="0" y="0" dx="0em" dy="0.3em" style="text-anchor: end; visibility: hidden; font-family: &quot;Helvetica Neue&quot;, sans-serif; font-size: 12px; font-weight: 200;" fill="rgb(50, 49, 63)" stroke="none" stroke-width="1px">0.4</text></g><line x1="58.59375" y1="0" x2="58.59375" y2="177" fill="rgb(0, 0, 0)" stroke="rgb(204, 204, 204)" stroke-width="1px"></line></g></g><g transform="translate(58, 0)" clip-path="url(#clip_0)"><clipPath id="clip_0"><rect width="271" height="177"></rect></clipPath><g><g><g><line x1="0" y1="0" x2="0" y2="177" fill="rgb(0, 0, 0)" stroke="rgb(60, 60, 60)" stroke-width="1px" opacity="0.25"></line><line x1="33.92578125" y1="0" x2="33.92578125" y2="177" fill="rgb(0, 0, 0)" stroke="rgb(60, 60, 60)" stroke-width="1px" opacity="0.25"></line><line x1="67.8515625" y1="0" x2="67.8515625" y2="177" fill="rgb(0, 0, 0)" stroke="rgb(60, 60, 60)" stroke-width="1px" opacity="0.25"></line><line x1="101.77734375" y1="0" x2="101.77734375" y2="177" fill="rgb(0, 0, 0)" stroke="rgb(60, 60, 60)" stroke-width="1px" opacity="0.25"></line><line x1="135.703125" y1="0" x2="135.703125" y2="177" fill="rgb(0, 0, 0)" stroke="rgb(60, 60, 60)" stroke-width="1px" opacity="0.25"></line><line x1="169.62890625" y1="0" x2="169.62890625" y2="177" fill="rgb(0, 0, 0)" stroke="rgb(60, 60, 60)" stroke-width="1px" opacity="0.25"></line><line x1="203.5546875" y1="0" x2="203.5546875" y2="177" fill="rgb(0, 0, 0)" stroke="rgb(60, 60, 60)" stroke-width="1px" opacity="0.25"></line><line x1="237.48046875" y1="0" x2="237.48046875" y2="177" fill="rgb(0, 0, 0)" stroke="rgb(60, 60, 60)" stroke-width="1px" opacity="0.25"></line><line x1="271.40625" y1="0" x2="271.40625" y2="177" fill="rgb(0, 0, 0)" stroke="rgb(60, 60, 60)" stroke-width="1px" opacity="0.25"></line></g><g><line x1="0" y1="177" x2="271.40625" y2="177" fill="rgb(0, 0, 0)" stroke="rgb(60, 60, 60)" stroke-width="1px" opacity="0.25"></line><line x1="0" y1="157.33333333333334" x2="271.40625" y2="157.33333333333334" fill="rgb(0, 0, 0)" stroke="rgb(60, 60, 60)" stroke-width="1px" opacity="0.25"></line><line x1="0" y1="137.66666666666666" x2="271.40625" y2="137.66666666666666" fill="rgb(0, 0, 0)" stroke="rgb(60, 60, 60)" stroke-width="1px" opacity="0.25"></line><line x1="0" y1="118" x2="271.40625" y2="118" fill="rgb(0, 0, 0)" stroke="rgb(60, 60, 60)" stroke-width="1px" opacity="0.25"></line><line x1="0" y1="98.33333333333333" x2="271.40625" y2="98.33333333333333" fill="rgb(0, 0, 0)" stroke="rgb(60, 60, 60)" stroke-width="1px" opacity="0.25"></line><line x1="0" y1="78.66666666666666" x2="271.40625" y2="78.66666666666666" fill="rgb(0, 0, 0)" stroke="rgb(60, 60, 60)" stroke-width="1px" opacity="0.25"></line><line x1="0" y1="59" x2="271.40625" y2="59" fill="rgb(0, 0, 0)" stroke="rgb(60, 60, 60)" stroke-width="1px" opacity="0.25"></line><line x1="0" y1="39.33333333333334" x2="271.40625" y2="39.33333333333334" fill="rgb(0, 0, 0)" stroke="rgb(60, 60, 60)" stroke-width="1px" opacity="0.25"></line><line x1="0" y1="19.666666666666686" x2="271.40625" y2="19.666666666666686" fill="rgb(0, 0, 0)" stroke="rgb(60, 60, 60)" stroke-width="1px" opacity="0.25"></line><line x1="0" y1="0" x2="271.40625" y2="0" fill="rgb(0, 0, 0)" stroke="rgb(60, 60, 60)" stroke-width="1px" opacity="0.25"></line></g></g></g><g><g><line x1="0" y1="157.33333333333334" x2="271.40625" y2="157.33333333333334" fill="rgb(0, 0, 0)" stroke="rgb(153, 153, 153)" stroke-width="1.5px"></line></g></g><g><g><line x1="33.92578125" y1="0" x2="33.92578125" y2="177" fill="rgb(0, 0, 0)" stroke="rgb(153, 153, 153)" stroke-width="1.5px"></line></g></g><g><g><g><g><g><path stroke="rgb(255, 112, 67)" stroke-width="2px" d="M43.832109375,-0.13286800203860594L43.9678125,3.119584204801157L44.1713671875,4.786261189944355L44.374921875,6.168806492527779L44.4427734375,6.897920906675807L44.7141796875,7.724282126108903L45.121289062500004,9.55943588894749L45.3926953125,11.770878119546694L45.6641015625,12.739375617174744L46.206914062500005,14.930684137124473L46.342617187500004,16.787168340620525L46.681875,17.490953713713253L48.174609374999996,18.721211276503L48.2424609375,20.69656925325296L48.785273437499995,22.315666593667004L48.853125,22.883260773157417L48.9209765625,23.348387253206994L48.988828125,23.25539433872018L49.531640625,25.051629185172942L49.5994921875,26.76459395855315L49.66734375,25.877506295658804L50.0066015625,27.01280895063357L50.5494140625,26.384756242369036L50.617265625,24.456846297860693L51.29578125,26.488476439961175L51.3636328125,26.663424335707305L51.431484375000004,30.091303064101425L51.702890625,29.323634644552186L51.906445312500004,30.260395745558014L51.974296875,32.47489533829042L52.11,34.13623963598815L52.3135546875,36.067482774283945L52.4492578125,33.58079276769942L52.788515625,34.62397721383721L52.992070312500005,35.62399166608108L53.195625,33.00280193756569L53.331328125,30.891347703956825L53.5348828125,31.090454660429543L53.602734375000004,30.83856743330199L53.7384375,30.20809835843903L53.8062890625,32.930763816750016L53.8062890625,33.9997727965808L54.00984375,35.39002813272651L54.3491015625,31.803557952481384L54.959765625,34.465158605717335L55.027617187500006,36.820993811374564L55.434726562499996,39.171651055704956L55.63828125,38.28009621915703L55.706132812499995,33.58194171955677L55.773984375,23.47142232797836L55.841835937499994,26.75375256543731L55.9096875,34.08780413630828L56.316796874999994,26.032625757236644L56.4525,27.471141149150952L56.588203125,32.755019122092506L56.656054687499996,37.81661789440824L56.791757812499995,40.379651408336855L56.9274609375,41.788508046234995L56.9274609375,41.18927548839574L57.0631640625,34.68117837020111L57.266718749999995,34.41835653727267L58.1487890625,37.029247132609385L58.2844921875,40.7973272846163L58.4201953125,42.83121861096345L58.4201953125,43.06569838370555L58.6916015625,40.343963622127035L58.9630078125,42.270842519844024L59.0987109375,37.860295228626995L59.2344140625,37.94803087659679L59.43796875,37.39992587217492L59.573671875,33.44505777626517L59.845078125,37.908377766624795L59.98078125,36.17616511186898L60.0486328125,33.77452957312829L60.0486328125,33.242486578308956L60.116484375,37.904953095565304L60.1843359375,39.35106894964977L60.387890625000004,43.67330804027122L60.52359375,38.96787423227434L60.5914453125,40.630858467027764L60.795,35.2325457052421L60.795,33.29318479593783L60.862851562500005,37.25966889796371L60.998554687500004,34.676927418337584L61.1342578125,37.95576976785637L61.2699609375,35.42748099396374L61.3378125,41.06713633833178L61.3378125,44.054736358510524L62.15203125,46.920482132387406L62.287734375,50.86615775439276L63.37335937500001,47.78740257271011L63.5769140625,46.78829153129189L63.644765625,49.062017932029946L63.84832031249999,53.70141201883101L64.11972656249999,54.7162927170766L64.32328125,56.02792763194478L64.458984375,53.33580199568095L64.6625390625,56.1259251417038L64.730390625,56.334727556386625L64.9339453125,51.86010558061544L65.001796875,54.673141169465055L65.4767578125,48.13259233310808L65.544609375,52.395052067091L65.8838671875,51.26625171004727L65.95171875,47.59574266294041L66.29097656249999,51.88805898836891L66.4266796875,52.767792960872086L66.5623828125,46.63937118502648L66.8337890625,51.19750127902938L66.901640625,54.12771416730472L67.1051953125,51.21806197778456L67.1051953125,49.35675495514913L67.30875,46.488864002523684L67.715859375,49.29443590118359L67.9194140625,52.00567472939018L67.987265625,50.707229802793194L68.32652343749999,49.53878263023651L68.394375,48.502711268586864L68.66578125,55.58556205371397L69.072890625,53.68088195128864L69.344296875,53.291171980323156L69.75140625,57.6341425294211L69.95496093749999,57.7061377673068L70.0906640625,56.19188437712502L70.158515625,54.448985015465695L70.29421875,58.476582238145966L70.429921875,61.21577900393903L70.4977734375,61.6584794784234L70.6334765625,55.96617873497682L70.701328125,59.38479784322506L70.972734375,59.77937201177713L71.17628906249999,62.28694078633568L71.3119921875,63.173625866429305L71.37984375,64.86773826272663L71.7191015625,63.74701035176541L71.85480468749999,62.31620988143381L72.32976562500001,65.36024373904603L73.07613281249999,63.65732060751756L73.143984375,63.09523822594548L73.27968750000001,63.489696131520645L73.27968750000001,64.466879272286L73.34753906249999,65.09476093281742L73.95820312500001,66.43377854722402L74.3653125,64.58189859170312L74.3653125,63.967411737711814L74.5688671875,65.51902761920586L74.63671875,66.03656288105823L74.8402734375,68.07792535693594L75.72234375000001,67.00247228505897L75.7901953125,65.525024074491L76.12945312500001,67.99869968385069L76.4687109375,69.22910199497483L76.6044140625,67.7796650048157L76.672265625,65.24340409334862L77.35078125,67.44378678577957L77.5543359375,70.05318924930384L77.8257421875,71.82517978239075L78.029296875,73.05388753824245L78.36855468750001,71.57615614660268L78.572109375,72.48307030634693L78.6399609375,71.76096997998125L78.9113671875,69.60536474988044L79.0470703125,70.14301187399137L79.114921875,70.86877979399627L79.250625,70.6018224173498L79.250625,70.74834885678959L79.8612890625,72.23423408557339L80.4041015625,71.0750941222272L80.8790625,73.59439647507838L81.014765625,74.96677855041924L81.014765625,75.7539415084559L81.0826171875,75.47913829425404L81.15046875,74.7257831649349L81.8968359375,74.63027643499964L82.0325390625,73.16828384004947L82.1682421875,74.12628807625919L82.3039453125,74.78430215916087L82.371796875,74.55294569572438L82.5075,74.81508423630773L82.643203125,74.23254119800157L82.77890624999999,72.21646589108285L83.593125,73.80456935207829L83.66097656250001,74.85515745584638L84.000234375,74.3494440800218L84.271640625,75.30681637642392L84.33949218750001,74.96758439372545L84.40734375,75.60130433776318L84.4751953125,76.09629710041486L84.814453125,75.98934178862774L85.085859375,75.96464209544939L85.5608203125,76.75760699583064L85.628671875,76.57328980727775L85.69652343749999,76.99184640385977L86.5107421875,77.00028530839047L86.57859375,76.82176888833223L86.64644531249999,76.73816214114296L87.12140625,76.48859095241546L87.12140625,76.34608789880626L87.4606640625,76.38803033391369L87.66421875,76.91583167131583L87.79992187500001,76.26235822806261L88.07132812500001,76.91236549200318L88.342734375,77.35146496443967L88.342734375,77.68969617137724L88.5462890625,77.9037827522521L88.81769531249999,77.37696344878067L89.08910156249999,76.24729167158875L89.156953125,75.35493397753719L89.29265625000001,75.76173480376374L89.428359375,74.16885482484959L89.5640625,75.63266891170458L89.699765625,77.30212462303392L89.83546875,77.77988629554123L89.97117187500001,78.42032774099357L90.24257812500001,78.1606895912209L90.513984375,77.11716219515715L90.6496875,76.4510072513289L90.7175390625,76.08040186825595L90.9889453125,75.34936111607077L91.26035156249999,75.83005621495597L91.3960546875,76.46439208862833L91.46390625000001,76.78632376756858L91.46390625000001,76.79002547760761L91.5317578125,74.54833650886987L91.6674609375,75.14568535665656L91.87101562500001,76.06388821709149L92.21027343749999,76.61422147656278L92.54953125,76.82315947793799L92.68523437500001,77.21743296493814L92.7530859375,77.74566062436338L92.82093750000001,77.02581606792907L93.0244921875,76.65607709777852L93.09234375000001,76.22819412803153L93.1601953125,76.66393028729459L93.1601953125,76.71072592159094L93.36375,76.36673684410242L93.8387109375,76.72677174106431L94.1101171875,76.82837886151788L94.313671875,77.22786052149802L94.585078125,75.12604947361709L94.585078125,74.43438036127903L94.9243359375,75.75824760725509L95.12789062499999,76.2806915402238L95.535,75.31561712979224L95.8742578125,76.05699449713399L96.0099609375,76.53158839107773L96.34921874999999,75.67019735710556L96.484921875,76.62874816419722L96.62062499999999,75.49475161966905L96.756328125,75.67468220832282L97.2312890625,73.53046638275585L97.29914062499999,74.83826938374082L97.50269531250001,75.55481210809891L97.57054687499999,75.85348374522891L97.57054687499999,76.44244724240204L98.72402343750001,75.76817347442885L98.927578125,77.61742216250767L99.198984375,78.8274779194681L99.40253906250001,79.32614198569982L99.5382421875,79.50811561293122L99.60609375,80.21237027057043L99.67394531250001,80.60020411456445L99.8775,79.77130961683284L99.94535156250001,79.89949076334769L100.013203125,77.76560949262064L100.14890625,76.07073519414317L100.62386718750001,77.21743728589405L100.69171874999999,77.62986851853962L101.098828125,78.4609075931082L101.16667968750001,78.2736670661392L101.16667968750001,78.59574452768298L101.641640625,79.83826338289498L101.77734375,80.58628794573737L101.913046875,80.74668383413349L102.04875,80.87588432518918L102.184453125,80.45116261097755L102.32015625,78.54192200175702L102.5915625,78.30374518357782L102.65941406249999,77.79715404107017L102.7951171875,78.6843531202903L102.86296875000001,79.77484844952608L102.998671875,80.60044049519172L103.134375,80.6534590838226L103.81289062500001,80.76580207255715L104.22,80.38073148354233L104.22,79.77606595769132L104.355703125,77.94871257075432L104.355703125,77.16588939624287L104.4235546875,77.87623656628882L104.49140625,78.40192454360935L104.627109375,80.03086900692988L104.76281250000001,81.00615615833883L104.9663671875,81.90001037432205L105.03421875000001,82.43642137078515L105.5091796875,81.93790293710276L105.6448828125,81.90674602772897L105.9162890625,82.20138050587639L105.9162890625,82.16891674283146L106.526953125,82.31791530499656L106.66265625,83.30695937345304L106.66265625,84.03804250321714L106.798359375,84.39272358275609L106.8662109375,84.92931475395255L107.069765625,84.9508399932839L107.341171875,84.6862356326535L107.476875,84.8677276409599L107.5447265625,84.65975175918734L107.612578125,83.58036740594066L107.74828125,81.03171189609941L108.0875390625,81.77779497295883L108.15539062500001,82.96934094582161L108.22324218749999,83.64110252790148L108.29109375,84.09991751630602L108.42679687500001,84.6237040749361L108.4946484375,85.3364456568859L108.7660546875,85.01385743268543L108.9017578125,84.75785071163303L109.37671875000001,82.69765371387557L109.512421875,82.59002214852188L109.5802734375,83.4403973947955L109.78382812500001,84.05154639865913L109.78382812500001,84.52946116756969L109.8516796875,84.87944920598412L109.9873828125,84.40034975055227L110.05523437500001,84.36289512381973L110.1230859375,83.21823290546351L110.1230859375,82.63395834501355L110.3944921875,83.62015877884092L110.46234374999999,83.79165524674333L110.6658984375,84.42778172353633L111.2765625,84.41283304448761L111.6158203125,84.36544768982631L111.819375,85.10111003502311L112.0229296875,85.04757308195492L112.1586328125,83.31845171787616L112.226484375,82.566209297607L112.5657421875,83.81207169367653L112.63359374999999,84.97756928567358L112.7014453125,85.41259447553318L113.1085546875,84.58262476812936L113.4478125,83.74191726937575L113.7870703125,83.82878634350311L114.3298828125,84.61536750604793L114.940546875,85.86938699926984L115.0083984375,87.18901008474461L115.07625,87.39769827986339L115.34765625,87.28268250424414L115.41550781250001,87.24047712841877L115.5512109375,85.81739084934742L115.89046875,86.18050288964639L116.161875,86.47473820731638L116.161875,86.64979536147277L116.568984375,85.21438810116862L116.840390625,85.8247147533505L117.0439453125,86.20653181075306L117.0439453125,86.67526462554487L117.111796875,87.559946824389L117.1796484375,88.08286003824709L117.383203125,88.07206584149581L118.197421875,86.23731268922874L118.26527343750001,85.46551598795487L118.60453125,85.75615733676095L118.6723828125,86.28858410803242L118.8080859375,86.84416373265445L118.8080859375,86.9687359473665L119.283046875,86.78239436198629L119.4866015625,85.44091868747883L119.69015625,80.33595210919547L119.7580078125,81.05980413720867L119.82585937500001,81.58788395066576L119.89371093749999,84.13280976696521L120.3008203125,86.19622919291483L120.4365234375,86.82797107694681L120.504375,87.3098085896063L120.640078125,87.98256851290989L120.911484375,84.29132950140236L120.9793359375,85.22686490118423L121.31859375,86.04402886648926L121.3864453125,86.14430699439816L121.79355468749999,85.5451607884485L121.79355468749999,85.07788466104975L121.86140625,85.94814425322878L121.99710937500001,85.15113930869184L122.1328125,86.2496910709227L122.3363671875,86.11554955351858L122.8791796875,84.40996736829584L123.082734375,84.58164719668095L123.1505859375,85.62845303968825L123.4219921875,86.43791252586983L123.625546875,84.7218431445782L123.8291015625,85.19685739355232L123.96480468749999,86.7423943087078L124.6433203125,84.59521963226499L124.7790234375,86.11662485218666L124.84687500000001,84.70952046324781L124.982578125,84.68640590753142L125.18613281249999,86.35922313359966L125.5932421875,86.82617288804606L125.8646484375,85.87065147147509L126.33960937500001,86.53381997020601L126.74671875000001,86.87765806717611L126.882421875,88.09138253809772L127.0859765625,88.02230515965877L127.3573828125,87.97625892294879L127.3573828125,87.77089613040349L127.42523437499999,84.6713742019339L127.42523437499999,83.20577470471088L127.7644921875,83.84197257365558L128.510859375,85.77396781289046L128.5787109375,86.72585702167032L128.5787109375,87.20272961592323L128.8501171875,85.40077872675049L129.18937499999998,85.4735485132618L129.2572265625,86.8608002473563L129.6643359375,86.87835197903614L129.73218749999998,84.98131476198375L129.8000390625,84.47544903569265L129.867890625,85.41543022997882L129.9357421875,85.00797759815677L130.00359375,83.67029631530022L130.6142578125,84.95306353009606L130.8856640625,85.32885402184843L131.29277343750002,82.33301972791823L131.360625,81.53292058773006L131.63203124999998,84.70071412047045L131.63203124999998,86.70804861935157L131.8355859375,88.2215649669499L131.9712890625,88.74748264065171L132.17484375,88.98237480905127L132.24269531250002,88.86880137634161L132.310546875,88.64408092168102L132.853359375,85.47034056465107L132.9212109375,85.53787438559698L132.9890625,82.58992038858831L132.9890625,83.59676268911106L133.396171875,86.32407174437687L134.0068359375,88.03297568517591L134.5496484375,86.98273483012714L134.8210546875,86.60048301475008L134.8210546875,86.64551221205846L134.9567578125,86.31197686318988L135.4995703125,87.17900680298268L135.63527343750002,88.20395658092497L135.77097656249998,88.90321878002165L135.838828125,89.2530099753901L135.9066796875,89.23432901328988L135.97453125,89.32012437279734L136.0423828125,89.4948657025638L136.17808593750001,89.59066327033895L136.2459375,89.33939658573345L136.5851953125,86.08188481512313L136.7208984375,86.11877179572568L136.9923046875,86.21704232154043L137.06015625,85.83418377712022L137.1280078125,86.02894996290198L137.3994140625,88.0244802476056L137.87437500000001,88.65348982658512L137.9422265625,89.19145518847222L138.01007812499998,88.86018695617466L138.07792968750002,89.09465915869524L138.6207421875,88.91943496213864L139.0278515625,88.19850503055162L139.8420703125,87.46032934177661L140.31703125,88.42245946400608L140.3848828125,88.07872763915805L140.5884375,86.9617590565122L140.5884375,85.67306293201268L140.6562890625,85.29558596502834L140.7919921875,85.1759972979094L140.9276953125,84.98422235704258L141.0633984375,85.01334571713285L141.13125,85.43071714961971L141.67406250000002,87.24274021739431L142.081171875,86.55599597109159L142.2847265625,86.1496769130993L142.35257812499998,83.82786872033883L142.5561328125,83.49461558289094L142.6918359375,85.73557308610339L143.5060546875,85.0249001222614L143.57390625,85.62901312735262L143.8453125,86.5009813544745L143.9131640625,87.19735379840502L143.981015625,87.83436217998805L144.0488671875,87.50096155263189L144.0488671875,87.0934842967423L144.7273828125,86.23580252389704L144.9309375,87.59253528472141L145.20234375,84.50275025421196L145.2701953125,84.31133296680737L145.338046875,84.77746527945374L145.609453125,82.95935482316438L146.01656250000002,84.7029700271282L146.0844140625,85.54879657379746L146.28796875,83.37578508030549L146.55937500000002,83.54756523433035L146.7629296875,84.9878509755693L146.83078125,83.86943412914448L146.966484375,84.16005604919536L147.1700390625,85.98867032601481L147.37359375,82.91260415121343L147.780703125,85.87852241479017L147.91640625000002,87.01374132165904L148.39136718749998,85.73620479144411L148.45921875000002,84.25995006265892L148.5270703125,85.81378199717992L148.59492187499998,87.60107839541591L148.7984765625,89.05635873737111L149.3412890625,89.48212863760496L149.54484375,90.50739990328135L150.15550781250002,90.16023653340963L150.29121093749998,90.39058029806196L150.35906250000002,90.76698261194772L150.5626171875,90.32888063009588L150.766171875,89.08953987091388L150.90187500000002,89.8047104191558L150.9697265625,89.13499981036443L151.17328125,89.3775148741642L151.2411328125,89.60810397976077L151.44468750000001,90.1800961747573L151.6482421875,90.44451799322006L151.851796875,90.66089142756961L151.9875,89.76170853017153L152.19105468749999,89.76454495134978L152.5303125,87.24744543280022L152.59816406250002,87.61601337301225L152.937421875,88.53435586596026L153.07312499999998,89.35669386409418L153.14097656250001,89.52687211844938L153.2766796875,89.97206579057544L153.8194921875,90.13702495738768L153.88734374999999,90.58457553294244L154.0908984375,90.51602798247501L154.2266015625,89.15673279887933L154.294453125,88.24626878972748L154.7694140625,88.64956974233725L155.17652343749998,88.24682908403202L155.380078125,88.8138767072399L155.7871875,89.6444374872549L155.7871875,90.18654482483689L155.9907421875,90.6005513246049L156.05859375,90.82900396040218L156.5335546875,90.69122636547368L156.6692578125,90.5506097092073L156.73710937500002,90.58973124109751L156.8049609375,91.06575790931609L156.87281249999998,91.4284640941411L157.008515625,91.55088909427661L157.551328125,91.33891676243348L157.9584375,91.6598607920182L157.9584375,91.81325614984267L158.1619921875,91.44655026913942L158.4333984375,91.43746153864024L159.2476171875,90.82346426856174L159.451171875,91.24469989584877L159.5190234375,91.94309530683552L160.19753906250003,91.1945991160166L160.3332421875,90.62860715637754L160.4689453125,90.62352739324261L160.4689453125,90.5058711283411L160.536796875,89.79891175705225L160.74035156250002,90.47297937082072L160.808203125,91.0091334486414L160.8760546875,91.64930292990262L161.21531249999998,91.42383840695891L161.4188671875,91.39022908418897L161.62242187500001,91.8053503700665L161.893828125,91.84885478825797L162.02953125,89.10470918503262L162.165234375,87.95111651233945L162.57234375,89.61862340179353L162.6401953125,90.06004669630887L162.7758984375,88.81856851397573L163.1830078125,89.6465046919502L163.31871093750001,88.48646044634484L163.45441406249998,87.60425648631276L163.52226562500002,88.10907072350355L163.8615234375,88.08172481770302L163.929375,87.70814510294787L163.99722656249997,87.07379131382103L164.4721875,88.8229635846539L165.015,86.70780259918712L165.150703125,88.92342520486243L165.42210937500002,90.12749029436267L166.236328125,86.1188844595664L166.3041796875,78.63597655421376L166.3041796875,74.59677167808542L166.5755859375,80.98555797780868L166.91484375,85.55853166448267L167.18625,82.94651743332858L167.3898046875,86.72621249691832L167.5255078125,85.55856253029619L167.9326171875,86.40565610719749L168.136171875,86.44658847327844L168.3397265625,89.66024140323688L168.950390625,91.72866874419942L169.08609375,93.3135902254778L169.4253515625,92.59922681067374L169.62890625,90.76848503240339L169.764609375,92.28499658279652L169.9003125,92.82729854210041L169.9681640625,93.83584288372887L170.307421875,93.57274955678557L170.3752734375,94.49322304428762L170.71453125,96.06832005958445L170.7823828125,96.13401751347791L170.85023437499999,96.41380768991559L171.0537890625,97.09715822126697L171.1894921875,97.58219560853378L171.1894921875,97.9314096184874L171.25734375,98.59075580113954L171.46089843750002,99.05712602579888L172.207265625,97.75368055131614L172.750078125,99.62629892285612L172.9536328125,101.11813839588135L172.9536328125,102.07365619528433L173.021484375,101.84789413246398L173.29289062499998,100.50926079372299L175.26058593750003,102.25973474593798L175.73554687499998,103.00207334922852L175.80339843750002,104.36975944539171L176.14265625000002,102.80022607942577L176.2105078125,102.44007720172499L176.27835937499998,102.30205100548324L176.34621093750002,103.43988222542637L176.4140625,104.18429858682494L176.4819140625,104.87510639348393L176.549765625,105.39740995914995L177.2961328125,104.62898579647896L177.4996875,104.27902537630452L177.5675390625,103.94208781349532L177.70324218750002,104.35756108221136L177.8389453125,104.84295922750269L178.2460546875,102.4289895747147L178.51746093749998,103.9750064961538L178.6531640625,103.4685216636911L178.6531640625,103.3635502591603L178.992421875,104.31067811259864L179.1959765625,104.65151979213499L179.7387890625,104.96413204879886L179.94234375000002,103.8659846175392L180.07804687499998,104.80030892225186L180.349453125,104.4306072429741L180.41730468749998,100.32680478310137L180.7565625,102.41952583759355L180.892265625,103.98985859693683L181.0958203125,105.0733840044832L181.2315234375,104.66457711715475L181.435078125,104.72652604019031L181.77433593749998,97.56400159499279L181.977890625,100.82686253886162L182.11359375,103.16895626684469L182.4528515625,104.45455180824068L182.92781250000002,104.23440164260228L183.19921875,104.32510691046015L183.2670703125,103.06242076452153L183.334921875,100.22944389122077L183.4027734375,98.78196037414082L183.5384765625,95.67380372247543L183.5384765625,95.38337862230208L184.21699218749998,99.34917496683319L184.21699218749998,101.40505546157829L184.28484375000002,101.67176097527307L184.4883984375,102.8975006295949L184.62410156250002,103.44160922092455L185.506171875,104.70602995389059L185.7097265625,104.94464132527524L185.8454296875,105.47688124183821L185.9811328125,105.019347351416L186.2525390625,104.39628241953693L186.320390625,102.76141807137397L186.863203125,104.12238399604041L186.9310546875,104.98990609100905L187.54171874999997,105.71763584922621L187.6095703125,106.00077791558228L187.677421875,106.73364515828999L187.948828125,106.84681887464471L188.0166796875,107.09559268377272L188.2880859375,106.70366896761685L188.35593749999998,106.52338891967075L188.35593749999998,106.0078798477487L188.8308984375,103.22083840834912L188.89874999999998,103.50497448087425L189.2380078125,104.60000848555977L189.305859375,104.27287359109172L189.71296875,102.8791393542527L189.7808203125,104.48507654493486L189.848671875,105.39132645026109L189.9165234375,106.37647525248087L190.32363281250002,107.01770292785064L190.934296875,102.50686353285886L191.40925781250002,104.84498309198882L191.6128125,105.81847713254216L191.88421875,106.51716789719853L192.155625,104.87634986907676L192.291328125,96.08498334648472L192.4948828125,100.12924883223927L192.56273437500002,102.56815164957855L192.56273437500002,104.1020190656647L192.90199218749999,105.48561443132947L193.648359375,100.06442871834511L193.7840625,101.66713990655943L193.9876171875,103.56433320375724L194.191171875,104.67519099115796L194.5304296875,104.17017025112787L194.66613281250002,101.64459636823145L194.8696875,97.67420327871525L195.00539062500002,99.36422673191319L195.0732421875,100.62159933641965L195.3446484375,103.08068844077238L195.4125,105.04931792654939L195.48035156249998,106.03203563514361L195.54820312500001,106.77959540261631L195.6160546875,106.7185253388115L195.68390625,106.57403628546567L195.68390625,106.41390063277028L195.9553125,105.71953217532919L196.02316406249997,102.66872296539955L196.091015625,94.83766618852621L196.091015625,91.10052831660593L196.1588671875,90.03452617143124L196.22671875,90.63479161787748L196.29457031249999,96.8021097532633L196.362421875,99.85898679604469L196.5659765625,102.82724977797471L196.76953125,104.87766451000891L196.83738281249998,105.88572519437305L196.90523437500002,106.57326674510539L197.58374999999998,106.65337220062514L197.6516015625,105.91586910424452L197.85515625,103.72199089569541L198.1265625,103.03609109268204L198.533671875,102.74133995580048L199.14433593750002,104.23937327508551L199.2121875,104.63477668868157L199.755,105.73338115437818L199.89070312500002,106.19976445172622L199.9585546875,106.43262807608284L199.9585546875,106.66497310050708L200.6370703125,106.54333505659332L201.4512890625,105.95564478414671L201.519140625,106.230829615061L201.9941015625,106.22409706433486L202.2655078125,99.69068166287664L202.5369140625,102.09522533022518L202.5369140625,103.6052747384895L202.6726171875,104.75140413142377L202.74046875,105.24512078263642L202.74046875,105.55922954419225L203.2154296875,104.37767361684026L203.48683593750002,104.08566521257191L204.233203125,104.1805618364614L204.4367578125,104.82891295109204L204.5724609375,105.35255362443532L204.77601562499999,104.6500581851745L205.2509765625,105.45180550919837L205.31882812499998,106.07511743529756L205.31882812499998,106.40727726990453L205.590234375,105.03708623473527L206.2008984375,105.40163810228121L206.7437109375,103.98806042179352L206.947265625,101.65784670534661L207.1508203125,102.98384203288713L207.1508203125,104.01879344249026L207.354375,103.98856768924547L207.82933593750002,105.29958966921897L207.8971875,105.40161192149598L208.1007421875,102.71033856708216L208.16859375,102.88110249899869L208.9828125,102.44774164555297L209.118515625,101.97451621968246L209.5934765625,103.9823224147878L209.72917968750002,104.50709237261941L210.33984375,105.9976910130441L210.61125,106.65664872584303L210.746953125,106.47701901430423L211.3576171875,106.82943784138284L211.4933203125,107.40134119356108L211.4933203125,107.82701016683042L211.56117187499999,107.78526900540984L211.62902343750002,107.9823796411228L211.696875,107.88079059480857L211.832578125,107.5672508817468L211.832578125,107.31931546180769L212.2396875,104.451353996094L212.44324218749998,101.09941709583757L212.5789453125,102.65024720358305L213.3253125,103.48927892085385L213.80027343749998,104.57299371264261L214.0716796875,103.7331679405881L214.34308593749998,105.38680826875247L214.68234375,106.10931045563626L214.7501953125,106.6007126336392L215.22515625,103.55037402501283L215.360859375,101.93220754895952L215.70011718749998,99.05232804875185L215.76796875000002,99.48948761141662L215.8358203125,102.03369217902244L216.44648437499998,102.01484298978141L216.5821875,99.157592330022L216.717890625,102.20513977625569L216.989296875,103.39901876858035L217.1928515625,97.83929273532526L217.260703125,99.60977566866096L217.3285546875,100.86773786124401L217.5999609375,103.62460928664692L217.803515625,105.4839570333923L217.93921875,105.93032737237405L218.4141796875,106.28780600823278L218.48203125,107.1003739440281L218.54988281250002,105.2778607609176L218.68558593749998,105.89054462923428L219.02484375,104.75669455695443L219.2283984375,105.79376165967162L219.6355078125,103.71096452614253L219.974765625,104.87831272606404L220.1783203125,106.4475464458725L220.1783203125,107.37957524669933L220.3140234375,107.57017944303811L220.517578125,107.8824826481799L220.7211328125,106.248130122991L220.92468749999998,104.304257043305L220.99253906250001,100.66479466444432L221.060390625,103.47709897013215L221.46749999999997,105.37883221418684L221.603203125,106.70599330650386L221.874609375,105.36531030249564L222.0103125,105.37794344690623L222.146015625,106.73812877575863L222.34957031250002,107.6159962859172L222.48527343749998,106.0720873939843L222.7566796875,105.32933588829742L222.89238281250002,107.3382167935795L222.960234375,108.4680423450724L223.02808593749998,108.6952969975624L223.0959375,109.36127379421514L223.36734374999997,109.3722556683468L223.4351953125,109.11890983103001L223.4351953125,108.72567607274623L223.63875,106.3764116524317L224.045859375,107.76405304423918L224.24941406250002,109.24549471786787L224.5208203125,108.12862233788472L224.58867187500002,106.06137589099428L224.92792968749998,108.07185674597277L224.99578125,107.54822882546657L225.4707421875,107.86133059978688L225.8778515625,108.53659096431853L225.945703125,108.06180031541263L226.08140625,109.08787870869998L226.14925781250003,107.52062066673814L226.48851562500002,106.48677388993647L226.5563671875,104.85569868187754L226.82777343749999,105.06097703993707L227.302734375,107.81880108011002L227.70984375,109.47038910881024L227.98125,109.15852438268269L228.04910156250003,108.5748020819259L228.1848046875,107.44481422174567L228.659765625,109.2666082203503L229.06687499999998,109.18050630212521L229.2704296875,109.63339527043121L229.5418359375,109.67782842472641L229.88109375,108.0939700008757L229.94894531249997,107.74063615409497L230.1525,108.60099401717164L230.288203125,107.62853731301294L230.4917578125,108.34827704580744L230.559609375,109.09418683857989L230.8988671875,109.1001779493368L230.96671874999998,109.363783772191L231.50953124999998,110.26769785209531L231.645234375,110.14472204918088L231.84878906249997,109.19008708680325L232.188046875,109.68713696411046L232.2558984375,109.63472635514016L232.66300781249998,109.45459501127289L232.7987109375,106.79555836625826L232.8665625,105.68163938904561L233.07011718750002,107.54843956381931L233.40937499999998,107.49830887010211L233.68078125,107.16645293210256L233.74863281249998,106.80624287589971L233.81648437500002,108.42228995123259L233.9521875,109.06175056512406L234.0200390625,110.11646343518446L234.2914453125,109.52845900803297L234.63070312500003,108.98927262752945L234.6985546875,106.89523498612459L234.96996093750002,107.98887437421769L235.0378125,107.20147737963215L235.17351562500002,102.1138452595664L235.17351562500002,102.90187728640593L235.85203125,105.07584537011678L235.987734375,104.83880937661108L236.0555859375,105.27132016359991L236.1234375,104.31327906016045L236.1912890625,105.20820611375692L236.53054687500003,105.91867035423589L237.1412109375,101.47241649108057L237.48046875,105.11304990297708L237.8197265625,107.19690113373294L237.95542968750001,108.2063665893139L238.0911328125,107.63933705328671L238.158984375,106.69343787256143L238.2946875,103.27034497553068L238.4982421875,106.1229645826059L238.4982421875,108.42127934402055L238.56609375,109.68275970998899L238.6339453125,110.42927843004563L238.7696484375,110.80701912047525L239.24460937499998,110.84002960087095L239.3803125,110.21966992434601L239.516015625,109.83267470965826L240.058828125,109.3513739750984L240.1266796875,109.70406418519433L240.2623828125,109.88065692669481L240.3980859375,108.5444198581755L240.6694921875,105.37471811770479L240.9408984375,107.96052012919831L241.00875,109.19344576247204L241.3480078125,109.88265364198487L241.55156250000002,107.68873571253975L241.6194140625,106.0155667954514L241.82296875,105.48846314512669L241.89082031249998,103.59847525455343L241.958671875,103.70675700325441L242.23007812499998,104.71822480411534L242.36578125,107.10322496921542L242.4336328125,107.39118174889121L242.501484375,106.34072060691378L242.5693359375,107.35959993585186L242.772890625,107.47066658407988L243.044296875,108.8804076175126L243.315703125,109.57106375655924L243.45140625000002,109.45205301023361L243.58710937499998,109.91324567383627L243.7228125,109.71044049413662L244.265625,108.35158794175582L244.6048828125,103.95554497868417L244.6048828125,101.34743112939952L244.672734375,100.84043698282059L244.8762890625,104.79154151342917L244.944140625,106.99320342737006L245.07984375,108.63796786028684L245.35125,109.24524258509402L245.48695312499999,105.28940149308318L245.62265625,106.31086113548919L245.758359375,108.092440238575L245.9619140625,109.79187695045066L246.36902343749998,107.32104422961946L246.6404296875,107.14473345864975L247.0475390625,106.30527032408614L247.25109375,108.39737849827706L247.92960937499998,108.60115903653362L248.0653125,109.48577899160581L248.201015625,110.30219398591476L248.201015625,110.74579285772775L248.47242187499998,108.85849573130687L249.015234375,108.99682073145279L249.42234375,104.97079311420025L249.7616015625,106.28955498104992L250.03300781250002,108.37220983166914L250.23656250000002,109.23267689819787L250.9829296875,109.76706566498072" style="fill: none;" fill="none"></path></g></g></g></g><g opacity="0.2"><g><g><g><path stroke="rgb(255, 112, 67)" stroke-width="2px" d="M42.950039062500004,-2.3231758276621406L43.0857421875,0.4352329572041924L43.15359375,-0.041041930516541925L43.832109375,2.8336749871571953L43.9678125,7.998262484868377L44.1713671875,7.286276658376067L44.374921875,8.242624441782624L44.4427734375,7.991592526435852L44.7141796875,8.963823954264313L45.121289062500004,12.312166531880706L45.3926953125,15.08804146448773L45.6641015625,14.192121863365173L46.206914062500005,18.217646916707366L46.342617187500004,19.571894645690918L46.681875,18.546631773312896L48.174609374999996,20.566597620646178L48.2424609375,23.659606218338013L48.785273437499995,24.7443126042684L48.853125,23.734652042388916L48.9209765625,24.046076973279327L48.988828125,23.115904966990172L49.531640625,27.745981454849243L49.5994921875,29.334041118621826L49.66734375,24.54687480131787L50.0066015625,28.715762933095306L50.5494140625,25.44267717997235L50.617265625,21.56498138109842L51.29578125,29.535921653111785L51.3636328125,26.925846179326385L51.431484375000004,35.233121156692505L51.702890625,28.17213201522827L51.906445312500004,31.66553739706677L51.974296875,35.79664472738901L52.11,36.62825608253479L52.3135546875,38.9643474817276L52.4492578125,29.850757757822663L52.788515625,36.188753883043944L52.992070312500005,37.12401334444684L53.195625,29.071017344792693L53.331328125,27.72416635354361L53.5348828125,31.38911509513855L53.602734375000004,30.460736592610687L53.7384375,29.262394746144622L53.8062890625,37.01476200421652L53.8062890625,35.603286266326904L54.00984375,37.4754111369451L54.3491015625,26.423852682113647L54.959765625,38.45755958557129L55.027617187500006,40.35474661986035L55.434726562499996,42.69763692220053L55.63828125,36.94276396433514L55.706132812499995,26.53470997015637L55.773984375,8.305643240610777L55.841835937499994,31.677247921625792L55.9096875,45.088881492614746L56.316796874999994,13.94985818862915L56.4525,29.6289142370224L56.588203125,40.68083608150482L56.656054687499996,45.409016052881896L56.791757812499995,44.224201679229736L56.9274609375,43.901793003082275L56.9274609375,40.29042665163675L57.0631640625,24.91903269290924L57.266718749999995,34.024123787879944L58.1487890625,40.94558302561441L58.2844921875,46.44944751262665L58.4201953125,45.88205560048422L58.4201953125,43.417418042818724L58.6916015625,36.261361479759216L58.9630078125,45.161160866419465L59.0987109375,31.244474291801453L59.2344140625,38.07963434855145L59.43796875,36.577768365542084L59.573671875,27.512755632400513L59.845078125,44.603357752164214L59.98078125,33.57784612973532L60.0486328125,30.17207626501721L60.0486328125,32.444422086079925L60.116484375,44.8986528714498L60.1843359375,41.52024273077646L60.387890625000004,50.15666667620343L60.52359375,31.90972352027893L60.5914453125,43.12533481915793L60.795,27.13507656256357L60.795,30.384143431981414L60.862851562500005,43.2093950510025L60.998554687500004,30.802815198898315L61.1342578125,42.87403329213461L61.2699609375,31.635047833124815L61.3378125,49.52661935488385L61.3378125,48.53613638877869L62.15203125,51.21910079320273L62.287734375,56.78467118740082L63.37335937500001,43.16926980018616L63.5769140625,45.28962496916455L63.644765625,52.47260753313702L63.84832031249999,60.66050314903261L64.11972656249999,56.23861376444499L64.32328125,57.99538000424704L64.458984375,49.2976135412852L64.6625390625,60.31110986073813L64.730390625,56.64793117841086L64.9339453125,45.14817261695862L65.001796875,58.89269455273946L65.4767578125,38.3217690785726L65.544609375,58.7887416680654L65.8838671875,49.57305117448172L65.95171875,42.08997909228009L66.29097656249999,58.32653347651164L66.4266796875,54.08739391962689L66.5623828125,37.446738521258055L66.8337890625,58.03469642003378L66.901640625,58.52303349971771L67.1051953125,46.85358369350433L67.1051953125,46.564794421195984L67.30875,42.18702757358551L67.715859375,53.50279374917348L67.9194140625,56.07253297170004L67.987265625,48.759562412897736L68.32652343749999,47.78611187140146L68.394375,46.948604226112366L68.66578125,66.20983823140463L69.072890625,50.823861797650665L69.344296875,52.70660702387494L69.75140625,64.14859835306804L69.95496093749999,57.814130624135345L70.0906640625,53.920504291852325L70.158515625,51.834635972976685L70.29421875,64.51797807216644L70.429921875,65.32457415262859L70.4977734375,62.32253019014996L70.6334765625,47.427727619806916L70.701328125,64.51272650559744L70.972734375,60.37123326460521L71.17628906249999,66.04829394817354L71.3119921875,64.50365348656973L71.37984375,67.40890685717267L71.7191015625,62.06591848532359L71.85480468749999,60.1700091759364L72.32976562500001,69.92629452546439L73.07613281249999,61.102935910224915L73.143984375,62.25211465358734L73.27968750000001,64.08138298988342L73.27968750000001,65.93265398343405L73.34753906249999,66.03658342361452L73.95820312500001,68.44230496883394L74.3653125,61.80407865842183L74.3653125,63.04568145672482L74.5688671875,67.84645144144694L74.63671875,66.81286577383678L74.8402734375,71.13996907075247L75.72234375000001,65.38929267724355L75.7901953125,63.30885175863904L76.12945312500001,71.70921309789023L76.4687109375,71.07470546166103L76.6044140625,65.60550951957704L76.672265625,61.43901272614798L77.35078125,70.74436082442602L77.5543359375,73.96729294459026L77.8257421875,74.48316558202109L78.029296875,74.89694917201996L78.36855468750001,69.35955905914307L78.572109375,73.8434415459633L78.6399609375,70.67781949043274L78.9113671875,66.37195690472922L79.0470703125,70.94948256015778L79.114921875,71.9574316740036L79.250625,70.20138635238013L79.250625,70.96813851594926L79.8612890625,74.46306192874908L80.4041015625,69.33638417720795L80.8790625,77.37335000435513L81.014765625,77.02535166343054L81.014765625,76.93468594551086L81.0826171875,75.06693347295125L81.15046875,73.59575047095618L81.8968359375,74.4870163400968L82.0325390625,70.9752949476242L82.1682421875,75.56329443057379L82.3039453125,75.7713232835134L82.371796875,74.20591100056967L82.5075,75.20829204718272L82.643203125,73.35872664054234L82.77890624999999,69.19235293070476L83.593125,76.18672454357147L83.66097656250001,76.43103961149852L84.000234375,73.59087401628496L84.271640625,76.74287482102713L84.33949218750001,74.45873641967773L84.40734375,76.5518842538198L84.4751953125,76.8387862443924L84.814453125,75.828908820947L85.085859375,75.92759255568187L85.5608203125,77.9470543464025L85.628671875,76.2968140244484L85.69652343749999,77.61968129873276L86.5107421875,77.01294366518657L86.57859375,76.55399425824484L86.64644531249999,76.61275202035904L87.12140625,76.11423416932423L87.12140625,76.13233331839244L87.4606640625,76.45094398657481L87.66421875,77.70753367741904L87.79992187500001,75.28214806318285L88.07132812500001,77.88737638791402L88.342734375,78.01011417309444L88.342734375,78.19704298178357L88.5462890625,78.2249126235644L88.81769531249999,76.58673449357352L89.08910156249999,74.55278400580089L89.156953125,74.01639743645987L89.29265625000001,76.37193604310355L89.428359375,71.77953485647838L89.5640625,77.8283900419871L89.699765625,79.80630819002788L89.83546875,78.49652880430223L89.97117187500001,79.38098990917207L90.24257812500001,77.77123236656189L90.513984375,75.55187110106151L90.6496875,75.45177483558655L90.7175390625,75.5244937936465L90.9889453125,74.25279998779297L91.26035156249999,76.5510988632838L91.3960546875,77.41589589913686L91.46390625000001,77.26922128597897L91.46390625000001,76.79557804266614L91.5317578125,71.18580305576324L91.6674609375,76.0417086283366L91.87101562500001,77.44119250774384L92.21027343749999,77.43972136576971L92.54953125,77.13656648000082L92.68523437500001,77.80884319543839L92.7530859375,78.53800211350124L92.82093750000001,75.94604923327765L93.0244921875,76.10146864255269L93.09234375000001,75.58636967341106L93.1601953125,77.31753452618918L93.1601953125,76.78091937303543L93.36375,75.85075322786967L93.8387109375,77.26682408650716L94.1101171875,76.98078954219818L94.313671875,77.82708301146825L94.585078125,71.97333290179571L94.585078125,73.39687669277191L94.9243359375,77.74404847621919L95.12789062499999,77.06435743967693L95.535,73.8680055141449L95.8742578125,77.16906054814658L96.0099609375,77.24347923199338L96.34921874999999,74.37811080614726L96.484921875,78.0665743748347L96.62062499999999,73.79375680287679L96.756328125,75.94457809130351L97.2312890625,70.31414264440538L97.29914062499999,76.79997388521831L97.50269531250001,76.62962619463605L97.57054687499999,76.30149120092393L97.57054687499999,77.32589248816173L98.72402343750001,74.75676282246907L98.927578125,80.39129519462585L99.198984375,80.64256155490877L99.40253906250001,80.07413808504741L99.5382421875,79.78107605377835L99.60609375,81.26875225702922L99.67394531250001,81.18195488055548L99.8775,78.52796787023546L99.94535156250001,80.09176248311996L100.013203125,74.56478758653006L100.14890625,73.5284237464269L100.62386718750001,78.93749042352042L100.69171874999999,78.24851536750793L101.098828125,79.70746620496114L101.16667968750001,77.99280627568564L101.16667968750001,79.07886071999869L101.641640625,81.702041665713L101.77734375,81.70832479000093L101.913046875,80.9872776667277L102.04875,81.06968506177266L102.184453125,79.81408003966014L102.32015625,75.67806108792624L102.5915625,77.94647995630902L102.65941406249999,77.03726732730865L102.7951171875,80.0151517391205L102.86296875000001,81.41059144337973L102.998671875,81.8388285636902L103.134375,80.7329869667689L103.81289062500001,80.93431655565898L104.22,79.80312560002011L104.22,78.8690676689148L104.355703125,75.20768249034882L104.355703125,75.99165463447571L104.4235546875,78.94175732135773L104.49140625,79.19045650959016L104.627109375,82.47428570191067L104.76281250000001,82.46908688545228L104.9663671875,83.24079169829687L105.03421875000001,83.24103786547978L105.5091796875,81.19012528657913L105.6448828125,81.86001066366833L105.9162890625,82.64333222309749L105.9162890625,82.12022109826407L106.526953125,82.54141314824422L106.66265625,84.7905254761378L106.66265625,85.13466719786327L106.798359375,84.92474520206451L106.8662109375,85.73420151074728L107.069765625,84.98312785228094L107.341171875,84.28932909170787L107.476875,85.1399656534195L107.5447265625,84.34778793652852L107.612578125,81.96129087607068L107.74828125,77.2087286313375L108.0875390625,82.89691958824795L108.15539062500001,84.75665990511577L108.22324218749999,84.64874490102133L108.29109375,84.78813999891283L108.42679687500001,85.40938391288121L108.4946484375,86.40555802981059L108.7660546875,84.52997509638469L108.9017578125,84.37384063005449L109.37671875000001,79.60735821723938L109.512421875,82.42857480049135L109.5802734375,84.71596026420593L109.78382812500001,84.96826990445456L109.78382812500001,85.24633332093556L109.8516796875,85.40443126360576L109.9873828125,83.68170056740443L110.05523437500001,84.30671318372092L110.1230859375,81.50123957792918L110.1230859375,81.75754650433858L110.3944921875,85.09945942958197L110.46234374999999,84.04889994859697L110.6658984375,85.3819714387258L111.2765625,84.3904100259145L111.6158203125,84.29436965783438L111.819375,86.2046035528183L112.0229296875,84.96726765235266L112.1586328125,80.72476967175803L112.226484375,81.43784566720328L112.5657421875,85.68086528778076L112.63359374999999,86.72581567366917L112.7014453125,86.06513226032257L113.1085546875,83.33767020702363L113.4478125,82.48085602124532L113.7870703125,83.95908995469412L114.3298828125,85.79523924986522L114.940546875,87.75041623910269L115.0083984375,89.16844471295676L115.07625,87.71073057254156L115.34765625,87.11015884081523L115.41550781250001,87.17716906468075L115.5512109375,83.68276143074037L115.89046875,86.72517095009486L116.161875,86.91609118382137L116.161875,86.91238109270732L116.568984375,83.06127721071243L116.840390625,86.74020473162334L117.0439453125,86.77925739685695L117.0439453125,87.37836384773254L117.111796875,88.88697012265524L117.1796484375,88.86722985903423L117.383203125,88.05587454636893L118.197421875,83.48518296082815L118.26527343750001,84.30782093604407L118.60453125,86.19211935997009L118.6723828125,87.08722426493964L118.8080859375,87.67753316958745L118.8080859375,87.15559426943463L119.283046875,86.50288198391597L119.4866015625,83.42870517571768L119.69015625,72.67850224177043L119.7580078125,82.14558217922847L119.82585937500001,82.3800036708514L119.89371093749999,87.95019849141438L120.3008203125,89.29135833183925L120.4365234375,87.7755839029948L120.504375,88.03256485859555L120.640078125,88.9917083978653L120.911484375,78.75447098414104L120.9793359375,86.63016800085704L121.31859375,87.26977481444676L121.3864453125,86.2947241862615L121.79355468749999,84.64644147952399L121.79355468749999,84.37697046995163L121.86140625,87.2535336414973L121.99710937500001,83.9556318918864L122.1328125,87.89751871426901L122.3363671875,85.91433727741241L122.8791796875,81.85159409046175L123.082734375,84.83916693925858L123.1505859375,87.19866180419923L123.4219921875,87.65210175514223L123.625546875,82.14773907264073L123.8291015625,85.90937876701355L123.96480468749999,89.060699681441L124.6433203125,81.37445761760077L124.7790234375,88.39873268206914L124.84687500000001,82.59886387983958L124.982578125,84.6517340739568L125.18613281249999,88.86844897270204L125.5932421875,87.52659751971564L125.8646484375,84.43736934661865L126.33960937500001,87.52857271830241L126.74671875000001,87.39341521263124L126.882421875,89.91196924448013L127.0859765625,87.91868909200033L127.3573828125,87.90718956788382L127.3573828125,87.46285194158554L127.42523437499999,80.02209130922955L127.42523437499999,81.0073754588763L127.7644921875,84.79626937707265L128.510859375,88.67196067174277L128.5787109375,88.15369083484015L128.5787109375,87.91803850730261L128.8501171875,82.6978523929914L129.18937499999998,85.58270319302878L129.2572265625,88.94167784849803L129.6643359375,86.90467957655589L129.73218749999998,82.1357589364052L129.8000390625,83.71665044625601L129.867890625,86.8254020214081L129.9357421875,84.39679865042369L130.00359375,81.66377439101538L130.6142578125,86.87721435228984L130.8856640625,85.89253975947699L131.29277343750002,77.8392682870229L131.360625,80.33277187744777L131.63203124999998,89.4524044195811L131.63203124999998,89.71905036767325L131.8355859375,90.49183948834738L131.9712890625,89.53635915120444L132.17484375,89.3347130616506L132.24269531250002,88.69844122727713L132.310546875,88.30700023969014L132.853359375,80.70973002910614L132.9212109375,85.63917511701584L132.9890625,78.16798939307532L132.9890625,85.10702613989513L133.396171875,90.4150353272756L134.0068359375,90.59633159637453L134.5496484375,85.40737354755403L134.8210546875,86.02710529168448L134.8210546875,86.71305600802104L134.9567578125,85.81167383988699L135.4995703125,88.47955171267192L135.63527343750002,89.74138124783835L135.77097656249998,89.95211207866669L135.838828125,89.7776967684428L135.9066796875,89.20630757013957L135.97453125,89.44881741205852L136.0423828125,89.7569776972135L136.17808593750001,89.73435962200165L136.2459375,88.96249655882518L136.5851953125,81.19561715920767L136.7208984375,86.17410226662953L136.9923046875,86.36444811026257L137.06015625,85.25989596048991L137.1280078125,86.32109924157461L137.3994140625,91.01777567466101L137.87437500000001,89.59700419505438L137.9422265625,89.9984032313029L138.01007812499998,88.36328460772832L138.07792968750002,89.4463674624761L138.6207421875,88.65659866730373L139.0278515625,87.1171101331711L139.8420703125,86.3530658086141L140.31703125,89.86565464735031L140.3848828125,87.56312990188599L140.5884375,85.28630618254344L140.5884375,83.74001874526343L140.6562890625,84.7293705145518L140.7919921875,84.99661429723103L140.9276953125,84.6965599457423L141.0633984375,85.05703075726828L141.13125,86.05677429835002L141.67406250000002,89.9607748190562L142.081171875,85.52587960163754L142.2847265625,85.54019832611085L142.35257812499998,80.34515643119813L142.5561328125,82.99473587671916L142.6918359375,89.09700934092204L143.5060546875,83.95889067649841L143.57390625,86.53518263498943L143.8453125,87.80893369515736L143.9131640625,88.2419124643008L143.981015625,88.78987475236258L144.0488671875,87.0008606115977L144.0488671875,86.48226841290791L144.7273828125,84.94927986462912L144.9309375,89.62763442595801L145.20234375,79.86807270844778L145.2701953125,84.02420703570048L145.338046875,85.47666374842328L145.609453125,80.23218913873038L146.01656250000002,87.31839283307394L146.0844140625,86.81753639380138L146.28796875,80.11626784006755L146.55937500000002,83.80523546536764L146.7629296875,87.14827958742778L146.83078125,82.19180885950726L146.966484375,84.5959889292717L147.1700390625,88.731591741244L147.37359375,78.2985048890114L147.780703125,90.32739981015524L147.91640625000002,88.71656968196234L148.39136718749998,83.81989999612173L148.45921875000002,82.04556796948116L148.5270703125,88.14452989896138L148.59492187499998,90.28202299276988L148.7984765625,91.23927925030391L149.3412890625,90.12078348795573L149.54484375,92.04530680179596L150.15550781250002,89.6394914786021L150.29121093749998,90.73609594504039L150.35906250000002,91.3315860827764L150.5626171875,89.67172765731813L150.766171875,87.23052873214085L150.90187500000002,90.87746624151866L150.9697265625,88.13043389717738L151.17328125,89.74128746986389L151.2411328125,89.95398763815562L151.44468750000001,91.0380844672521L151.6482421875,90.84115072091421L151.851796875,90.98545157909393L151.9875,88.4129341840744L152.19105468749999,89.76879958311717L152.5303125,83.47179615497589L152.59816406250002,88.16886528333029L152.937421875,89.9118696053823L153.07312499999998,90.59020086129507L153.14097656250001,89.78213949998221L153.2766796875,90.63985629876456L153.8194921875,90.384463707606L153.88734374999999,91.25590139627457L154.0908984375,90.4132066567739L154.2266015625,87.11779002348582L154.294453125,86.88057277599971L154.7694140625,89.25452117125194L155.17652343749998,87.64271809657414L155.380078125,89.66444814205171L155.7871875,90.89027865727743L155.7871875,90.99970583120982L155.9907421875,91.2215610742569L156.05859375,91.17168291409811L156.5335546875,90.48455997308096L156.6692578125,90.33968472480774L156.73710937500002,90.6484135389328L156.8049609375,91.77979791164398L156.87281249999998,91.97252337137859L157.008515625,91.73452659447989L157.551328125,91.02095826466879L157.9584375,92.14127683639528L157.9584375,92.04334918657939L158.1619921875,90.89649144808452L158.4333984375,91.42382844289145L159.2476171875,89.90246836344402L159.451171875,91.87655333677928L159.5190234375,92.99068842331569L160.19753906250003,90.07185482978821L160.3332421875,89.77961921691895L160.4689453125,90.61590774854025L160.4689453125,90.32938673098883L160.536796875,88.73847270011903L160.74035156250002,91.48408079147339L160.808203125,91.81336456537247L160.8760546875,92.60955715179443L161.21531249999998,91.08564162254335L161.4188671875,91.33981510003409L161.62242187500001,92.42803229888281L161.893828125,91.91411141554515L162.02953125,84.9884907801946L162.165234375,86.22072750329973L162.57234375,92.11988373597464L162.6401953125,90.72218163808188L162.7758984375,86.95635124047598L163.1830078125,90.88840895891191L163.31871093750001,86.74639407793681L163.45441406249998,86.28095054626465L163.52226562500002,88.86629207928976L163.8615234375,88.04070595900218L163.929375,87.14777553081512L163.99722656249997,86.12226063013077L164.4721875,91.44672199090323L165.015,83.53506112098695L165.150703125,92.24685911337535L165.42210937500002,91.93358792861304L166.236328125,80.10597570737204L166.3041796875,67.4116146961848L166.3041796875,68.53796436389288L166.5755859375,90.5687374273936L166.91484375,92.41799219449362L167.18625,79.02849608659744L167.3898046875,92.39575509230296L167.5255078125,83.80708758036296L167.9326171875,87.67629647254944L168.136171875,86.5079870223999L168.3397265625,94.48072079817454L168.950390625,94.83130975564322L169.08609375,95.69097244739532L169.4253515625,91.52768168846767L169.62890625,88.02237236499786L169.764609375,94.55976390838624L169.9003125,93.64075148105623L169.9681640625,95.34865939617157L170.307421875,93.17810956637065L170.3752734375,95.87393327554068L170.71453125,98.43096558252971L170.7823828125,96.23256369431815L170.85023437499999,96.83349295457205L171.0537890625,98.12218401829402L171.1894921875,98.30975168943405L171.1894921875,98.45523063341777L171.25734375,99.57977507511775L171.46089843750002,99.75668136278789L172.207265625,95.79851233959198L172.750078125,102.43522648016612L172.9536328125,103.35589760541917L172.9536328125,103.50693289438884L173.021484375,101.50925103823344L173.29289062499998,98.50131078561148L175.26058593750003,104.88544567426047L175.73554687499998,104.11558125416438L175.80339843750002,106.42128858963649L176.14265625000002,100.4459260304769L176.2105078125,101.8998538851738L176.27835937499998,102.09501171112062L176.34621093750002,105.1466290553411L176.4140625,105.30092312892279L176.4819140625,105.9113181034724L176.549765625,106.18086530764899L177.2961328125,103.47634955247244L177.4996875,103.75408474604289L177.5675390625,103.43668146928152L177.70324218750002,104.98077098528545L177.8389453125,105.57105644543967L178.2460546875,98.80803509553274L178.51746093749998,106.29403187831244L178.6531640625,102.7087944149971L178.6531640625,103.2060931523641L178.992421875,105.73136989275615L179.1959765625,105.16278231143951L179.7387890625,105.43305043379466L179.94234375000002,102.21876347064973L180.07804687499998,106.20179537932079L180.349453125,103.87605472405752L180.41730468749998,94.17110109329225L180.7565625,105.55860741933188L180.892265625,106.34535773595175L181.0958203125,106.69867211580278L181.2315234375,104.05136678616206L181.435078125,104.81944942474367L181.77433593749998,86.8202149271965L181.977890625,105.72115395466487L182.11359375,106.68209685881934L182.4528515625,106.38294512033463L182.92781250000002,103.9041763941447L183.19921875,104.46116481224696L183.2670703125,101.16839154561362L183.334921875,95.97997858126959L183.4027734375,96.61073509852092L183.5384765625,91.01156874497732L183.5384765625,94.9477409720421L184.21699218749998,105.29786948362987L184.21699218749998,104.48887620369594L184.28484375000002,102.07181924581528L184.4883984375,104.73611011107764L184.62410156250002,104.25777210791907L185.506171875,106.60266105333965L185.7097265625,105.3025583823522L185.8454296875,106.2752411166827L185.9811328125,104.33304651578268L186.2525390625,103.46168502171835L186.320390625,100.30912154912949L186.863203125,106.16383288304012L186.9310546875,106.29118923346202L187.54171874999997,106.80923048655193L187.6095703125,106.42549101511638L187.677421875,107.83294602235159L187.948828125,107.01657944917679L188.0166796875,107.46875339746475L188.2880859375,106.11578339338304L188.35593749999998,106.25296884775162L188.35593749999998,105.23461623986563L188.8308984375,99.04027624924979L188.89874999999998,103.93117858966193L189.2380078125,106.24255949258804L189.305859375,103.78217124938966L189.71296875,100.7885379989942L189.7808203125,106.89398233095805L189.848671875,106.75070130825043L189.9165234375,107.85419845581055L190.32363281250002,107.97954444090526L190.934296875,95.7406044403712L191.40925781250002,108.35216243068378L191.6128125,107.2787181933721L191.88421875,107.5652040441831L192.155625,102.41512282689413L192.291328125,82.89793356259665L192.4948828125,106.19564706087114L192.56273437500002,106.22650587558748L192.56273437500002,106.40282018979391L192.90199218749999,107.56100747982661L193.648359375,91.93265014886858L193.7840625,104.07120668888092L193.9876171875,106.41012314955394L194.191171875,106.34147767225902L194.5304296875,103.41263914108276L194.66613281250002,97.85623554388683L194.8696875,91.71861364444098L195.00539062500002,101.89926191171011L195.0732421875,102.50765824317932L195.3446484375,106.76932209730148L195.4125,108.00226215521495L195.48035156249998,107.50611219803493L195.54820312500001,107.90093505382538L195.6160546875,106.62692024310431L195.68390625,106.35730270544688L195.68390625,106.17369715372722L195.9553125,104.67797948916754L196.02316406249997,98.09250915050507L196.091015625,83.09108102321625L196.091015625,85.4948215087255L196.1588671875,88.43552295366925L196.22671875,91.5351897875468L196.29457031249999,106.05308695634207L196.362421875,104.44430236021678L196.5659765625,107.27964425086975L196.76953125,107.95328660806021L196.83738281249998,107.3978162209193L196.90523437500002,107.60457907120387L197.58374999999998,106.77353038390478L197.6516015625,104.80961445967357L197.85515625,100.43117358287176L198.1265625,102.00724138816199L198.533671875,102.29921325047812L199.14433593750002,106.48642325401306L199.2121875,105.22788180907568L199.755,107.38128785292308L199.89070312500002,106.89933939774832L199.9585546875,106.78192351261775L199.9585546875,107.01349063714346L200.6370703125,106.36087799072266L201.4512890625,105.07410937547684L201.519140625,106.6436068614324L201.9941015625,106.21399823824565L202.2655078125,89.8905585606893L202.5369140625,105.70204083124797L202.5369140625,105.87034885088603L202.6726171875,106.4705982208252L202.74046875,105.98569575945537L202.74046875,106.03039268652599L203.2154296875,102.60533972581229L203.48683593750002,103.64765260616939L204.233203125,104.32290677229564L204.4367578125,105.80143962303798L204.5724609375,106.13801463445029L204.77601562499999,103.59631502628326L205.2509765625,106.65442649523418L205.31882812499998,107.01008532444637L205.31882812499998,106.90551702181499L205.590234375,102.98179968198141L206.2008984375,105.94846590360007L206.7437109375,101.86769390106201L206.947265625,98.16252613067627L207.1508203125,104.9728350241979L207.1508203125,105.57122055689494L207.354375,103.94322905937831L207.82933593750002,107.26612263917923L207.8971875,105.5546452999115L208.1007421875,98.67342853546144L208.16859375,103.13724839687349L208.9828125,101.79770036538443L209.118515625,101.26467808087668L209.5934765625,106.99403170744579L209.72917968750002,105.29424730936687L210.33984375,108.23358897368114L210.61125,107.64508529504141L210.746953125,106.20757444699606L211.3576171875,107.35806608200073L211.4933203125,108.25919622182846L211.4933203125,108.46551362673442L211.56117187499999,107.72265726327898L211.62902343750002,108.27804559469223L211.696875,107.72840702533723L211.832578125,107.09694131215414L211.832578125,106.94741233189902L212.2396875,100.1494117975235L212.44324218749998,96.07151174545288L212.5789453125,104.97649236520132L213.3253125,104.74782649676006L213.80027343749998,106.19856590032578L214.0716796875,102.47342928250632L214.34308593749998,107.86726876099905L214.68234375,107.19306373596191L214.7501953125,107.33781590064368L215.22515625,98.97486611207327L215.360859375,99.50495783487956L215.70011718749998,94.7325087984403L215.76796875000002,100.14522695541382L215.8358203125,105.84999903043112L216.44648437499998,101.9865692059199L216.5821875,94.8717163403829L216.717890625,106.77646094560623L216.989296875,105.18983725706737L217.1928515625,89.49970368544261L217.260703125,102.26550006866456L217.3285546875,102.75468115011851L217.5999609375,107.75991642475128L217.803515625,108.27297865351042L217.93921875,106.59988288084666L218.4141796875,106.82402396202087L218.48203125,108.3192258477211L218.54988281250002,102.54409098625183L218.68558593749998,106.80957043170929L219.02484375,103.05591944853465L219.2283984375,107.3493623137474L219.6355078125,100.5867688258489L219.974765625,106.6293350259463L220.1783203125,108.80139702558519L220.1783203125,108.77761844793956L220.3140234375,107.8560857375463L220.517578125,108.35093745589258L220.7211328125,103.79660133520763L220.92468749999998,101.388447423776L220.99253906250001,95.20560109615326L221.060390625,107.6955554286639L221.46749999999997,108.23143208026887L221.603203125,108.69673494497935L221.874609375,103.35428579648337L222.0103125,105.3968931635221L222.146015625,108.77840676903725L222.34957031250002,108.9327975511551L222.48527343749998,103.75622405608496L222.7566796875,104.2152086297671L222.89238281250002,110.35153815150262L222.960234375,110.16278067231178L223.02808593749998,109.03617897629738L223.0959375,110.36023898919424L223.36734374999997,109.38872847954433L223.4351953125,108.73889107505481L223.4351953125,108.13582543532054L223.63875,102.85251502195995L224.045859375,109.84551513195038L224.24941406250002,111.46765722831091L224.5208203125,106.45331376791L224.58867187500002,102.96050622065863L224.92792968749998,111.08757802844048L224.99578125,106.76278694470724L225.4707421875,108.33098326126735L225.8778515625,109.54948151111603L225.945703125,107.34961434205374L226.08140625,110.62699629863104L226.14925781250003,105.16973360379538L226.48851562500002,104.936003724734L226.5563671875,102.40908586978914L226.82777343749999,105.36889457702638L227.302734375,111.95553714036943L227.70984375,111.94777115186055L227.98125,108.69072729349138L228.04910156250003,107.69921863079071L228.1848046875,105.74983243147533L228.659765625,111.99929921825728L229.06687499999998,109.05135342478754L229.2704296875,110.31272872289023L229.5418359375,109.74447815616927L229.88109375,105.7181823650996L229.94894531249997,107.21063538392386L230.1525,109.89153081178667L230.288203125,106.16985225677492L230.4917578125,109.42788664499919L230.559609375,110.21305152773857L230.8988671875,109.10916461547217L230.96671874999998,109.75919250647227L231.50953124999998,111.6235689719518L231.645234375,109.96025834480922L231.84878906249997,107.7581346432368L232.188046875,110.43271178007126L232.2558984375,109.55611044168472L232.66300781249998,109.18439799547195L232.7987109375,102.80700339873633L232.8665625,104.01076092322668L233.07011718750002,110.34863982597987L233.40937499999998,107.42311282952627L233.68078125,106.66866902510326L233.74863281249998,106.26592779159546L233.81648437500002,110.84636056423189L233.9521875,110.02094148596129L234.0200390625,111.69853274027507L234.2914453125,108.64645236730576L234.63070312500003,108.18049305677414L234.6985546875,103.75417852401733L234.96996093750002,109.62933345635733L235.0378125,106.02038188775381L235.17351562500002,94.48239707946777L235.17351562500002,104.08392532666525L235.85203125,108.33679749568304L235.987734375,104.48325538635254L236.0555859375,105.92008634408316L236.1234375,102.87621740500133L236.1912890625,106.55059669415157L236.53054687500003,106.98436671495439L237.1412109375,94.80303569634756L237.48046875,110.5740000208219L237.8197265625,110.32267797986667L237.95542968750001,109.72056477268538L238.0911328125,106.78879274924597L238.158984375,105.2745891014735L238.2946875,98.13570562998454L238.4982421875,110.40189399321875L238.4982421875,111.86875148614247L238.56609375,111.57498025894165L238.6339453125,111.54905651013057L238.7696484375,111.37363015611967L239.24460937499998,110.88954532146454L239.3803125,109.28913040955862L239.516015625,109.25218188762665L240.058828125,108.62942287325859L240.1266796875,110.23309950033824L240.2623828125,110.14554603894553L240.3980859375,106.54006425539653L240.6694921875,100.6201655069987L240.9408984375,111.83922314643861L241.00875,111.04283421238264L241.3480078125,110.91646546125413L241.55156250000002,104.3978588183721L241.6194140625,103.50581341981889L241.82296875,104.6978076696396L241.89082031249998,100.76349341869356L241.958671875,103.86917962630591L242.23007812499998,106.2354265054067L242.36578125,110.68072521686555L242.4336328125,107.8231169184049L242.501484375,104.7650288939476L242.5693359375,108.88791892925899L242.772890625,107.63726655642192L243.044296875,110.99501916766167L243.315703125,110.60704796512923L243.45140625000002,109.27353689074518L243.58710937499998,110.60503466924033L243.7228125,109.40623272458713L244.265625,106.31330911318462L244.6048828125,97.3614805340767L244.6048828125,97.43526035547256L244.672734375,100.07994576295218L244.8762890625,110.71819830934207L244.944140625,110.29569629828136L245.07984375,111.10511450966199L245.35125,110.1561546723048L245.48695312499999,99.35563985506694L245.62265625,107.8430505990982L245.758359375,110.76480889320375L245.9619140625,112.34103201826414L246.36902343749998,103.61479514837266L246.6404296875,106.88026730219524L247.0475390625,105.0460756222407L247.25109375,111.53554075956346L247.92960937499998,108.90682984391849L248.0653125,110.81270892421405L248.201015625,111.52681647737822L248.201015625,111.41119116544724L248.47242187499998,106.02755004167557L249.015234375,109.20430823167166L249.42234375,98.93175168832144L249.7616015625,108.2676977813244L250.03300781250002,111.49619210759799L250.23656250000002,110.52337749799094L250.9829296875,110.56864881515503" style="fill: none;" fill="none"></path></g></g></g></g></g></g><g transform="translate(58, 177)" clip-path="url(#clip_1)"><clipPath id="clip_1"><rect width="271" height="23"></rect></clipPath><g><g><line x1="0" y1="0" x2="0" y2="5" style="visibility: inherit;" fill="rgb(0, 0, 0)" stroke="rgb(204, 204, 204)" stroke-width="1px"></line><line x1="33.92578125" y1="0" x2="33.92578125" y2="5" style="visibility: inherit;" fill="rgb(0, 0, 0)" stroke="rgb(204, 204, 204)" stroke-width="1px"></line><line x1="67.8515625" y1="0" x2="67.8515625" y2="5" style="visibility: inherit;" fill="rgb(0, 0, 0)" stroke="rgb(204, 204, 204)" stroke-width="1px"></line><line x1="101.77734375" y1="0" x2="101.77734375" y2="5" style="visibility: inherit;" fill="rgb(0, 0, 0)" stroke="rgb(204, 204, 204)" stroke-width="1px"></line><line x1="135.703125" y1="0" x2="135.703125" y2="5" style="visibility: inherit;" fill="rgb(0, 0, 0)" stroke="rgb(204, 204, 204)" stroke-width="1px"></line><line x1="169.62890625" y1="0" x2="169.62890625" y2="5" style="visibility: inherit;" fill="rgb(0, 0, 0)" stroke="rgb(204, 204, 204)" stroke-width="1px"></line><line x1="203.5546875" y1="0" x2="203.5546875" y2="5" style="visibility: inherit;" fill="rgb(0, 0, 0)" stroke="rgb(204, 204, 204)" stroke-width="1px"></line><line x1="237.48046875" y1="0" x2="237.48046875" y2="5" style="visibility: inherit;" fill="rgb(0, 0, 0)" stroke="rgb(204, 204, 204)" stroke-width="1px"></line><line x1="271.40625" y1="0" x2="271.40625" y2="5" style="visibility: inherit;" fill="rgb(0, 0, 0)" stroke="rgb(204, 204, 204)" stroke-width="1px"></line></g><g transform="translate(0, 8)"><text x="0" y="0" dx="0em" dy="0.95em" style="text-anchor: middle; visibility: hidden; font-family: &quot;Helvetica Neue&quot;, sans-serif; font-size: 12px; font-weight: 200;" fill="rgb(50, 49, 63)" stroke="none" stroke-width="1px">-500</text><text x="33.92578125" y="0" dx="0em" dy="0.95em" style="text-anchor: middle; visibility: inherit; font-family: &quot;Helvetica Neue&quot;, sans-serif; font-size: 12px; font-weight: 200;" fill="rgb(50, 49, 63)" stroke="none" stroke-width="1px">0</text><text x="67.8515625" y="0" dx="0em" dy="0.95em" style="text-anchor: middle; visibility: inherit; font-family: &quot;Helvetica Neue&quot;, sans-serif; font-size: 12px; font-weight: 200;" fill="rgb(50, 49, 63)" stroke="none" stroke-width="1px">500</text><text x="101.77734375" y="0" dx="0em" dy="0.95em" style="text-anchor: middle; visibility: inherit; font-family: &quot;Helvetica Neue&quot;, sans-serif; font-size: 12px; font-weight: 200;" fill="rgb(50, 49, 63)" stroke="none" stroke-width="1px">1k</text><text x="135.703125" y="0" dx="0em" dy="0.95em" style="text-anchor: middle; visibility: inherit; font-family: &quot;Helvetica Neue&quot;, sans-serif; font-size: 12px; font-weight: 200;" fill="rgb(50, 49, 63)" stroke="none" stroke-width="1px">1.5k</text><text x="169.62890625" y="0" dx="0em" dy="0.95em" style="text-anchor: middle; visibility: inherit; font-family: &quot;Helvetica Neue&quot;, sans-serif; font-size: 12px; font-weight: 200;" fill="rgb(50, 49, 63)" stroke="none" stroke-width="1px">2k</text><text x="203.5546875" y="0" dx="0em" dy="0.95em" style="text-anchor: middle; visibility: inherit; font-family: &quot;Helvetica Neue&quot;, sans-serif; font-size: 12px; font-weight: 200;" fill="rgb(50, 49, 63)" stroke="none" stroke-width="1px">2.5k</text><text x="237.48046875" y="0" dx="0em" dy="0.95em" style="text-anchor: middle; visibility: inherit; font-family: &quot;Helvetica Neue&quot;, sans-serif; font-size: 12px; font-weight: 200;" fill="rgb(50, 49, 63)" stroke="none" stroke-width="1px">3k</text><text x="271.40625" y="0" dx="0em" dy="0.95em" style="text-anchor: middle; visibility: hidden; font-family: &quot;Helvetica Neue&quot;, sans-serif; font-size: 12px; font-weight: 200;" fill="rgb(50, 49, 63)" stroke="none" stroke-width="1px">3.5k</text></g><line x1="0" y1="0" x2="271.40625" y2="0" fill="rgb(0, 0, 0)" stroke="rgb(204, 204, 204)" stroke-width="1px"></line></g></g></g></g></svg>