<svg viewBox="0 0 330 200" xmlns="http://www.w3.org/2000/svg"><g><g><g><g><g><line x1="58.59375" y1="177" x2="53.59375" y2="177" style="visibility: inherit;" fill="rgb(0, 0, 0)" stroke="rgb(204, 204, 204)" stroke-width="1px"></line><line x1="58.59375" y1="157.33333333333334" x2="53.59375" y2="157.33333333333334" style="visibility: inherit;" fill="rgb(0, 0, 0)" stroke="rgb(204, 204, 204)" stroke-width="1px"></line><line x1="58.59375" y1="137.66666666666666" x2="53.59375" y2="137.66666666666666" style="visibility: inherit;" fill="rgb(0, 0, 0)" stroke="rgb(204, 204, 204)" stroke-width="1px"></line><line x1="58.59375" y1="118" x2="53.59375" y2="118" style="visibility: inherit;" fill="rgb(0, 0, 0)" stroke="rgb(204, 204, 204)" stroke-width="1px"></line><line x1="58.59375" y1="98.33333333333333" x2="53.59375" y2="98.33333333333333" style="visibility: inherit;" fill="rgb(0, 0, 0)" stroke="rgb(204, 204, 204)" stroke-width="1px"></line><line x1="58.59375" y1="78.66666666666666" x2="53.59375" y2="78.66666666666666" style="visibility: inherit;" fill="rgb(0, 0, 0)" stroke="rgb(204, 204, 204)" stroke-width="1px"></line><line x1="58.59375" y1="58.999999999999986" x2="53.59375" y2="58.999999999999986" style="visibility: inherit;" fill="rgb(0, 0, 0)" stroke="rgb(204, 204, 204)" stroke-width="1px"></line><line x1="58.59375" y1="39.33333333333334" x2="53.59375" y2="39.33333333333334" style="visibility: inherit;" fill="rgb(0, 0, 0)" stroke="rgb(204, 204, 204)" stroke-width="1px"></line><line x1="58.59375" y1="19.666666666666657" x2="53.59375" y2="19.666666666666657" style="visibility: inherit;" fill="rgb(0, 0, 0)" stroke="rgb(204, 204, 204)" stroke-width="1px"></line><line x1="58.59375" y1="0" x2="53.59375" y2="0" style="visibility: inherit;" fill="rgb(0, 0, 0)" stroke="rgb(204, 204, 204)" stroke-width="1px"></line></g><g transform="translate(48.59375, 0)"><text x="0" y="177" dx="0em" dy="0.3em" style="text-anchor: end; visibility: hidden; font-family: &quot;Helvetica Neue&quot;, sans-serif; font-size: 12px; font-weight: 200;" fill="rgb(50, 49, 63)" stroke="none" stroke-width="1px">-0.02</text><text x="0" y="157.33333333333334" dx="0em" dy="0.3em" style="text-anchor: end; visibility: inherit; font-family: &quot;Helvetica Neue&quot;, sans-serif; font-size: 12px; font-weight: 200;" fill="rgb(50, 49, 63)" stroke="none" stroke-width="1px">0</text><text x="0" y="137.66666666666666" dx="0em" dy="0.3em" style="text-anchor: end; visibility: hidden; font-family: &quot;Helvetica Neue&quot;, sans-serif; font-size: 12px; font-weight: 200;" fill="rgb(50, 49, 63)" stroke="none" stroke-width="1px">0.02</text><text x="0" y="118" dx="0em" dy="0.3em" style="text-anchor: end; visibility: inherit; font-family: &quot;Helvetica Neue&quot;, sans-serif; font-size: 12px; font-weight: 200;" fill="rgb(50, 49, 63)" stroke="none" stroke-width="1px">0.04</text><text x="0" y="98.33333333333333" dx="0em" dy="0.3em" style="text-anchor: end; visibility: hidden; font-family: &quot;Helvetica Neue&quot;, sans-serif; font-size: 12px; font-weight: 200;" fill="rgb(50, 49, 63)" stroke="none" stroke-width="1px">0.06</text><text x="0" y="78.66666666666666" dx="0em" dy="0.3em" style="text-anchor: end; visibility: inherit; font-family: &quot;Helvetica Neue&quot;, sans-serif; font-size: 12px; font-weight: 200;" fill="rgb(50, 49, 63)" stroke="none" stroke-width="1px">0.08</text><text x="0" y="58.999999999999986" dx="0em" dy="0.3em" style="text-anchor: end; visibility: hidden; font-family: &quot;Helvetica Neue&quot;, sans-serif; font-size: 12px; font-weight: 200;" fill="rgb(50, 49, 63)" stroke="none" stroke-width="1px">0.1</text><text x="0" y="39.33333333333334" dx="0em" dy="0.3em" style="text-anchor: end; visibility: inherit; font-family: &quot;Helvetica Neue&quot;, sans-serif; font-size: 12px; font-weight: 200;" fill="rgb(50, 49, 63)" stroke="none" stroke-width="1px">0.12</text><text x="0" y="19.666666666666657" dx="0em" dy="0.3em" style="text-anchor: end; visibility: hidden; font-family: &quot;Helvetica Neue&quot;, sans-serif; font-size: 12px; font-weight: 200;" fill="rgb(50, 49, 63)" stroke="none" stroke-width="1px">0.14</text><text x="0" y="0" dx="0em" dy="0.3em" style="text-anchor: end; visibility: hidden; font-family: &quot;Helvetica Neue&quot;, sans-serif; font-size: 12px; font-weight: 200;" fill="rgb(50, 49, 63)" stroke="none" stroke-width="1px">0.16</text></g><line x1="58.59375" y1="0" x2="58.59375" y2="177" fill="rgb(0, 0, 0)" stroke="rgb(204, 204, 204)" stroke-width="1px"></line></g></g><g transform="translate(58, 0)" clip-path="url(#clip_0)"><clipPath id="clip_0"><rect width="271" height="177"></rect></clipPath><g><g><g><line x1="0" y1="0" x2="0" y2="177" fill="rgb(0, 0, 0)" stroke="rgb(60, 60, 60)" stroke-width="1px" opacity="0.25"></line><line x1="33.92578125" y1="0" x2="33.92578125" y2="177" fill="rgb(0, 0, 0)" stroke="rgb(60, 60, 60)" stroke-width="1px" opacity="0.25"></line><line x1="67.8515625" y1="0" x2="67.8515625" y2="177" fill="rgb(0, 0, 0)" stroke="rgb(60, 60, 60)" stroke-width="1px" opacity="0.25"></line><line x1="101.77734375" y1="0" x2="101.77734375" y2="177" fill="rgb(0, 0, 0)" stroke="rgb(60, 60, 60)" stroke-width="1px" opacity="0.25"></line><line x1="135.703125" y1="0" x2="135.703125" y2="177" fill="rgb(0, 0, 0)" stroke="rgb(60, 60, 60)" stroke-width="1px" opacity="0.25"></line><line x1="169.62890625" y1="0" x2="169.62890625" y2="177" fill="rgb(0, 0, 0)" stroke="rgb(60, 60, 60)" stroke-width="1px" opacity="0.25"></line><line x1="203.5546875" y1="0" x2="203.5546875" y2="177" fill="rgb(0, 0, 0)" stroke="rgb(60, 60, 60)" stroke-width="1px" opacity="0.25"></line><line x1="237.48046875" y1="0" x2="237.48046875" y2="177" fill="rgb(0, 0, 0)" stroke="rgb(60, 60, 60)" stroke-width="1px" opacity="0.25"></line><line x1="271.40625" y1="0" x2="271.40625" y2="177" fill="rgb(0, 0, 0)" stroke="rgb(60, 60, 60)" stroke-width="1px" opacity="0.25"></line></g><g><line x1="0" y1="177" x2="271.40625" y2="177" fill="rgb(0, 0, 0)" stroke="rgb(60, 60, 60)" stroke-width="1px" opacity="0.25"></line><line x1="0" y1="157.33333333333334" x2="271.40625" y2="157.33333333333334" fill="rgb(0, 0, 0)" stroke="rgb(60, 60, 60)" stroke-width="1px" opacity="0.25"></line><line x1="0" y1="137.66666666666666" x2="271.40625" y2="137.66666666666666" fill="rgb(0, 0, 0)" stroke="rgb(60, 60, 60)" stroke-width="1px" opacity="0.25"></line><line x1="0" y1="118" x2="271.40625" y2="118" fill="rgb(0, 0, 0)" stroke="rgb(60, 60, 60)" stroke-width="1px" opacity="0.25"></line><line x1="0" y1="98.33333333333333" x2="271.40625" y2="98.33333333333333" fill="rgb(0, 0, 0)" stroke="rgb(60, 60, 60)" stroke-width="1px" opacity="0.25"></line><line x1="0" y1="78.66666666666666" x2="271.40625" y2="78.66666666666666" fill="rgb(0, 0, 0)" stroke="rgb(60, 60, 60)" stroke-width="1px" opacity="0.25"></line><line x1="0" y1="58.999999999999986" x2="271.40625" y2="58.999999999999986" fill="rgb(0, 0, 0)" stroke="rgb(60, 60, 60)" stroke-width="1px" opacity="0.25"></line><line x1="0" y1="39.33333333333334" x2="271.40625" y2="39.33333333333334" fill="rgb(0, 0, 0)" stroke="rgb(60, 60, 60)" stroke-width="1px" opacity="0.25"></line><line x1="0" y1="19.666666666666657" x2="271.40625" y2="19.666666666666657" fill="rgb(0, 0, 0)" stroke="rgb(60, 60, 60)" stroke-width="1px" opacity="0.25"></line><line x1="0" y1="0" x2="271.40625" y2="0" fill="rgb(0, 0, 0)" stroke="rgb(60, 60, 60)" stroke-width="1px" opacity="0.25"></line></g></g></g><g><g><line x1="0" y1="157.33333333333334" x2="271.40625" y2="157.33333333333334" fill="rgb(0, 0, 0)" stroke="rgb(153, 153, 153)" stroke-width="1.5px"></line></g></g><g><g><line x1="33.92578125" y1="0" x2="33.92578125" y2="177" fill="rgb(0, 0, 0)" stroke="rgb(153, 153, 153)" stroke-width="1.5px"></line></g></g><g><g><g><g><g><path stroke="rgb(255, 112, 67)" stroke-width="2px" d="M45.121289062500004,-1.1490679362709386L45.3926953125,3.924108765648839L45.6641015625,6.821891118664979L46.206914062500005,12.148136582058726L46.342617187500004,15.650924670478872L46.681875,14.297054998713861L48.174609374999996,21.9531304555006L48.2424609375,27.724659324744295L48.785273437499995,36.23993242251572L48.853125,39.76604201676099L48.9209765625,42.98929012387549L48.988828125,47.57835719528018L49.531640625,58.14351443177462L49.5994921875,60.552678643024876L49.66734375,61.036642292156074L50.0066015625,66.69579779645733L50.5494140625,72.18088123127424L50.617265625,73.07021289422876L51.29578125,80.0079918226886L51.3636328125,79.33553715077765L51.431484375000004,87.16008228378142L51.702890625,84.72560260683284L51.906445312500004,87.89388060563795L51.974296875,91.92107981539165L52.11,91.91954380529958L52.3135546875,102.94406202291154L52.4492578125,98.4705868732216L52.788515625,106.44401984242293L52.992070312500005,114.39977819916226L53.195625,108.93232087510793L53.331328125,104.91632091731609L53.5348828125,104.65511719125975L53.602734375000004,106.33412078463118L53.7384375,100.76605753964036L53.8062890625,103.98549442708004L53.8062890625,107.29805042079792L54.00984375,106.32815199533127L54.3491015625,98.09761101070457L54.959765625,91.6614294453268L55.027617187500006,90.47917702816751L55.434726562499996,78.15692682081159L55.63828125,87.02189929294802L55.706132812499995,86.0491045396023L55.773984375,71.5822579471564L55.841835937499994,83.82774962633624L55.9096875,84.52691888600452L56.316796874999994,71.09797199640589L56.4525,67.39670506759833L56.588203125,71.85872161971142L56.656054687499996,78.24669669421479L56.791757812499995,77.42061541290263L56.9274609375,81.51609596696204L56.9274609375,87.26166648022357L57.0631640625,83.04653797558161L57.266718749999995,85.91075819737443L58.1487890625,86.20625059608656L58.2844921875,88.73031640134676L58.4201953125,96.32277895062619L58.4201953125,102.25789606103969L58.6916015625,83.39972533104621L58.9630078125,82.08194766432725L59.0987109375,76.55153709644486L59.2344140625,74.0737465460762L59.43796875,74.95883441207795L59.573671875,73.47593479695712L59.845078125,81.47411977853056L59.98078125,77.47892794970082L60.0486328125,66.56757281599485L60.0486328125,62.98678416437731L60.116484375,80.5068403050909L60.1843359375,88.51488484932638L60.387890625000004,85.36010964707725L60.52359375,85.4178967276982L60.5914453125,90.96394888856639L60.795,80.99919263501145L60.795,77.59028617528584L60.862851562500005,83.21807303023839L60.998554687500004,72.02050499514243L61.1342578125,73.96682042913933L61.2699609375,63.92377520623185L61.3378125,69.26546210659968L61.3378125,74.47846874960318L62.15203125,64.22461588006053L62.287734375,62.000722119137635L63.37335937500001,55.16871072188516L63.5769140625,49.411207447462274L63.644765625,52.40418446263452L63.84832031249999,57.48616775791315L64.11972656249999,60.90099512688596L64.32328125,66.3832438597219L64.458984375,63.6365708436054L64.6625390625,65.42193399819624L64.730390625,70.60837264628944L64.9339453125,62.698973527183554L65.001796875,68.83469134805426L65.4767578125,69.8195774132281L65.544609375,69.61131850128984L65.8838671875,75.87288058943918L65.95171875,76.48537788677635L66.29097656249999,79.70885810189498L66.4266796875,86.45266322056285L66.5623828125,76.201357029437L66.8337890625,79.00035050067842L66.901640625,81.91797923576954L67.1051953125,72.49646401921186L67.1051953125,67.77041536084377L67.30875,67.15987667944965L67.715859375,65.17206488951209L67.9194140625,69.74012654962637L67.987265625,78.65270011390744L68.32652343749999,74.17823226510781L68.394375,64.96965231851317L68.66578125,62.4625609021718L69.072890625,61.19966711409894L69.344296875,61.64183174654649L69.75140625,70.5040563608297L69.95496093749999,67.66588994255194L70.0906640625,68.67185773088852L70.158515625,62.27303998252343L70.29421875,61.13356446771178L70.429921875,61.58071258593611L70.4977734375,63.67213905808734L70.6334765625,53.548629037285295L70.701328125,56.55244488224055L70.972734375,59.53204066378673L71.17628906249999,56.183689833618004L71.3119921875,58.07785050726143L71.37984375,62.58630395525421L71.7191015625,58.91287074442937L71.85480468749999,56.705464116471404L72.32976562500001,60.25179831290488L73.07613281249999,62.800184254472924L73.143984375,62.542619392052586L73.27968750000001,60.434131390715805L73.27968750000001,60.167850212374404L73.34753906249999,61.90317025748038L73.95820312500001,64.43308762888397L74.3653125,67.77235870468786L74.3653125,70.5222914571057L74.5688671875,69.63635987368167L74.63671875,64.99490206833845L74.8402734375,66.28134539562164L75.72234375000001,64.62777888876815L75.7901953125,61.633953981216465L76.12945312500001,64.2354621346488L76.4687109375,66.49891351396009L76.6044140625,62.942022089565796L76.672265625,58.14035516842503L77.35078125,55.49110969621519L77.5543359375,56.60068886509684L77.8257421875,56.597427227285394L78.029296875,57.9232198346775L78.36855468750001,56.59344033096957L78.572109375,58.18330931680238L78.6399609375,58.39912185480297L78.9113671875,53.44276900337199L79.0470703125,59.2815255795681L79.114921875,61.681982781972295L79.250625,60.91655225544322L79.250625,60.760659825737164L79.8612890625,60.78416221058461L80.4041015625,57.3473279598321L80.8790625,58.89312690633329L81.014765625,59.40795095049019L81.014765625,59.84408450493818L81.0826171875,59.725535979089784L81.15046875,60.1874584537055L81.8968359375,60.84704437939163L82.0325390625,59.275240252938886L82.1682421875,61.883983906424234L82.3039453125,64.0097732879616L82.371796875,63.239433515343904L82.5075,65.55733631547719L82.643203125,66.41639790830868L82.77890624999999,62.24415525534464L83.593125,61.17257368011502L83.66097656250001,63.84578095342653L84.000234375,62.85503287593089L84.271640625,63.38186382539806L84.33949218750001,63.707322609152826L84.40734375,63.34636261566067L84.4751953125,62.663924017569926L84.814453125,62.58600702624808L85.085859375,63.18221913819288L85.5608203125,63.344146786400316L85.628671875,61.11461614863197L85.69652343749999,61.42393498398532L86.5107421875,63.375406571890935L86.57859375,63.22814924637436L86.64644531249999,63.857269619623565L87.12140625,65.87208769404079L87.12140625,67.23137496520987L87.4606640625,65.06159584488418L87.66421875,65.64682255247799L87.79992187500001,64.6563562217925L88.07132812500001,65.44904094319983L88.342734375,65.16944602557882L88.342734375,65.0957747584315L88.5462890625,65.41192558720103L88.81769531249999,64.54069413730139L89.08910156249999,65.66804320010722L89.156953125,69.02948601877598L89.29265625000001,69.07358255884591L89.428359375,66.28680381914899L89.5640625,67.29235563521142L89.699765625,68.5435518613133L89.83546875,66.42435880049109L89.97117187500001,66.19790178066913L90.24257812500001,66.23365005369836L90.513984375,67.06578616211327L90.6496875,67.81579203353034L90.7175390625,66.62235120701217L90.9889453125,66.84561086158409L91.26035156249999,67.71348773515493L91.3960546875,71.06754831518492L91.46390625000001,71.0035615446911L91.46390625000001,71.20556052820358L91.5317578125,67.07646371302887L91.6674609375,69.65600340988964L91.87101562500001,69.19955710824368L92.21027343749999,68.91946481420221L92.54953125,67.87073754918747L92.68523437500001,68.00839402070943L92.7530859375,69.54622278883838L92.82093750000001,69.16075247292588L93.0244921875,71.0988390968136L93.09234375000001,73.29591853176905L93.1601953125,73.70562173180988L93.1601953125,74.45660801680809L93.36375,74.38715403051334L93.8387109375,71.98636188569361L94.1101171875,72.22533875979597L94.313671875,73.54743782844713L94.585078125,68.82083191573562L94.585078125,66.66486418306793L94.9243359375,67.83547272519249L95.12789062499999,72.57660611213831L95.535,69.79546340152575L95.8742578125,69.00327068276178L96.0099609375,70.63884743674778L96.34921874999999,68.68383806719889L96.484921875,71.31140758260793L96.62062499999999,70.54152180153949L96.756328125,73.47462848066581L97.2312890625,71.10220414145365L97.29914062499999,73.37659969574358L97.50269531250001,69.60386858768946L97.57054687499999,68.77146350773783L97.57054687499999,68.77479934751557L98.72402343750001,69.2280194365555L98.927578125,70.43925805709206L99.198984375,68.85032998415693L99.40253906250001,66.85024097299295L99.5382421875,64.69975365640153L99.60609375,64.53404380544877L99.67394531250001,64.88916559814328L99.8775,65.01604792355843L99.94535156250001,67.7669683866462L100.013203125,64.48556994633442L100.14890625,62.53834963581899L100.62386718750001,66.82745304748579L100.69171874999999,68.32722468999124L101.098828125,67.34858297205228L101.16667968750001,65.1314634813642L101.16667968750001,64.17448673648289L101.641640625,65.8178244928677L101.77734375,66.23342554768874L101.913046875,67.62540632685594L102.04875,70.11329678813956L102.184453125,70.50936212611403L102.32015625,68.28231688224596L102.5915625,67.84988082577777L102.65941406249999,67.53582575796042L102.7951171875,68.40451079534289L102.86296875000001,67.79954798376639L102.998671875,69.71671434257075L103.134375,68.0115158638178L103.81289062500001,67.34587255403312L104.22,69.9635027703737L104.22,71.97404319785602L104.355703125,70.3338454708014L104.355703125,69.77891052630866L104.4235546875,68.1891488683263L104.49140625,67.81758276136951L104.627109375,68.98921242462933L104.76281250000001,68.55967172249561L104.9663671875,68.46159258046391L105.03421875000001,69.57023984924145L105.5091796875,70.90974166632803L105.6448828125,72.18267550453211L105.9162890625,73.73662660351197L105.9162890625,75.00379049279769L106.526953125,71.95979187586991L106.66265625,72.02846387445382L106.66265625,71.85335645329626L106.798359375,70.75890506457291L106.8662109375,70.50253137638768L107.069765625,69.29934042110402L107.341171875,68.68189158090566L107.476875,70.8363239052809L107.5447265625,75.55834711688262L107.612578125,76.6082468455881L107.74828125,77.39740996117494L108.0875390625,74.61031506193737L108.15539062500001,76.08845004876292L108.22324218749999,75.27237284445665L108.29109375,75.05298585254293L108.42679687500001,73.07070980404818L108.4946484375,74.04509803216659L108.7660546875,74.54413805342317L108.9017578125,73.15837479593316L109.37671875000001,70.73662702021177L109.512421875,72.99147740867042L109.5802734375,74.91779892762284L109.78382812500001,74.98818211825557L109.78382812500001,75.1553418779683L109.8516796875,76.98540763920417L109.9873828125,75.61318285981338L110.05523437500001,75.01869555544566L110.1230859375,74.07428488472131L110.1230859375,73.72909516894237L110.3944921875,73.62324396850714L110.46234374999999,74.57583518474529L110.6658984375,73.3594044008805L111.2765625,74.6766399875653L111.6158203125,73.75688429486983L111.819375,75.11395188259422L112.0229296875,78.61611828061345L112.1586328125,77.30159349750917L112.226484375,76.37678920335436L112.5657421875,75.9080797936928L112.63359374999999,76.29794398584436L112.7014453125,75.49413594984097L113.1085546875,74.54385214676311L113.4478125,74.19821857192031L113.7870703125,76.33831212785587L114.3298828125,83.63707947254228L114.940546875,79.02792616796522L115.0083984375,78.45423058735545L115.07625,77.30601656675668L115.34765625,78.26772117161948L115.41550781250001,78.16234505898275L115.5512109375,77.09007131691685L115.89046875,78.71148911298857L116.161875,78.23158123005359L116.161875,77.98586296384887L116.568984375,76.48646718270793L116.840390625,77.2911271771225L117.0439453125,76.2146767926474L117.0439453125,75.77910366965887L117.111796875,76.42089443989728L117.1796484375,75.89227837476017L117.383203125,76.74312512965727L118.197421875,78.54165021712618L118.26527343750001,77.6234233586095L118.60453125,77.20884041834488L118.6723828125,77.64701138644584L118.8080859375,78.831865748023L118.8080859375,80.20786348199148L119.283046875,83.2329659017839L119.4866015625,82.01890500105925L119.69015625,74.86910957724356L119.7580078125,74.07493526516657L119.82585937500001,73.24731714990716L119.89371093749999,74.25760887146183L120.3008203125,75.74989198494069L120.4365234375,75.13437560110158L120.504375,76.00241339351058L120.640078125,76.88475016044767L120.911484375,74.7758671598863L120.9793359375,76.33077513519315L121.31859375,78.90460588938029L121.3864453125,78.07781617486098L121.79355468749999,79.52817453926973L121.79355468749999,80.43700556945507L121.86140625,80.67857491170388L121.99710937500001,80.64376465397092L122.1328125,81.77346977343366L122.3363671875,81.06721785913035L122.8791796875,78.75237524459834L123.082734375,80.86902516653184L123.1505859375,83.9038286819262L123.4219921875,83.99009959782376L123.625546875,80.46708092819779L123.8291015625,79.99098482766425L123.96480468749999,80.06531150562768L124.6433203125,81.89561011844796L124.7790234375,84.117284586751L124.84687500000001,79.92803257548223L124.982578125,79.57701318170673L125.18613281249999,80.9928398452563L125.5932421875,82.6922925147829L125.8646484375,85.72240270774073L126.33960937500001,81.81148151715898L126.74671875000001,79.15203566050708L126.882421875,81.00266767956523L127.0859765625,82.85941113681221L127.3573828125,89.10081485301627L127.3573828125,93.57120554878539L127.42523437499999,86.01755354146694L127.42523437499999,82.14805318518798L127.7644921875,84.9464721258739L128.510859375,83.87867577133134L128.5787109375,86.02313639675114L128.5787109375,87.6169795967412L128.8501171875,83.70877581500639L129.18937499999998,82.355010541262L129.2572265625,81.07290321110592L129.6643359375,83.80348556947057L129.73218749999998,80.2560038450043L129.8000390625,79.69873253599886L129.867890625,83.17281344590235L129.9357421875,83.70295360718755L130.00359375,81.74479130527133L130.6142578125,80.22588407767269L130.8856640625,82.84086412254443L131.29277343750002,79.18201433855377L131.360625,79.50701097590576L131.63203124999998,78.8356645858855L131.63203124999998,78.2347976698421L131.8355859375,78.15674557093435L131.9712890625,77.4443778880655L132.17484375,76.33582440544481L132.24269531250002,75.66139950471708L132.310546875,78.82671673169287L132.853359375,81.24776977342698L132.9212109375,84.3498389465153L132.9890625,82.12424804623166L132.9890625,83.2968418351128L133.396171875,79.72870587217695L134.0068359375,79.35457495793432L134.5496484375,82.02121861146726L134.8210546875,85.57775622626248L134.8210546875,87.72984241656525L134.9567578125,86.50511899319527L135.4995703125,83.45225459174655L135.63527343750002,80.99919532837278L135.77097656249998,80.22565401257161L135.838828125,80.3399078110521L135.9066796875,79.15032599327951L135.97453125,78.89602450504695L136.0423828125,80.39868640288587L136.17808593750001,80.89931236734911L136.2459375,80.87719721415196L136.5851953125,79.86166136752698L136.7208984375,81.55863037680268L136.9923046875,83.04353303894209L137.06015625,82.46864870102092L137.1280078125,79.49440348691276L137.3994140625,80.26339836645046L137.87437500000001,80.01927721735589L137.9422265625,79.39497058135322L138.01007812499998,79.68147443061304L138.07792968750002,80.52270824109654L138.6207421875,81.14255806045814L139.0278515625,80.53318108858915L139.8420703125,82.02753845895677L140.31703125,81.594266911618L140.3848828125,81.14395813958174L140.5884375,80.62340912908113L140.5884375,80.31473706378416L140.6562890625,81.04214590518004L140.7919921875,87.53987197714044L140.9276953125,85.28548854969141L141.0633984375,86.11639950304547L141.13125,88.01637877799661L141.67406250000002,87.34701996511771L142.081171875,87.70861086130076L142.2847265625,89.17094276078501L142.35257812499998,86.28590509331995L142.5561328125,85.54385328910814L142.6918359375,85.44905584427951L143.5060546875,87.19745320502861L143.57390625,87.96766625895465L143.8453125,86.39498201839744L143.9131640625,87.99333776334497L143.981015625,89.59934010882917L144.0488671875,87.25677265194898L144.0488671875,86.22724375804968L144.7273828125,87.81909375000421L144.9309375,90.54292667672092L145.20234375,86.50384653467967L145.2701953125,90.00904785509327L145.338046875,95.8134402359451L145.609453125,91.71067569404394L146.01656250000002,92.73268409420778L146.0844140625,91.90733793685672L146.28796875,92.76093591835004L146.55937500000002,97.28516555181683L146.7629296875,99.33889683495883L146.83078125,94.08377461082293L146.966484375,94.83579636184307L147.1700390625,94.92414872786162L147.37359375,96.3138362284944L147.780703125,93.3722500473129L147.91640625000002,88.15621319829626L148.39136718749998,85.13331921549164L148.45921875000002,79.4117842971376L148.5270703125,79.10978168998706L148.59492187499998,79.28841500533349L148.7984765625,78.51264899007117L149.3412890625,77.22022003550313L149.54484375,77.91794723839946L150.15550781250002,76.79648253860904L150.29121093749998,77.63858103479642L150.35906250000002,78.18087950185358L150.5626171875,79.17318995298199L150.766171875,77.36629222731541L150.90187500000002,78.5709984753574L150.9697265625,78.36191532536617L151.17328125,77.62540229275386L151.2411328125,76.98392908244071L151.44468750000001,78.66080667457226L151.6482421875,78.69777010012413L151.851796875,79.25706443465994L151.9875,78.49438959326692L152.19105468749999,78.97970170755991L152.5303125,77.26136178958302L152.59816406250002,79.47970018101464L152.937421875,79.42442151693143L153.07312499999998,79.80091753872816L153.14097656250001,79.48103320165026L153.2766796875,80.04313026406496L153.8194921875,81.02041145486511L153.88734374999999,81.02827556723085L154.0908984375,82.59795794165368L154.2266015625,81.11389527882874L154.294453125,79.78032158513311L154.7694140625,77.6155320070154L155.17652343749998,76.07956702681184L155.380078125,77.10508546931624L155.7871875,77.11597404501684L155.7871875,77.21615915073068L155.9907421875,78.61657433056698L156.05859375,80.12537247942207L156.5335546875,80.5787235876301L156.6692578125,80.3853874294189L156.73710937500002,78.93647542525692L156.8049609375,79.42208514767506L156.87281249999998,80.00847941929668L157.008515625,79.41161989546558L157.551328125,78.49727770910705L157.9584375,79.74087791974968L157.9584375,80.78711877267932L158.1619921875,81.00290836493996L158.4333984375,80.42958653529978L159.2476171875,81.2263790521651L159.451171875,80.23331844927647L159.5190234375,80.36679925593799L160.19753906250003,79.94865708394686L160.3332421875,81.37597259189987L160.4689453125,81.70065543436789L160.4689453125,82.08012569378087L160.536796875,82.5696037179049L160.74035156250002,83.60275916650788L160.808203125,83.00801373558183L160.8760546875,82.20901798031888L161.21531249999998,78.99731718593138L161.4188671875,79.29965998188632L161.62242187500001,79.09497880810089L161.893828125,79.66452702804557L162.02953125,79.12943776005994L162.165234375,79.6117625229825L162.57234375,83.74418170412L162.6401953125,85.62356260712713L162.7758984375,84.94592997409364L163.1830078125,86.99288991477566L163.31871093750001,87.82720131707077L163.45441406249998,86.0992190680815L163.52226562500002,86.62926332405685L163.8615234375,86.91579806159821L163.929375,89.02235265583329L163.99722656249997,87.40515642569778L164.4721875,89.98510575814835L165.015,91.8449369422026L165.150703125,88.46567343382603L165.42210937500002,85.08436872586745L166.236328125,91.27376301104907L166.3041796875,79.96555716205687L166.3041796875,74.52426981772412L166.5755859375,83.07180770444134L166.91484375,88.39306908373389L167.18625,85.39213357482963L167.3898046875,92.77775200673706L167.5255078125,89.19805168192842L167.9326171875,88.84222014793511L168.136171875,84.2267450097129L168.3397265625,84.52228238202682L168.950390625,84.61959460984201L169.08609375,84.9551603333783L169.4253515625,86.71491386910073L169.62890625,85.24132785252606L169.764609375,87.24630566270275L169.9003125,89.89329732158457L169.9681640625,94.22154845912462L170.307421875,91.97532539438727L170.3752734375,91.149301871885L170.71453125,89.05035400702306L170.7823828125,85.87640243955701L170.85023437499999,84.58823484691928L171.0537890625,85.87824458984305L171.1894921875,85.55294985239368L171.1894921875,85.66179827251828L171.25734375,87.02755873242297L171.46089843750002,88.93090669814315L172.207265625,95.46697474819561L172.750078125,95.34263813477043L172.9536328125,97.21355695514649L172.9536328125,98.98335943116012L173.021484375,98.59012032345889L173.29289062499998,97.65159080900325L175.26058593750003,100.31116344915374L175.73554687499998,100.67901633314219L175.80339843750002,102.71941346306757L176.14265625000002,100.79324955768877L176.2105078125,102.1524654886772L176.27835937499998,98.85263655553159L176.34621093750002,100.19483419738152L176.4140625,101.75676373729272L176.4819140625,101.35154543770847L176.549765625,102.52832435242433L177.2961328125,101.67403756780682L177.4996875,104.41004296265001L177.5675390625,104.3192475803015L177.70324218750002,103.33393603765869L177.8389453125,102.0945381693278L178.2460546875,99.43296110663219L178.51746093749998,99.99113675673846L178.6531640625,98.58655303351111L178.6531640625,98.10405528425392L178.992421875,100.20092621572346L179.1959765625,101.55271245714543L179.7387890625,104.56801204687268L179.94234375000002,102.97517305496878L180.07804687499998,104.52419437100616L180.349453125,110.77695344267366L180.41730468749998,109.41927859412478L180.7565625,108.44682190950817L180.892265625,107.77876016578738L181.0958203125,107.38288456051546L181.2315234375,105.56894118993877L181.435078125,109.85675508127251L181.77433593749998,104.63342983730021L181.977890625,104.56583671892116L182.11359375,103.2328269429471L182.4528515625,100.36467165633832L182.92781250000002,101.36411048105236L183.19921875,104.4068863578491L183.2670703125,104.92317398515459L183.334921875,106.53775278405617L183.4027734375,105.55642078623933L183.5384765625,104.41569278422452L183.5384765625,105.73615288208002L184.21699218749998,106.05319147191489L184.21699218749998,106.28737012077596L184.28484375000002,104.39519282497501L184.4883984375,105.65941571583869L184.62410156250002,107.70262857510957L185.506171875,104.78668061137785L185.7097265625,101.10727980677636L185.8454296875,102.55236762331536L185.9811328125,103.92663753668434L186.2525390625,106.51294621411938L186.320390625,104.12649607807784L186.863203125,102.09069291045499L186.9310546875,100.01557941411077L187.54171874999997,97.50775865420185L187.6095703125,96.28107393406519L187.677421875,96.5157471932333L187.948828125,96.65196921551394L188.0166796875,97.29372104778389L188.2880859375,98.79212037786543L188.35593749999998,101.65455426016271L188.35593749999998,104.6461231782366L188.8308984375,103.27174703524486L188.89874999999998,105.17575123158677L189.2380078125,104.89088961033573L189.305859375,103.73473244636386L189.71296875,103.91017681099453L189.7808203125,104.30215932967748L189.848671875,104.10613133932642L189.9165234375,103.81526852901077L190.32363281250002,102.72537963840541L190.934296875,103.58777314376736L191.40925781250002,104.04733065338077L191.6128125,103.22143331411168L191.88421875,101.29383637255043L192.155625,107.7478443766372L192.291328125,97.41668991951565L192.4948828125,103.07155372922671L192.56273437500002,103.14100111459723L192.56273437500002,102.31084795356809L192.90199218749999,103.38535700774801L193.648359375,104.42093489887283L193.7840625,107.447033162844L193.9876171875,106.34640225525607L194.191171875,105.17010418428525L194.5304296875,111.6256862214419L194.66613281250002,110.20693920639432L194.8696875,102.44296776406334L195.00539062500002,103.71401822955826L195.0732421875,103.60171466007682L195.3446484375,102.20777713220228L195.4125,101.75160517669266L195.48035156249998,102.5238634330623L195.54820312500001,102.44770490820761L195.6160546875,102.86205816087458L195.68390625,101.86645618369579L195.68390625,101.9556435483122L195.9553125,103.50672721191788L196.02316406249997,107.85022751187013L196.091015625,97.58051948762771L196.091015625,93.05512032717566L196.1588671875,89.96121709233581L196.22671875,88.56485611609256L196.29457031249999,95.71351177937765L196.362421875,99.74500623413114L196.5659765625,100.4449848715555L196.76953125,99.50114138826278L196.83738281249998,98.71223862312961L196.90523437500002,98.1467542430325L197.58374999999998,99.30546565238019L197.6516015625,101.16539003084132L197.85515625,98.09559993523376L198.1265625,97.6160267904084L198.533671875,97.05460946846092L199.14433593750002,98.25654427461674L199.2121875,100.3254104082953L199.755,100.69837388546294L199.89070312500002,101.07702629656211L199.9585546875,101.33490658535926L199.9585546875,101.59854761899135L200.6370703125,105.36711099132272L201.4512890625,102.37014875839772L201.519140625,102.46002975323175L201.9941015625,104.78645362984165L202.2655078125,98.09647501228864L202.5369140625,101.08399390708574L202.5369140625,102.97524026352863L202.6726171875,106.02956460308255L202.74046875,108.94950456355743L202.74046875,110.9454861557567L203.2154296875,112.6238879735917L203.48683593750002,115.53278887921475L204.233203125,110.81869668158234L204.4367578125,110.97935568725471L204.5724609375,106.4921518461033L204.77601562499999,104.50628393269325L205.2509765625,104.10289379582849L205.31882812499998,106.745288512862L205.31882812499998,108.78322165315723L205.590234375,108.94688679539388L206.2008984375,106.81435843167638L206.7437109375,106.44279390091461L206.947265625,103.9330265254662L207.1508203125,107.88335474416925L207.1508203125,110.08100166769016L207.354375,110.45696292828235L207.82933593750002,113.08720329708285L207.8971875,110.83390477482334L208.1007421875,107.81317737708801L208.16859375,107.42571923937587L208.9828125,105.66991493983777L209.118515625,104.32081487904219L209.5934765625,104.75383534409737L209.72917968750002,103.40337576694172L210.33984375,101.92045112387468L210.61125,103.42554842990316L210.746953125,104.51147972481455L211.3576171875,106.19261076512142L211.4933203125,104.35721295950137L211.4933203125,103.20811234242115L211.56117187499999,104.52833740905758L211.62902343750002,103.7399648427715L211.696875,101.99837587176263L211.832578125,102.25136680145164L211.832578125,102.77092633886596L212.2396875,105.04359467373366L212.44324218749998,104.14824838169065L212.5789453125,106.09759290453383L213.3253125,107.44883290193431L213.80027343749998,109.8624373660204L214.0716796875,108.0038494638036L214.34308593749998,105.78444055943271L214.68234375,103.4833243781045L214.7501953125,103.62712260943938L215.22515625,106.45244371610256L215.360859375,105.12370112171197L215.70011718749998,105.04201667684569L215.76796875000002,108.03324691362134L215.8358203125,110.19678159300656L216.44648437499998,110.22920012818278L216.5821875,104.89347027548057L216.717890625,105.05806820774815L216.989296875,111.55721768151567L217.1928515625,105.27669356511541L217.260703125,103.86635592925452L217.3285546875,103.0728331248834L217.5999609375,102.83172704622393L217.803515625,104.24858096547072L217.93921875,105.25704621855704L218.4141796875,108.49342397203617L218.48203125,107.7334588260486L218.54988281250002,108.98417879686957L218.68558593749998,109.28561062939687L219.02484375,112.30206950899594L219.2283984375,112.66360995906572L219.6355078125,108.20345592739967L219.974765625,107.80925123836272L220.1783203125,108.38845467038357L220.1783203125,108.86167145153325L220.3140234375,108.9174235903051L220.517578125,111.78230739491144L220.7211328125,110.35421736254469L220.92468749999998,113.34050635425751L220.99253906250001,107.25569330709281L221.060390625,109.91555910243851L221.46749999999997,109.0045705999986L221.603203125,111.63025339440836L221.874609375,109.51984140374064L222.0103125,108.3430159038174L222.146015625,109.4003040519874L222.34957031250002,110.4706507440917L222.48527343749998,108.72932449677661L222.7566796875,107.32556131501441L222.89238281250002,108.2582230102188L222.960234375,108.51990352061391L223.02808593749998,107.24153442772428L223.0959375,107.44008323307156L223.36734374999997,111.95653646740507L223.4351953125,110.67832274567996L223.4351953125,110.11340838769227L223.63875,107.33174574732274L224.045859375,109.96215032553368L224.24941406250002,110.54599780648365L224.5208203125,112.82261725153178L224.58867187500002,113.70559718342015L224.92792968749998,114.42589216707978L224.99578125,110.32998500831226L225.4707421875,107.30224278808016L225.8778515625,107.50783448859282L225.945703125,105.83764618502593L226.08140625,107.8453402233116L226.14925781250003,106.87794153563135L226.48851562500002,105.98805259071958L226.5563671875,108.68588112634323L226.82777343749999,111.65199337209405L227.302734375,110.09627562049116L227.70984375,110.18646379679294L227.98125,111.25364257715056L228.04910156250003,116.56072722269244L228.1848046875,120.03208367462841L228.659765625,115.4141066736135L229.06687499999998,110.8714266736996L229.2704296875,110.98402079262486L229.5418359375,110.44668734958658L229.88109375,107.5169181837095L229.94894531249997,111.82930497011263L230.1525,113.71225052285624L230.288203125,115.20018231396932L230.4917578125,113.77256512656842L230.559609375,113.33243056246658L230.8988671875,117.16520767972284L230.96671874999998,113.9880819920624L231.50953124999998,114.11875210129764L231.645234375,114.17115861926604L231.84878906249997,115.52127470525579L232.188046875,115.09516749353693L232.2558984375,116.15817973755688L232.66300781249998,116.75427200342949L232.7987109375,114.19523601002932L232.8665625,113.291744621202L233.07011718750002,112.93679838872234L233.40937499999998,115.22532002029585L233.68078125,112.90129057207366L233.74863281249998,112.48796781483487L233.81648437500002,112.97905009935218L233.9521875,112.7755962935085L234.0200390625,112.29245536388923L234.2914453125,116.78589369175018L234.63070312500003,119.56194343954631L234.6985546875,116.82853642378434L234.96996093750002,114.80307646159838L235.0378125,113.17878638345705L235.17351562500002,109.35147023581689L235.17351562500002,111.45558855364655L235.85203125,110.83112214960614L235.987734375,112.4386068391281L236.0555859375,112.57594807788595L236.1234375,111.8695921391936L236.1912890625,114.00542787456664L236.53054687500003,114.0112631335506L237.1412109375,110.71023214348052L237.48046875,111.64505941363906L237.8197265625,112.99026786501847L237.95542968750001,112.38011028994505L238.0911328125,116.61117762901019L238.158984375,117.16771504229882L238.2946875,116.2658108290826L238.4982421875,114.16228914957014L238.4982421875,112.14043241660258L238.56609375,109.87783587726231L238.6339453125,107.54032596102721L238.7696484375,107.46266687999982L239.24460937499998,106.44732737197967L239.3803125,108.6336406895786L239.516015625,110.4785286245308L240.058828125,109.49875492597988L240.1266796875,110.63592482454798L240.2623828125,109.12058389095796L240.3980859375,112.4019975775977L240.6694921875,113.35897265361746L240.9408984375,113.17646322341957L241.00875,109.934821573052L241.3480078125,110.96525492697151L241.55156250000002,113.47076297360178L241.6194140625,114.35580280358106L241.82296875,115.92853588621523L241.89082031249998,115.53422486043397L241.958671875,112.79281975581102L242.23007812499998,112.81325958820494L242.36578125,116.87128553481287L242.4336328125,114.89187220647764L242.501484375,115.79106547483701L242.5693359375,115.61165457397044L242.772890625,120.14308207837347L243.044296875,118.72714240615133L243.315703125,115.75614645241436L243.45140625000002,113.6066191106562L243.58710937499998,110.86300122595972L243.7228125,111.94302068466233L244.265625,113.29207546898297L244.6048828125,113.15820009045942L244.6048828125,113.63177007357166L244.672734375,111.28798653833003L244.8762890625,112.37462217302281L244.944140625,112.02607755278244L245.07984375,111.92627391963022L245.35125,111.69138299077044L245.48695312499999,111.98086296110922L245.62265625,115.12169484648848L245.758359375,114.85530675165103L245.9619140625,115.44608598974693L246.36902343749998,111.90902694778052L246.6404296875,108.49556405772611L247.0475390625,109.56467205542234L247.25109375,111.72022914046788L247.92960937499998,111.99937364650613L248.0653125,112.9541953138084L248.201015625,112.32515799492026L248.201015625,112.37632146074031L248.47242187499998,112.82340400374126L249.015234375,115.6141491668792L249.42234375,115.2660940162761L249.7616015625,111.54593662455217L250.03300781250002,112.59952642739535L250.23656250000002,113.24188599022659L250.9829296875,112.73307452618538" style="fill: none;" fill="none"></path></g></g></g></g><g opacity="0.2"><g><g><g><path stroke="rgb(255, 112, 67)" stroke-width="2px" d="M44.4427734375,-4.653581937154115L44.7141796875,0.13822345932325675L45.121289062500004,4.095082521438599L45.3926953125,11.533873816331237L45.6641015625,11.168564647436142L46.206914062500005,20.137504776318877L46.342617187500004,20.905106802781432L46.681875,12.266250491142273L48.174609374999996,33.43724364042282L48.2424609375,36.38195262849331L48.785273437499995,49.01284206906955L48.853125,45.05520640810332L48.9209765625,47.82416228453317L48.988828125,54.46195780237514L49.531640625,73.99125028649965L49.5994921875,64.16642495989798L49.66734375,61.7625877658526L50.0066015625,75.1845310529073L50.5494140625,80.4085063834985L50.617265625,74.40421038866043L51.29578125,90.4146602153778L51.3636328125,78.32685514291127L51.431484375000004,98.89689998328686L51.702890625,81.07388309141L51.906445312500004,92.6462976038456L51.974296875,97.9618786300222L52.11,91.91723979016145L52.3135546875,119.48083934932947L52.4492578125,91.76037414868672L52.788515625,118.40416929622491L52.992070312500005,126.3334157342712L53.195625,100.73113488902648L53.331328125,98.89232098062833L53.5348828125,104.26331160217522L53.602734375000004,108.85262617468834L53.7384375,92.4139626721541L53.8062890625,108.81464975823958L53.8062890625,112.26688441137472L54.00984375,104.87330435713132L54.3491015625,85.75179953376451L54.959765625,82.00715709726015L55.027617187500006,88.70579840242863L55.434726562499996,59.673551509777695L55.63828125,100.31935800115266L55.706132812499995,84.58991240958372L55.773984375,49.88198805848758L55.841835937499994,102.19598714510599L55.9096875,85.57567277550697L56.316796874999994,50.95455166200796L56.4525,61.84480467438698L56.588203125,78.55174644788104L56.656054687499996,87.82865930596986L56.791757812499995,76.18149349093437L56.9274609375,87.65931679805118L56.9274609375,95.88002225011587L57.0631640625,76.7238452186187L57.266718749999995,90.20708853006361L58.1487890625,86.64948919415474L58.2844921875,92.51641510923703L58.4201953125,107.71147277454534L58.4201953125,111.16057172665992L58.6916015625,55.112469236055986L58.9630078125,80.10528116424878L59.0987109375,68.25592124462128L59.2344140625,70.3570607205232L59.43796875,76.28646621108055L59.573671875,71.25158537427583L59.845078125,93.47139725089072L59.98078125,71.48614020645618L60.0486328125,50.20054011543593L60.0486328125,57.615601186951L60.116484375,106.78692451616128L60.1843359375,100.5269516656796L60.387890625000004,80.62794684370358L60.52359375,85.50457734862964L60.5914453125,99.28302712986866L60.795,66.05205825467904L60.795,72.47692648569742L60.862851562500005,91.6597533126672L60.998554687500004,55.22415294249852L61.1342578125,76.88629358013469L61.2699609375,48.85920737187067L61.3378125,77.2779924571514L61.3378125,82.29797871410847L62.15203125,48.843836575746536L62.287734375,58.66488147775331L63.37335937500001,44.920693626006454L63.5769140625,40.774952535827964L63.644765625,56.893649985392884L63.84832031249999,65.10914270083107L64.11972656249999,66.0232361803452L64.32328125,74.60661695897579L64.458984375,59.516561319430664L64.6625390625,68.09997873008251L64.730390625,78.38803061842918L64.9339453125,50.83487484852472L65.001796875,78.03826807936032L65.4767578125,71.29690651098886L65.544609375,69.29893013338247L65.8838671875,85.26522372166316L65.95171875,77.4041238327821L66.29097656249999,84.54407842457294L66.4266796875,96.56837089856465L66.5623828125,60.82439774274826L66.8337890625,83.19884070754051L66.901640625,86.29442233840624L67.1051953125,58.36419119437535L67.1051953125,60.68134237329164L67.30875,66.24406865735848L67.715859375,62.190347204605715L67.9194140625,76.59221903979778L67.987265625,92.02156046032904L68.32652343749999,67.46653049190839L68.394375,51.15678239862123L68.66578125,58.70192377765973L69.072890625,59.30532643198967L69.344296875,62.305078695217745L69.75140625,83.79739328225453L69.95496093749999,63.4086403151353L70.0906640625,70.18080941339333L70.158515625,52.674813359975815L70.29421875,59.424351195494324L70.429921875,62.251434763272584L70.4977734375,66.80927876631416L70.6334765625,38.36336400608221L70.701328125,61.05816864967346L70.972734375,64.00143433610597L71.17628906249999,51.161163588364914L71.3119921875,60.91909151772657L71.37984375,69.34898412724336L71.7191015625,53.40272092819215L71.85480468749999,53.394354174534485L72.32976562500001,65.57129960755505L73.07613281249999,66.62276316682497L73.143984375,62.15627209842205L73.27968750000001,57.271399388710634L73.27968750000001,59.768428444862366L73.34753906249999,64.50615032513936L73.95820312500001,68.22796368598938L74.3653125,72.78126531839371L74.3653125,74.64719058573246L74.5688671875,68.30746249854565L74.63671875,58.032715360323564L74.8402734375,68.21101038654643L75.72234375000001,62.1474291284879L75.7901953125,57.14321661988892L76.12945312500001,68.13772436479725L76.4687109375,69.89409058292706L76.6044140625,57.606684952974305L76.672265625,50.93785478671393L77.35078125,51.51724148790042L77.5543359375,58.26505761841932L77.8257421875,56.59253477056819L78.029296875,59.911908745765686L78.36855468750001,54.598771075407655L78.572109375,60.5681127955516L78.6399609375,58.72284066180387L78.9113671875,46.008239726225526L79.0470703125,68.03966044386227L79.114921875,65.28266858557859L79.250625,59.768406465649605L79.250625,60.52682118117809L79.8612890625,60.819415787855775L80.4041015625,52.19207658370337L80.8790625,61.211825326085076L81.014765625,60.18018701672554L81.014765625,60.49828483661014L81.0826171875,59.547713190317154L81.15046875,60.88034216562906L81.8968359375,61.83642326792079L82.0325390625,56.91753406325975L82.1682421875,65.79709938665229L82.3039453125,67.19845736026764L82.371796875,62.083923856417314L82.5075,69.03419051567712L82.643203125,67.70499029755592L82.77890624999999,55.985791275898606L83.593125,59.56520131727058L83.66097656250001,67.85559186339378L84.000234375,61.368910759687424L84.271640625,64.17211024959882L84.33949218750001,64.19551078478493L84.40734375,62.80492262542248L84.4751953125,61.64026612043381L84.814453125,62.46913153926529L85.085859375,64.07653730611005L85.5608203125,63.58703825871147L85.628671875,57.77032019197941L85.69652343749999,61.8879132370154L86.5107421875,66.30261395374932L86.57859375,63.007263258099556L86.64644531249999,64.80095017949738L87.12140625,68.8943148056666L87.12140625,69.2703058719635L87.4606640625,61.806927164395645L87.66421875,66.52466261386871L87.79992187500001,63.170656725764275L88.07132812500001,66.63806802531082L88.342734375,64.75005364914735L88.342734375,64.98526785771051L88.5462890625,65.8861518303553L88.81769531249999,63.233846962451935L89.08910156249999,67.35906679431595L89.156953125,74.07165024677913L89.29265625000001,69.13972736895084L89.428359375,62.10663570960361L89.5640625,68.80068335930505L89.699765625,70.42034620046614L89.83546875,63.24556920925775L89.97117187500001,65.85821625093618L90.24257812500001,66.2872724632422L90.513984375,68.31399032473564L90.6496875,68.94080084065595L90.7175390625,64.83218996723492L90.9889453125,67.18050034344195L91.26035156249999,69.01530304551125L91.3960546875,76.09863918522994L91.46390625000001,70.90758138895035L91.46390625000001,71.50855900347233L91.5317578125,60.8828184902668L91.6674609375,73.5253129551808L91.87101562500001,68.51488765577473L92.21027343749999,68.49932637314L92.54953125,66.29764665166536L92.68523437500001,68.21487872799237L92.7530859375,71.85296594103177L92.82093750000001,68.58254699905713L93.0244921875,74.00596903264521L93.09234375000001,76.5915376842022L93.1601953125,74.32017653187116L93.1601953125,75.58308744430542L93.36375,74.28297305107115L93.8387109375,68.38517366846402L94.1101171875,72.58380407094955L94.313671875,75.53058643142383L94.585078125,61.73092304666835L94.585078125,63.43091258406639L94.9243359375,69.59138553837933L95.12789062499999,79.68830619255701L95.535,65.62374933560687L95.8742578125,67.81498160461584L96.0099609375,73.09221256772675L96.34921874999999,65.75132401287556L96.484921875,75.25276185572147L96.62062499999999,69.38669312993684L96.756328125,77.87428849935532L97.2312890625,67.54356763263543L97.29914062499999,76.78819302717844L97.50269531250001,63.94477192560831L97.57054687499999,67.52285588781037L97.57054687499999,68.77980310718218L98.72402343750001,69.90784957011539L98.927578125,72.2561159878969L99.198984375,66.46693787475427L99.40253906250001,63.850107456247L99.5382421875,61.47402268151441L99.60609375,64.28547902901965L99.67394531250001,65.42184828718501L99.8775,65.20637141168118L99.94535156250001,71.89334908127785L100.013203125,59.56347228586674L100.14890625,59.61751917004584L100.62386718750001,73.26110816498596L100.69171874999999,70.57688215374945L101.098828125,65.88062039514382L101.16667968750001,61.80578424533208L101.16667968750001,62.739021619160965L101.641640625,68.2828311274449L101.77734375,66.85682712992032L101.913046875,69.71337749560674L102.04875,73.84513248006502L102.184453125,71.1034601330757L102.32015625,64.94174901644388L102.5915625,67.20122674107552L102.65941406249999,67.06474315623441L102.7951171875,69.70753835141659L102.86296875000001,66.8921037664016L102.998671875,72.59246388077734L103.134375,65.45371814568837L103.81289062500001,66.3474075893561L104.22,73.88994809488455L104.22,74.98985383907953L104.355703125,67.87354888021946L104.355703125,68.94650810956954L104.4235546875,65.80450638135274L104.49140625,67.26023360093434L104.627109375,70.7466569195191L104.76281250000001,67.91536066929498L104.9663671875,68.31447386741638L105.03421875000001,71.2332107524077L105.5091796875,72.9189943919579L105.6448828125,74.09207626183827L105.9162890625,76.06755325198174L105.9162890625,76.90453632672627L106.526953125,67.39379395047823L106.66265625,72.13147187232971L106.66265625,71.5906953215599L106.798359375,69.11722798148789L106.8662109375,70.11797084410985L107.069765625,67.49455398817857L107.341171875,67.75571832060814L107.476875,74.0679723918438L107.5447265625,82.64138193428516L107.612578125,78.18309643864632L107.74828125,78.58115463455516L108.0875390625,70.42967271308103L108.15539062500001,78.30565252900124L108.22324218749999,74.04825703799725L108.29109375,74.72390536467235L108.42679687500001,70.09729573130608L108.4946484375,75.50668037434417L108.7660546875,75.29269808530807L108.9017578125,71.07972990969814L109.37671875000001,67.10400535662968L109.512421875,76.37375299135843L109.5802734375,77.80728120605151L109.78382812500001,75.09375690420468L109.78382812500001,75.40608151753743L109.8516796875,79.73050628105798L109.9873828125,73.55484569072723L110.05523437500001,74.1269645988941L110.1230859375,72.65766887863477L110.1230859375,73.21131059527397L110.3944921875,73.46446716785431L110.46234374999999,76.0047220091025L110.6658984375,71.53475822508334L111.2765625,76.65249336759248L111.6158203125,72.37725075582661L111.819375,77.14955326418082L112.0229296875,83.8693678776423L112.1586328125,75.32980632285278L112.226484375,74.98958276212215L112.5657421875,75.20501567920047L112.63359374999999,76.8827402740717L112.7014453125,74.28842389583588L113.1085546875,73.1184264421463L113.4478125,73.67976820965607L113.7870703125,79.54845246175924L114.3298828125,94.58523048957188L114.940546875,72.11419621109962L115.0083984375,77.59368721644083L115.07625,75.58369553585845L115.34765625,79.71027807891369L115.41550781250001,78.00428089002767L115.5512109375,75.48166070381801L115.89046875,81.14361580709615L116.161875,77.51171940565109L116.161875,77.61728556454182L116.568984375,74.23737351099649L116.840390625,78.4981171687444L117.0439453125,74.60000121593474L117.0439453125,75.12574398517609L117.111796875,77.3835805952549L117.1796484375,75.09935427705447L117.383203125,78.01939526200293L118.197421875,81.23943784832954L118.26527343750001,76.24608307083447L118.60453125,76.58696600794791L118.6723828125,78.3042678385973L118.8080859375,80.60914729038873L118.8080859375,82.27186008294423L119.283046875,87.7706195314725L119.4866015625,80.19781364997226L119.69015625,64.14441644152005L119.7580078125,72.8836737970511L119.82585937500001,72.00588997701801L119.89371093749999,75.77304645379384L120.3008203125,77.988316655159L120.4365234375,74.21110102534293L120.504375,77.30447008212406L120.640078125,78.20825531085332L120.911484375,71.61254265904427L120.9793359375,78.66313709815343L121.31859375,82.76535202066103L121.3864453125,76.837631603082L121.79355468749999,81.70371208588281L121.79355468749999,81.80025211473306L121.86140625,81.04092892507713L121.99710937500001,80.59154926737149L122.1328125,83.46802745262782L122.3363671875,80.00783998767534L122.8791796875,75.28011132280031L123.082734375,84.04400004943211L123.1505859375,88.45603395501772L123.4219921875,84.11950597167015L123.625546875,75.18255292375882L123.8291015625,79.27684067686398L123.96480468749999,80.17680152257283L124.6433203125,84.6410580376784L124.7790234375,87.44979628920554L124.84687500000001,73.64415455857912L124.982578125,79.05048409104347L125.18613281249999,83.11657984058063L125.5932421875,85.24147151907285L125.8646484375,90.26756799717744L126.33960937500001,75.94509973128635L126.74671875000001,75.16286687552929L126.882421875,83.77861570815244L127.0859765625,85.64452632268268L127.3573828125,98.46292042732239L127.3573828125,100.27679159243901L127.42523437499999,74.68707553048927L127.42523437499999,76.34380265076955L127.7644921875,89.14410053690274L128.510859375,82.27698123951753L128.5787109375,89.23982733488083L128.5787109375,90.00774439672628L128.8501171875,77.84647014240423L129.18937499999998,80.32436263064542L129.2572265625,79.14974221587181L129.6643359375,87.8993591070175L129.73218749999998,74.93478125830491L129.8000390625,78.86282557249069L129.867890625,88.38393481075762L129.9357421875,84.49816384911536L130.00359375,78.80754785239695L130.6142578125,77.9475232362747L130.8856640625,86.76333418985207L131.29277343750002,73.69373966256776L131.360625,79.99450593193372L131.63203124999998,77.82864500085513L131.63203124999998,77.333497295777L131.8355859375,78.03966742257276L131.9712890625,76.37582636376222L132.17484375,74.67299418151377L132.24269531250002,74.64976215362549L132.310546875,83.57469257215658L132.853359375,84.87934933602808L132.9212109375,89.00294270614782L132.9890625,78.78586169580619L132.9890625,85.05573251843451L133.396171875,74.37650192777315L134.0068359375,78.79337858657043L134.5496484375,86.02118409176667L134.8210546875,90.91256264845529L134.8210546875,90.95797170201936L134.9567578125,84.6680338581403L135.4995703125,78.87295798957346L135.63527343750002,77.3196064333121L135.77097656249998,79.06534203886986L135.838828125,80.51128850877285L135.9066796875,77.36595326662062L135.97453125,78.51457227269808L136.0423828125,82.65267924964428L136.17808593750001,81.65025131404398L136.2459375,80.84402448435624L136.5851953125,78.33835759758949L136.7208984375,84.10408389071623L136.9923046875,85.27088703215121L137.06015625,81.60632219413915L137.1280078125,75.0330356657505L137.3994140625,81.416890685757L137.87437500000001,79.653095493714L137.9422265625,78.4585106273492L138.01007812499998,80.11123020450273L138.07792968750002,81.78455895682175L138.6207421875,82.07233278950055L139.0278515625,79.61911563078563L139.8420703125,84.26907451450825L140.31703125,80.94435959060985L140.3848828125,80.46849498152733L140.5884375,79.8425856133302L140.5884375,79.85172896583875L140.6562890625,82.13325916727383L140.7919921875,97.2864610850811L140.9276953125,81.90391340851782L141.0633984375,87.36276593307655L141.13125,90.86634769042332L141.67406250000002,86.34298174579938L142.081171875,88.2509972055753L142.2847265625,91.36444061001141L142.35257812499998,81.95834859212238L142.5561328125,84.43077558279036L142.6918359375,85.30685967703658L143.5060546875,89.82004924615224L143.57390625,89.12298583984375L143.8453125,84.03595565756162L143.9131640625,90.39087138076623L143.981015625,92.00834362705548L144.0488671875,83.74292146662872L144.0488671875,84.68295041720071L144.7273828125,90.20686873793602L144.9309375,94.62867606679598L145.20234375,80.44522632161775L145.2701953125,95.2668498357137L145.338046875,104.52002880722284L145.609453125,85.5565288811922L146.01656250000002,94.26569669445355L146.0844140625,90.66931870083013L146.28796875,94.04133289059003L146.55937500000002,104.07151000201702L146.7629296875,102.41949375967184L146.83078125,86.2010912746191L146.966484375,95.96382898837328L147.1700390625,95.05667727688947L147.37359375,98.39836747944355L147.780703125,88.95987077554067L147.91640625000002,80.3321579247713L148.39136718749998,80.59897824128467L148.45921875000002,70.82948191960652L148.5270703125,78.65677777926126L148.59492187499998,79.55636497835317L148.7984765625,77.3489999671777L149.3412890625,75.28157660365105L149.54484375,78.964538042744L150.15550781250002,75.11428548892337L150.29121093749998,78.90172877907753L150.35906250000002,78.99432720243931L150.5626171875,80.6616556296746L150.766171875,74.65594563881555L150.90187500000002,80.37805784742038L150.9697265625,78.0482906003793L151.17328125,76.52063274383544L151.2411328125,76.02171926697093L151.44468750000001,81.17612306276956L151.6482421875,78.75321523845194L151.851796875,80.09600593646365L151.9875,77.35037733117738L152.19105468749999,79.7076698789994L152.5303125,74.68385191261768L152.59816406250002,82.80720776816209L152.937421875,79.34150352080663L153.07312499999998,80.36566157142322L153.14097656250001,79.00120669603346L153.2766796875,80.886275857687L153.8194921875,82.48633324106534L153.88734374999999,81.04007173577945L154.0908984375,84.95248150328796L154.2266015625,78.88780128459136L154.294453125,77.77996104458967L154.7694140625,74.36834763983884L155.17652343749998,73.77561955650646L155.380078125,78.64336313307284L155.7871875,77.13230690856773L155.7871875,77.36643680930138L155.9907421875,80.71719710032144L156.05859375,82.38856970270474L156.5335546875,81.25875024994212L156.6692578125,80.09538319210212L156.73710937500002,76.76310741901398L156.8049609375,80.15049973130225L156.87281249999998,80.88807082672913L157.008515625,78.51633060971895L157.551328125,77.12576442956924L157.9584375,81.60627823571365L157.9584375,82.35648005207378L158.1619921875,81.32659275333086L158.4333984375,79.56960379083951L159.2476171875,82.42156782746315L159.451171875,78.7437275449435L159.5190234375,80.5670204659303L160.19753906250003,79.32144382596016L160.3332421875,83.51694585382937L160.4689453125,82.18767969806987L160.4689453125,82.64933108290036L160.536796875,83.30382075409094L160.74035156250002,85.15249233941236L160.808203125,82.1158955891927L160.8760546875,81.0105243474245L161.21531249999998,74.1797659943501L161.4188671875,79.75317417581876L161.62242187500001,78.78795704742272L161.893828125,80.51884935796261L162.02953125,78.3268038580815L162.165234375,80.33524966736634L162.57234375,89.94281047582625L162.6401953125,88.44263396163781L162.7758984375,83.92948102454343L163.1830078125,90.06332982579866L163.31871093750001,89.07866842051347L163.45441406249998,83.50724569459756L163.52226562500002,87.42432970801988L163.8615234375,87.34560016791025L163.929375,92.18218454718588L163.99722656249997,84.97936208049455L164.4721875,93.85502975682417L165.015,94.63468371828397L165.150703125,83.39677817126113L165.42210937500002,80.01241166392961L166.236328125,100.55785443882147L166.3041796875,63.00324838856855L166.3041796875,66.36233880122502L166.5755859375,95.89311453451712L166.91484375,96.37496115267275L167.18625,80.8907303114732L167.3898046875,103.85617965459822L167.5255078125,83.82850119471549L167.9326171875,88.30847284694511L168.136171875,77.30353230237961L168.3397265625,84.96558844049771L168.950390625,84.76556295156479L169.08609375,85.45850891868272L169.4253515625,89.35454417268434L169.62890625,83.03094882766405L169.764609375,90.25377237796782L169.9003125,93.86378480990727L169.9681640625,100.71392516543467L170.307421875,88.60599079728125L170.3752734375,89.91026658813158L170.71453125,85.90193220973015L170.7823828125,81.11547508835793L170.85023437499999,82.65598345796266L171.0537890625,87.81325920422871L171.1894921875,85.06500774621964L171.1894921875,85.82507090270519L171.25734375,89.07619942227998L171.46089843750002,91.78592864672342L172.207265625,105.27107682327429L172.750078125,95.15613321463266L172.9536328125,100.01993518571058L172.9536328125,101.63806314518054L173.021484375,98.00026166190703L173.29289062499998,96.24379653731981L175.26058593750003,104.30052240937948L175.73554687499998,101.23079565912485L175.80339843750002,105.78000915795563L176.14265625000002,97.90400369962056L176.2105078125,104.1912893851598L176.27835937499998,93.9028931558132L176.34621093750002,102.2081306601564L176.4140625,104.09965804715951L176.4819140625,100.74371798833211L176.549765625,104.29349272449811L177.2961328125,100.39260739088057L177.4996875,108.51405105491479L177.5675390625,104.18305450677872L177.70324218750002,101.85596872369447L177.8389453125,100.23544136683145L178.2460546875,95.44059551258881L178.51746093749998,100.82840023189783L178.6531640625,96.47967744867006L178.6531640625,97.38030866036812L178.992421875,103.34623261292775L179.1959765625,103.58039181927839L179.7387890625,109.09096143146355L179.94234375000002,100.58591456711292L180.07804687499998,106.84772634506226L180.349453125,120.15609205017486L180.41730468749998,107.38276632130146L180.7565625,106.98813688258329L180.892265625,106.77666755020618L181.0958203125,106.78907115260759L181.2315234375,102.84802613407372L181.435078125,116.28847591827312L181.77433593749998,96.79844197134176L181.977890625,104.46444704135259L182.11359375,101.23331227898596L182.4528515625,96.06243872642517L182.92781250000002,102.86326871812344L183.19921875,108.9710501730442L183.2670703125,105.6976054261128L183.334921875,108.95962098240851L183.4027734375,104.08442278951405L183.5384765625,102.70460078120232L183.5384765625,107.71684302886327L184.21699218749998,106.52874935666719L184.21699218749998,106.63863809406757L184.28484375000002,101.55692688127358L184.4883984375,107.55575005213419L184.62410156250002,110.76744786401589L185.506171875,100.41275866578022L185.7097265625,95.58817859987417L185.8454296875,104.71999934812386L185.9811328125,105.98804240673779L186.2525390625,110.39240923027197L186.320390625,100.54682087401548L186.863203125,99.03698815902074L186.9310546875,96.90290916959444L187.54171874999997,93.74602751433848L187.6095703125,94.44104685386021L187.677421875,96.86775708198547L187.948828125,96.8563022489349L188.0166796875,98.25634879618883L188.2880859375,101.03971937298773L188.35593749999998,105.94820508360863L188.35593749999998,109.13347655534744L188.8308984375,101.21018282075723L188.89874999999998,108.03175752609968L189.2380078125,104.46359717845915L189.305859375,102.00049670040606L189.71296875,104.17334335794051L189.7808203125,104.89013310770193L189.848671875,103.81208935379982L189.9165234375,103.37897431353727L190.32363281250002,101.09054630249739L190.934296875,104.88136340181032L191.40925781250002,104.7366669178009L191.6128125,101.98258730520804L191.88421875,98.40244096020857L192.155625,117.42885638276735L192.291328125,81.91995823383331L192.4948828125,111.5538494437933L192.56273437500002,103.24517219265302L192.56273437500002,101.06561821202436L192.90199218749999,104.99712058901787L193.648359375,105.97430173556009L193.7840625,111.9861805588007L193.9876171875,104.69545589387417L194.191171875,103.40565707782903L194.5304296875,121.30905927717686L194.66613281250002,108.07881868382294L194.8696875,90.79701060056686L195.00539062500002,105.62059392780066L195.0732421875,103.43325930585463L195.3446484375,100.11687084039052L195.4125,101.06734724342822L195.48035156249998,103.68225081761678L195.54820312500001,102.33346712092558L195.6160546875,103.48358803987503L195.68390625,100.3730532179276L195.68390625,102.08942459523678L195.9553125,105.8333527073264L196.02316406249997,114.3654779617985L196.091015625,82.17595745126405L196.091015625,86.26702158649762L196.1588671875,85.32036224007607L196.22671875,86.47031465172768L196.29457031249999,106.43649527430534L196.362421875,105.79224791626135L196.5659765625,101.49495282769202L196.76953125,98.08537616332372L196.83738281249998,97.52888447542985L196.90523437500002,97.29852767288685L197.58374999999998,101.04353276640177L197.6516015625,103.95527659853299L197.85515625,93.49091479182242L198.1265625,96.89666707317033L198.533671875,96.21248348553975L199.14433593750002,100.05944648385048L199.2121875,103.42870960881312L199.755,101.25781910121441L199.89070312500002,101.64500491321087L199.9585546875,101.721727018555L199.9585546875,101.99400916943947L200.6370703125,111.01995604981978L201.4512890625,97.87470540901025L201.519140625,102.59485124548276L201.9941015625,108.27608944475651L202.2655078125,88.06150708595912L202.5369140625,105.5652722492814L202.5369140625,105.81210979819298L202.6726171875,110.6110511124134L202.74046875,113.32941450426975L202.74046875,113.93945854405561L203.2154296875,115.14149070034424L203.48683593750002,119.89614023764928L204.233203125,103.74755838513374L204.4367578125,111.22034419576326L204.5724609375,99.76134608437617L204.77601562499999,101.5274820625782L205.2509765625,103.49780859053133L205.31882812499998,110.70888058841227L205.31882812499998,111.84012136360009L205.590234375,109.19238450874884L206.2008984375,103.61556588610013L206.7437109375,105.88544710477193L206.947265625,100.16837546229362L207.1508203125,113.80884707222381L207.1508203125,113.37747205297151L207.354375,111.02090481917062L207.82933593750002,117.03256385028362L207.8971875,107.4539569914341L208.1007421875,103.28208628048499L208.16859375,106.84453203280766L208.9828125,103.03620849053064L209.118515625,102.29716478784879L209.5934765625,105.40336604168017L209.72917968750002,101.37768640120824L210.33984375,99.6960641592741L210.61125,105.68319438894589L210.746953125,106.14037666718164L211.3576171875,108.7143073255817L211.4933203125,101.60411625107129L211.4933203125,101.48446141680081L211.56117187499999,106.50867500901222L211.62902343750002,102.55740599334239L211.696875,99.38599241524935L211.832578125,102.63085319598515L211.832578125,103.55026564498742L212.2396875,108.45259717603524L212.44324218749998,102.80522894362608L212.5789453125,109.02160968879858L213.3253125,109.47569289803505L213.80027343749998,113.48284406214952L214.0716796875,105.2159676104784L214.34308593749998,102.4553272028764L214.68234375,100.03165010611215L214.7501953125,103.84281995644172L215.22515625,110.69042537609735L215.360859375,103.13058723012605L215.70011718749998,104.91949000954627L215.76796875000002,112.52009226878484L215.8358203125,113.44208361208439L216.44648437499998,110.27782793094714L216.5821875,96.88987549642721L216.717890625,105.30496510614951L216.989296875,121.30594189216693L217.1928515625,95.855907390515L217.260703125,101.75084947546323L217.3285546875,101.88254891832669L217.5999609375,102.47006792823473L217.803515625,106.37386184434095L217.93921875,106.7697440981865L218.4141796875,113.34799060225487L218.48203125,106.59351110706726L218.54988281250002,110.86025875310102L218.68558593749998,109.7377583781878L219.02484375,116.82675782839456L219.2283984375,113.20592063417035L219.6355078125,101.5132248799006L219.974765625,107.21794420480727L220.1783203125,109.25725981841484L220.1783203125,109.57149662325779L220.3140234375,109.00105179846287L220.517578125,116.07963310182095L220.7211328125,108.21208231399456L220.92468749999998,117.81993984182674L220.99253906250001,98.12847373634575L221.060390625,113.90535779545704L221.46749999999997,107.63808784633875L221.603203125,115.568777586023L221.874609375,106.35422341773906L222.0103125,106.57777765393257L222.146015625,110.9862362742424L222.34957031250002,112.07617078224817L222.48527343749998,106.11733512580395L222.7566796875,105.21991654237111L222.89238281250002,109.6572155530254L222.960234375,108.91242428620656L223.02808593749998,105.32398078838983L223.0959375,107.73790644109249L223.36734374999997,118.73121631890535L223.4351953125,108.76100216309229L223.4351953125,109.2660368507107L223.63875,103.15925178676842L224.045859375,113.90775719285011L224.24941406250002,111.42176902790864L224.5208203125,116.23754641910394L224.58867187500002,115.03006708125272L224.92792968749998,115.50633464256921L224.99578125,104.18612427016099L225.4707421875,102.76062945773204L225.8778515625,107.81622203936179L225.945703125,103.3323637296756L226.08140625,110.8568812807401L226.14925781250003,105.42684350411096L226.48851562500002,104.65321917335191L226.5563671875,112.73262392977873L226.82777343749999,116.10116174072027L227.302734375,107.76269899308681L227.70984375,110.32174606124559L227.98125,112.85441074768701L228.04910156250003,124.52135419100523L228.1848046875,125.23911835253239L228.659765625,108.48714117209116L229.06687499999998,104.05740667382875L229.2704296875,111.15291197101274L229.5418359375,109.64068718502918L229.88109375,103.12226443489392L229.94894531249997,118.29788514971733L230.1525,116.53666885197163L230.288203125,117.43208000063896L230.4917578125,111.63113934546709L230.559609375,112.67222871631384L230.8988671875,122.91437335560718L230.96671874999998,109.22239346057177L231.50953124999998,114.31475726515055L231.645234375,114.24976839621861L231.84878906249997,117.54644883424044L232.188046875,114.45600667595863L232.2558984375,117.75269810358682L232.66300781249998,117.64841040223837L232.7987109375,110.35668201992908L232.8665625,111.93650753796099L233.07011718750002,112.40437904000282L233.40937499999998,118.65810246765614L233.68078125,109.41524639974037L233.74863281249998,111.86798367897669L233.81648437500002,113.71567352612813L233.9521875,112.47041558474302L234.0200390625,111.56774396946032L234.2914453125,123.5260511835416L234.63070312500003,123.72601806124051L234.6985546875,112.72842590014139L234.96996093750002,111.76488651831944L235.0378125,110.74235126624504L235.17351562500002,103.6104960143566L235.17351562500002,114.61176603039105L235.85203125,109.89442254354556L235.987734375,114.84983387341101L236.0555859375,112.78195993602274L236.1234375,110.81005823115507L236.1912890625,117.20918147762616L236.53054687500003,114.02001602202654L237.1412109375,105.75868565837541L237.48046875,113.04730031887689L237.8197265625,115.00808054208755L237.95542968750001,111.46487392733493L238.0911328125,122.95777863760789L238.158984375,118.00252116223174L238.2946875,114.91295450925827L238.4982421875,111.00700663030148L238.4982421875,109.10764731715122L238.56609375,106.48394106825192L238.6339453125,104.03406108667453L238.7696484375,107.34617825845876L239.24460937499998,104.92431810994943L239.3803125,111.913110665977L239.516015625,113.24586052695909L240.058828125,108.02909437815347L240.1266796875,112.34167967240015L240.2623828125,106.84757249057292L240.3980859375,117.3241181075573L240.6694921875,114.7944352676471L240.9408984375,112.90269907812277L241.00875,105.07235909750064L241.3480078125,112.51090495785077L241.55156250000002,117.22902504354715L241.6194140625,115.68336254854995L241.82296875,118.28763551016647L241.89082031249998,114.94275832176208L241.958671875,108.68071209887663L242.23007812499998,112.8439193367958L242.36578125,122.95832445472479L242.4336328125,111.92275221397479L242.501484375,117.13985537737608L242.5693359375,115.34253822267056L242.772890625,126.94022333497801L243.044296875,116.60323289781809L243.315703125,111.29965252180894L243.45140625000002,110.38232809801896L243.58710937499998,106.74757439891496L243.7228125,113.56304987271626L244.265625,115.31565764546394L244.6048828125,112.95738702267407L244.6048828125,114.34212504824L244.672734375,107.77231123546758L244.8762890625,114.00457562506199L244.944140625,111.50326062242189L245.07984375,111.77656846990187L245.35125,111.33904659748076L245.48695312499999,112.41508291661738L245.62265625,119.83294267455736L245.758359375,114.45572460939486L245.9619140625,116.33225484689075L246.36902343749998,106.60343838483094L246.6404296875,103.37536972264448L247.0475390625,111.16833405196665L247.25109375,114.95356476803619L247.92960937499998,112.4180904055635L248.0653125,114.38642781476179L248.201015625,111.38160201658805L248.201015625,112.4530666594704L248.47242187499998,113.4940278182427L249.015234375,119.80026691158612L249.42234375,114.74401129037142L249.7616015625,105.96570053696632L250.03300781250002,114.17991113166013L250.23656250000002,114.20542533447345L250.9829296875,111.96985733012357" style="fill: none;" fill="none"></path></g></g></g></g></g></g><g transform="translate(58, 177)" clip-path="url(#clip_1)"><clipPath id="clip_1"><rect width="271" height="23"></rect></clipPath><g><g><line x1="0" y1="0" x2="0" y2="5" style="visibility: inherit;" fill="rgb(0, 0, 0)" stroke="rgb(204, 204, 204)" stroke-width="1px"></line><line x1="33.92578125" y1="0" x2="33.92578125" y2="5" style="visibility: inherit;" fill="rgb(0, 0, 0)" stroke="rgb(204, 204, 204)" stroke-width="1px"></line><line x1="67.8515625" y1="0" x2="67.8515625" y2="5" style="visibility: inherit;" fill="rgb(0, 0, 0)" stroke="rgb(204, 204, 204)" stroke-width="1px"></line><line x1="101.77734375" y1="0" x2="101.77734375" y2="5" style="visibility: inherit;" fill="rgb(0, 0, 0)" stroke="rgb(204, 204, 204)" stroke-width="1px"></line><line x1="135.703125" y1="0" x2="135.703125" y2="5" style="visibility: inherit;" fill="rgb(0, 0, 0)" stroke="rgb(204, 204, 204)" stroke-width="1px"></line><line x1="169.62890625" y1="0" x2="169.62890625" y2="5" style="visibility: inherit;" fill="rgb(0, 0, 0)" stroke="rgb(204, 204, 204)" stroke-width="1px"></line><line x1="203.5546875" y1="0" x2="203.5546875" y2="5" style="visibility: inherit;" fill="rgb(0, 0, 0)" stroke="rgb(204, 204, 204)" stroke-width="1px"></line><line x1="237.48046875" y1="0" x2="237.48046875" y2="5" style="visibility: inherit;" fill="rgb(0, 0, 0)" stroke="rgb(204, 204, 204)" stroke-width="1px"></line><line x1="271.40625" y1="0" x2="271.40625" y2="5" style="visibility: inherit;" fill="rgb(0, 0, 0)" stroke="rgb(204, 204, 204)" stroke-width="1px"></line></g><g transform="translate(0, 8)"><text x="0" y="0" dx="0em" dy="0.95em" style="text-anchor: middle; visibility: hidden; font-family: &quot;Helvetica Neue&quot;, sans-serif; font-size: 12px; font-weight: 200;" fill="rgb(50, 49, 63)" stroke="none" stroke-width="1px">-500</text><text x="33.92578125" y="0" dx="0em" dy="0.95em" style="text-anchor: middle; visibility: inherit; font-family: &quot;Helvetica Neue&quot;, sans-serif; font-size: 12px; font-weight: 200;" fill="rgb(50, 49, 63)" stroke="none" stroke-width="1px">0</text><text x="67.8515625" y="0" dx="0em" dy="0.95em" style="text-anchor: middle; visibility: inherit; font-family: &quot;Helvetica Neue&quot;, sans-serif; font-size: 12px; font-weight: 200;" fill="rgb(50, 49, 63)" stroke="none" stroke-width="1px">500</text><text x="101.77734375" y="0" dx="0em" dy="0.95em" style="text-anchor: middle; visibility: inherit; font-family: &quot;Helvetica Neue&quot;, sans-serif; font-size: 12px; font-weight: 200;" fill="rgb(50, 49, 63)" stroke="none" stroke-width="1px">1k</text><text x="135.703125" y="0" dx="0em" dy="0.95em" style="text-anchor: middle; visibility: inherit; font-family: &quot;Helvetica Neue&quot;, sans-serif; font-size: 12px; font-weight: 200;" fill="rgb(50, 49, 63)" stroke="none" stroke-width="1px">1.5k</text><text x="169.62890625" y="0" dx="0em" dy="0.95em" style="text-anchor: middle; visibility: inherit; font-family: &quot;Helvetica Neue&quot;, sans-serif; font-size: 12px; font-weight: 200;" fill="rgb(50, 49, 63)" stroke="none" stroke-width="1px">2k</text><text x="203.5546875" y="0" dx="0em" dy="0.95em" style="text-anchor: middle; visibility: inherit; font-family: &quot;Helvetica Neue&quot;, sans-serif; font-size: 12px; font-weight: 200;" fill="rgb(50, 49, 63)" stroke="none" stroke-width="1px">2.5k</text><text x="237.48046875" y="0" dx="0em" dy="0.95em" style="text-anchor: middle; visibility: inherit; font-family: &quot;Helvetica Neue&quot;, sans-serif; font-size: 12px; font-weight: 200;" fill="rgb(50, 49, 63)" stroke="none" stroke-width="1px">3k</text><text x="271.40625" y="0" dx="0em" dy="0.95em" style="text-anchor: middle; visibility: hidden; font-family: &quot;Helvetica Neue&quot;, sans-serif; font-size: 12px; font-weight: 200;" fill="rgb(50, 49, 63)" stroke="none" stroke-width="1px">3.5k</text></g><line x1="0" y1="0" x2="271.40625" y2="0" fill="rgb(0, 0, 0)" stroke="rgb(204, 204, 204)" stroke-width="1px"></line></g></g></g></g></svg>