<svg viewBox="0 0 330 200" xmlns="http://www.w3.org/2000/svg"><g><g><g><g><g><line x1="58.59375" y1="177" x2="53.59375" y2="177" style="visibility: inherit;" fill="rgb(0, 0, 0)" stroke="rgb(204, 204, 204)" stroke-width="1px"></line><line x1="58.59375" y1="163.3846153846154" x2="53.59375" y2="163.3846153846154" style="visibility: inherit;" fill="rgb(0, 0, 0)" stroke="rgb(204, 204, 204)" stroke-width="1px"></line><line x1="58.59375" y1="149.76923076923077" x2="53.59375" y2="149.76923076923077" style="visibility: inherit;" fill="rgb(0, 0, 0)" stroke="rgb(204, 204, 204)" stroke-width="1px"></line><line x1="58.59375" y1="136.15384615384616" x2="53.59375" y2="136.15384615384616" style="visibility: inherit;" fill="rgb(0, 0, 0)" stroke="rgb(204, 204, 204)" stroke-width="1px"></line><line x1="58.59375" y1="122.53846153846153" x2="53.59375" y2="122.53846153846153" style="visibility: inherit;" fill="rgb(0, 0, 0)" stroke="rgb(204, 204, 204)" stroke-width="1px"></line><line x1="58.59375" y1="108.92307692307693" x2="53.59375" y2="108.92307692307693" style="visibility: inherit;" fill="rgb(0, 0, 0)" stroke="rgb(204, 204, 204)" stroke-width="1px"></line><line x1="58.59375" y1="95.3076923076923" x2="53.59375" y2="95.3076923076923" style="visibility: inherit;" fill="rgb(0, 0, 0)" stroke="rgb(204, 204, 204)" stroke-width="1px"></line><line x1="58.59375" y1="81.6923076923077" x2="53.59375" y2="81.6923076923077" style="visibility: inherit;" fill="rgb(0, 0, 0)" stroke="rgb(204, 204, 204)" stroke-width="1px"></line><line x1="58.59375" y1="68.0769230769231" x2="53.59375" y2="68.0769230769231" style="visibility: inherit;" fill="rgb(0, 0, 0)" stroke="rgb(204, 204, 204)" stroke-width="1px"></line><line x1="58.59375" y1="54.46153846153847" x2="53.59375" y2="54.46153846153847" style="visibility: inherit;" fill="rgb(0, 0, 0)" stroke="rgb(204, 204, 204)" stroke-width="1px"></line><line x1="58.59375" y1="40.84615384615387" x2="53.59375" y2="40.84615384615387" style="visibility: inherit;" fill="rgb(0, 0, 0)" stroke="rgb(204, 204, 204)" stroke-width="1px"></line><line x1="58.59375" y1="27.230769230769226" x2="53.59375" y2="27.230769230769226" style="visibility: inherit;" fill="rgb(0, 0, 0)" stroke="rgb(204, 204, 204)" stroke-width="1px"></line><line x1="58.59375" y1="13.615384615384613" x2="53.59375" y2="13.615384615384613" style="visibility: inherit;" fill="rgb(0, 0, 0)" stroke="rgb(204, 204, 204)" stroke-width="1px"></line><line x1="58.59375" y1="0" x2="53.59375" y2="0" style="visibility: inherit;" fill="rgb(0, 0, 0)" stroke="rgb(204, 204, 204)" stroke-width="1px"></line></g><g transform="translate(48.59375, 0)"><text x="0" y="177" dx="0em" dy="0.3em" style="text-anchor: end; visibility: hidden; font-family: &quot;Helvetica Neue&quot;, sans-serif; font-size: 12px; font-weight: 200;" fill="rgb(50, 49, 63)" stroke="none" stroke-width="1px">-0.05</text><text x="0" y="163.3846153846154" dx="0em" dy="0.3em" style="text-anchor: end; visibility: inherit; font-family: &quot;Helvetica Neue&quot;, sans-serif; font-size: 12px; font-weight: 200;" fill="rgb(50, 49, 63)" stroke="none" stroke-width="1px">0</text><text x="0" y="149.76923076923077" dx="0em" dy="0.3em" style="text-anchor: end; visibility: hidden; font-family: &quot;Helvetica Neue&quot;, sans-serif; font-size: 12px; font-weight: 200;" fill="rgb(50, 49, 63)" stroke="none" stroke-width="1px">0.05</text><text x="0" y="136.15384615384616" dx="0em" dy="0.3em" style="text-anchor: end; visibility: inherit; font-family: &quot;Helvetica Neue&quot;, sans-serif; font-size: 12px; font-weight: 200;" fill="rgb(50, 49, 63)" stroke="none" stroke-width="1px">0.1</text><text x="0" y="122.53846153846153" dx="0em" dy="0.3em" style="text-anchor: end; visibility: hidden; font-family: &quot;Helvetica Neue&quot;, sans-serif; font-size: 12px; font-weight: 200;" fill="rgb(50, 49, 63)" stroke="none" stroke-width="1px">0.15</text><text x="0" y="108.92307692307693" dx="0em" dy="0.3em" style="text-anchor: end; visibility: inherit; font-family: &quot;Helvetica Neue&quot;, sans-serif; font-size: 12px; font-weight: 200;" fill="rgb(50, 49, 63)" stroke="none" stroke-width="1px">0.2</text><text x="0" y="95.3076923076923" dx="0em" dy="0.3em" style="text-anchor: end; visibility: hidden; font-family: &quot;Helvetica Neue&quot;, sans-serif; font-size: 12px; font-weight: 200;" fill="rgb(50, 49, 63)" stroke="none" stroke-width="1px">0.25</text><text x="0" y="81.6923076923077" dx="0em" dy="0.3em" style="text-anchor: end; visibility: inherit; font-family: &quot;Helvetica Neue&quot;, sans-serif; font-size: 12px; font-weight: 200;" fill="rgb(50, 49, 63)" stroke="none" stroke-width="1px">0.3</text><text x="0" y="68.0769230769231" dx="0em" dy="0.3em" style="text-anchor: end; visibility: hidden; font-family: &quot;Helvetica Neue&quot;, sans-serif; font-size: 12px; font-weight: 200;" fill="rgb(50, 49, 63)" stroke="none" stroke-width="1px">0.35</text><text x="0" y="54.46153846153847" dx="0em" dy="0.3em" style="text-anchor: end; visibility: inherit; font-family: &quot;Helvetica Neue&quot;, sans-serif; font-size: 12px; font-weight: 200;" fill="rgb(50, 49, 63)" stroke="none" stroke-width="1px">0.4</text><text x="0" y="40.84615384615387" dx="0em" dy="0.3em" style="text-anchor: end; visibility: hidden; font-family: &quot;Helvetica Neue&quot;, sans-serif; font-size: 12px; font-weight: 200;" fill="rgb(50, 49, 63)" stroke="none" stroke-width="1px">0.45</text><text x="0" y="27.230769230769226" dx="0em" dy="0.3em" style="text-anchor: end; visibility: inherit; font-family: &quot;Helvetica Neue&quot;, sans-serif; font-size: 12px; font-weight: 200;" fill="rgb(50, 49, 63)" stroke="none" stroke-width="1px">0.5</text><text x="0" y="13.615384615384613" dx="0em" dy="0.3em" style="text-anchor: end; visibility: hidden; font-family: &quot;Helvetica Neue&quot;, sans-serif; font-size: 12px; font-weight: 200;" fill="rgb(50, 49, 63)" stroke="none" stroke-width="1px">0.55</text><text x="0" y="0" dx="0em" dy="0.3em" style="text-anchor: end; visibility: hidden; font-family: &quot;Helvetica Neue&quot;, sans-serif; font-size: 12px; font-weight: 200;" fill="rgb(50, 49, 63)" stroke="none" stroke-width="1px">0.6</text></g><line x1="58.59375" y1="0" x2="58.59375" y2="177" fill="rgb(0, 0, 0)" stroke="rgb(204, 204, 204)" stroke-width="1px"></line></g></g><g transform="translate(58, 0)" clip-path="url(#clip_0)"><clipPath id="clip_0"><rect width="271" height="177"></rect></clipPath><g><g><g><line x1="0" y1="0" x2="0" y2="177" fill="rgb(0, 0, 0)" stroke="rgb(60, 60, 60)" stroke-width="1px" opacity="0.25"></line><line x1="33.92578125" y1="0" x2="33.92578125" y2="177" fill="rgb(0, 0, 0)" stroke="rgb(60, 60, 60)" stroke-width="1px" opacity="0.25"></line><line x1="67.8515625" y1="0" x2="67.8515625" y2="177" fill="rgb(0, 0, 0)" stroke="rgb(60, 60, 60)" stroke-width="1px" opacity="0.25"></line><line x1="101.77734375" y1="0" x2="101.77734375" y2="177" fill="rgb(0, 0, 0)" stroke="rgb(60, 60, 60)" stroke-width="1px" opacity="0.25"></line><line x1="135.703125" y1="0" x2="135.703125" y2="177" fill="rgb(0, 0, 0)" stroke="rgb(60, 60, 60)" stroke-width="1px" opacity="0.25"></line><line x1="169.62890625" y1="0" x2="169.62890625" y2="177" fill="rgb(0, 0, 0)" stroke="rgb(60, 60, 60)" stroke-width="1px" opacity="0.25"></line><line x1="203.5546875" y1="0" x2="203.5546875" y2="177" fill="rgb(0, 0, 0)" stroke="rgb(60, 60, 60)" stroke-width="1px" opacity="0.25"></line><line x1="237.48046875" y1="0" x2="237.48046875" y2="177" fill="rgb(0, 0, 0)" stroke="rgb(60, 60, 60)" stroke-width="1px" opacity="0.25"></line><line x1="271.40625" y1="0" x2="271.40625" y2="177" fill="rgb(0, 0, 0)" stroke="rgb(60, 60, 60)" stroke-width="1px" opacity="0.25"></line></g><g><line x1="0" y1="177" x2="271.40625" y2="177" fill="rgb(0, 0, 0)" stroke="rgb(60, 60, 60)" stroke-width="1px" opacity="0.25"></line><line x1="0" y1="163.3846153846154" x2="271.40625" y2="163.3846153846154" fill="rgb(0, 0, 0)" stroke="rgb(60, 60, 60)" stroke-width="1px" opacity="0.25"></line><line x1="0" y1="149.76923076923077" x2="271.40625" y2="149.76923076923077" fill="rgb(0, 0, 0)" stroke="rgb(60, 60, 60)" stroke-width="1px" opacity="0.25"></line><line x1="0" y1="136.15384615384616" x2="271.40625" y2="136.15384615384616" fill="rgb(0, 0, 0)" stroke="rgb(60, 60, 60)" stroke-width="1px" opacity="0.25"></line><line x1="0" y1="122.53846153846153" x2="271.40625" y2="122.53846153846153" fill="rgb(0, 0, 0)" stroke="rgb(60, 60, 60)" stroke-width="1px" opacity="0.25"></line><line x1="0" y1="108.92307692307693" x2="271.40625" y2="108.92307692307693" fill="rgb(0, 0, 0)" stroke="rgb(60, 60, 60)" stroke-width="1px" opacity="0.25"></line><line x1="0" y1="95.3076923076923" x2="271.40625" y2="95.3076923076923" fill="rgb(0, 0, 0)" stroke="rgb(60, 60, 60)" stroke-width="1px" opacity="0.25"></line><line x1="0" y1="81.6923076923077" x2="271.40625" y2="81.6923076923077" fill="rgb(0, 0, 0)" stroke="rgb(60, 60, 60)" stroke-width="1px" opacity="0.25"></line><line x1="0" y1="68.0769230769231" x2="271.40625" y2="68.0769230769231" fill="rgb(0, 0, 0)" stroke="rgb(60, 60, 60)" stroke-width="1px" opacity="0.25"></line><line x1="0" y1="54.46153846153847" x2="271.40625" y2="54.46153846153847" fill="rgb(0, 0, 0)" stroke="rgb(60, 60, 60)" stroke-width="1px" opacity="0.25"></line><line x1="0" y1="40.84615384615387" x2="271.40625" y2="40.84615384615387" fill="rgb(0, 0, 0)" stroke="rgb(60, 60, 60)" stroke-width="1px" opacity="0.25"></line><line x1="0" y1="27.230769230769226" x2="271.40625" y2="27.230769230769226" fill="rgb(0, 0, 0)" stroke="rgb(60, 60, 60)" stroke-width="1px" opacity="0.25"></line><line x1="0" y1="13.615384615384613" x2="271.40625" y2="13.615384615384613" fill="rgb(0, 0, 0)" stroke="rgb(60, 60, 60)" stroke-width="1px" opacity="0.25"></line><line x1="0" y1="0" x2="271.40625" y2="0" fill="rgb(0, 0, 0)" stroke="rgb(60, 60, 60)" stroke-width="1px" opacity="0.25"></line></g></g></g><g><g><line x1="0" y1="163.3846153846154" x2="271.40625" y2="163.3846153846154" fill="rgb(0, 0, 0)" stroke="rgb(153, 153, 153)" stroke-width="1.5px"></line></g></g><g><g><line x1="33.92578125" y1="0" x2="33.92578125" y2="177" fill="rgb(0, 0, 0)" stroke="rgb(153, 153, 153)" stroke-width="1.5px"></line></g></g><g><g><g><g><g><path stroke="rgb(255, 112, 67)" stroke-width="2px" d="M35.825625,-1.065355140910043L36.3005859375,1.0205779860166615L36.4362890625,1.9347156588136443L37.114804687500005,4.949685744029523L37.3862109375,7.3785908821896555L37.5219140625,9.003114033740786L38.2004296875,11.779163174613473L38.607539062499995,14.583636889169696L39.0146484375,17.724109270238642L39.1503515625,20.60146826135258L39.2860546875,22.323922863103206L39.5574609375,24.35538631247286L39.9645703125,25.923273803260997L40.1002734375,27.166735916759336L40.168124999999996,28.514028301256644L40.2359765625,29.067751791409336L40.3716796875,29.740640046163463L40.6430859375,31.193919358794943L40.914492187499995,32.38616079700276L41.118046875,34.07441540984112L41.4573046875,35.81552030743663L41.660859375,36.88562273212253L41.864414062499996,38.01508532604686L42.339375,39.68196214371733L42.5429296875,40.8136582407497L42.746484375,41.39765746828749L42.950039062500004,42.65863753808307L43.0857421875,42.9849534470855L43.15359375,43.865273877692346L43.832109375,44.688003272840945L43.9678125,45.72440546234378L44.1713671875,46.22720032365609L44.374921875,46.731564265067675L44.4427734375,46.56676795655014L44.7141796875,45.94479410501759L45.121289062500004,46.54947998379862L45.3926953125,46.80171754058182L45.6641015625,46.537781988285076L46.206914062500005,46.62197702716139L46.342617187500004,47.25248232838098L46.681875,48.97679303963369L48.174609374999996,46.43994053022564L48.2424609375,45.978512018280014L48.785273437499995,43.504185933396286L48.853125,42.33716217924777L48.9209765625,41.19599595585271L48.988828125,38.52560351900797L49.531640625,35.16123843833043L49.5994921875,36.198723829881914L49.66734375,34.70240705206979L50.0066015625,33.140062976311896L50.5494140625,29.232562363587874L50.617265625,26.07059434311921L51.29578125,25.04115122755917L51.3636328125,25.655818834950026L51.431484375000004,26.06851398374681L51.702890625,26.35392936767917L51.906445312500004,25.896247955983938L51.974296875,26.732024068407753L52.11,29.03319691016324L52.3135546875,25.512788829034378L52.4492578125,24.582724274980848L52.788515625,21.26153411696697L52.992070312500005,18.04847137056612L53.195625,17.570453470943846L53.331328125,17.0595148149811L53.5348828125,17.407520440302818L53.602734375000004,16.212904687664718L53.7384375,18.532126464625662L53.8062890625,20.428521912663996L53.8062890625,19.91432959381467L54.00984375,22.297180031386006L54.3491015625,22.08649494604012L54.959765625,29.45450148886198L55.027617187500006,33.442043598236864L55.434726562499996,43.56392408905805L55.63828125,37.445135184195834L55.706132812499995,31.111123903204543L55.773984375,25.286709997604646L55.841835937499994,22.987096745057954L55.9096875,32.740156864097145L56.316796874999994,29.152550539356753L56.4525,33.27115361932465L56.588203125,38.0804568169512L56.656054687499996,41.61122290397594L56.791757812499995,45.65377286826822L56.9274609375,45.23723076344376L56.9274609375,41.16916160092492L57.0631640625,34.34131901079627L57.266718749999995,32.53535112233564L58.1487890625,36.073335804568245L58.2844921875,39.90250017708746L58.4201953125,38.37729079909539L58.4201953125,34.89949013638329L58.6916015625,41.88414725524731L58.9630078125,45.46718559045661L59.0987109375,42.534400717078654L59.2344140625,44.09486720211541L59.43796875,42.88575951696086L59.573671875,38.25509222366645L59.845078125,39.87389886940309L59.98078125,39.75513509390089L60.0486328125,42.5131882544689L60.0486328125,43.78383379125742L60.116484375,40.38424387724305L60.1843359375,37.61916130000094L60.387890625000004,45.559151638369684L60.52359375,38.69702795169317L60.5914453125,38.04713374985192L60.795,36.24223150747014L60.795,35.49357978618187L60.862851562500005,37.714037767515066L60.998554687500004,40.52494198033679L61.1342578125,44.098081664554456L61.2699609375,46.22637741162495L61.3378125,51.11667576071092L61.3378125,52.390154687383585L62.15203125,62.051578856506936L62.287734375,68.75515744415551L63.37335937500001,68.28133962945718L63.5769140625,70.0898357295786L63.644765625,71.58228759779074L63.84832031249999,75.1925488428776L64.11972656249999,74.70715067530853L64.32328125,73.4873410273916L64.458984375,71.28126007007288L64.6625390625,74.15583860779151L64.730390625,71.57254424955133L64.9339453125,69.75755757114241L65.001796875,70.25431828969825L65.4767578125,60.461528512406076L65.544609375,66.55522805559545L65.8838671875,61.24747053632501L65.95171875,55.98263732380212L66.29097656249999,60.234514414908816L66.4266796875,57.773964651518156L66.5623828125,54.99993987199025L66.8337890625,59.78128338369618L66.901640625,62.2347594658538L67.1051953125,63.43138890669924L67.1051953125,63.47608038997666L67.30875,59.84592650294681L67.715859375,64.83308782828998L67.9194140625,65.9694344697049L67.987265625,59.21864474401775L68.32652343749999,60.12167572774189L68.394375,63.812886922804225L68.66578125,75.02383175264048L69.072890625,73.0952611299722L69.344296875,72.31630621103503L69.75140625,73.42466508733526L69.95496093749999,75.0982462974855L70.0906640625,72.44563400086118L70.158515625,73.57706304117926L70.29421875,79.78526172290562L70.429921875,83.3306033245665L70.4977734375,82.78540328106169L70.6334765625,80.51071346287154L70.701328125,83.58059001074153L70.972734375,82.47671928468894L71.17628906249999,87.80322565483412L71.3119921875,87.98188482615384L71.37984375,87.83060154071653L71.7191015625,88.31334375682503L71.85480468749999,87.55479731901764L72.32976562500001,89.80549043860601L73.07613281249999,86.03618832725992L73.143984375,85.40057322423422L73.27968750000001,87.11451971050863L73.27968750000001,88.61502219242223L73.34753906249999,88.52329373957137L73.95820312500001,88.97613473297012L74.3653125,84.56255178006387L74.3653125,82.18868310661254L74.5688671875,84.827749993409L74.63671875,88.11498948326793L74.8402734375,90.22900212044172L75.72234375000001,89.65573291735029L75.7901953125,89.26815273478871L76.12945312500001,91.25241098197525L76.4687109375,91.70243553111138L76.6044140625,91.66549330915825L76.672265625,90.81312888106733L77.35078125,95.32708828638764L77.5543359375,98.32557006106012L77.8257421875,100.78090296366031L78.029296875,101.74790452824959L78.36855468750001,100.43831246531472L78.572109375,100.8134962699386L78.6399609375,99.69413932543738L78.9113671875,99.45450798775721L79.0470703125,96.96516711224848L79.114921875,96.6405943078383L79.250625,96.69489120132003L79.250625,96.98411404486875L79.8612890625,99.02847992830685L80.4041015625,99.32699615812841L80.8790625,101.95912562504871L81.014765625,103.5742117033743L81.014765625,104.42257921265852L81.0826171875,104.10774362122773L81.15046875,102.80880139995762L81.8968359375,102.31125150436571L82.0325390625,101.15749295036946L82.1682421875,101.03911519841617L82.3039453125,100.77285308395508L82.371796875,100.87916250403609L82.5075,99.95836166046514L82.643203125,98.67597543896709L82.77890624999999,98.19526859619029L83.593125,100.98767493618061L83.66097656250001,100.9617897106514L84.000234375,100.81029151326405L84.271640625,101.84410286123837L84.33949218750001,101.19414103685834L84.40734375,102.27151295797974L84.4751953125,103.33485675423896L84.814453125,103.22991586621184L85.085859375,102.86550636275115L85.5608203125,103.87377467218982L85.628671875,104.85338317432372L85.69652343749999,105.26160799907665L86.5107421875,104.1924743380965L86.57859375,104.02685532408805L86.64644531249999,103.56265765827072L87.12140625,102.10120240872422L87.12140625,101.15105205147502L87.4606640625,102.41084856702616L87.66421875,102.81752561325224L87.79992187500001,102.46128265139099L88.07132812500001,102.9222659739147L88.342734375,103.68510161794046L88.342734375,104.19422705835501L88.5462890625,104.31555736718875L88.81769531249999,104.06864281276461L89.08910156249999,101.88010194720431L89.156953125,98.78280800153698L89.29265625000001,99.32164336920177L89.428359375,98.65956278482086L89.5640625,100.12946059607867L89.699765625,101.7480505200277L89.83546875,103.58327400957921L89.97117187500001,104.59546330139267L90.24257812500001,104.21616477661314L90.513984375,102.1387074514576L90.6496875,100.8696284166507L90.7175390625,101.05867306603797L90.9889453125,99.947537687549L91.26035156249999,100.14727783903145L91.3960546875,99.17685829729328L91.46390625000001,99.66338549059006L91.46390625000001,99.55983990798448L91.5317578125,98.7447720870654L91.6674609375,98.14435724555824L91.87101562500001,99.66920901711714L92.21027343749999,100.58675109326249L92.54953125,101.45713190974284L92.68523437500001,101.92695600511448L92.7530859375,101.80671932669036L92.82093750000001,101.02355776696488L93.0244921875,99.43823945343408L93.09234375000001,97.62896160421869L93.1601953125,98.00539099152056L93.1601953125,97.65425817539013L93.36375,97.2164381324357L93.8387109375,99.04461928389797L94.1101171875,99.05294909952708L94.313671875,98.8738409874174L94.585078125,98.58145370925999L94.585078125,98.81783252908266L94.9243359375,100.00254086961893L95.12789062499999,98.10006696262595L95.535,98.30413568644445L95.8742578125,99.76941295228251L96.0099609375,99.52068456177713L96.34921874999999,99.41076502531419L96.484921875,99.28271749628757L96.62062499999999,98.1389684875063L96.756328125,96.76361273706087L97.2312890625,95.10865465436608L97.29914062499999,95.65979240456224L97.50269531250001,98.74144039316681L97.57054687499999,99.61601128895843L97.57054687499999,100.42964913998976L98.72402343750001,99.24502683475117L98.927578125,101.13468620517092L99.198984375,103.69017197049448L99.40253906250001,105.4883696160125L99.5382421875,106.93137433610649L99.60609375,107.99827519759297L99.67394531250001,108.33859220108704L99.8775,107.12061994373667L99.94535156250001,105.77451385273305L100.013203125,104.63729996854478L100.14890625,103.36901042455314L100.62386718750001,102.58124938044202L100.69171874999999,102.32166424697742L101.098828125,104.01435170493647L101.16667968750001,104.98303605821847L101.16667968750001,105.95900902115041L101.641640625,106.76925957776744L101.77734375,107.57480939695897L101.913046875,107.02595271610554L102.04875,105.82693383751621L102.184453125,105.01950286423153L102.32015625,103.60937722359017L102.5915625,103.5190973088562L102.65941406249999,102.99160342890691L102.7951171875,103.73891614731583L102.86296875000001,105.58388811493545L102.998671875,105.66519814449099L103.134375,106.68302641755255L103.81289062500001,107.20724241540839L104.22,105.22430181130909L104.22,103.27354325291142L104.355703125,101.65177764831878L104.355703125,100.87429946496195L104.4235546875,102.73871009709441L104.49140625,103.67259637351498L104.627109375,105.27928582607032L104.76281250000001,106.86766116853778L104.9663671875,108.15967481570561L105.03421875000001,108.28840686361724L105.5091796875,106.85629175775306L105.6448828125,106.10815175806088L105.9162890625,105.65546325795918L105.9162890625,104.90869988450174L106.526953125,106.80091593762268L106.66265625,108.13232665763469L106.66265625,109.2415807098518L106.798359375,110.3388351773061L106.8662109375,111.22379746378793L107.069765625,111.91998655907803L107.341171875,111.89558429675029L107.476875,110.95365442543645L107.5447265625,108.05041358389418L107.612578125,105.97439532451148L107.74828125,102.00841409455816L108.0875390625,104.58507480455548L108.15539062500001,105.4162488006768L108.22324218749999,106.79836498178807L108.29109375,107.55515441537406L108.42679687500001,109.37827360819239L108.4946484375,109.82548557541735L108.7660546875,109.10243366896444L108.9017578125,109.5154609164877L109.37671875000001,108.00415683735646L109.512421875,106.60629195999186L109.5802734375,106.71684779359931L109.78382812500001,107.52407201677215L109.78382812500001,108.09321899008084L109.8516796875,107.56424270239577L109.9873828125,107.66087712882683L110.05523437500001,107.93827065252498L110.1230859375,106.87641151387052L110.1230859375,106.25859932500639L110.3944921875,107.68273209112459L110.46234374999999,107.39260089649993L110.6658984375,108.94710435101852L111.2765625,108.19685715582878L111.6158203125,108.64065279039505L111.819375,108.90765731112128L112.0229296875,106.89386565661778L112.1586328125,105.22774080372432L112.226484375,104.69837451676933L112.5657421875,106.68301141129334L112.63359374999999,108.08084990531812L112.7014453125,109.12838013968006L113.1085546875,108.50550334821058L113.4478125,107.53287524040336L113.7870703125,106.46787327377857L114.3298828125,103.51459002496425L114.940546875,107.80368569448414L115.0083984375,109.94859470514733L115.07625,110.87347958301012L115.34765625,110.18158941800255L115.41550781250001,110.18151591252966L115.5512109375,108.8049665993965L115.89046875,108.40972137627563L116.161875,109.0829177977068L116.161875,109.46139548952074L116.568984375,108.30434192490164L116.840390625,108.70374780275758L117.0439453125,109.82860635515284L117.0439453125,110.71886204588918L117.111796875,111.58835359436301L117.1796484375,112.60515781562437L117.383203125,112.11897456470446L118.197421875,108.58244137842063L118.26527343750001,108.02235648055346L118.60453125,108.65439667208979L118.6723828125,109.14892603651921L118.8080859375,109.2619629007354L118.8080859375,108.6723563328297L119.283046875,106.73890349458658L119.4866015625,105.55387855469405L119.69015625,102.44534996275252L119.7580078125,103.88745861265012L119.82585937500001,105.07701849807609L119.89371093749999,108.04121211047404L120.3008203125,110.07176019108324L120.4365234375,111.28738174146339L120.504375,111.47378398683301L120.640078125,111.91661848205155L120.911484375,107.97366702213276L120.9793359375,108.40784767201636L121.31859375,108.11379658355357L121.3864453125,108.71055432891046L121.79355468749999,107.07769320082551L121.79355468749999,105.9273437122815L121.86140625,106.99852513617768L121.99710937500001,105.914260291826L122.1328125,106.80964644271715L122.3363671875,107.0150669527703L122.8791796875,105.93555992871292L123.082734375,105.0009762664882L123.1505859375,104.76958152910022L123.4219921875,105.84259326658768L123.625546875,105.41770741399785L123.8291015625,106.33910336940866L123.96480468749999,108.43791196944254L124.6433203125,104.45120025076554L124.7790234375,105.32729090414374L124.84687500000001,105.69919414295832L124.982578125,105.8616004204122L125.18613281249999,107.39366216476047L125.5932421875,107.09897146555033L125.8646484375,104.09772784577848L126.33960937500001,107.18200873405729L126.74671875000001,109.13101546577441L126.882421875,109.78658960413647L127.0859765625,108.66259257425357L127.3573828125,105.1420597028656L127.3573828125,102.38180306734948L127.42523437499999,102.27372037877029L127.42523437499999,102.38753620185395L127.7644921875,101.7185317187003L128.510859375,104.98499679019999L128.5787109375,105.11529261922027L128.5787109375,104.8928366861515L128.8501171875,104.56237311318768L129.18937499999998,105.4129083766471L129.2572265625,108.04380995118204L129.6643359375,106.55578732632058L129.73218749999998,105.89387965103845L129.8000390625,105.5020895878678L129.867890625,104.87949700650192L129.9357421875,104.0217197883386L130.00359375,103.25406392687727L130.6142578125,105.87144585736173L130.8856640625,104.94347233760288L131.29277343750002,102.82183590551666L131.360625,101.53400448435356L131.63203124999998,106.29200216126421L131.63203124999998,109.40417910717805L131.8355859375,111.54304771347113L131.9712890625,112.6657829327778L132.17484375,113.60498759821813L132.24269531250002,113.82125723077007L132.310546875,111.75700557060925L132.853359375,106.02170403634703L132.9212109375,104.39714603325841L132.9890625,101.54799691581475L132.9890625,102.29265196904252L133.396171875,108.04512092021852L134.0068359375,110.61850771863678L134.5496484375,107.68741842795907L134.8210546875,105.18837566236509L134.8210546875,104.05879807095258L134.9567578125,104.2211660087415L135.4995703125,107.13413122995088L135.63527343750002,109.92489691154043L135.77097656249998,111.32932606957804L135.838828125,111.75505155925194L135.9066796875,112.3908362507156L135.97453125,112.6521569213102L136.0423828125,112.06287123593361L136.17808593750001,111.91884923340025L136.2459375,111.58355614070473L136.5851953125,107.63582883560517L136.7208984375,106.74717227939925L136.9923046875,106.06091050928103L137.06015625,105.84924354375714L137.1280078125,107.76622088179087L137.3994140625,110.10337404311908L137.87437500000001,111.10952559375569L137.9422265625,112.20017957615369L138.01007812499998,111.58282685236641L138.07792968750002,111.44156656789532L138.6207421875,110.85564701541605L139.0278515625,110.19493905865066L139.8420703125,108.34520653675055L140.31703125,109.91735144820154L140.3848828125,109.69081623405789L140.5884375,108.43254804412102L140.5884375,106.81915292987203L140.6562890625,105.8936210889251L140.7919921875,101.8412114888072L140.9276953125,102.93948987734007L141.0633984375,102.58876136218214L141.13125,102.15585025575123L141.67406250000002,105.0604171741663L142.081171875,103.92420885678696L142.2847265625,102.56066515185071L142.35257812499998,100.94910098029523L142.5561328125,100.82688489504665L142.6918359375,104.01418565893363L143.5060546875,102.080997029357L143.57390625,102.50237635247372L143.8453125,104.58764053543807L143.9131640625,104.62958959390807L143.981015625,104.64106510027149L144.0488671875,105.48822395859804L144.0488671875,105.50104316526303L144.7273828125,103.43593775762845L144.9309375,103.80836117723285L145.20234375,101.75381874394557L145.2701953125,99.27148374024624L145.338046875,96.8193753652145L145.609453125,96.64462041305029L146.01656250000002,98.53502171076482L146.0844140625,100.18859950161112L146.28796875,96.72224352585798L146.55937500000002,94.36565254457082L146.7629296875,94.94809649644206L146.83078125,96.46438557613484L146.966484375,96.54288382677467L147.1700390625,99.08144191756936L147.37359375,93.81363789948877L147.780703125,99.67840203196715L147.91640625000002,104.21648029509042L148.39136718749998,104.16821299529862L148.45921875000002,105.32086483193282L148.5270703125,107.65629870441647L148.59492187499998,110.04210656959836L148.7984765625,112.49278023381753L149.3412890625,113.80172527066395L149.54484375,114.83706289392703L150.15550781250002,114.97879455465807L150.29121093749998,114.83211611129849L150.35906250000002,115.05340323238838L150.5626171875,113.89749192552405L150.766171875,113.18239388082407L150.90187500000002,113.50550618528484L150.9697265625,112.69407494428941L151.17328125,113.4378178497101L151.2411328125,114.1123952871987L151.44468750000001,113.97566592181451L151.6482421875,114.32132295338073L151.851796875,114.31115948529467L151.9875,113.48854487668025L152.19105468749999,113.22368760654427L152.5303125,110.69017101835209L152.59816406250002,109.9718789777586L152.937421875,111.27404515733434L153.07312499999998,112.20414237713423L153.14097656250001,112.6169415120725L153.2766796875,112.92205206732463L153.8194921875,112.60919432197471L153.88734374999999,113.22452138965313L154.0908984375,112.26024677219976L154.2266015625,111.20008972251364L154.294453125,110.6780444780365L154.7694140625,112.43542148146207L155.17652343749998,112.72846719446149L155.380078125,112.94562798586752L155.7871875,114.08960791735211L155.7871875,114.78472967148224L155.9907421875,114.58235249409547L156.05859375,114.06303291474998L156.5335546875,113.6211759862615L156.6692578125,113.53355377832318L156.73710937500002,114.39019759111699L156.8049609375,114.78035583448882L156.87281249999998,114.95779066937803L157.008515625,115.4578728958044L157.551328125,115.6707774258254L157.9584375,115.42639814035606L157.9584375,115.05933678370928L158.1619921875,114.43118904502978L158.4333984375,114.73649080172561L159.2476171875,113.44524620976813L159.451171875,114.57862677165545L159.5190234375,115.471786655762L160.19753906250003,114.66704095928104L160.3332421875,113.09287328347197L160.4689453125,112.90603955925438L160.4689453125,112.5329691081928L160.536796875,111.28301383177102L160.74035156250002,111.64413328838145L160.808203125,112.71589561716105L160.8760546875,114.04481157587125L161.21531249999998,115.511415600795L161.4188671875,115.29742836769911L161.62242187500001,115.98557365564861L161.893828125,115.7303701273151L162.02953125,112.22713879993383L162.165234375,110.36272320163283L162.57234375,110.38285459241337L162.6401953125,109.9531666696502L162.7758984375,108.60950181569335L163.1830078125,108.4043084483485L163.31871093750001,106.42315823901079L163.45441406249998,106.21097004591913L163.52226562500002,106.64775058229766L163.8615234375,106.47001282792826L163.929375,104.79734112183864L163.99722656249997,104.82145957657374L164.4721875,105.81856295632069L165.015,101.86225707859612L165.150703125,106.80309929201265L165.42210937500002,110.34386955166798L166.236328125,101.32455109084763L166.3041796875,97.24352231246992L166.3041796875,94.67456337768112L166.5755859375,98.79264026259348L166.91484375,102.18094066375701L167.18625,100.22855266182457L167.3898046875,101.37279615550538L167.5255078125,101.73944448083222L167.9326171875,103.10989391182227L168.136171875,105.72311584943384L168.3397265625,110.00927682029285L168.950390625,112.81946233373057L169.08609375,114.82817708757989L169.4253515625,112.8644600863627L169.62890625,111.14575062907579L169.764609375,112.13509765373696L169.9003125,111.2247093220818L169.9681640625,110.30207101062392L170.307421875,111.22871293573237L170.3752734375,112.98882080836137L170.71453125,116.34908989502811L170.7823828125,118.20806413276367L170.85023437499999,119.31498918074087L171.0537890625,119.55034099486713L171.1894921875,120.40428398575882L171.1894921875,120.82883626536429L171.25734375,120.98614548266241L171.46089843750002,120.57819739032892L172.207265625,114.7937060556221L172.750078125,117.59960733330391L172.9536328125,118.38427809944054L172.9536328125,118.53762552413293L173.021484375,118.70302642517288L173.29289062499998,117.52545459579001L175.26058593750003,118.44381129816743L175.73554687499998,119.37455632364862L175.80339843750002,120.20218471884245L176.14265625000002,119.13416588241947L176.2105078125,117.81491836545842L176.27835937499998,119.50155219861807L176.34621093750002,120.36372543049603L176.4140625,120.54743767002259L176.4819140625,121.73919972036776L176.549765625,121.63613681944906L177.2961328125,121.12160574490522L177.4996875,119.13093440359879L177.5675390625,118.68222339343046L177.70324218750002,119.8582848952748L177.8389453125,121.24985664259924L178.2460546875,119.40137234799218L178.51746093749998,121.2447655169496L178.6531640625,121.32854160523543L178.6531640625,121.45470411737591L178.992421875,121.60733563215815L179.1959765625,121.33213247182125L179.7387890625,120.09589442160865L179.94234375000002,119.4581277403065L180.07804687499998,119.89422086397855L180.349453125,115.78786406230955L180.41730468749998,110.88916655185423L180.7565625,114.36550739244032L180.892265625,116.9339039934875L181.0958203125,118.4702934520594L181.2315234375,118.89549538567879L181.435078125,116.69954613629571L181.77433593749998,109.7309627355001L181.977890625,114.3197084870302L182.11359375,118.32099109375807L182.4528515625,121.70162561274324L182.92781250000002,120.68609121743431L183.19921875,117.73154448497601L183.2670703125,116.22880611940899L183.334921875,111.51317428608161L183.4027734375,110.36574463650469L183.5384765625,106.29606156342923L183.5384765625,104.9501506871068L184.21699218749998,110.75946766880423L184.21699218749998,113.71078363735609L184.28484375000002,114.83521231680133L184.4883984375,115.65716568722047L184.62410156250002,115.16671694664694L185.506171875,118.96698270464448L185.7097265625,121.5959161524216L185.8454296875,121.68894491587747L185.9811328125,120.38816404431174L186.2525390625,118.14935784759817L186.320390625,116.89108783093556L186.863203125,120.06335045701587L186.9310546875,122.51002443363217L187.54171874999997,124.96431143416319L187.6095703125,126.07038398125245L187.677421875,126.97592815527555L187.948828125,127.06964842447873L188.0166796875,127.06615447612913L188.2880859375,125.69809642707386L188.35593749999998,123.86582123801159L188.35593749999998,121.49678693108633L188.8308984375,118.16899033354217L188.89874999999998,117.43214407864187L189.2380078125,119.22938564508632L189.305859375,119.45645579198836L189.71296875,117.48758217302557L189.7808203125,119.52893917555937L189.848671875,120.91322751152481L189.9165234375,122.4509198037494L190.32363281250002,123.94993158019605L190.934296875,117.23103619991875L191.40925781250002,120.2166176951522L191.6128125,122.02358062503764L191.88421875,124.05956514830514L192.155625,118.01815381509368L192.291328125,111.42739714898053L192.4948828125,113.56751239223021L192.56273437500002,117.1716450191441L192.56273437500002,119.91462738963153L192.90199218749999,121.33089539980816L193.648359375,113.30846739938032L193.7840625,113.35991470937189L193.9876171875,116.55772444468982L194.191171875,118.99389049420412L194.5304296875,114.61005334172135L194.66613281250002,112.0651413062331L194.8696875,110.99282537684313L195.00539062500002,112.69435515230029L195.0732421875,114.54640862984232L195.3446484375,118.75265526100122L195.4125,121.74869202247656L195.48035156249998,122.69222486511018L195.54820312500001,123.77582315593357L195.6160546875,123.46557790859944L195.68390625,123.81920559989365L195.68390625,123.54945233474803L195.9553125,121.72977801430144L196.02316406249997,114.44092937959292L196.091015625,109.54986731294933L196.091015625,107.04020119497129L196.1588671875,107.37282241044427L196.22671875,109.03437500575589L196.29457031249999,113.64871113388918L196.362421875,115.5855961357444L196.5659765625,119.35350631701746L196.76953125,122.74270226926134L196.83738281249998,124.59185576934851L196.90523437500002,125.86689719350984L197.58374999999998,125.34198869663663L197.6516015625,123.29427063381507L197.85515625,121.95891739538351L198.1265625,121.27609617753373L198.533671875,121.17968716537317L199.14433593750002,122.58865840347899L199.2121875,121.99058387300593L199.755,123.30533136453806L199.89070312500002,123.74147638900716L199.9585546875,123.92113941628536L199.9585546875,124.09686639049622L200.6370703125,121.46698535396808L201.4512890625,122.46283850664541L201.519140625,122.88391994363087L201.9941015625,121.64001732883006L202.2655078125,116.33131219956644L202.5369140625,118.0254581241304L202.5369140625,119.08047760583082L202.6726171875,118.98278177781405L202.74046875,117.98229239034906L202.74046875,117.23850709540446L203.2154296875,114.73317836177183L203.48683593750002,112.16061140201359L204.233203125,114.8906725655722L204.4367578125,115.817449495148L204.5724609375,119.24439416593623L204.77601562499999,119.50158418025514L205.2509765625,120.91311673314628L205.31882812499998,119.71038121254918L205.31882812499998,118.62675078719022L205.590234375,116.99800604128795L206.2008984375,118.9938868981469L206.7437109375,117.42843116395422L206.947265625,115.46573903099653L207.1508203125,115.16985077728098L207.1508203125,115.48539502065938L207.354375,115.3029274254305L207.82933593750002,115.61329067954841L207.8971875,116.86477520453127L208.1007421875,114.95857630098487L208.16859375,115.25268538961967L208.9828125,115.77616054746375L209.118515625,115.95876152796345L209.5934765625,118.55336197398091L209.72917968750002,120.06054362992407L210.33984375,122.96533808039678L210.61125,123.0558962547099L210.746953125,122.21278622335242L211.3576171875,121.73653979742463L211.4933203125,123.5624113318421L211.4933203125,124.79871050157121L211.56117187499999,124.0160069370699L211.62902343750002,124.7293441715498L211.696875,125.5555238242084L211.832578125,124.76672909120754L211.832578125,124.01787918117435L212.2396875,118.78543915793907L212.44324218749998,114.77555936473745L212.5789453125,115.92445170543552L213.3253125,116.38654450251757L213.80027343749998,116.27866918846428L214.0716796875,116.0335970525824L214.34308593749998,119.73500382654244L214.68234375,122.04464986176714L214.7501953125,122.74101788322216L215.22515625,116.81719118116503L215.360859375,115.42413049241978L215.70011718749998,111.24465446697474L215.76796875000002,110.26578391943913L215.8358203125,112.38192099131486L216.44648437499998,112.52158224920375L216.5821875,111.14210229672801L216.717890625,115.56466367439653L216.989296875,112.53962349971943L217.1928515625,108.39179148722181L217.260703125,111.72066988020234L217.3285546875,114.03279659156533L217.5999609375,118.47180285685747L217.803515625,120.55452203669702L217.93921875,120.68116049717997L218.4141796875,119.53260412847297L218.48203125,121.16795505902348L218.54988281250002,117.63481439612247L218.68558593749998,118.42473646998644L219.02484375,115.3211155345821L219.2283984375,116.18051108094447L219.6355078125,115.9995888787238L219.974765625,117.69085472423512L220.1783203125,119.32681414199921L220.1783203125,120.22512901804524L220.3140234375,120.79359795165144L220.517578125,118.61656756935537L220.7211328125,117.7549207800142L220.92468749999998,113.06938361807812L220.99253906250001,111.9024218540439L221.060390625,114.44199428225313L221.46749999999997,117.57824369780919L221.603203125,118.18197502845301L221.874609375,117.66077445103528L222.0103125,118.42982091170066L222.146015625,119.78744232911313L222.34957031250002,120.1502210320692L222.48527343749998,118.89624781370891L222.7566796875,118.81745195686338L222.89238281250002,121.04504162893558L222.960234375,122.58273566169748L223.02808593749998,123.67636794000485L223.0959375,124.47124439016903L223.36734374999997,122.03450897288644L223.4351953125,122.17498686789558L223.4351953125,121.6929678941819L223.63875,120.19727870283535L224.045859375,120.74833615649396L224.24941406250002,122.57149524339002L224.5208203125,119.16107497995793L224.58867187500002,116.06406496442926L224.92792968749998,118.5882537457615L224.99578125,120.09007128024334L225.4707421875,122.35807947529052L225.8778515625,123.18084787165431L225.945703125,123.3860826661307L226.08140625,123.58937774168318L226.14925781250003,121.34279204280068L226.48851562500002,120.72575589479004L226.5563671875,117.1655191467326L226.82777343749999,115.36035726125229L227.302734375,120.41954468833367L227.70984375,122.88383025431196L227.98125,121.9974161187256L228.04910156250003,117.77324167853493L228.1848046875,113.9528840869925L228.659765625,119.4388064364901L229.06687499999998,122.07900797249738L229.2704296875,122.78836325956502L229.5418359375,123.23571434662458L229.88109375,122.71825709691154L229.94894531249997,119.59886857168334L230.1525,119.6008414781341L230.288203125,117.3141117161569L230.4917578125,119.33486034346885L230.559609375,120.580077888577L230.8988671875,118.48895868641205L230.96671874999998,120.3878413478993L231.50953124999998,121.57831745205482L231.645234375,121.57490620941203L231.84878906249997,119.42890344449816L232.188046875,120.53443471975335L232.2558984375,119.98190888122123L232.66300781249998,118.09520487813776L232.7987109375,115.54768438466336L232.8665625,115.17629364603451L233.07011718750002,118.11261625893206L233.40937499999998,117.07344387563137L233.68078125,118.05203921322496L233.74863281249998,117.92387083100272L233.81648437500002,119.74345476354583L233.9521875,120.93499534773393L234.0200390625,122.77902202001826L234.2914453125,118.86003886116973L234.63070312500003,116.62397369233213L234.6985546875,115.42988233123228L234.96996093750002,118.28626229974034L235.0378125,118.18206339889363L235.17351562500002,113.34254110940452L235.17351562500002,113.28963523743063L235.85203125,116.70062687272642L235.987734375,115.46502232440278L236.0555859375,115.99683626548307L236.1234375,114.87414237569209L236.1912890625,114.66129906967771L236.53054687500003,115.72124316139468L237.1412109375,111.21408032268965L237.48046875,115.28974297669251L237.8197265625,117.36027069061873L237.95542968750001,119.46562295198825L238.0911328125,116.38516946092251L238.158984375,115.0277801572887L238.2946875,110.69828533417859L238.4982421875,116.04308332788459L238.4982421875,120.48315745648864L238.56609375,123.56574890372505L238.6339453125,125.9436894571073L238.7696484375,126.5395324234721L239.24460937499998,127.16546485084405L239.3803125,125.10635350133614L239.516015625,123.55516835259166L240.058828125,123.37754705809078L240.1266796875,123.03898091793646L240.2623828125,124.22699798980477L240.3980859375,120.17226459609023L240.6694921875,115.0203965729682L240.9408984375,118.73991882682174L241.00875,122.53779757134927L241.3480078125,123.0156344182063L241.55156250000002,118.70307223470391L241.6194140625,115.515689882007L241.82296875,114.16140208706341L241.89082031249998,111.47106181055128L241.958671875,113.40399257591488L242.23007812499998,114.95198211086006L242.36578125,116.02979408280609L242.4336328125,117.61086913324102L242.501484375,115.61870361149181L242.5693359375,117.1506158563441L242.772890625,114.77237001881369L243.044296875,116.8585230761903L243.315703125,119.78801739080038L243.45140625000002,120.84517303348629L243.58710937499998,123.18735269314217L243.7228125,122.25952309593796L244.265625,119.42248674765372L244.6048828125,113.60691194303075L244.6048828125,109.86788049815898L244.672734375,110.54467854005762L244.8762890625,115.31501423319244L244.944140625,118.5888093430266L245.07984375,120.94189530125053L245.35125,121.97958790689262L245.48695312499999,116.02616692533135L245.62265625,115.21206541260872L245.758359375,117.57812236832211L245.9619140625,120.0652223881053L246.36902343749998,118.60787799875357L246.6404296875,120.52909900498639L247.0475390625,118.76260477890385L247.25109375,120.58648375257508L247.92960937499998,120.83535833294599L248.0653125,121.60418362652354L248.201015625,123.09129803091571L248.201015625,123.64636524330365L248.47242187499998,120.7945291838005L249.015234375,119.18262047920051L249.42234375,113.444948397964L249.7616015625,117.62590637562673L250.03300781250002,120.10190431698194L250.23656250000002,120.94843630309856L250.9829296875,122.01168106707586" style="fill: none;" fill="none"></path></g></g></g></g><g opacity="0.2"><g><g><g><path stroke="rgb(255, 112, 67)" stroke-width="2px" d="M35.689921875,-0.6376822911776117L35.825625,0.3698935141930235L36.3005859375,4.096924176582917L36.4362890625,3.2921035656562196L37.114804687500005,9.444795315082246L37.3862109375,11.008730594928437L37.5219140625,11.434594411116365L38.2004296875,15.93779831666211L38.607539062499995,18.787050907428437L39.0146484375,22.43260293740491L39.1503515625,24.916289146129884L39.2860546875,24.907167434692383L39.5574609375,27.402272013517518L39.9645703125,28.27496172831607L40.1002734375,29.031860892589265L40.168124999999996,30.534922544772797L40.2359765625,29.898326094333925L40.3716796875,30.74996445729181L40.6430859375,33.37382799845474L40.914492187499995,34.17451786994934L41.118046875,36.60679300931784L41.4573046875,38.42717498082379L41.660859375,38.49077538343576L41.864414062499996,39.709278592696535L42.339375,42.182276817468505L42.5429296875,42.51120216112872L42.746484375,42.2736562398764L42.950039062500004,44.55010755245502L43.0857421875,43.474427296565125L43.15359375,45.18575450090262L43.832109375,45.92209735283484L43.9678125,47.27900873697723L44.1713671875,46.981392612824095L44.374921875,47.48811017549957L44.4427734375,46.31957349410425L44.7141796875,45.01183332846716L45.121289062500004,47.45650880153363L45.3926953125,47.18007387564734L45.6641015625,46.1418786599086L46.206914062500005,46.74826958546271L46.342617187500004,48.19824028015137L46.681875,51.56325910641597L48.174609374999996,42.634661766198974L48.2424609375,45.28636925037091L48.785273437499995,39.79269680610071L48.853125,40.58662654803348L48.9209765625,39.48424662076508L48.988828125,34.520014863747804L49.531640625,30.114690817319428L49.5994921875,37.75495191720816L49.66734375,32.45793188535248L50.0066015625,30.796546862675598L50.5494140625,23.371311444502595L50.617265625,21.327642312416657L51.29578125,23.496986554219177L51.3636328125,26.577820246036225L51.431484375000004,26.687556706942047L51.702890625,26.782052443577697L51.906445312500004,25.209725838441102L51.974296875,27.98568823704352L52.11,32.48495617279639L52.3135546875,20.232176707341125L52.4492578125,23.187627443900453L52.788515625,16.279748879946197L52.992070312500005,13.228877250964814L53.195625,16.853426621510437L53.331328125,16.29310683103708L53.5348828125,17.92952887828534L53.602734375000004,14.420981058707582L53.7384375,22.01095913006708L53.8062890625,23.273115084721496L53.8062890625,19.14304111554071L54.00984375,25.87145568774295L54.3491015625,21.770467318021332L54.959765625,40.506511303094726L55.027617187500006,39.423356762299164L55.434726562499996,58.746744825289795L55.63828125,28.266951826902528L55.706132812499995,21.61010698171762L55.773984375,16.550089139204744L55.841835937499994,19.537676866237916L55.9096875,47.369747042655945L56.316796874999994,23.771141052246094L56.4525,39.44905823927658L56.588203125,45.29441161339099L56.656054687499996,46.90737203451303L56.791757812499995,51.71759781470668L56.9274609375,44.61241760620703L56.9274609375,35.06705785714661L57.0631640625,24.099555125603302L57.266718749999995,29.826399289644684L58.1487890625,41.38031282791724L58.2844921875,45.64624673586627L58.4201953125,36.0894767321073L58.4201953125,29.682789142315187L58.6916015625,52.361132933543274L58.9630078125,50.84174309327052L59.0987109375,38.13522340701175L59.2344140625,46.43556692967047L59.43796875,41.072097989229064L59.573671875,31.309091283724854L59.845078125,42.302108838007996L59.98078125,39.576989430647615L60.0486328125,46.65026799532083L60.0486328125,45.689802096440246L60.116484375,35.28485900622147L60.1843359375,33.47153743413779L60.387890625000004,57.46913714592273L60.52359375,28.403842421678405L60.5914453125,37.07229244709015L60.795,33.5348781438974L60.795,34.37060220424945L60.862851562500005,41.04472473951486L60.998554687500004,44.741298299569365L61.1342578125,49.457791190881L61.2699609375,49.41882103223068L61.3378125,58.452123284339905L61.3378125,54.30037307739258L62.15203125,76.54371511019194L62.287734375,78.81052532562843L63.37335937500001,67.57061290740967L63.5769140625,72.80257987976074L63.644765625,73.82096540010893L63.84832031249999,80.60794071050792L64.11972656249999,73.9790534239549L64.32328125,71.65762655551617L64.458984375,67.97213863409483L64.6625390625,78.46770641436943L64.730390625,67.69760271219107L64.9339453125,67.035077553529L65.001796875,70.999459367532L65.4767578125,45.772343846467834L65.544609375,75.69577737037952L65.8838671875,53.28583425741931L65.95171875,48.08538750501779L66.29097656249999,66.61233005156883L66.4266796875,54.083140006432174L66.5623828125,50.83890270269835L66.8337890625,66.9532986512551L66.901640625,65.91497358909022L67.1051953125,65.22633306796735L67.1051953125,63.543117614892836L67.30875,54.40069567240202L67.715859375,72.31382981630473L67.9194140625,67.67395443182727L67.987265625,49.09246015548706L68.32652343749999,61.476222203328064L68.394375,69.34970371539777L68.66578125,91.84024899739487L69.072890625,70.2024051959698L69.344296875,71.14787383262927L69.75140625,75.08720340178564L69.95496093749999,77.6086181127108L70.0906640625,68.46671555592464L70.158515625,75.2742066016564L70.29421875,89.09755974549515L70.429921875,88.64861572705783L70.4977734375,81.96760321580447L70.6334765625,77.09867873558632L70.701328125,88.18540483254654L70.972734375,80.82091319561005L71.17628906249999,95.79298521005191L71.3119921875,88.24987358313342L71.37984375,87.60367661256058L71.7191015625,89.03745708098779L71.85480468749999,86.41697766230658L72.32976562500001,93.1815301179886L73.07613281249999,80.38223516024077L73.143984375,84.4471505696957L73.27968750000001,89.68543943992029L73.27968750000001,90.8657759152926L73.34753906249999,88.3857010602951L73.95820312500001,89.65539622306825L74.3653125,77.9421773507045L74.3653125,78.62788009643555L74.5688671875,88.7863503236037L74.63671875,93.04584871805632L74.8402734375,93.4000210762024L75.72234375000001,88.79582911271316L75.7901953125,88.6867824609463L76.12945312500001,94.22879835275504L76.4687109375,92.37747235481555L76.6044140625,91.61007997622858L76.672265625,89.53458223893092L77.35078125,102.0980273943681L77.5543359375,102.82329272306883L77.8257421875,104.46390231756064L78.029296875,103.19840687513353L78.36855468750001,98.47392437091241L78.572109375,101.37627197687442L78.6399609375,98.01510390868555L78.9113671875,99.09506098123698L79.0470703125,93.23115579898541L79.114921875,96.153735101223L79.250625,96.77633654154265L79.250625,97.41794831019182L79.8612890625,102.09502875346405L80.4041015625,99.77477050286073L80.8790625,105.90731982542918L81.014765625,105.9968408208627L81.014765625,105.69513047658481L81.0826171875,103.63549023408157L81.15046875,100.86038806805244L81.8968359375,101.56492666097787L82.0325390625,99.42685511937509L82.1682421875,100.86154857048622L82.3039453125,100.37345991226343L82.371796875,101.03862663415762L82.5075,98.57716039510875L82.643203125,96.75239610671998L82.77890624999999,97.4742083320251L83.593125,105.17628444616611L83.66097656250001,100.92296187235759L84.000234375,100.58304421718304L84.271640625,103.39481988319984L84.33949218750001,100.21919830028827L84.40734375,103.88757083966182L84.4751953125,104.92987244862778L84.814453125,103.07250453417117L85.085859375,102.31889210756009L85.5608203125,105.38617713634784L85.628671875,106.32279592752458L85.69652343749999,105.87394523620607L86.5107421875,102.5887738466263L86.57859375,103.77842680307535L86.64644531249999,102.86636115954472L87.12140625,99.90901953440446L87.12140625,99.72582651560123L87.4606640625,104.30054334035287L87.66421875,103.42754118259137L87.79992187500001,101.9269182085991L88.07132812500001,103.61374095770029L88.342734375,104.8293550839791L88.342734375,104.95791521897684L88.5462890625,104.49755283043935L88.81769531249999,103.6982709811284L89.08910156249999,98.59729064886386L89.156953125,94.136867083036L89.29265625000001,100.1298964206989L89.428359375,97.6664419082495L89.5640625,102.33430731296541L89.699765625,104.17593540595128L89.83546875,106.33610924390646L89.97117187500001,106.11374723911287L90.24257812500001,103.64721698944385L90.513984375,99.02252146372429L90.6496875,98.96600986444034L90.7175390625,101.34224004011888L90.9889453125,98.28083461981554L91.26035156249999,100.44688806625513L91.3960546875,97.72122898468605L91.46390625000001,100.39317628053519L91.46390625000001,99.40452153407611L91.5317578125,97.52217035568678L91.6674609375,97.2437349832975L91.87101562500001,101.9564866744555L92.21027343749999,101.9630642074805L92.54953125,102.76270313446338L92.68523437500001,102.63169214817194L92.7530859375,101.62636430905415L92.82093750000001,99.84881542737668L93.0244921875,97.06026198313786L93.09234375000001,94.91504483039563L93.1601953125,98.57003507247339L93.1601953125,97.12755895119447L93.36375,96.55970806800403L93.8387109375,101.78689101109138L94.1101171875,99.06544382297076L94.313671875,98.6051788192529L94.585078125,98.14287279202388L94.585078125,99.17240075881665L94.9243359375,101.77960338042332L95.12789062499999,95.24635610213647L95.535,98.6102387721722L95.8742578125,101.9673288510396L96.0099609375,99.14759197601906L96.34921874999999,99.2458857206198L96.484921875,99.09064620274765L96.62062499999999,96.42334497433443L96.756328125,94.70057911139268L97.2312890625,92.62621753032391L97.29914062499999,96.48649902985646L97.50269531250001,103.3639123760737L97.57054687499999,100.92786763264583L97.57054687499999,101.65010591653677L98.72402343750001,97.46809337689326L98.927578125,103.96917526080058L99.198984375,107.5234006184798L99.40253906250001,108.18566608428956L99.5382421875,109.09588141624744L99.60609375,109.59862648982269L99.67394531250001,108.84906770632817L99.8775,105.29366155771109L99.94535156250001,103.7553547162276L100.013203125,102.93147914226239L100.14890625,101.4665761085657L100.62386718750001,101.3996078142753L100.69171874999999,101.93228654678052L101.098828125,106.55338289187505L101.16667968750001,106.43606258814151L101.16667968750001,107.4229684655483L101.641640625,107.98463541269304L101.77734375,108.78313412574622L101.913046875,106.2026676948254L102.04875,104.0284055196322L102.184453125,103.80835640430452L102.32015625,101.49418876262811L102.5915625,103.38367743675525L102.65941406249999,102.20036260898297L102.7951171875,104.85988522492923L102.86296875000001,108.35134606636488L102.998671875,105.7871631888243L103.134375,108.20976882714493L103.81289062500001,107.99356641219212L104.22,102.24989090516017L104.22,100.3474054153149L104.355703125,99.21912924142985L104.355703125,99.70808218992674L104.4235546875,105.53532604529308L104.49140625,105.0734257881458L104.627109375,107.68932000490335L104.76281250000001,109.25022418223895L104.9663671875,110.09769528645737L105.03421875000001,108.48150493548466L105.5091796875,104.70811909895677L105.6448828125,104.98594175852263L105.9162890625,104.97643050780664L105.9162890625,103.78855482431558L106.526953125,109.63924001730406L106.66265625,110.12944273765271L106.66265625,110.9054617881775L106.798359375,111.98471687848752L106.8662109375,112.55124089351068L107.069765625,112.96427020201317L107.341171875,111.8589809032587L107.476875,109.54075961846573L107.5447265625,103.69555232158075L107.612578125,102.86036793543742L107.74828125,96.05944224962822L108.0875390625,108.45006586955144L108.15539062500001,106.6630097948588L108.22324218749999,108.87153925345494L108.29109375,108.69033856575305L108.42679687500001,112.11295239741986L108.4946484375,110.4963035262548L108.7660546875,108.0178558092851L108.9017578125,110.13500178777255L109.37671875000001,105.73720071865962L109.512421875,104.50949464394496L109.5802734375,106.88268154401047L109.78382812500001,108.7349083515314L109.78382812500001,108.9469394500439L109.8516796875,106.77077827086816L109.9873828125,107.8058287684734L110.05523437500001,108.35436093807222L110.1230859375,105.28362280588884L110.1230859375,105.3318810417102L110.3944921875,109.81893124030186L110.46234374999999,106.95740410456291L110.6658984375,111.27885953279642L111.2765625,107.07148636304416L111.6158203125,109.30634624224443L111.819375,109.30816409221063L112.0229296875,103.8731781748625L112.1586328125,102.72855352438414L112.226484375,103.90432508633687L112.5657421875,109.65996675307935L112.63359374999999,110.17760764635527L112.7014453125,110.69967549122298L113.1085546875,107.57118816100635L113.4478125,106.0739330786925L113.7870703125,104.8703703238414L114.3298828125,99.0846651517428L114.940546875,114.23732919876392L115.0083984375,113.16595822114212L115.07625,112.26080689980434L115.34765625,109.14375417049115L115.41550781250001,110.18140565432036L115.5512109375,106.74014262969678L115.89046875,107.81685354159428L116.161875,110.09271242985359L116.161875,110.02911202724164L116.568984375,106.568761577973L116.840390625,109.30285661954147L117.0439453125,111.51589418374576L117.0439453125,112.0542455819937L117.111796875,112.89259091707376L117.1796484375,114.1303641475164L117.383203125,111.38969968832457L118.197421875,103.27764159899492L118.26527343750001,107.18222913375268L118.60453125,109.60245695939432L118.6723828125,109.89072008316333L118.8080859375,109.43151819705965L118.8080859375,107.78794648097112L119.283046875,103.83872423722194L119.4866015625,103.77634114485521L119.69015625,97.78255707484026L119.7580078125,106.05062158749654L119.82585937500001,106.86135832621501L119.89371093749999,112.48750252907092L120.3008203125,113.11758231199704L120.4365234375,113.11081406703363L120.504375,111.75338735488745L120.640078125,112.58087022487933L120.911484375,102.05923983225456L120.9793359375,109.05911864684178L121.31859375,107.67271995085937L121.3864453125,109.60569094694578L121.79355468749999,104.6284015086981L121.79355468749999,104.2018194794655L121.86140625,108.60529727202196L121.99710937500001,104.28786302529849L122.1328125,108.1527256690539L122.3363671875,107.32319771785004L122.8791796875,104.31629939262683L123.082734375,103.59910077315111L123.1505859375,104.42248942301823L123.4219921875,107.45211087281888L123.625546875,104.78037863511307L123.8291015625,107.72119730252487L123.96480468749999,111.58612486949335L124.6433203125,98.47113267275004L124.7790234375,106.64142688421103L124.84687500000001,106.2570490011802L124.982578125,106.10520983659305L125.18613281249999,109.69175478128287L125.5932421875,106.65693541673514L125.8646484375,99.59586241612068L126.33960937500001,111.80843006647551L126.74671875000001,112.0545255633501L126.882421875,110.76995081167955L127.0859765625,106.97659702942921L127.3573828125,99.86126039578365L127.3573828125,98.2414181140753L127.42523437499999,102.1115963459015L127.42523437499999,102.55825993647943L127.7644921875,100.71502499396985L128.510859375,109.88469439744951L128.5787109375,105.31073636275072L128.5787109375,104.55915278654832L128.8501171875,104.06667775374193L129.18937499999998,106.68871127183621L129.2572265625,111.99016231298448L129.6643359375,104.32375338902841L129.73218749999998,104.90101813811523L129.8000390625,104.91440449311183L129.867890625,103.94560813445312L129.9357421875,102.73505396109361L130.00359375,102.10258013468523L130.6142578125,109.79751875308844L130.8856640625,103.55151205796463L131.29277343750002,99.63938125738731L131.360625,99.6022573526089L131.63203124999998,113.42899867663017L131.63203124999998,114.07244452604881L131.8355859375,114.75135062291072L131.9712890625,114.34988576173782L132.17484375,115.01379459637863L132.24269531250002,114.145661679598L132.310546875,108.66062808036806L132.853359375,97.41875173495366L132.9212109375,101.9603090286255L132.9890625,97.27427323964926L132.9890625,103.40963454888417L133.396171875,116.67382434698251L134.0068359375,114.47858791626416L134.5496484375,103.29078449194247L134.8210546875,101.43981151397412L134.8210546875,102.36443168383379L134.9567578125,104.46471791542494L135.4995703125,111.50357906176494L135.63527343750002,114.11104543392474L135.77097656249998,113.43596980663446L135.838828125,112.3936397937628L135.9066796875,113.34451328791104L135.97453125,113.04413792720209L136.0423828125,111.17894270786873L136.17808593750001,111.70281622960017L136.2459375,111.08061650166145L136.5851953125,101.71423787795581L136.7208984375,105.41418744509036L136.9923046875,105.03151785410368L137.06015625,105.53174309547131L137.1280078125,110.64168688884149L137.3994140625,113.60910378511136L137.87437500000001,112.6187529197106L137.9422265625,113.8361605497507L138.01007812499998,110.6567977666855L138.07792968750002,111.22967614118869L138.6207421875,109.97676768669716L139.0278515625,109.2038771235026L139.8420703125,105.57060775390039L140.31703125,112.27556881537805L140.3848828125,109.35101341284239L140.5884375,106.54514575921573L140.5884375,104.39906025849857L140.6562890625,104.50532332750467L140.7919921875,95.76259708863039L140.9276953125,104.58690746013934L141.0633984375,102.06266858944527L141.13125,101.50648359610484L141.67406250000002,109.41726755178892L142.081171875,102.21989638071794L142.2847265625,100.51534959444633L142.35257812499998,98.53175472296202L142.5561328125,100.64356076717378L142.6918359375,108.7951368047641L143.5060546875,99.18121408499205L143.57390625,103.13444533714882L143.8453125,107.71553680988458L143.9131640625,104.69251318161304L143.981015625,104.65827835981662L144.0488671875,106.75896224608789L144.0488671875,105.52027197526051L144.7273828125,100.33827964617656L144.9309375,104.36699630663945L145.20234375,98.6720050940147L145.2701953125,95.5479812346972L145.338046875,93.14121280266689L145.609453125,96.38248798480402L146.01656250000002,101.37062365733661L146.0844140625,102.66896618788059L146.28796875,91.52270956222827L146.55937500000002,90.83076607264006L146.7629296875,95.82176242424892L146.83078125,98.73881919567401L146.966484375,96.66063120273444L147.1700390625,102.88927905376141L147.37359375,85.91193187236786L147.780703125,108.47554823068472L147.91640625000002,111.02359768977533L148.39136718749998,104.09581204561087L148.45921875000002,107.04984258688414L148.5270703125,111.15944951314194L148.59492187499998,113.62081836737119L148.7984765625,116.16879073014627L149.3412890625,115.76514282593361L149.54484375,116.39006932882162L150.15550781250002,115.19139204575465L150.29121093749998,114.61209844625913L150.35906250000002,115.38533391402319L150.5626171875,112.16362496522757L150.766171875,112.10974681377412L150.90187500000002,113.99017464197598L150.9697265625,111.47692808279625L151.17328125,114.55343220784114L151.2411328125,115.12426144343156L151.44468750000001,113.77057187373822L151.6482421875,114.83980850073007L151.851796875,114.29591428316556L151.9875,112.25462296375862L152.19105468749999,112.82640170134032L152.5303125,106.8898961360638L152.59816406250002,108.89444091686836L152.937421875,113.22729442669795L153.07312499999998,113.59928820683406L153.14097656250001,113.23614021447989L153.2766796875,113.37971790020282L153.8194921875,112.13990770394986L153.88734374999999,114.14751199117075L154.0908984375,110.81383484601976L154.2266015625,109.60985414798444L154.294453125,109.8949766113208L154.7694140625,115.07148698660043L155.17652343749998,113.16803576396063L155.380078125,113.27136917297656L155.7871875,115.80557781457901L155.7871875,115.82741230267746L155.9907421875,114.27878672801532L156.05859375,113.28405354573177L156.5335546875,112.95839059352876L156.6692578125,113.40212046641571L156.73710937500002,115.67516331030772L156.8049609375,115.36559319954652L156.87281249999998,115.22394292171185L157.008515625,116.207996235444L157.551328125,115.99013422085689L157.9584375,115.05982921215204L157.9584375,114.5087447487391L158.1619921875,113.48896743701056L158.4333984375,115.19444343676935L159.2476171875,111.50837932183192L159.451171875,116.2786976144864L159.5190234375,116.81152648192186L160.19753906250003,113.45992241455959L160.3332421875,110.73162176975838L160.4689453125,112.62578897292798L160.4689453125,111.97336343160043L160.536796875,109.40808091713832L160.74035156250002,112.18581247329713L160.808203125,114.32353911033044L160.8760546875,116.03818551393655L161.21531249999998,117.71132163818066L161.4188671875,114.97644751805527L161.62242187500001,117.01779158757284L161.893828125,115.34756483481482L162.02953125,106.97229180886195L162.165234375,107.56609980418132L162.57234375,110.41305167858417L162.6401953125,109.30863478550545L162.7758984375,106.59400453475806L163.1830078125,108.09651839733125L163.31871093750001,103.45143292500423L163.45441406249998,105.89268775628163L163.52226562500002,107.30292138686548L163.8615234375,106.20340619637416L163.929375,102.28833356270424L163.99722656249997,104.85763725867639L164.4721875,107.31421802594112L165.015,95.92779826200926L165.150703125,114.21436261213742L165.42210937500002,115.65502494115097L166.236328125,87.79557339961713L166.3041796875,91.12197914490334L166.3041796875,90.82112497549791L166.5755859375,104.96975558996202L166.91484375,107.26339126550235L167.18625,97.29997065892587L167.3898046875,103.08916139602663L167.5255078125,102.2894169688225L167.9326171875,105.16556805830736L168.136171875,109.64294875585117L168.3397265625,116.43851827658139L168.950390625,117.03474060388712L169.08609375,117.84124921835385L169.4253515625,109.91888458453693L169.62890625,108.56768644314546L169.764609375,113.6191181907287L169.9003125,109.85912682459904L169.9681640625,108.91811354343707L170.307421875,112.61867582339508L170.3752734375,115.62898261730487L170.71453125,121.38949352502823L170.7823828125,120.99652548936697L170.85023437499999,120.97537675270668L171.0537890625,119.90336871605653L171.1894921875,121.68519847209637L171.1894921875,121.46566468477249L171.25734375,121.22210930860959L171.46089843750002,119.9662752518287L172.207265625,106.11696905356187L172.750078125,121.80845924982658L172.9536328125,119.56128424864549L172.9536328125,118.76764666117154L173.021484375,118.95112777673282L173.29289062499998,115.75909685171567L175.26058593750003,119.82134635173358L175.73554687499998,120.77067386187039L175.80339843750002,121.44362731163318L176.14265625000002,117.53213762778503L176.2105078125,115.83604709001688L176.27835937499998,122.03150294835751L176.34621093750002,121.65698527831299L176.4140625,120.82300602931244L176.4819140625,123.52684279588553L176.549765625,121.48154246807098L177.2961328125,120.34980913308951L177.4996875,116.14492739163913L177.5675390625,118.00915687817795L177.70324218750002,121.62237714804135L177.8389453125,123.3372142635859L178.2460546875,116.62864590608157L178.51746093749998,124.00985527038574L178.6531640625,121.45420573766415L178.6531640625,121.64394788558667L178.992421875,121.83628290433151L179.1959765625,120.91932773131592L179.7387890625,118.2415373462897L179.94234375000002,118.50147771835327L180.07804687499998,120.5483605494866L180.349453125,109.62832885980608L180.41730468749998,103.54112028617126L180.7565625,119.58001865331943L180.892265625,120.78649889505826L181.0958203125,120.77487763991724L181.2315234375,119.53329828610788L181.435078125,113.40562226222113L181.77433593749998,99.27808763430669L181.977890625,121.20282711432532L182.11359375,124.32291500384991L182.4528515625,126.77257739122098L182.92781250000002,119.16278962447093L183.19921875,113.29972438628857L183.2670703125,113.97469857105843L183.334921875,104.43972653609056L183.4027734375,108.64460016213931L183.5384765625,100.19153695381605L183.5384765625,102.93128437262315L184.21699218749998,119.47344314135037L184.21699218749998,118.13775759018384L184.28484375000002,116.52185533596919L184.4883984375,116.89009574284921L184.62410156250002,114.43104383578668L185.506171875,124.66738134164078L185.7097265625,125.5393163240873L185.8454296875,121.82848806106128L185.9811328125,118.43699273696313L186.2525390625,114.7911485525278L186.320390625,115.00368280594165L186.863203125,124.82174439613635L186.9310546875,126.18003539855664L187.54171874999997,128.64574193495972L187.6095703125,127.72949280188635L187.677421875,128.33424441631024L187.948828125,127.21022882828346L188.0166796875,127.0609135536047L188.2880859375,123.64600935349098L188.35593749999998,121.11740845441818L188.35593749999998,117.94323547069843L188.8308984375,113.17729543722592L188.89874999999998,116.32687469629141L189.2380078125,121.92524799475304L189.305859375,119.79706101234143L189.71296875,114.53427174458137L189.7808203125,122.59097467936002L189.848671875,122.98966001547299L189.9165234375,124.75745824208627L190.32363281250002,126.198449244866L190.934296875,107.15269312950281L191.40925781250002,124.69498993800238L191.6128125,124.73402501986578L191.88421875,127.11354193320642L192.155625,108.95603681527652L192.291328125,101.5412621498108L192.4948828125,116.77768525710474L192.56273437500002,122.57784395951492L192.56273437500002,124.02910094536267L192.90199218749999,123.4552974150731L193.648359375,101.27482539873857L193.7840625,113.43708567435925L193.9876171875,121.3544390476667L194.191171875,122.64813956847559L194.5304296875,108.03429761299721L194.66613281250002,108.2477732530007L194.8696875,109.38435148275816L195.00539062500002,115.24664981548602L195.0732421875,117.32448884615532L195.3446484375,125.06202520773962L195.4125,126.24274716468958L195.48035156249998,124.10752412906061L195.54820312500001,125.40122059216867L195.6160546875,123.00021003759824L195.68390625,124.34964713683496L195.68390625,123.14482243702963L195.9553125,119.00026653363155L196.02316406249997,103.50765642753015L196.091015625,102.21327421298395L196.091015625,103.2757020180042L196.1588671875,107.87175423365373L196.22671875,111.52670389872331L196.29457031249999,120.57021532608913L196.362421875,118.49092363852722L196.5659765625,125.00537158892706L196.76953125,127.82649619762714L196.83738281249998,127.36558601947931L196.90523437500002,127.77945932975183L197.58374999999998,124.55462595132681L197.6516015625,120.22269353958276L197.85515625,119.95588753773616L198.1265625,120.25186435075906L198.533671875,121.0350736471323L199.14433593750002,124.70211526063773L199.2121875,121.09347207729633L199.755,125.27745260183627L199.89070312500002,124.39569392571083L199.9585546875,124.19063395720262L199.9585546875,124.36045685181251L200.6370703125,117.52216379917584L201.4512890625,123.95661823566144L201.519140625,123.51554209910907L201.9941015625,119.77416340662883L202.2655078125,108.36825450567099L202.5369140625,120.56667701097635L202.5369140625,120.66300682838147L202.6726171875,118.83623803578891L202.74046875,116.48155830915158L202.74046875,116.12282915298755L203.2154296875,110.9751852613229L203.48683593750002,108.30176096237624L204.233203125,118.98576431091016L204.4367578125,117.20761488951169L204.5724609375,124.38481117211856L204.77601562499999,119.88736920173352L205.2509765625,123.03041556248299L205.31882812499998,117.90627793165353L205.31882812499998,117.00130514915173L205.590234375,114.5548889224346L206.2008984375,121.9877081834353L206.7437109375,115.0802475626652L206.947265625,112.52170083156L207.1508203125,114.72601839670769L207.1508203125,115.95871138572693L207.354375,115.0292260325872L207.82933593750002,116.07883556072528L207.8971875,118.74200199200557L208.1007421875,112.09927794566522L208.16859375,115.69384902257187L208.9828125,116.56137328422986L209.118515625,116.23266299871298L209.5934765625,122.44526264300714L209.72917968750002,122.32131611383878L210.33984375,127.32252975610587L210.61125,123.1917335161796L210.746953125,120.94812117631619L211.3576171875,121.02217015853296L211.4933203125,126.30121863346834L211.4933203125,126.65315925616486L211.56117187499999,122.84195159031795L211.62902343750002,125.79935002326965L211.696875,126.79479330319626L211.832578125,123.58353699170627L211.832578125,122.89460431612454L212.2396875,110.9367791230862L212.44324218749998,108.76073967493498L212.5789453125,117.6477902164826L213.3253125,117.07968369814066L213.80027343749998,116.11685621738434L214.0716796875,115.66598884875958L214.34308593749998,125.28711398748251L214.68234375,125.50911891460419L214.7501953125,123.7855699154047L215.22515625,107.93145112807935L215.360859375,113.33453945930188L215.70011718749998,104.97544042880719L215.76796875000002,108.79747809813573L215.8358203125,115.55612659912843L216.44648437499998,112.7310741360371L216.5821875,109.0728823680144L216.717890625,122.19850574089931L216.989296875,108.00206323770377L217.1928515625,102.17004346847536L217.260703125,116.71398746967316L217.3285546875,117.50098665860983L217.5999609375,125.13031225479565L217.803515625,123.67860080645636L217.93921875,120.87111818790436L218.4141796875,117.80976957541246L218.48203125,123.62098145484924L218.54988281250002,112.33510340177097L218.68558593749998,119.60961958078238L219.02484375,110.6656841314756L219.2283984375,117.46960440048805L219.6355078125,115.72820557539279L219.974765625,120.22775349250207L220.1783203125,121.78075326864536L220.1783203125,121.57260133211429L220.3140234375,121.64630135206076L220.517578125,115.35102199591122L220.7211328125,116.46245059600244L220.92468749999998,106.04107787517401L220.99253906250001,110.15197920799257L221.060390625,118.25135292456702L221.46749999999997,122.28261782114322L221.603203125,119.08757202441876L221.874609375,116.8789735849087L222.0103125,119.5833906026987L222.146015625,121.82387445523189L222.34957031250002,120.69438908650325L222.48527343749998,117.01528798616849L222.7566796875,118.69925817159506L222.89238281250002,124.38642613704388L222.960234375,124.88927671084038L223.02808593749998,125.3168163574659L223.0959375,125.66355906541531L223.36734374999997,118.37940584696256L223.4351953125,122.38570371040932L223.4351953125,120.96993943361136L223.63875,117.9537449158155L224.045859375,121.57492233698184L224.24941406250002,125.3062338737341L224.5208203125,114.04544458480981L224.58867187500002,111.41854994113629L224.92792968749998,122.37453691775983L224.99578125,122.34279758196611L225.4707421875,125.7600917678613L225.8778515625,124.41500046620003L225.945703125,123.6939348578453L226.08140625,123.89432035501187L226.14925781250003,117.9729134944769L226.48851562500002,119.80020167277411L226.5563671875,111.82516402464647L226.82777343749999,112.65261443303181L227.302734375,128.00832582895572L227.70984375,126.58025860327942L227.98125,120.66779491534601L228.04910156250003,111.43698001824893L228.1848046875,108.22234769967886L228.659765625,127.6676899607365L229.06687499999998,126.03931027650833L229.2704296875,123.85239619016647L229.5418359375,123.90674097721393L229.88109375,121.94207122234198L229.94894531249997,114.91978578384106L230.1525,119.60380083781023L230.288203125,113.88401707319113L230.4917578125,122.36598328443674L230.559609375,122.44790420623926L230.8988671875,115.35227988316463L230.96671874999998,123.23616534013016L231.50953124999998,123.36403160828812L231.645234375,121.56978934544784L231.84878906249997,116.20989929712735L232.188046875,122.19273163263614L232.2558984375,119.15312012342307L232.66300781249998,115.26514887351257L232.7987109375,111.72640364445174L232.8665625,114.61920753809122L233.07011718750002,122.51710017827841L233.40937499999998,115.51468530068031L233.68078125,119.51993221961536L233.74863281249998,117.73161825766931L233.81648437500002,122.47283066236056L233.9521875,122.72230622401605L234.0200390625,125.54506202844473L234.2914453125,112.98156412289693L234.63070312500003,113.26987593907577L234.6985546875,113.63874528958247L234.96996093750002,122.57083225250244L235.0378125,118.02576504762357L235.17351562500002,106.08325767517091L235.17351562500002,113.21027642946977L235.85203125,121.8171143256701L235.987734375,113.61161550191733L236.0555859375,116.79455717710348L236.1234375,113.19010154100565L236.1912890625,114.34203411065616L236.53054687500003,117.31115929897015L237.1412109375,104.45333606463213L237.48046875,121.40323695769678L237.8197265625,120.46606226150806L237.95542968750001,122.62365134404257L238.0911328125,111.76448922432387L238.158984375,112.99169620183798L238.2946875,104.20404309951343L238.4982421875,124.0602803184436L238.4982421875,127.1432686493947L238.56609375,128.18963607457968L238.6339453125,129.5106002871807L238.7696484375,127.43329687301929L239.24460937499998,128.10436349190198L239.3803125,122.01768647707425L239.516015625,121.22839062947494L240.058828125,123.11111511633948L240.1266796875,122.53113170770499L240.2623828125,126.00902359760724L240.3980859375,114.0901645055184L240.6694921875,107.29259453828519L240.9408984375,124.31920220760199L241.00875,128.2346156881406L241.3480078125,123.73238968849182L241.55156250000002,112.23422895945036L241.6194140625,110.73461635296161L241.82296875,112.12997039464804L241.89082031249998,107.43555139578307L241.958671875,116.3033887239603L242.23007812499998,117.27396641327785L242.36578125,117.64651204072513L242.4336328125,119.9824817088934L242.501484375,112.63045532886798L242.5693359375,119.44848422362254L242.772890625,111.20500126251808L243.044296875,119.98775266225522L243.315703125,124.18225886271551L243.45140625000002,122.43090649751517L243.58710937499998,126.70062218262599L243.7228125,120.86777870013164L244.265625,115.16693222522736L244.6048828125,104.88354973609631L244.6048828125,104.25933333085133L244.672734375,111.55987560290558L244.8762890625,122.47051777289465L244.944140625,123.49950200777788L245.07984375,124.47152423858643L245.35125,123.53612681535574L245.48695312499999,107.09603545298944L245.62265625,113.99091314352475L245.758359375,121.12720780189221L245.9619140625,123.79587241778007L246.36902343749998,116.42186141472597L246.6404296875,123.41093051433563L247.0475390625,116.11286343978003L247.25109375,123.32230221308194L247.92960937499998,121.20867020350236L248.0653125,122.75742156688983L248.201015625,125.321969637504L248.201015625,124.47896606188554L248.47242187499998,116.5167750945458L249.015234375,116.76475742230049L249.42234375,104.83844027610925L249.7616015625,123.89734334212083L250.03300781250002,123.81590122901477L250.23656250000002,122.21823428227351L250.9829296875,123.60654821304175" style="fill: none;" fill="none"></path></g></g></g></g></g></g><g transform="translate(58, 177)" clip-path="url(#clip_1)"><clipPath id="clip_1"><rect width="271" height="23"></rect></clipPath><g><g><line x1="0" y1="0" x2="0" y2="5" style="visibility: inherit;" fill="rgb(0, 0, 0)" stroke="rgb(204, 204, 204)" stroke-width="1px"></line><line x1="33.92578125" y1="0" x2="33.92578125" y2="5" style="visibility: inherit;" fill="rgb(0, 0, 0)" stroke="rgb(204, 204, 204)" stroke-width="1px"></line><line x1="67.8515625" y1="0" x2="67.8515625" y2="5" style="visibility: inherit;" fill="rgb(0, 0, 0)" stroke="rgb(204, 204, 204)" stroke-width="1px"></line><line x1="101.77734375" y1="0" x2="101.77734375" y2="5" style="visibility: inherit;" fill="rgb(0, 0, 0)" stroke="rgb(204, 204, 204)" stroke-width="1px"></line><line x1="135.703125" y1="0" x2="135.703125" y2="5" style="visibility: inherit;" fill="rgb(0, 0, 0)" stroke="rgb(204, 204, 204)" stroke-width="1px"></line><line x1="169.62890625" y1="0" x2="169.62890625" y2="5" style="visibility: inherit;" fill="rgb(0, 0, 0)" stroke="rgb(204, 204, 204)" stroke-width="1px"></line><line x1="203.5546875" y1="0" x2="203.5546875" y2="5" style="visibility: inherit;" fill="rgb(0, 0, 0)" stroke="rgb(204, 204, 204)" stroke-width="1px"></line><line x1="237.48046875" y1="0" x2="237.48046875" y2="5" style="visibility: inherit;" fill="rgb(0, 0, 0)" stroke="rgb(204, 204, 204)" stroke-width="1px"></line><line x1="271.40625" y1="0" x2="271.40625" y2="5" style="visibility: inherit;" fill="rgb(0, 0, 0)" stroke="rgb(204, 204, 204)" stroke-width="1px"></line></g><g transform="translate(0, 8)"><text x="0" y="0" dx="0em" dy="0.95em" style="text-anchor: middle; visibility: hidden; font-family: &quot;Helvetica Neue&quot;, sans-serif; font-size: 12px; font-weight: 200;" fill="rgb(50, 49, 63)" stroke="none" stroke-width="1px">-500</text><text x="33.92578125" y="0" dx="0em" dy="0.95em" style="text-anchor: middle; visibility: inherit; font-family: &quot;Helvetica Neue&quot;, sans-serif; font-size: 12px; font-weight: 200;" fill="rgb(50, 49, 63)" stroke="none" stroke-width="1px">0</text><text x="67.8515625" y="0" dx="0em" dy="0.95em" style="text-anchor: middle; visibility: inherit; font-family: &quot;Helvetica Neue&quot;, sans-serif; font-size: 12px; font-weight: 200;" fill="rgb(50, 49, 63)" stroke="none" stroke-width="1px">500</text><text x="101.77734375" y="0" dx="0em" dy="0.95em" style="text-anchor: middle; visibility: inherit; font-family: &quot;Helvetica Neue&quot;, sans-serif; font-size: 12px; font-weight: 200;" fill="rgb(50, 49, 63)" stroke="none" stroke-width="1px">1k</text><text x="135.703125" y="0" dx="0em" dy="0.95em" style="text-anchor: middle; visibility: inherit; font-family: &quot;Helvetica Neue&quot;, sans-serif; font-size: 12px; font-weight: 200;" fill="rgb(50, 49, 63)" stroke="none" stroke-width="1px">1.5k</text><text x="169.62890625" y="0" dx="0em" dy="0.95em" style="text-anchor: middle; visibility: inherit; font-family: &quot;Helvetica Neue&quot;, sans-serif; font-size: 12px; font-weight: 200;" fill="rgb(50, 49, 63)" stroke="none" stroke-width="1px">2k</text><text x="203.5546875" y="0" dx="0em" dy="0.95em" style="text-anchor: middle; visibility: inherit; font-family: &quot;Helvetica Neue&quot;, sans-serif; font-size: 12px; font-weight: 200;" fill="rgb(50, 49, 63)" stroke="none" stroke-width="1px">2.5k</text><text x="237.48046875" y="0" dx="0em" dy="0.95em" style="text-anchor: middle; visibility: inherit; font-family: &quot;Helvetica Neue&quot;, sans-serif; font-size: 12px; font-weight: 200;" fill="rgb(50, 49, 63)" stroke="none" stroke-width="1px">3k</text><text x="271.40625" y="0" dx="0em" dy="0.95em" style="text-anchor: middle; visibility: hidden; font-family: &quot;Helvetica Neue&quot;, sans-serif; font-size: 12px; font-weight: 200;" fill="rgb(50, 49, 63)" stroke="none" stroke-width="1px">3.5k</text></g><line x1="0" y1="0" x2="271.40625" y2="0" fill="rgb(0, 0, 0)" stroke="rgb(204, 204, 204)" stroke-width="1px"></line></g></g></g></g></svg>