<svg viewBox="0 0 330 200" xmlns="http://www.w3.org/2000/svg"><g><g><g><g><g><line x1="58.59375" y1="177" x2="53.59375" y2="177" style="visibility: inherit;" fill="rgb(0, 0, 0)" stroke="rgb(204, 204, 204)" stroke-width="1px"></line><line x1="58.59375" y1="154.875" x2="53.59375" y2="154.875" style="visibility: inherit;" fill="rgb(0, 0, 0)" stroke="rgb(204, 204, 204)" stroke-width="1px"></line><line x1="58.59375" y1="132.75" x2="53.59375" y2="132.75" style="visibility: inherit;" fill="rgb(0, 0, 0)" stroke="rgb(204, 204, 204)" stroke-width="1px"></line><line x1="58.59375" y1="110.62499999999999" x2="53.59375" y2="110.62499999999999" style="visibility: inherit;" fill="rgb(0, 0, 0)" stroke="rgb(204, 204, 204)" stroke-width="1px"></line><line x1="58.59375" y1="88.49999999999999" x2="53.59375" y2="88.49999999999999" style="visibility: inherit;" fill="rgb(0, 0, 0)" stroke="rgb(204, 204, 204)" stroke-width="1px"></line><line x1="58.59375" y1="66.375" x2="53.59375" y2="66.375" style="visibility: inherit;" fill="rgb(0, 0, 0)" stroke="rgb(204, 204, 204)" stroke-width="1px"></line><line x1="58.59375" y1="44.25" x2="53.59375" y2="44.25" style="visibility: inherit;" fill="rgb(0, 0, 0)" stroke="rgb(204, 204, 204)" stroke-width="1px"></line><line x1="58.59375" y1="22.125" x2="53.59375" y2="22.125" style="visibility: inherit;" fill="rgb(0, 0, 0)" stroke="rgb(204, 204, 204)" stroke-width="1px"></line><line x1="58.59375" y1="0" x2="53.59375" y2="0" style="visibility: inherit;" fill="rgb(0, 0, 0)" stroke="rgb(204, 204, 204)" stroke-width="1px"></line></g><g transform="translate(48.59375, 0)"><text x="0" y="177" dx="0em" dy="0.3em" style="text-anchor: end; visibility: hidden; font-family: &quot;Helvetica Neue&quot;, sans-serif; font-size: 12px; font-weight: 200;" fill="rgb(50, 49, 63)" stroke="none" stroke-width="1px">-0.05</text><text x="0" y="154.875" dx="0em" dy="0.3em" style="text-anchor: end; visibility: inherit; font-family: &quot;Helvetica Neue&quot;, sans-serif; font-size: 12px; font-weight: 200;" fill="rgb(50, 49, 63)" stroke="none" stroke-width="1px">0</text><text x="0" y="132.75" dx="0em" dy="0.3em" style="text-anchor: end; visibility: hidden; font-family: &quot;Helvetica Neue&quot;, sans-serif; font-size: 12px; font-weight: 200;" fill="rgb(50, 49, 63)" stroke="none" stroke-width="1px">0.05</text><text x="0" y="110.62499999999999" dx="0em" dy="0.3em" style="text-anchor: end; visibility: inherit; font-family: &quot;Helvetica Neue&quot;, sans-serif; font-size: 12px; font-weight: 200;" fill="rgb(50, 49, 63)" stroke="none" stroke-width="1px">0.1</text><text x="0" y="88.49999999999999" dx="0em" dy="0.3em" style="text-anchor: end; visibility: hidden; font-family: &quot;Helvetica Neue&quot;, sans-serif; font-size: 12px; font-weight: 200;" fill="rgb(50, 49, 63)" stroke="none" stroke-width="1px">0.15</text><text x="0" y="66.375" dx="0em" dy="0.3em" style="text-anchor: end; visibility: inherit; font-family: &quot;Helvetica Neue&quot;, sans-serif; font-size: 12px; font-weight: 200;" fill="rgb(50, 49, 63)" stroke="none" stroke-width="1px">0.2</text><text x="0" y="44.25" dx="0em" dy="0.3em" style="text-anchor: end; visibility: hidden; font-family: &quot;Helvetica Neue&quot;, sans-serif; font-size: 12px; font-weight: 200;" fill="rgb(50, 49, 63)" stroke="none" stroke-width="1px">0.25</text><text x="0" y="22.125" dx="0em" dy="0.3em" style="text-anchor: end; visibility: inherit; font-family: &quot;Helvetica Neue&quot;, sans-serif; font-size: 12px; font-weight: 200;" fill="rgb(50, 49, 63)" stroke="none" stroke-width="1px">0.3</text><text x="0" y="0" dx="0em" dy="0.3em" style="text-anchor: end; visibility: hidden; font-family: &quot;Helvetica Neue&quot;, sans-serif; font-size: 12px; font-weight: 200;" fill="rgb(50, 49, 63)" stroke="none" stroke-width="1px">0.35</text></g><line x1="58.59375" y1="0" x2="58.59375" y2="177" fill="rgb(0, 0, 0)" stroke="rgb(204, 204, 204)" stroke-width="1px"></line></g></g><g transform="translate(58, 0)" clip-path="url(#clip_0)"><clipPath id="clip_0"><rect width="271" height="177"></rect></clipPath><g><g><g><line x1="0" y1="0" x2="0" y2="177" fill="rgb(0, 0, 0)" stroke="rgb(60, 60, 60)" stroke-width="1px" opacity="0.25"></line><line x1="33.92578125" y1="0" x2="33.92578125" y2="177" fill="rgb(0, 0, 0)" stroke="rgb(60, 60, 60)" stroke-width="1px" opacity="0.25"></line><line x1="67.8515625" y1="0" x2="67.8515625" y2="177" fill="rgb(0, 0, 0)" stroke="rgb(60, 60, 60)" stroke-width="1px" opacity="0.25"></line><line x1="101.77734375" y1="0" x2="101.77734375" y2="177" fill="rgb(0, 0, 0)" stroke="rgb(60, 60, 60)" stroke-width="1px" opacity="0.25"></line><line x1="135.703125" y1="0" x2="135.703125" y2="177" fill="rgb(0, 0, 0)" stroke="rgb(60, 60, 60)" stroke-width="1px" opacity="0.25"></line><line x1="169.62890625" y1="0" x2="169.62890625" y2="177" fill="rgb(0, 0, 0)" stroke="rgb(60, 60, 60)" stroke-width="1px" opacity="0.25"></line><line x1="203.5546875" y1="0" x2="203.5546875" y2="177" fill="rgb(0, 0, 0)" stroke="rgb(60, 60, 60)" stroke-width="1px" opacity="0.25"></line><line x1="237.48046875" y1="0" x2="237.48046875" y2="177" fill="rgb(0, 0, 0)" stroke="rgb(60, 60, 60)" stroke-width="1px" opacity="0.25"></line><line x1="271.40625" y1="0" x2="271.40625" y2="177" fill="rgb(0, 0, 0)" stroke="rgb(60, 60, 60)" stroke-width="1px" opacity="0.25"></line></g><g><line x1="0" y1="177" x2="271.40625" y2="177" fill="rgb(0, 0, 0)" stroke="rgb(60, 60, 60)" stroke-width="1px" opacity="0.25"></line><line x1="0" y1="154.875" x2="271.40625" y2="154.875" fill="rgb(0, 0, 0)" stroke="rgb(60, 60, 60)" stroke-width="1px" opacity="0.25"></line><line x1="0" y1="132.75" x2="271.40625" y2="132.75" fill="rgb(0, 0, 0)" stroke="rgb(60, 60, 60)" stroke-width="1px" opacity="0.25"></line><line x1="0" y1="110.62499999999999" x2="271.40625" y2="110.62499999999999" fill="rgb(0, 0, 0)" stroke="rgb(60, 60, 60)" stroke-width="1px" opacity="0.25"></line><line x1="0" y1="88.49999999999999" x2="271.40625" y2="88.49999999999999" fill="rgb(0, 0, 0)" stroke="rgb(60, 60, 60)" stroke-width="1px" opacity="0.25"></line><line x1="0" y1="66.375" x2="271.40625" y2="66.375" fill="rgb(0, 0, 0)" stroke="rgb(60, 60, 60)" stroke-width="1px" opacity="0.25"></line><line x1="0" y1="44.25" x2="271.40625" y2="44.25" fill="rgb(0, 0, 0)" stroke="rgb(60, 60, 60)" stroke-width="1px" opacity="0.25"></line><line x1="0" y1="22.125" x2="271.40625" y2="22.125" fill="rgb(0, 0, 0)" stroke="rgb(60, 60, 60)" stroke-width="1px" opacity="0.25"></line><line x1="0" y1="0" x2="271.40625" y2="0" fill="rgb(0, 0, 0)" stroke="rgb(60, 60, 60)" stroke-width="1px" opacity="0.25"></line></g></g></g><g><g><line x1="0" y1="154.875" x2="271.40625" y2="154.875" fill="rgb(0, 0, 0)" stroke="rgb(153, 153, 153)" stroke-width="1.5px"></line></g></g><g><g><line x1="33.92578125" y1="0" x2="33.92578125" y2="177" fill="rgb(0, 0, 0)" stroke="rgb(153, 153, 153)" stroke-width="1.5px"></line></g></g><g><g><g><g><g><path stroke="rgb(255, 112, 67)" stroke-width="2px" d="M39.5574609375,-0.21857220614626272L39.9645703125,1.8664171258999147L40.1002734375,3.8275469801727695L40.168124999999996,5.929251299492591L40.2359765625,7.0749013337213L40.3716796875,7.678328089907325L40.6430859375,9.533362389300578L40.914492187499995,10.7164318600326L41.118046875,13.418561568150551L41.4573046875,15.706836806447427L41.660859375,16.889410005652564L41.864414062499996,17.890028821095L42.339375,21.26016094485186L42.5429296875,22.712132517019455L42.746484375,22.895543586142907L42.950039062500004,25.315918533368347L43.0857421875,26.398164725051345L43.15359375,27.601968846665358L43.832109375,28.58631913791109L43.9678125,29.78623001383258L44.1713671875,31.0853411024338L44.374921875,31.642381636978286L44.4427734375,32.17085296475423L44.7141796875,32.44582534781537L45.121289062500004,33.4142720878026L45.3926953125,34.18665950787937L45.6641015625,34.780442758221795L46.206914062500005,34.99613366356013L46.342617187500004,35.82395967147181L46.681875,37.65550210063651L48.174609374999996,36.20477733601163L48.2424609375,36.74343508237459L48.785273437499995,35.10083883257221L48.853125,34.96491128952172L48.9209765625,33.600081722441075L48.988828125,31.75573238164162L49.531640625,29.300703349290586L49.5994921875,31.449825026142378L49.66734375,29.162070380179216L50.0066015625,28.708493320064576L50.5494140625,25.856455223510523L50.617265625,23.25745855376104L51.29578125,22.70212725761519L51.3636328125,24.090343940037428L51.431484375000004,23.903060434924328L51.702890625,24.820472716490457L51.906445312500004,24.2260264093876L51.974296875,25.42287048311232L52.11,27.77798693544389L52.3135546875,25.09358646372985L52.4492578125,24.520372056365233L52.788515625,21.1177968224288L52.992070312500005,18.990717377686565L53.195625,18.859479437127135L53.331328125,19.031558173808065L53.5348828125,19.237056230254552L53.602734375000004,17.687744006364113L53.7384375,19.905972048549984L53.8062890625,21.572631677931014L53.8062890625,21.230353415575905L54.00984375,23.315744412283493L54.3491015625,23.41982762953066L54.959765625,29.410477417352325L55.027617187500006,32.710321222330634L55.434726562499996,41.19704860126106L55.63828125,35.9173319022365L55.706132812499995,30.787857143909207L55.773984375,26.230869286555304L55.841835937499994,24.554474540530606L55.9096875,32.83587491987879L56.316796874999994,29.89804326581202L56.4525,33.62710026554609L56.588203125,37.71826830299105L56.656054687499996,40.57199733729007L56.791757812499995,43.067987989037306L56.9274609375,42.64870402255599L56.9274609375,39.2948943617281L57.0631640625,33.26844119681934L57.266718749999995,31.017884586179377L58.1487890625,34.827682491495665L58.2844921875,38.702312804075746L58.4201953125,37.68778480101386L58.4201953125,34.99688925748325L58.6916015625,40.111630793841215L58.9630078125,43.21666492905109L59.0987109375,40.50488195351298L59.2344140625,42.05364312846382L59.43796875,41.17690484594655L59.573671875,37.85472093743894L59.845078125,38.939047221677384L59.98078125,38.90420805474332L60.0486328125,41.507498595477415L60.0486328125,42.75731886527612L60.116484375,40.0562645024161L60.1843359375,37.13762573755386L60.387890625000004,43.64343311999204L60.52359375,38.35539539822318L60.5914453125,37.806811643650406L60.795,36.228807796842005L60.795,35.553615808371376L60.862851562500005,37.60089018337945L60.998554687500004,40.43919873471867L61.1342578125,43.60984755597002L61.2699609375,45.57315531397751L61.3378125,49.27811819329793L61.3378125,50.15177974113783L62.15203125,57.665450727993004L62.287734375,63.386093512805544L63.37335937500001,62.965558353443285L63.5769140625,64.51021988891323L63.644765625,65.27719452501988L63.84832031249999,68.32637319875751L64.11972656249999,68.21661753602619L64.32328125,67.04508489458439L64.458984375,65.70549257450509L64.6625390625,68.1851519933534L64.730390625,65.42063462681725L64.9339453125,64.58709946243258L65.001796875,64.9313150970238L65.4767578125,56.620007176881884L65.544609375,62.27051697056642L65.8838671875,56.502425127513106L65.95171875,52.68412735956126L66.29097656249999,56.90699874697455L66.4266796875,54.66045380436378L66.5623828125,52.697624074238504L66.8337890625,56.43764233697533L66.901640625,58.4961839056556L67.1051953125,58.98760086217787L67.1051953125,58.73540601384201L67.30875,56.11396758706307L67.715859375,60.75850423247179L67.9194140625,61.124325830164906L67.987265625,55.347679426326366L68.32652343749999,56.455840939315564L68.394375,60.212996807117705L68.66578125,69.76566639627185L69.072890625,68.60347751727801L69.344296875,68.02279204697072L69.75140625,68.64567910176908L69.95496093749999,70.0801817717695L70.0906640625,67.98867595747373L70.158515625,69.40235045287167L70.29421875,74.28758969147896L70.429921875,77.3326365485185L70.4977734375,75.50645575132332L70.6334765625,74.47590684715723L70.701328125,77.07902939810643L70.972734375,76.32153331455166L71.17628906249999,80.79911298284873L71.3119921875,80.76307987409798L71.37984375,80.60313603125789L71.7191015625,81.33366637136207L71.85480468749999,79.77858954492609L72.32976562500001,81.99151784672378L73.07613281249999,79.44458138939166L73.143984375,78.80059840677038L73.27968750000001,80.59032211838874L73.27968750000001,82.04776569985576L73.34753906249999,81.21135322322387L73.95820312500001,81.2342664752599L74.3653125,78.15661793078162L74.3653125,76.53288219645725L74.5688671875,78.83627942964497L74.63671875,81.52326583126225L74.8402734375,83.39494601642514L75.72234375000001,82.85357999953881L75.7901953125,82.91877360733304L76.12945312500001,83.83913575763673L76.4687109375,84.32489318344099L76.6044140625,83.9123868625945L76.672265625,83.68570617625632L77.35078125,87.6136058496804L77.5543359375,90.17232582732265L77.8257421875,92.39502626814975L78.029296875,92.405428470126L78.36855468750001,92.07801479157877L78.572109375,92.66822370920819L78.6399609375,91.06265343746091L78.9113671875,90.94543887389031L79.0470703125,88.47949287421896L79.114921875,88.50052877144452L79.250625,88.17050141618512L79.250625,88.18101146534599L79.8612890625,90.14548863897035L80.4041015625,91.0405718858797L80.8790625,93.22960759852876L81.014765625,94.94138731154531L81.014765625,95.87040059621768L81.0826171875,94.62499441120407L81.15046875,93.11335939713348L81.8968359375,93.06954691140669L82.0325390625,92.47602693038475L82.1682421875,92.16131322859103L82.3039453125,92.02959755228981L82.371796875,91.38087750176801L82.5075,90.45317234218248L82.643203125,90.34857813191488L82.77890624999999,90.55254726512477L83.593125,92.89141190590409L83.66097656250001,92.09542824054925L84.000234375,92.70751026406984L84.271640625,93.56970321616589L84.33949218750001,93.3920468299452L84.40734375,93.89432115011594L84.4751953125,94.69437473805655L84.814453125,94.75311549479908L85.085859375,94.65727856144396L85.5608203125,94.90903447499925L85.628671875,95.64181096810731L85.69652343749999,96.57060226475377L86.5107421875,95.72367437288271L86.57859375,95.80813084307376L86.64644531249999,94.49876444794573L87.12140625,93.53879494522712L87.12140625,92.90327683123769L87.4606640625,94.37233170588505L87.66421875,94.46464143824393L87.79992187500001,94.78436335701834L88.07132812500001,95.19388302730972L88.342734375,95.9312838856426L88.342734375,96.41550776326937L88.5462890625,96.87221812584566L88.81769531249999,96.14221456276516L89.08910156249999,94.19405060784305L89.156953125,90.86715048418215L89.29265625000001,91.54275867560965L89.428359375,91.36500804257071L89.5640625,92.63942413408562L89.699765625,93.97900515722634L89.83546875,95.82573423342349L89.97117187500001,96.45810810659194L90.24257812500001,96.59728468915142L90.513984375,94.11604597246837L90.6496875,93.54830384895916L90.7175390625,93.53255178121157L90.9889453125,92.92324474506037L91.26035156249999,92.74654020698343L91.3960546875,92.39119672376795L91.46390625000001,92.26170769690802L91.46390625000001,91.86269753193456L91.5317578125,91.84958413252592L91.6674609375,91.41837008004998L91.87101562500001,92.7753564370013L92.21027343749999,93.82013480975252L92.54953125,94.93347390362038L92.68523437500001,95.28200158994446L92.7530859375,94.733932563788L92.82093750000001,93.71241625793355L93.0244921875,92.33968069343317L93.09234375000001,91.00526003353923L93.1601953125,91.2360516507216L93.1601953125,90.90572056286263L93.36375,90.67025923200086L93.8387109375,91.80474913399001L94.1101171875,92.08662586379398L94.313671875,91.8709609447023L94.585078125,91.95832274783257L94.585078125,92.34533641891841L94.9243359375,93.49809998963573L95.12789062499999,91.7715031605619L95.535,91.85251283059466L95.8742578125,92.57498547083108L96.0099609375,92.75766865400058L96.34921874999999,92.98394334606874L96.484921875,92.61288246090739L96.62062499999999,91.58329056248384L96.756328125,90.0876047822554L97.2312890625,89.14991860465521L97.29914062499999,89.7995413653631L97.50269531250001,92.3431600637781L97.57054687499999,92.9971213911502L97.57054687499999,93.62422299233248L98.72402343750001,92.64450015930635L98.927578125,93.9124074388045L99.198984375,96.03985178521263L99.40253906250001,97.65058265656822L99.5382421875,98.51877277958747L99.60609375,99.1918036661646L99.67394531250001,100.05708412212736L99.8775,99.04393685092096L99.94535156250001,97.53095945256689L100.013203125,97.23703132592284L100.14890625,96.21734260632182L100.62386718750001,95.65400145121563L100.69171874999999,95.34293096463772L101.098828125,96.85827362955148L101.16667968750001,98.01361651969275L101.16667968750001,99.02756666393469L101.641640625,99.03391556293602L101.77734375,99.757829850023L101.913046875,98.89554377800525L102.04875,98.06264998558936L102.184453125,97.33290740277634L102.32015625,96.49004122868935L102.5915625,96.44026446792937L102.65941406249999,96.47676860066328L102.7951171875,96.84518391950174L102.86296875000001,98.72754245736148L102.998671875,98.1936885669109L103.134375,99.38127375121574L103.81289062500001,99.67061204299723L104.22,97.69884428134796L104.22,95.89747320265316L104.355703125,94.5729424068376L104.355703125,93.93713100010422L104.4235546875,95.9361616984264L104.49140625,96.82386125119068L104.627109375,98.59827661211214L104.76281250000001,99.31299478229832L104.9663671875,99.51641259292933L105.03421875000001,100.05280221074922L105.5091796875,98.84986633998217L105.6448828125,98.43449328507222L105.9162890625,98.30622018078111L105.9162890625,97.84319935857738L106.526953125,100.00889727097442L106.66265625,100.82808560503535L106.66265625,101.57180479689247L106.798359375,102.42360290005092L106.8662109375,103.27162836858204L107.069765625,103.86601487915856L107.341171875,103.8809553064176L107.476875,102.70860852910687L107.5447265625,99.73750617571837L107.612578125,97.98855735938648L107.74828125,94.80884583938658L108.0875390625,97.57093347101532L108.15539062500001,97.28527023785783L108.22324218749999,99.18242436732932L108.29109375,99.88517368785193L108.42679687500001,101.61655050189287L108.4946484375,101.96591154438848L108.7660546875,101.32761234165784L108.9017578125,102.03852505160306L109.37671875000001,100.20387588544448L109.512421875,99.56994596483565L109.5802734375,99.21666728176031L109.78382812500001,100.10049130748124L109.78382812500001,100.69969582993036L109.8516796875,100.29955628775507L109.9873828125,100.78454525180429L110.05523437500001,100.61725885664086L110.1230859375,99.89883902963794L110.1230859375,99.48347237883088L110.3944921875,100.29474061237619L110.46234374999999,99.5850868434122L110.6658984375,101.12761484744613L111.2765625,100.61641381181757L111.6158203125,101.11691758333133L111.819375,101.14495938151173L112.0229296875,99.55685047584231L112.1586328125,98.28156326876555L112.226484375,97.15962348381564L112.5657421875,99.52948821335961L112.63359374999999,100.89892596602398L112.7014453125,101.81421610772584L113.1085546875,101.08983899688705L113.4478125,100.56792184731951L113.7870703125,99.13521375967021L114.3298828125,96.1982869131145L114.940546875,100.27506428794725L115.0083984375,101.66329845688738L115.07625,102.26611132563352L115.34765625,101.6409288772416L115.41550781250001,101.8064579295201L115.5512109375,101.0332357810189L115.89046875,100.98095380522308L116.161875,101.47566147302089L116.161875,101.75181726160346L116.568984375,100.76509884919345L116.840390625,101.03573651716482L117.0439453125,102.087929084035L117.0439453125,102.89421014734043L117.111796875,103.65879004298408L117.1796484375,104.28005052118753L117.383203125,103.85164208417686L118.197421875,100.63648159328432L118.26527343750001,100.36561931385594L118.60453125,100.51379218527076L118.6723828125,101.21464334773061L118.8080859375,101.35894787220381L118.8080859375,100.9113724166645L119.283046875,98.87747084107954L119.4866015625,98.12015190426683L119.69015625,95.97224197807417L119.7580078125,97.04633700264993L119.82585937500001,98.27243256219329L119.89371093749999,100.68825740902484L120.3008203125,101.69331417255914L120.4365234375,103.00405953987429L120.504375,103.06874545910351L120.640078125,103.78774990587468L120.911484375,101.09733113318107L120.9793359375,100.78035542767896L121.31859375,100.6233524614671L121.3864453125,101.15882611477966L121.79355468749999,99.78321046057101L121.79355468749999,98.81920058979246L121.86140625,99.44747454794438L121.99710937500001,98.8147121302616L122.1328125,99.59657519056388L122.3363671875,99.88636506941312L122.8791796875,99.25899778512951L123.082734375,98.01496205751799L123.1505859375,97.32373306169927L123.4219921875,98.19505918630851L123.625546875,98.1034532225662L123.8291015625,99.26715039381585L123.96480468749999,100.72733876955033L124.6433203125,97.73711265535069L124.7790234375,97.9874684119875L124.84687500000001,98.864144520739L124.982578125,99.21517938779549L125.18613281249999,99.78050919566606L125.5932421875,99.86435830112727L125.8646484375,96.9933244378354L126.33960937500001,99.79472636377727L126.74671875000001,101.32461120901056L126.882421875,101.6804659498784L127.0859765625,100.69188553589896L127.3573828125,97.25975534616896L127.3573828125,94.67402585327022L127.42523437499999,95.5882443784439L127.42523437499999,96.28194379799149L127.7644921875,95.63691034908642L128.510859375,98.09099409428565L128.5787109375,98.16297769813137L128.5787109375,97.96190319817302L128.8501171875,98.07099050498627L129.18937499999998,99.00388153324498L129.2572265625,100.55979012060149L129.6643359375,99.28189370398513L129.73218749999998,98.87367461839195L129.8000390625,98.27048287820145L129.867890625,97.39734277445866L129.9357421875,96.97726829241986L130.00359375,96.67880614335105L130.6142578125,98.89041266134242L130.8856640625,98.07583944970881L131.29277343750002,96.79780616745062L131.360625,95.80410797229234L131.63203124999998,99.77803467709316L131.63203124999998,102.37151060103471L131.8355859375,104.05757770299373L131.9712890625,104.55968882059727L132.17484375,105.11287683198258L132.24269531250002,105.23268803774955L132.310546875,103.83385156434561L132.853359375,98.88776234890095L132.9212109375,97.30028381410284L132.9890625,95.58440764226344L132.9890625,96.54887304590837L133.396171875,100.7480587684315L134.0068359375,103.00293344695578L134.5496484375,100.54660132789141L134.8210546875,98.27571359731868L134.8210546875,97.21368515168497L134.9567578125,96.97578378423972L135.4995703125,99.70696921589924L135.63527343750002,102.44752478565545L135.77097656249998,102.55974435189825L135.838828125,103.3779158912865L135.9066796875,104.31808095710085L135.97453125,104.94523484132651L136.0423828125,104.31850491834857L136.17808593750001,103.63945714159713L136.2459375,103.30184720321837L136.5851953125,100.3860278687736L136.7208984375,99.47255167137746L136.9923046875,98.7067952589462L137.06015625,99.02062374569594L137.1280078125,100.78027937690983L137.3994140625,102.60942366499049L137.87437500000001,103.46072151528801L137.9422265625,103.90000931928758L138.01007812499998,103.75741010612371L138.07792968750002,103.00076498959136L138.6207421875,102.33791517540021L139.0278515625,102.04706514223935L139.8420703125,100.668316253093L140.31703125,101.83426545594162L140.3848828125,102.09970816096083L140.5884375,101.5473681978608L140.5884375,100.51848775102047L140.6562890625,99.52298075230927L140.7919921875,95.80422304434782L140.9276953125,96.58840739347461L141.0633984375,96.39299005638314L141.13125,95.76673273665162L141.67406250000002,98.40391696347268L142.081171875,97.57346908958836L142.2847265625,96.34859660394243L142.35257812499998,95.25222407953291L142.5561328125,94.44521533951968L142.6918359375,96.64864141944533L143.5060546875,95.68252123119522L143.57390625,96.17496874166783L143.8453125,97.57131491293464L143.9131640625,97.2459391575453L143.981015625,97.426600442612L144.0488671875,98.39468950407733L144.0488671875,98.57296992169039L144.7273828125,97.16500247017274L144.9309375,97.26613698301153L145.20234375,95.61701780496499L145.2701953125,93.68742591403998L145.338046875,90.98727336980747L145.609453125,90.84219626163151L146.01656250000002,92.26531445130531L146.0844140625,93.80002576795114L146.28796875,91.10485357455548L146.55937500000002,88.69670432455622L146.7629296875,88.9077409723239L146.83078125,90.5792580884002L146.966484375,90.87989294775142L147.1700390625,92.50800592450985L147.37359375,87.99207062869482L147.780703125,92.77820917725093L147.91640625000002,96.71674087500288L148.39136718749998,96.99760993931123L148.45921875000002,98.00765125521079L148.5270703125,99.82645120065246L148.59492187499998,101.5540267398407L148.7984765625,103.04453951540292L149.3412890625,104.25103288544832L149.54484375,105.34035529883873L150.15550781250002,105.65263047481876L150.29121093749998,105.14657031992259L150.35906250000002,105.81716019510735L150.5626171875,104.56279667079154L150.766171875,104.30325098401131L150.90187500000002,104.21784210691345L150.9697265625,103.88812499040064L151.17328125,104.45672877158937L151.2411328125,105.3250505895985L151.44468750000001,105.21522356996374L151.6482421875,105.50236538606546L151.851796875,105.88852316175497L151.9875,104.24603277167438L152.19105468749999,104.56726955306982L152.5303125,102.63336321820292L152.59816406250002,102.11853702729626L152.937421875,103.27473211655428L153.07312499999998,104.64723495614176L153.14097656250001,105.11100464297321L153.2766796875,105.23004552115789L153.8194921875,105.03501868927354L153.88734374999999,105.33399128129408L154.0908984375,104.0631582451482L154.2266015625,103.71944946423885L154.294453125,103.33752808347771L154.7694140625,104.60384089127439L155.17652343749998,104.62697196230444L155.380078125,105.24648385629148L155.7871875,106.3772123344844L155.7871875,107.06274563003215L155.9907421875,106.28125109331985L156.05859375,106.05773206089245L156.5335546875,105.47978121062701L156.6692578125,105.56305861485352L156.73710937500002,105.67444201119154L156.8049609375,106.32398405854349L156.87281249999998,106.8072299580839L157.008515625,107.57191530591646L157.551328125,107.51104429350139L157.9584375,107.2584189890971L157.9584375,106.92774135584536L158.1619921875,106.79032181629479L158.4333984375,107.08290227907263L159.2476171875,106.30007204060176L159.451171875,106.94392873283874L159.5190234375,107.27144219986589L160.19753906250003,106.93355605311388L160.3332421875,105.60834552977796L160.4689453125,105.20627743383832L160.4689453125,104.75299959409587L160.536796875,103.68244237171623L160.74035156250002,104.16714184562571L160.808203125,105.0855506961358L160.8760546875,106.62404642729832L161.21531249999998,107.13868657188935L161.4188671875,106.92963205389573L161.62242187500001,107.93393659360642L161.893828125,107.61227407912871L162.02953125,105.22839831328665L162.165234375,103.78592186579868L162.57234375,103.6478099102364L162.6401953125,102.79132543948805L162.7758984375,102.08646221278617L163.1830078125,101.87895462851827L163.31871093750001,100.31624336803618L163.45441406249998,99.95813460209763L163.52226562500002,100.03843654280183L163.8615234375,99.87627532234953L163.929375,98.89418515951135L163.99722656249997,99.06506543094335L164.4721875,99.135661314335L165.015,96.04762155437857L165.150703125,100.24740605428451L165.42210937500002,102.99846466406962L166.236328125,95.6340083362149L166.3041796875,92.59844244012157L166.3041796875,90.67932529740881L166.5755859375,94.05863850112767L166.91484375,95.83517545936114L167.18625,94.80360553549293L167.3898046875,95.72247173122504L167.5255078125,96.20000195641481L167.9326171875,97.41838772081829L168.136171875,99.46083836098609L168.3397265625,102.34202789866983L168.950390625,104.86339643361603L169.08609375,106.76162305034657L169.4253515625,105.13344382975973L169.62890625,103.96759331366107L169.764609375,103.76220120275427L169.9003125,103.01358963718658L169.9681640625,102.57087667388109L170.307421875,103.65756787569754L170.3752734375,105.0631508959021L170.71453125,107.9968214292935L170.7823828125,108.9122201776273L170.85023437499999,109.77689321939748L171.0537890625,109.92209042969108L171.1894921875,110.89570337750172L171.1894921875,111.40852662156615L171.25734375,111.9612026317751L171.46089843750002,111.62602837704632L172.207265625,106.9315296132744L172.750078125,108.63941702511197L172.9536328125,109.31415908197333L172.9536328125,109.46107210016113L173.021484375,109.91716775772488L173.29289062499998,109.0831651418061L175.26058593750003,109.79710145018403L175.73554687499998,110.67965091897193L175.80339843750002,111.39334310521568L176.14265625000002,110.81488189953497L176.2105078125,109.31972934966046L176.27835937499998,110.99796811440442L176.34621093750002,111.66467711597L176.4140625,111.16451264780349L176.4819140625,112.23154649651997L176.549765625,112.27172110984893L177.2961328125,111.7652679026733L177.4996875,110.1351368719703L177.5675390625,109.77561528202092L177.70324218750002,110.78882824907419L177.8389453125,111.55037490147184L178.2460546875,110.65513688843149L178.51746093749998,112.07441919607339L178.6531640625,112.27028492428312L178.6531640625,112.44947319678933L178.992421875,112.54219239176793L179.1959765625,112.28991755677154L179.7387890625,111.11638474960856L179.94234375000002,110.91305615305741L180.07804687499998,110.75633623480701L180.349453125,106.93369304555596L180.41730468749998,103.02330437253678L180.7565625,105.70965722918966L180.892265625,108.03779962045228L181.0958203125,108.87090110410615L181.2315234375,109.81953619795658L181.435078125,107.85107031987678L181.77433593749998,102.6619503499661L181.977890625,106.65849961647952L182.11359375,109.91569814717509L182.4528515625,112.49046670428359L182.92781250000002,112.03148564864064L183.19921875,109.27126349162378L183.2670703125,108.37931313753914L183.334921875,104.35806087041372L183.4027734375,103.48342624833866L183.5384765625,100.52816302794626L183.5384765625,99.64542432557587L184.21699218749998,104.52129198420671L184.21699218749998,107.01271477525606L184.28484375000002,107.87031150719628L184.4883984375,107.96173057771387L184.62410156250002,107.44860575387872L185.506171875,110.30753231966494L185.7097265625,112.79944110020398L185.8454296875,112.15452493044376L185.9811328125,111.61612966097975L186.2525390625,109.44990472756375L186.320390625,108.70391537256567L186.863203125,111.33214378510434L186.9310546875,113.3211554655702L187.54171874999997,115.18409193422025L187.6095703125,115.99295839885251L187.677421875,116.82478188556058L187.948828125,116.49025674808993L188.0166796875,116.99593949704752L188.2880859375,116.15787104004255L188.35593749999998,114.46750496914166L188.35593749999998,112.42167778813945L188.8308984375,109.99467429521147L188.89874999999998,109.3637054801134L189.2380078125,110.89404255689071L189.305859375,110.90261925781301L189.71296875,109.5456756593259L189.7808203125,110.75110023566911L189.848671875,111.83188731878298L189.9165234375,113.13288766836702L190.32363281250002,114.24452515361057L190.934296875,108.92658559332698L191.40925781250002,111.75994251579289L191.6128125,113.29986535853291L191.88421875,115.05994788018552L192.155625,109.78379762594513L192.291328125,104.55653028741247L192.4948828125,106.36010565045336L192.56273437500002,108.82808463086403L192.56273437500002,110.7805318582637L192.90199218749999,112.45284403256076L193.648359375,105.6601131373137L193.7840625,105.89646645566759L193.9876171875,108.66321758288704L194.191171875,110.26434902315474L194.5304296875,107.00810623744212L194.66613281250002,105.10074241953541L194.8696875,104.31470442412763L195.00539062500002,105.7472775390653L195.0732421875,107.27104420726943L195.3446484375,110.04153048852353L195.4125,112.96025472348492L195.48035156249998,113.71770223656631L195.54820312500001,114.63058634954295L195.6160546875,114.55615695630073L195.68390625,113.75153902658558L195.68390625,112.87720156007252L195.9553125,111.62110670234703L196.02316406249997,105.87205255523887L196.091015625,102.45066466328838L196.091015625,100.74312360225521L196.1588671875,100.7320063971782L196.22671875,102.45757981320047L196.29457031249999,106.20151939946308L196.362421875,108.00377073858914L196.5659765625,111.14380802199086L196.76953125,113.93009729674363L196.83738281249998,115.3658167540485L196.90523437500002,116.45292922672357L197.58374999999998,116.10143595526648L197.6516015625,114.73742653036138L197.85515625,113.87796678307068L198.1265625,112.96341042317397L198.533671875,112.84780776558783L199.14433593750002,113.40623710637371L199.2121875,113.06754787913012L199.755,114.45101810783771L199.89070312500002,114.82292465293781L199.9585546875,115.06573118373379L199.9585546875,115.26660886171236L200.6370703125,112.44521696128115L201.4512890625,112.75677920584478L201.519140625,113.27011841210484L201.9941015625,112.25946939541554L202.2655078125,108.40842727454694L202.5369140625,109.68343274672146L202.5369140625,110.47974322068283L202.6726171875,110.35378338889831L202.74046875,109.80265337375732L202.74046875,109.35538707016666L203.2154296875,107.13234160744403L203.48683593750002,105.09627056958232L204.233203125,107.29706039930554L204.4367578125,107.83317312094671L204.5724609375,110.8323743879384L204.77601562499999,109.45422320899881L205.2509765625,111.1446904247255L205.31882812499998,110.58156573356695L205.31882812499998,109.9495747645587L205.590234375,108.90116062968316L206.2008984375,110.23004855489339L206.7437109375,109.3029129372573L206.947265625,107.76751830080367L207.1508203125,106.70894924342166L207.1508203125,106.47443303042371L207.354375,106.03808135136198L207.82933593750002,106.85394982900758L207.8971875,108.01314675752245L208.1007421875,107.11283296164228L208.16859375,107.76817451009961L208.9828125,107.93599536025411L209.118515625,107.94538666012218L209.5934765625,110.01281358273226L209.72917968750002,110.94041410518524L210.33984375,113.66398720701241L210.61125,113.73752168273748L210.746953125,112.99411486658941L211.3576171875,113.06937374516421L211.4933203125,114.82062590029295L211.4933203125,115.9857565769938L211.56117187499999,114.68265574034376L211.62902343750002,115.19699469421103L211.696875,116.0662433860528L211.832578125,114.95865159081386L211.832578125,114.07019207535366L212.2396875,110.25320438538897L212.44324218749998,107.41532847282235L212.5789453125,108.07600305674639L213.3253125,108.60333094416954L213.80027343749998,108.4596121991807L214.0716796875,108.41075968057716L214.34308593749998,111.02456103748561L214.68234375,112.78330667606878L214.7501953125,113.83350982989006L215.22515625,109.13011946812352L215.360859375,108.10480413159775L215.70011718749998,104.60779198599485L215.76796875000002,103.66706455107109L215.8358203125,105.29685993555532L216.44648437499998,105.25470432080833L216.5821875,104.43646733276847L216.717890625,108.07374484129431L216.989296875,105.51872677378465L217.1928515625,102.48084231479531L217.260703125,104.97748719163874L217.3285546875,107.1448440090307L217.5999609375,110.42509239527513L217.803515625,112.44271048076706L217.93921875,112.60508915881965L218.4141796875,111.69043691814335L218.48203125,111.98563943124051L218.54988281250002,109.32867684552811L218.68558593749998,110.11818052434766L219.02484375,107.75529300781395L219.2283984375,108.17560513384524L219.6355078125,108.3213848863088L219.974765625,109.84727044815081L220.1783203125,110.72813177504692L220.1783203125,111.18899787305924L220.3140234375,111.6228645181008L220.517578125,109.77237168463158L220.7211328125,109.3216791928535L220.92468749999998,105.72054258768111L220.99253906250001,105.1648658218047L221.060390625,106.72404933137067L221.46749999999997,109.38637518979529L221.603203125,109.77597515939128L221.874609375,109.8246139029172L222.0103125,110.66166904953164L222.146015625,111.71882143251325L222.34957031250002,111.97077214796677L222.48527343749998,111.22115531313021L222.7566796875,111.35058933942078L222.89238281250002,112.9773029100809L222.960234375,114.30413379442177L223.02808593749998,114.69336544675518L223.0959375,115.22139775575928L223.36734374999997,113.0891692925795L223.4351953125,112.67599958117627L223.4351953125,111.96797304562224L223.63875,110.9761105788439L224.045859375,112.02874039189157L224.24941406250002,113.67416221842848L224.5208203125,111.12226796713878L224.58867187500002,107.80350665490275L224.92792968749998,110.06698675298955L224.99578125,111.75694290157716L225.4707421875,113.4786503187213L225.8778515625,114.27226047941407L225.945703125,114.67802495943522L226.08140625,114.85618560425648L226.14925781250003,113.35267518259411L226.48851562500002,112.74941545008019L226.5563671875,109.6199738504195L226.82777343749999,107.88297629187724L227.302734375,112.44834134179484L227.70984375,114.56630649386723L227.98125,113.94196928571986L228.04910156250003,110.44708714205817L228.1848046875,106.75375620167729L228.659765625,111.00038469070957L229.06687499999998,113.22055545291164L229.2704296875,114.22257145548379L229.5418359375,114.80277068796465L229.88109375,114.38854035367197L229.94894531249997,111.99590005653873L230.1525,111.41647654877767L230.288203125,109.80025745246807L230.4917578125,111.55065929927825L230.559609375,112.76103523694515L230.8988671875,110.57248222424411L230.96671874999998,111.88068672027482L231.50953124999998,113.12336037162717L231.645234375,113.32056386234626L231.84878906249997,111.41831670679012L232.188046875,112.42218089984272L232.2558984375,111.6660732918168L232.66300781249998,109.69673188586145L232.7987109375,107.85042817329828L232.8665625,107.92818885705151L233.07011718750002,110.08390546537208L233.40937499999998,109.1903237563179L233.68078125,110.45597344707285L233.74863281249998,110.56940650684139L233.81648437500002,112.10039043571055L233.9521875,112.858971244964L234.0200390625,114.25569074265539L234.2914453125,111.23181826718078L234.63070312500003,109.2712503751959L234.6985546875,108.32252372985158L234.96996093750002,109.84258643052026L235.0378125,109.88965147442246L235.17351562500002,106.37714350644721L235.17351562500002,106.58591982080921L235.85203125,109.27948035809031L235.987734375,108.37949706621545L236.0555859375,108.81512170587526L236.1234375,107.91876475545494L236.1912890625,107.49069982786611L236.53054687500003,108.65783428263447L237.1412109375,104.92308082945216L237.48046875,107.85748540471238L237.8197265625,109.51249605333949L237.95542968750001,111.31757984558429L238.0911328125,108.92742436826042L238.158984375,107.71053493738061L238.2946875,104.21083320808343L238.4982421875,108.9437023498531L238.4982421875,112.78539372372126L238.56609375,115.57461368225512L238.6339453125,117.57573307563362L238.7696484375,117.99919117545781L239.24460937499998,117.82958110306083L239.3803125,115.37633909066568L239.516015625,114.13570048081905L240.058828125,114.36855003933925L240.1266796875,113.75673026711236L240.2623828125,114.98880680126243L240.3980859375,111.97368228568013L240.6694921875,107.93345724721775L240.9408984375,111.18328764843956L241.00875,113.80058820133218L241.3480078125,114.47185344746595L241.55156250000002,111.05545447320273L241.6194140625,108.89509305686073L241.82296875,107.65118321675251L241.89082031249998,105.47932227938288L241.958671875,106.83480469875879L242.23007812499998,107.24005094464627L242.36578125,108.38592452285293L242.4336328125,109.80428826497557L242.501484375,108.27201167456246L242.5693359375,109.65781236715279L242.772890625,107.79973080472446L243.044296875,109.67738509307085L243.315703125,111.99102131801712L243.45140625000002,113.01033471690337L243.58710937499998,114.4329583446188L243.7228125,113.29842832684537L244.265625,111.57985716462146L244.6048828125,107.20856163740164L244.6048828125,104.3829153081179L244.672734375,104.11067142637968L244.8762890625,108.32933217467308L244.944140625,111.06492475230361L245.07984375,112.98541805928268L245.35125,113.5197873788197L245.48695312499999,108.83548374933714L245.62265625,107.93171520806976L245.758359375,109.72470939324872L245.9619140625,111.72930083970175L246.36902343749998,110.83317364335028L246.6404296875,112.37799520540216L247.0475390625,110.77466183005558L247.25109375,112.57222713588946L247.92960937499998,113.02553772067589L248.0653125,113.49286828121876L248.201015625,114.51944066990218L248.201015625,114.86140794103622L248.47242187499998,112.72549619403648L249.015234375,111.30412970261078L249.42234375,106.7843674050349L249.7616015625,109.86935155848134L250.03300781250002,112.1288019821612L250.23656250000002,113.19618892553854L250.9829296875,113.962916725179" style="fill: none;" fill="none"></path></g></g></g></g><g opacity="0.2"><g><g><g><path stroke="rgb(255, 112, 67)" stroke-width="2px" d="M39.0146484375,-2.8158905804157257L39.1503515625,0.701539546251297L39.2860546875,-0.06204468011856079L39.5574609375,4.610269993543625L39.9645703125,4.993710547685623L40.1002734375,6.76913420855999L40.168124999999996,9.081738620996475L40.2359765625,8.793353766202927L40.3716796875,8.583461076021194L40.6430859375,12.315900653600693L40.914492187499995,12.491031020879745L41.118046875,17.47174921631813L41.4573046875,19.13924615085125L41.660859375,18.663268715143204L41.864414062499996,19.39095649123192L42.339375,26.315358012914658L42.5429296875,24.890089586377144L42.746484375,23.17066016793251L42.950039062500004,28.94648078083992L43.0857421875,28.021533966064453L43.15359375,29.407674998044968L43.832109375,30.062844559550285L43.9678125,31.586096316576004L44.1713671875,33.03400772809982L44.374921875,32.47794243693352L44.4427734375,32.963559955358505L44.7141796875,32.858283922076225L45.121289062500004,34.86694219708443L45.3926953125,35.34524063766003L45.6641015625,35.67111763358116L46.206914062500005,35.319670021533966L46.342617187500004,37.06569868326187L46.681875,40.402815744280815L48.174609374999996,34.028690189123154L48.2424609375,37.55142170190811L48.785273437499995,32.6369444578886L48.853125,34.761019974946976L48.9209765625,31.552837371826172L48.988828125,28.98920837044716L49.531640625,25.6181598007679L49.5994921875,34.673507541418076L49.66734375,25.73043841123581L50.0066015625,28.02812772989273L50.5494140625,21.57839807868004L50.617265625,19.358963549137115L51.29578125,21.869130313396454L51.3636328125,26.17266896367073L51.431484375000004,23.622135177254677L51.702890625,26.19659113883972L51.906445312500004,23.33435694873333L51.974296875,27.218136593699455L52.11,31.310661613941193L52.3135546875,21.06698575615883L52.4492578125,23.660550445318222L52.788515625,16.01393397152424L52.992070312500005,15.800098210573196L53.195625,18.662622526288033L53.331328125,19.289676278829575L53.5348828125,19.54530331492424L53.602734375000004,15.363775670528412L53.7384375,23.233314111828804L53.8062890625,24.0726211220026L53.8062890625,20.716936022043228L54.00984375,26.443830907344818L54.3491015625,23.57595245540142L54.959765625,38.396452099084854L55.027617187500006,37.660086929798126L55.434726562499996,53.92713966965675L55.63828125,27.997756853699684L55.706132812499995,23.093645006418228L55.773984375,19.39538750052452L55.841835937499994,22.03988242149353L55.9096875,45.25797548890114L56.316796874999994,25.491295784711838L56.4525,39.22068576514721L56.588203125,43.855020359158516L56.656054687499996,44.85259088873863L56.791757812499995,46.811973966658115L56.9274609375,42.019778072834015L56.9274609375,34.26417987048626L57.0631640625,24.228761449456215L57.266718749999995,27.64204967021942L58.1487890625,40.54237934947014L58.2844921875,44.51425827294588L58.4201953125,36.16599279642105L58.4201953125,30.96054594218731L58.6916015625,47.78374309837818L58.9630078125,47.87421613186598L59.0987109375,36.437207490205765L59.2344140625,44.37678489089012L59.43796875,39.86179742217064L59.573671875,32.87144507467747L59.845078125,40.56553664803505L59.98078125,38.85194930434227L60.0486328125,45.41243440657854L60.0486328125,44.63204926997423L60.116484375,36.00468295812607L60.1843359375,32.759667590260506L60.387890625000004,53.40214419364929L60.52359375,30.423338815569878L60.5914453125,36.98393601179123L60.795,33.86180202662945L60.795,34.540827825665474L60.862851562500005,40.67180174589157L60.998554687500004,44.696661561727524L61.1342578125,48.36582078784704L61.2699609375,48.51811695098877L61.3378125,54.83556251227856L61.3378125,51.46227206289768L62.15203125,68.9359572082758L62.287734375,71.96705769002438L63.37335937500001,62.33475561439991L63.5769140625,66.82721219211817L63.644765625,66.42765647917986L63.84832031249999,72.90014120936394L64.11972656249999,68.05198404192924L64.32328125,65.28778593242168L64.458984375,63.6961040943861L64.6625390625,71.9046411216259L64.730390625,61.273858577013016L64.9339453125,63.3367967158556L65.001796875,65.44763854891062L65.4767578125,44.153045296669006L65.544609375,70.74628166109324L65.8838671875,47.85028736293316L65.95171875,46.956680707633495L66.29097656249999,63.24130582809448L66.4266796875,51.29063639044762L66.5623828125,49.753379479050636L66.8337890625,62.04766973108053L66.901640625,61.58399625867605L67.1051953125,59.72472629696131L67.1051953125,58.35711374133825L67.30875,52.181809946894646L67.715859375,67.72530920058489L67.9194140625,61.6730582267046L67.987265625,46.68270982056856L68.32652343749999,58.11808320879936L68.394375,65.84873060882092L68.66578125,84.09467078000307L69.072890625,66.86019419878721L69.344296875,67.15176384150982L69.75140625,69.58000968396664L69.95496093749999,72.23193577677011L70.0906640625,64.8514172360301L70.158515625,71.52286219596863L70.29421875,81.61544854938984L70.429921875,81.90020683407784L70.4977734375,72.76718455553055L70.6334765625,72.93008349090815L70.701328125,80.98371322453022L70.972734375,75.18528918921947L71.17628906249999,87.51548248529434L71.3119921875,80.70903021097183L71.37984375,80.36322026699781L71.7191015625,82.42946188151836L71.85480468749999,77.4459743052721L72.32976562500001,85.31091029942036L73.07613281249999,75.62417670339346L73.143984375,77.83462393283844L73.27968750000001,83.27490768581629L73.27968750000001,84.2339310720563L73.34753906249999,79.95673450827599L73.95820312500001,81.26863635331392L74.3653125,73.54014511406422L74.3653125,74.0972785949707L74.5688671875,82.29137527942657L74.63671875,85.55374543368816L74.8402734375,86.20246629416943L75.72234375000001,82.04153097420931L75.7901953125,83.01656401902437L76.12945312500001,85.21967898309231L76.4687109375,85.05352932214737L76.6044140625,83.29362738132477L76.672265625,83.34568514674902L77.35078125,93.50545535981655L77.5543359375,94.01040579378605L77.8257421875,95.72907692939043L78.029296875,92.42103177309036L78.36855468750001,91.58689427375793L78.572109375,93.55353708565235L78.6399609375,88.65429802983999L78.9113671875,90.76961702853441L79.0470703125,84.78057387471199L79.114921875,88.53208261728287L79.250625,87.67546038329601L79.250625,88.1967765390873L79.8612890625,93.09220439940691L80.4041015625,92.3831967562437L80.8790625,96.5131611675024L81.014765625,97.50905688107014L81.014765625,97.26392052322626L81.0826171875,92.75688513368368L81.15046875,90.84590687602758L81.8968359375,93.0038281828165L82.0325390625,91.58574695885181L82.1682421875,91.68924267590046L82.3039453125,91.83202403783798L82.371796875,90.40779742598534L82.5075,89.06161460280418L82.643203125,90.19168681651354L82.77890624999999,90.8585009649396L83.593125,96.39970886707306L83.66097656250001,90.901452742517L84.000234375,93.62563329935074L84.271640625,94.86299264431L84.33949218750001,93.12556225061417L84.40734375,94.64773263037205L84.4751953125,95.89445511996746L84.814453125,94.84122662991285L85.085859375,94.51352316141129L85.5608203125,95.28666834533215L85.628671875,96.7409757077694L85.69652343749999,97.96378920972347L86.5107421875,94.45328253507614L86.57859375,95.93481554836035L86.64644531249999,92.5347148552537L87.12140625,92.09884069114923L87.12140625,91.94999966025352L87.4606640625,96.57591401785612L87.66421875,94.60310603678226L87.79992187500001,95.2639462351799L88.07132812500001,95.80816253274679L88.342734375,97.03738517314196L88.342734375,97.14184357970953L88.5462890625,97.55728366971016L88.81769531249999,95.04720921814442L89.08910156249999,91.27180467545986L89.156953125,85.8768002986908L89.29265625000001,92.55617096275091L89.428359375,91.09838209301233L89.5640625,94.55104827135801L89.699765625,95.98837669193745L89.83546875,98.59582784771919L89.97117187500001,97.40666891634464L90.24257812500001,96.80604956299067L90.513984375,90.39418789744377L90.6496875,92.69669066369534L90.7175390625,93.50892367959023L90.9889453125,92.00928419083357L91.26035156249999,92.48148339986801L91.3960546875,91.85818149894476L91.46390625000001,92.06747415661812L91.46390625000001,91.26418228447437L91.5317578125,91.82991403341293L91.6674609375,90.7715490013361L91.87101562500001,94.81083597242832L92.21027343749999,95.38730236887932L92.54953125,96.60348254442215L92.68523437500001,95.80479311943054L92.7530859375,93.9118290245533L92.82093750000001,92.1801417991519L93.0244921875,90.28057734668255L93.09234375000001,89.00362904369831L93.1601953125,91.58223907649517L93.1601953125,90.41022393107414L93.36375,90.31706723570824L93.8387109375,93.50648398697376L94.1101171875,92.50944095849991L94.313671875,91.54746356606483L94.585078125,92.089365452528L94.585078125,92.92585692554712L94.9243359375,95.22724534571171L95.12789062499999,89.18160791695118L95.535,91.97402733564377L95.8742578125,93.65869443118572L96.0099609375,93.0316934287548L96.34921874999999,93.32335538417101L96.484921875,92.05629113316536L96.62062499999999,90.03890271484852L96.756328125,87.84407611191273L97.2312890625,87.74338933825493L97.29914062499999,90.7739755064249L97.50269531250001,96.1585881114006L97.57054687499999,93.97806338220835L97.57054687499999,94.56487539410591L98.72402343750001,91.17491590976715L98.927578125,95.81426835805178L99.198984375,99.23101830482483L99.40253906250001,100.06667896360159L99.5382421875,99.82105796411633L99.60609375,100.20134999603033L99.67394531250001,101.35500480607152L99.8775,97.52421594411135L99.94535156250001,95.26149335503578L100.013203125,96.79613913595676L100.14890625,94.68780952692032L100.62386718750001,94.8089897185564L100.69171874999999,94.87632523477077L101.098828125,99.13128762692213L101.16667968750001,99.74663085490465L101.16667968750001,100.54849188029766L101.641640625,99.04343891143799L101.77734375,100.84370128065348L101.913046875,97.60211466997862L102.04875,96.8133092969656L102.184453125,96.23829352855682L102.32015625,95.22574196755886L102.5915625,96.36559932678938L102.65941406249999,96.53152479976416L102.7951171875,97.39780689775944L102.86296875000001,101.5510802641511L102.998671875,97.39290773123503L103.134375,101.162651527673L103.81289062500001,100.1046194806695L104.22,94.74119263887405L104.22,93.19541658461094L104.355703125,92.58614621311426L104.355703125,92.98341389000416L104.4235546875,98.93470774590969L104.49140625,98.15541058033705L104.627109375,101.25989965349436L104.76281250000001,100.38507203757763L104.9663671875,99.8215393088758L105.03421875000001,100.85738663747907L105.5091796875,97.0454625338316L105.6448828125,97.81143370270729L105.9162890625,98.11381052434444L105.9162890625,97.1486681252718L106.526953125,103.25744413957L106.66265625,102.05686810612679L106.66265625,102.68738358467817L106.798359375,103.70130005478859L106.8662109375,104.54366657137871L107.069765625,104.75759464502335L107.341171875,103.90336594730616L107.476875,100.95008836314082L107.5447265625,95.2808526456356L107.612578125,95.36513413488865L107.74828125,90.03927855938673L108.0875390625,101.71406491845846L108.15539062500001,96.8567753881216L108.22324218749999,102.02815556153655L108.29109375,100.93929766863585L108.42679687500001,104.21361572295427L108.4946484375,102.48995310813189L108.7660546875,100.3701635375619L108.9017578125,103.10489411652088L109.37671875000001,97.45190213620663L109.512421875,98.61905108392239L109.5802734375,98.68674925714731L109.78382812500001,101.42622734606266L109.78382812500001,101.59850261360407L109.8516796875,99.69934697449207L109.9873828125,101.51202869787812L110.05523437500001,100.36632926389575L110.1230859375,98.82120928913355L110.1230859375,98.86042240262032L110.3944921875,101.51164296269417L110.46234374999999,98.5206061899662L110.6658984375,103.44140685349703L111.2765625,99.84961225837469L111.6158203125,101.86767324060202L111.819375,101.18702207878232L112.0229296875,97.17468711733818L112.1586328125,96.36863245815039L112.226484375,95.47671380639076L112.5657421875,103.0842853076756L112.63359374999999,102.95308259502053L112.7014453125,103.18715132027864L113.1085546875,100.00327333062887L113.4478125,99.7850461229682L113.7870703125,96.98615162819624L114.3298828125,91.79289664328098L114.940546875,106.39023035019636L115.0083984375,103.74564971029758L115.07625,103.17033062875271L115.34765625,100.70315520465374L115.41550781250001,102.05475150793791L115.5512109375,99.87340255826712L115.89046875,100.90253084152937L116.161875,102.21772297471762L116.161875,102.16605094447732L116.568984375,99.28502123057842L116.840390625,101.44169301912189L117.0439453125,103.66621793434024L117.0439453125,104.1036317422986L117.111796875,104.80565988644958L117.1796484375,105.21194123849273L117.383203125,103.20902942866087L118.197421875,95.81374085694551L118.26527343750001,99.9593258947134L118.60453125,100.73605149239302L118.6723828125,102.26592009142041L118.8080859375,101.57540465891361L118.8080859375,100.24000923335552L119.283046875,95.82661847770214L119.4866015625,96.98417349904776L119.69015625,92.75037708878517L119.7580078125,98.65747953951359L119.82585937500001,100.11157590150833L119.89371093749999,104.31199467927217L120.3008203125,103.2008993178606L120.4365234375,104.97017759084702L120.504375,103.16577433794737L120.640078125,104.86625657603145L120.911484375,97.06170297414064L120.9793359375,100.30489186942577L121.31859375,100.38784801214933L121.3864453125,101.9620365947485L121.79355468749999,97.71978697925806L121.79355468749999,97.37318578362465L121.86140625,100.38988548517227L121.99710937500001,97.86556850373745L122.1328125,100.7693697810173L122.3363671875,100.32104988768697L122.8791796875,98.31794685870409L123.082734375,96.14890846610069L123.1505859375,96.28688956797123L123.4219921875,99.50204837322235L123.625546875,97.96604427695274L123.8291015625,101.01269615069032L123.96480468749999,102.91762133315206L124.6433203125,93.25177348405123L124.7790234375,98.36300204694271L124.84687500000001,100.17915868386626L124.982578125,99.74173168838024L125.18613281249999,100.6285039074719L125.5932421875,99.99013195931911L125.8646484375,92.6867736428976L126.33960937500001,103.99682925269008L126.74671875000001,103.61943847686052L126.882421875,102.21424806118011L127.0859765625,99.20901491492987L127.3573828125,92.11156006157398L127.3573828125,90.79543161392212L127.42523437499999,96.95957216620445L127.42523437499999,97.32249292731285L127.7644921875,94.6693601757288L128.510859375,101.77211971208453L128.5787109375,98.27095310389996L128.5787109375,97.66029144823551L128.8501171875,98.23462146520615L129.18937499999998,100.40321807563305L129.2572265625,102.89365300163627L129.6643359375,97.36504907906055L129.73218749999998,98.26134599000216L129.8000390625,97.36569526791573L129.867890625,96.08763261884451L129.9357421875,96.34715656936169L130.00359375,96.23111291974783L130.6142578125,102.20782243832946L130.8856640625,96.85397963225842L131.29277343750002,94.88075624406338L131.360625,94.31356067955494L131.63203124999998,105.73892473429441L131.63203124999998,106.26172448694706L131.8355859375,106.58667835593224L131.9712890625,105.3128554970026L132.17484375,105.94265884906054L132.24269531250002,105.41240484640002L132.310546875,101.7355968542397L132.853359375,91.46862852573395L132.9212109375,94.91906601190567L132.9890625,93.01059338450432L132.9890625,97.99557115137577L133.396171875,107.04683735221624L134.0068359375,106.38524546474218L134.5496484375,96.86210314929485L134.8210546875,94.8693820014596L134.8210546875,95.6206424832344L134.9567578125,96.6189317330718L135.4995703125,103.80374736338854L135.63527343750002,106.55835814028978L135.77097656249998,102.72807370126247L135.838828125,104.60517320036888L135.9066796875,105.72832855582237L135.97453125,105.885965667665L136.0423828125,103.37841003388166L136.17808593750001,102.62088547647L136.2459375,102.79543229565024L136.5851953125,96.01229886710644L136.7208984375,98.10233737528324L136.9923046875,97.55816064029932L137.06015625,99.49136647582054L137.1280078125,103.41976282373071L137.3994140625,105.35314009711146L137.87437500000001,104.73766829073429L137.9422265625,104.55894102528691L138.01007812499998,103.5435112863779L138.07792968750002,101.86579731479287L138.6207421875,101.34364045411348L139.0278515625,101.61079009249806L139.8420703125,98.60019291937351L140.31703125,103.58318926021457L140.3848828125,102.49787221848965L140.5884375,100.71885825321078L140.5884375,98.97516708076L140.6562890625,98.02972025424242L140.7919921875,90.22608648240566L140.9276953125,97.7646839171648L141.0633984375,96.09986405074596L141.13125,94.82734675705433L141.67406250000002,102.35969330370426L142.081171875,96.32779727876186L142.2847265625,94.5112878754735L142.35257812499998,93.60766529291868L142.5561328125,93.23470222949982L142.6918359375,99.95378053933382L143.5060546875,94.23334094882011L143.57390625,96.91364000737667L143.8453125,99.66583416983485L143.9131640625,96.75787552446127L143.981015625,97.69759237021208L144.0488671875,99.84682309627533L144.0488671875,98.84039054811001L144.7273828125,95.05305129289627L144.9309375,97.41783875226974L145.20234375,93.1433390378952L145.2701953125,90.79303807765245L145.338046875,86.93704455345869L145.609453125,90.62458059936762L146.01656250000002,94.399991735816L146.0844140625,96.10209274291992L146.28796875,87.06209528446198L146.55937500000002,85.0844804495573L146.7629296875,89.22429594397545L146.83078125,93.08653376251459L146.966484375,91.33084523677826L147.1700390625,94.95017538964748L147.37359375,81.21816768497229L147.780703125,99.95741700008512L147.91640625000002,102.62453842163086L148.39136718749998,97.41891353577375L148.45921875000002,99.52271322906017L148.5270703125,102.55465111881495L148.59492187499998,104.14539004862309L148.7984765625,105.28030867874622L149.3412890625,106.06077294051647L149.54484375,106.97433891892433L150.15550781250002,106.12104323878884L150.29121093749998,104.3874800875783L150.35906250000002,106.8230450078845L150.5626171875,102.68125138431787L150.766171875,103.91393245384097L150.90187500000002,104.08972879126668L150.9697265625,103.39354931563139L151.17328125,105.30963444337249L151.2411328125,106.62753331661224L151.44468750000001,105.05048304051161L151.6482421875,105.93307811021805L151.851796875,106.46775982528925L151.9875,101.78229718655348L152.19105468749999,105.04912472516298L152.5303125,99.73250371590257L152.59816406250002,101.34629774093628L152.937421875,105.00902475044131L153.07312499999998,106.705989215523L153.14097656250001,105.8066591732204L153.2766796875,105.40860683843493L153.8194921875,104.74247844144702L153.88734374999999,105.78245016932487L154.0908984375,102.15690869092941L154.2266015625,103.20388629287481L154.294453125,102.76464601233602L154.7694140625,106.50331010296941L155.17652343749998,104.66166856884956L155.380078125,106.17575169727206L155.7871875,108.07330505177379L155.7871875,108.09104557335377L155.9907421875,105.1090092882514L156.05859375,105.72245351225138L156.5335546875,104.61285493522882L156.6692578125,105.68797472119331L156.73710937500002,105.84151710569859L156.8049609375,107.29829712957144L156.87281249999998,107.5320988073945L157.008515625,108.71894332766533L157.551328125,107.41973777487874L157.9584375,106.87948103249073L157.9584375,106.43172490596771L158.1619921875,106.58419250696898L158.4333984375,107.52177297323942L159.2476171875,105.12582668289542L159.451171875,107.90971377119422L159.5190234375,107.7627124004066L160.19753906250003,106.42672683298588L160.3332421875,103.6205297447741L160.4689453125,104.60317528992891L160.4689453125,104.0730828344822L160.536796875,102.07660653814673L160.74035156250002,104.89419105648994L160.808203125,106.46316397190094L160.8760546875,108.93179002404213L161.21531249999998,107.91064678877592L161.4188671875,106.6160502769053L161.62242187500001,109.4403934031725L161.893828125,107.12978030741215L162.02953125,101.6525846645236L162.165234375,101.62220719456673L162.57234375,103.44064197689295L162.6401953125,101.50659873336554L162.7758984375,101.02916737273335L163.1830078125,101.56769325211644L163.31871093750001,97.97217647731304L163.45441406249998,99.42097145318985L163.52226562500002,100.15888945385814L163.8615234375,99.63303349167109L163.929375,97.42104991525412L163.99722656249997,99.32138583809137L164.4721875,99.24155513942242L165.015,91.41556191444397L165.150703125,106.54708280414343L165.42210937500002,107.12505257874727L166.236328125,84.58732384443283L166.3041796875,88.0450935959816L166.3041796875,87.80064958333969L166.5755859375,99.12760830670595L166.91484375,98.49998089671135L167.18625,93.25625064969063L167.3898046875,97.10077102482319L167.5255078125,96.91629729419947L167.9326171875,99.24596636742353L168.136171875,102.5245143212378L168.3397265625,106.66381220519543L168.950390625,108.64544923603535L169.08609375,109.60896297544241L169.4253515625,102.69117499887943L169.62890625,102.21881753951311L169.764609375,103.45411303639412L169.9003125,101.89067228883505L169.9681640625,101.90680722892284L170.307421875,105.28760467842221L170.3752734375,107.17152542620897L170.71453125,112.39732722938061L170.7823828125,110.28531830012798L170.85023437499999,111.07390278205276L171.0537890625,110.13988624513149L171.1894921875,112.3561227992177L171.1894921875,112.17776148766279L171.25734375,112.79021664708853L171.46089843750002,111.12326699495316L172.207265625,99.88978146761656L172.750078125,111.20124814286828L172.9536328125,110.32627216726542L172.9536328125,109.68144162744284L173.021484375,110.60131124407053L173.29289062499998,107.83216121792793L175.26058593750003,110.86800591275096L175.73554687499998,112.00347512215376L175.80339843750002,112.46388138458133L176.14265625000002,109.94719009101391L176.2105078125,107.0770005248487L176.27835937499998,113.51532626152039L176.34621093750002,112.66474061831832L176.4140625,110.41426594555378L176.4819140625,113.83209726959467L176.549765625,112.33198302984238L177.2961328125,111.00558809190989L177.4996875,107.68994032591581L177.5675390625,109.23633289709687L177.70324218750002,112.3086476996541L177.8389453125,112.6926948800683L178.2460546875,109.31227986887097L178.51746093749998,114.20334265753627L178.6531640625,112.56408351659775L178.6531640625,112.71825560554862L178.992421875,112.68127118423581L179.1959765625,111.91150530427694L179.7387890625,109.35608553886414L179.94234375000002,110.60806325823069L180.07804687499998,110.52125635743141L180.349453125,101.19972826167941L180.41730468749998,97.15772136300802L180.7565625,109.73918651416898L180.892265625,111.5300132073462L181.0958203125,110.12055332958698L181.2315234375,111.24248883873224L181.435078125,104.89837150275707L181.77433593749998,94.87827039510012L181.977890625,112.65332351624966L182.11359375,114.80149594321847L182.4528515625,116.35261953994632L182.92781250000002,111.34301406517625L183.19921875,105.13093025609851L183.2670703125,107.04138760641217L183.334921875,98.32618246972561L183.4027734375,102.17147431522608L183.5384765625,96.09526819735765L183.5384765625,98.32131627202034L184.21699218749998,111.83509347215295L184.21699218749998,110.74984896183014L184.28484375000002,109.15670660510659L184.4883984375,108.09885918349028L184.62410156250002,106.67891851812601L185.506171875,114.59592216834426L185.7097265625,116.53730427101254L185.8454296875,111.18715067580342L185.9811328125,110.80853675678372L186.2525390625,106.20056732743979L186.320390625,107.58493134006858L186.863203125,115.2744864039123L186.9310546875,116.304672986269L187.54171874999997,117.97849663719535L187.6095703125,117.20625809580088L187.677421875,118.07251711562276L187.948828125,115.98846904188395L188.0166796875,117.75446362048388L188.2880859375,114.9007683545351L188.35593749999998,111.93195586279035L188.35593749999998,109.35293701663613L188.8308984375,106.35416905581951L188.89874999999998,108.41725225746632L189.2380078125,113.18954817205667L189.305859375,110.91548430919647L189.71296875,107.51026026159525L189.7808203125,112.55923710018396L189.848671875,113.45306794345379L189.9165234375,115.08438819274306L190.32363281250002,115.91198138147593L190.934296875,100.94967625290155L191.40925781250002,116.00997789949179L191.6128125,115.609749622643L191.88421875,117.70007166266441L192.155625,101.86957224458456L192.291328125,96.7156292796135L192.4948828125,109.06546869501472L192.56273437500002,112.53005310148001L192.56273437500002,113.70920269936323L192.90199218749999,114.96131229400635L193.648359375,95.47101679444313L193.7840625,106.25099643319845L193.9876171875,112.81334427371621L194.191171875,112.66604618355632L194.5304296875,102.12374205887318L194.66613281250002,102.23969669267535L194.8696875,103.13564743101597L195.00539062500002,107.8961372114718L195.0732421875,109.55669420957565L195.3446484375,114.19725991040468L195.4125,117.33834107592702L195.48035156249998,114.85387350618839L195.54820312500001,115.99991251900792L195.6160546875,114.44451286643744L195.68390625,112.54461213201284L195.68390625,111.56569536030293L195.9553125,109.73696441575885L196.02316406249997,97.2484713345766L196.091015625,97.31858282536268L196.091015625,98.18181201070547L196.1588671875,100.71533058956265L196.22671875,105.04593993723392L196.29457031249999,111.81742877885699L196.362421875,110.70714774727821L196.5659765625,115.85386394709349L196.76953125,118.1095312088728L196.83738281249998,117.51939594000578L196.90523437500002,118.08359793573618L197.58374999999998,115.57419604808092L197.6516015625,112.6914123930037L197.85515625,112.58877716213465L198.1265625,111.59157588332891L198.533671875,112.67440377920866L199.14433593750002,114.24388111755252L199.2121875,112.55951403826475L199.755,116.52622345089912L199.89070312500002,115.38078447058797L199.9585546875,115.42994097992778L199.9585546875,115.56792537868023L200.6370703125,108.21312911063433L201.4512890625,113.22412257269025L201.519140625,114.04012722149491L201.9941015625,110.7434958703816L202.2655078125,102.63186409324408L202.5369140625,111.59594095498323L202.5369140625,111.67420893162489L202.6726171875,110.16484364122152L202.74046875,108.97595835104585L202.74046875,108.68448761478066L203.2154296875,103.79777341336012L203.48683593750002,102.04216401278973L204.233203125,110.59824514389038L204.4367578125,108.63734220340848L204.5724609375,115.33117628842592L204.77601562499999,107.38699644058943L205.2509765625,113.68039124831557L205.31882812499998,109.73687869682908L205.31882812499998,109.00158831104636L205.590234375,107.32853942736983L206.2008984375,112.22338044270873L206.7437109375,107.91220951080322L206.947265625,105.46442634612322L207.1508203125,105.12109565734863L207.1508203125,106.12265871092677L207.354375,105.3835538327694L207.82933593750002,108.07775254547596L207.8971875,109.75194215029478L208.1007421875,105.76236226782203L208.16859375,108.7511868327856L208.9828125,108.18772663548589L209.118515625,107.95947360992432L209.5934765625,113.11395396664739L209.72917968750002,112.33181488886476L210.33984375,117.74934685975313L210.61125,113.84782339632511L210.746953125,111.87900464236736L211.3576171875,113.18226206302643L211.4933203125,117.44750413298607L211.4933203125,117.73345259204507L211.56117187499999,112.72800448536873L211.62902343750002,115.96850312501192L211.696875,117.37011642381549L211.832578125,113.29726389795542L211.832578125,112.73750280216336L212.2396875,104.52772285044193L212.44324218749998,103.15851460397243L212.5789453125,109.06701493263245L213.3253125,109.39432277530432L213.80027343749998,108.24403408169746L214.0716796875,108.33748090267181L214.34308593749998,114.94526307284832L214.68234375,115.42142513394356L214.7501953125,115.40881456062198L215.22515625,102.07503392547369L215.360859375,106.56683112680912L215.70011718749998,99.36227376759052L215.76796875000002,102.25597339868546L215.8358203125,107.74155301228166L216.44648437499998,105.19147089868784L216.5821875,103.20911185070872L216.717890625,113.52966110408306L216.989296875,101.68619967252016L217.1928515625,97.9240156263113L217.260703125,108.72245450690389L217.3285546875,110.39587923511863L217.5999609375,115.3454649746418L217.803515625,115.46913760900497L217.93921875,112.84865717589855L218.4141796875,110.3184585571289L218.48203125,112.42844320088625L218.54988281250002,105.34323296695948L218.68558593749998,111.30243604257703L219.02484375,104.21096173301339L219.2283984375,108.80607332289219L219.6355078125,108.54005451500416L219.974765625,112.13609879091382L220.1783203125,112.04942376539111L220.1783203125,111.8802970200777L220.3140234375,112.27366448566318L220.517578125,106.99663243442774L220.7211328125,108.64564045518637L220.92468749999998,100.31883767992258L220.99253906250001,104.33135067299008L221.060390625,109.06282459571958L221.46749999999997,113.37986397743225L221.603203125,110.36037511378527L221.874609375,109.89757201820612L222.0103125,111.91725176945329L222.146015625,113.30455000698566L222.34957031250002,112.34869822114706L222.48527343749998,110.09673006087542L222.7566796875,111.54474037885666L222.89238281250002,115.41737326607108L222.960234375,116.29438012093306L223.02808593749998,115.2772129252553L223.0959375,116.01344621926546L223.36734374999997,109.89082659780979L223.4351953125,112.05624501407146L223.4351953125,110.90593324229121L223.63875,109.48831687867641L224.045859375,113.60768511146307L224.24941406250002,116.14229495823383L224.5208203125,107.29442659020424L224.58867187500002,102.82536468654871L224.92792968749998,113.46220690011978L224.99578125,114.29187712445855L225.4707421875,116.0612114444375L225.8778515625,115.46267572045326L225.945703125,115.28667167946696L226.08140625,115.12342657148838L226.14925781250003,111.09740955010056L226.48851562500002,111.8445258513093L226.5563671875,104.92581145092845L226.82777343749999,105.27747995406389L227.302734375,119.29638891667128L227.70984375,117.7432542219758L227.98125,113.00546347349882L228.04910156250003,105.20476392656565L228.1848046875,101.21375979110599L228.659765625,117.370327424258L229.06687499999998,116.55081159621477L229.2704296875,115.725595459342L229.5418359375,115.67306953668594L229.88109375,113.76719485223293L229.94894531249997,108.40693961083889L230.1525,110.54734128713608L230.288203125,107.37592880800366L230.4917578125,114.17626206949353L230.559609375,114.57659914344549L230.8988671875,107.28965270519257L230.96671874999998,113.8429934643209L231.50953124999998,114.9873708486557L231.645234375,113.61636909842491L231.84878906249997,108.5649459734559L232.188046875,113.92797718942165L232.2558984375,110.53191187977791L232.66300781249998,106.74271977692842L232.7987109375,105.08097260445356L232.8665625,108.04482988268137L233.07011718750002,113.31748037785292L233.40937499999998,107.84995119273663L233.68078125,112.35444798320532L233.74863281249998,110.7395560964942L233.81648437500002,114.3968663290143L233.9521875,113.99684245884418L234.0200390625,116.35076998919249L234.2914453125,106.6960095539689L234.63070312500003,106.33039853721857L234.6985546875,106.8994337618351L234.96996093750002,112.12268048152328L235.0378125,109.96024904027581L235.17351562500002,101.10838155448437L235.17351562500002,106.8990842923522L235.85203125,113.31982116401196L235.987734375,107.02952212840319L236.0555859375,109.46855866536498L236.1234375,106.57422932982445L236.1912890625,106.8486024364829L236.53054687500003,110.408535964787L237.1412109375,99.32095064967871L237.48046875,112.25909226760268L237.8197265625,111.99501202628016L237.95542968750001,114.02520553395152L238.0911328125,105.34219115227461L238.158984375,105.88520079106092L238.2946875,98.96128061413765L238.4982421875,116.04300606250763L238.4982421875,118.54793078452349L238.56609375,119.75844362005591L238.6339453125,120.57741216570139L238.7696484375,118.63437832519412L239.24460937499998,117.57516599446535L239.3803125,111.69647607207298L239.516015625,112.2747425660491L240.058828125,114.71782437711954L240.1266796875,112.83900060877204L240.2623828125,116.83692160248756L240.3980859375,107.45099551230669L240.6694921875,101.87311968952417L240.9408984375,116.05803325027227L241.00875,117.72653903067112L241.3480078125,115.4787513166666L241.55156250000002,105.93085601180792L241.6194140625,105.65455093234777L241.82296875,105.78531845659018L241.89082031249998,102.22153087332845L241.958671875,108.86802832782269L242.23007812499998,107.84792031347752L242.36578125,110.10473489016294L242.4336328125,111.93183387815952L242.501484375,105.97359678894281L242.5693359375,111.73651340603828L242.772890625,105.01260846108198L243.044296875,112.49386652559042L243.315703125,115.46147565543652L243.45140625000002,114.53930481523275L243.58710937499998,116.56689378619194L243.7228125,111.5966333001852L244.265625,109.00200042128563L244.6048828125,100.65161834657192L244.6048828125,100.1444458141923L244.672734375,103.7023056037724L244.8762890625,114.65732329711318L244.944140625,115.16831361874938L245.07984375,115.86615801975131L245.35125,114.32134135812521L245.48695312499999,101.80902830511332L245.62265625,106.57606239616871L245.758359375,112.41420067101717L245.9619140625,114.7361880093813L246.36902343749998,109.48898284882307L246.6404296875,114.69522754848003L247.0475390625,108.36966176703572L247.25109375,115.26857509464025L247.92960937499998,113.70550359785557L248.0653125,114.19386412203312L248.201015625,116.0592992529273L248.201015625,115.37435884773731L248.47242187499998,109.52162857353687L249.015234375,109.17207996547222L249.42234375,100.0047239586711L249.7616015625,114.49682778865099L250.03300781250002,115.51797761768103L250.23656250000002,114.79726934060454L250.9829296875,115.1130084246397" style="fill: none;" fill="none"></path></g></g></g></g></g></g><g transform="translate(58, 177)" clip-path="url(#clip_1)"><clipPath id="clip_1"><rect width="271" height="23"></rect></clipPath><g><g><line x1="0" y1="0" x2="0" y2="5" style="visibility: inherit;" fill="rgb(0, 0, 0)" stroke="rgb(204, 204, 204)" stroke-width="1px"></line><line x1="33.92578125" y1="0" x2="33.92578125" y2="5" style="visibility: inherit;" fill="rgb(0, 0, 0)" stroke="rgb(204, 204, 204)" stroke-width="1px"></line><line x1="67.8515625" y1="0" x2="67.8515625" y2="5" style="visibility: inherit;" fill="rgb(0, 0, 0)" stroke="rgb(204, 204, 204)" stroke-width="1px"></line><line x1="101.77734375" y1="0" x2="101.77734375" y2="5" style="visibility: inherit;" fill="rgb(0, 0, 0)" stroke="rgb(204, 204, 204)" stroke-width="1px"></line><line x1="135.703125" y1="0" x2="135.703125" y2="5" style="visibility: inherit;" fill="rgb(0, 0, 0)" stroke="rgb(204, 204, 204)" stroke-width="1px"></line><line x1="169.62890625" y1="0" x2="169.62890625" y2="5" style="visibility: inherit;" fill="rgb(0, 0, 0)" stroke="rgb(204, 204, 204)" stroke-width="1px"></line><line x1="203.5546875" y1="0" x2="203.5546875" y2="5" style="visibility: inherit;" fill="rgb(0, 0, 0)" stroke="rgb(204, 204, 204)" stroke-width="1px"></line><line x1="237.48046875" y1="0" x2="237.48046875" y2="5" style="visibility: inherit;" fill="rgb(0, 0, 0)" stroke="rgb(204, 204, 204)" stroke-width="1px"></line><line x1="271.40625" y1="0" x2="271.40625" y2="5" style="visibility: inherit;" fill="rgb(0, 0, 0)" stroke="rgb(204, 204, 204)" stroke-width="1px"></line></g><g transform="translate(0, 8)"><text x="0" y="0" dx="0em" dy="0.95em" style="text-anchor: middle; visibility: hidden; font-family: &quot;Helvetica Neue&quot;, sans-serif; font-size: 12px; font-weight: 200;" fill="rgb(50, 49, 63)" stroke="none" stroke-width="1px">-500</text><text x="33.92578125" y="0" dx="0em" dy="0.95em" style="text-anchor: middle; visibility: inherit; font-family: &quot;Helvetica Neue&quot;, sans-serif; font-size: 12px; font-weight: 200;" fill="rgb(50, 49, 63)" stroke="none" stroke-width="1px">0</text><text x="67.8515625" y="0" dx="0em" dy="0.95em" style="text-anchor: middle; visibility: inherit; font-family: &quot;Helvetica Neue&quot;, sans-serif; font-size: 12px; font-weight: 200;" fill="rgb(50, 49, 63)" stroke="none" stroke-width="1px">500</text><text x="101.77734375" y="0" dx="0em" dy="0.95em" style="text-anchor: middle; visibility: inherit; font-family: &quot;Helvetica Neue&quot;, sans-serif; font-size: 12px; font-weight: 200;" fill="rgb(50, 49, 63)" stroke="none" stroke-width="1px">1k</text><text x="135.703125" y="0" dx="0em" dy="0.95em" style="text-anchor: middle; visibility: inherit; font-family: &quot;Helvetica Neue&quot;, sans-serif; font-size: 12px; font-weight: 200;" fill="rgb(50, 49, 63)" stroke="none" stroke-width="1px">1.5k</text><text x="169.62890625" y="0" dx="0em" dy="0.95em" style="text-anchor: middle; visibility: inherit; font-family: &quot;Helvetica Neue&quot;, sans-serif; font-size: 12px; font-weight: 200;" fill="rgb(50, 49, 63)" stroke="none" stroke-width="1px">2k</text><text x="203.5546875" y="0" dx="0em" dy="0.95em" style="text-anchor: middle; visibility: inherit; font-family: &quot;Helvetica Neue&quot;, sans-serif; font-size: 12px; font-weight: 200;" fill="rgb(50, 49, 63)" stroke="none" stroke-width="1px">2.5k</text><text x="237.48046875" y="0" dx="0em" dy="0.95em" style="text-anchor: middle; visibility: inherit; font-family: &quot;Helvetica Neue&quot;, sans-serif; font-size: 12px; font-weight: 200;" fill="rgb(50, 49, 63)" stroke="none" stroke-width="1px">3k</text><text x="271.40625" y="0" dx="0em" dy="0.95em" style="text-anchor: middle; visibility: hidden; font-family: &quot;Helvetica Neue&quot;, sans-serif; font-size: 12px; font-weight: 200;" fill="rgb(50, 49, 63)" stroke="none" stroke-width="1px">3.5k</text></g><line x1="0" y1="0" x2="271.40625" y2="0" fill="rgb(0, 0, 0)" stroke="rgb(204, 204, 204)" stroke-width="1px"></line></g></g></g></g></svg>